<?xml version="1.0" encoding="UTF-8"?>
<svg xmlns="http://www.w3.org/2000/svg" version="1.1" viewBox="0 0 380.03 349.33">
  <defs>
    <style>
      .cls-1 {
        fill: #1e120d;
      }
    </style>
  </defs>
  <!-- Generator: Adobe Illustrator 28.7.2, SVG Export Plug-In . SVG Version: 1.2.0 Build 154)  -->
  <g>
    <g id="Camada_1">
      <g>
        <g>
          <path d="M201.3,16.67c.73.34,1.44.74,2.2,1.01,13.45,4.75,20.6,16.24,18.88,30.34-1.58,12.93-11.4,22.38-25.2,23.53-11.15.93-24.93-4.91-28.73-20.44-3.39-13.83,3.34-27.56,15.79-32.51,1.68-.67,3.37-1.29,5.06-1.94,4,0,8,0,12,0ZM209.25,44.22c.04-9.27-5.34-15.19-13.91-15.34-8.31-.14-14.56,6.16-14.75,14.84-.19,8.79,5.67,15.04,14.25,15.18,8.81.14,14.38-5.52,14.42-14.68Z"/>
          <path d="M147.3,16.67c7.94,2.46,14.49,6.57,17.56,14.8.17.47.35.94.46,1.42.07.32.04.66.09,1.84-3.39,1.18-7.01,2.44-10.46,3.65-6.25-8.76-11.11-11.07-17.93-8.86-6.6,2.14-10.12,7.46-9.93,14.98.17,6.88,4.12,12.29,10.09,13.84,7.66,1.99,12.5-.33,18.01-9.01,3.54,1.06,7.24,2.16,10.88,3.25-1.91,12.58-14.67,20.39-27.5,18.92-13.61-1.56-23.07-10.72-24.42-23.11-1.62-14.79,5.26-25.95,18.95-30.76.76-.27,1.47-.65,2.21-.98,4,0,8,0,12,0Z"/>
          <path d="M20.3,196.67c6.41-16.75,12.82-33.5,19.36-50.61h14.14c6.35,17.04,12.81,34.38,19.52,52.37h-13.44c-1.32-3.29-2.72-6.78-4.14-10.32h-18.65c-1.36,3.31-2.78,6.78-4.32,10.55h-12.46c0-.67,0-1.33,0-2ZM51.74,176.19c-1.68-4.85-3.21-9.26-4.74-13.67-.34,0-.68,0-1.02.01-1.56,4.38-3.13,8.75-4.88,13.66h10.64Z"/>
          <path d="M295.74,17.77h15.45c4.46,10.79,8.99,21.75,13.93,33.69,4.64-11.9,8.9-22.81,13.15-33.71h16.29v52.58h-11.77v-28.13c-.46-.11-.92-.21-1.38-.32-3.77,9.39-7.54,18.78-11.43,28.44h-10.04c-3.88-9.6-7.82-19.36-11.76-29.12-.32.07-.63.13-.95.2v28.77h-11.49V17.77Z"/>
          <path d="M252.2,70.31c-4.06-10.07-8.03-19.9-11.99-29.72-.24.04-.48.07-.73.11v29.56h-11.49V17.89h15.53c4.39,10.64,8.87,21.46,13.34,32.29.34,0,.67,0,1.01-.01,4.21-10.76,8.41-21.52,12.67-32.4h16.24v52.36h-11.48v-29.71c-.34-.07-.69-.13-1.03-.2-3.96,9.94-7.92,19.88-11.99,30.09h-10.09Z"/>
          <path d="M229.25,109.98v-27.76h12.34v52.15h-12.77c-6.36-10.07-12.82-20.3-19.29-30.53-.32.04-.64.07-.96.11v30.32h-12.19v-52.1h14.5c5.62,9,11.56,18.52,17.5,28.03.29-.07.57-.15.86-.22Z"/>
          <path d="M115.92,262.71v-52.54c9.16-.05,18.14-1.6,26.83,1.13,9.63,3.03,12.45,14.09,5.95,21.77-.61.73-1.27,1.42-2.06,2.29,3.9,3.13,6.97,6.39,6.97,11.67,0,8.41-4.96,14.82-13.62,15.54-7.74.65-15.57.14-24.08.14ZM128.5,252.29c4.45-.13,8.96,1.49,11.71-2.75.89-1.38.73-4.64-.32-5.84-2.99-3.42-7.11-2.43-11.4-1.58v10.16ZM128.66,220.97v9.25c3.69.34,7.4,1.57,9.87-1.73.92-1.22,1.02-4.05.22-5.38-2.24-3.72-6.13-2.13-10.09-2.13Z"/>
          <path d="M105.02,178.03c3.33,6.7,6.54,13.17,10.13,20.39h-13.4c-4.54-5.51-5.3-13.69-10.81-18.85-.59.13-1.18.25-1.77.38v18.65h-12.41v-51.89c.37-.24.78-.74,1.19-.75,7.14-.04,14.32-.53,21.4.12,8.34.76,13.56,5.48,14.88,12.53,1.41,7.54-.68,13.83-7.55,18.02-.41.25-.75.63-1.67,1.41ZM89.49,157.2v10.93c4.32.36,8.57,1.5,11.23-2.33,1.01-1.46,1.03-4.78.03-6.25-2.64-3.89-6.92-2.66-11.26-2.35Z"/>
          <path d="M112.61,262.59h-13.42c-1.35-3.34-2.64-6.53-3.99-9.87h-19c-1.3,3.19-2.59,6.38-3.99,9.81h-13c6.61-17.63,13.04-34.75,19.57-52.18h14.43c6.4,17.24,12.8,34.45,19.4,52.24ZM85.78,225.04c-1.96,5.67-3.55,10.27-5.28,15.29h10.54c-1.74-5.06-3.32-9.66-5.26-15.29Z"/>
          <path d="M176,82.03h11.92c.16,1.97.4,3.57.41,5.18.04,9.16.04,18.33.01,27.49-.02,8.27-2.8,15.17-10.71,18.79-8.32,3.8-16.57,3.31-24.17-2.04-4.5-3.16-6.87-7.93-7.1-13.24-.42-9.81-.21-19.65-.26-29.48,0-1.98,0-3.96,0-6.52h12.46c0,8.38-.02,16.51.01,24.63.01,2.99-.12,6.03.32,8.97.79,5.22,4.08,7.84,8.85,7.57,4.82-.27,7.61-3.15,7.72-8.62.17-8.83.04-17.66.09-26.49.01-1.95.26-3.91.43-6.24Z"/>
          <path d="M160.68,182.26c3.56-.86,6.9-1.66,10.1-2.43,6.67,10.28,13.8,11.83,18.21,4.13-.41-3.37-2.85-4.48-5.81-5.07-3.25-.65-6.58-1.12-9.72-2.14-6.4-2.08-10.52-6.49-11.18-13.3-.65-6.7,2.25-11.99,7.95-15.55,10.73-6.71,25.58-2.62,29.63,8.12.34.89.38,1.9.67,3.42-3.56,1.03-6.98,2.02-10.25,2.97-5.56-8.06-11.6-8.57-15.64-1.6.24,2.91,2.13,4.17,4.84,4.7,3.26.64,6.55,1.18,9.74,2.09,7.52,2.16,12.11,7.69,12.33,14.5.24,7.49-4.07,13.66-11.42,16.38-12.84,4.75-26.92-1.93-29.44-13.98-.1-.46-.01-.97-.01-2.24Z"/>
          <path d="M342.07,250.7v-39.7h12.52v51.5h-51.98v-11.8h39.45Z"/>
          <path d="M77.19,30.99h-39.53v39.47h-12.21V18.86h51.74v12.13Z"/>
          <path d="M144.19,157.72v40.82h-12.49v-40.62h-15.65v-11.98h43.75v11.78h-15.61Z"/>
          <path d="M310.3,82.06v11.6h-15.63v40.53h-12.32v-40.17h-15.53v-11.96h43.48Z"/>
          <path d="M335.81,100.21c3.65-6.46,6.91-12.23,10.29-18.21h13.62c-1.12,2.18-1.84,3.77-2.73,5.26-4.43,7.43-9.04,14.76-13.28,22.3-1.23,2.19-1.91,4.92-2.05,7.45-.3,5.61-.09,11.24-.09,17.28h-12.47c0-4.94-.25-9.55.07-14.13.36-5.21-.97-9.68-3.84-14.04-4.02-6.11-7.59-12.52-11.31-18.82-.89-1.51-1.61-3.11-2.73-5.3h14.2c3.18,5.6,6.51,11.5,10.32,18.21Z"/>
          <path d="M25.29,262.39v-52.02h12.04v40.17h19.7v11.85h-31.74Z"/>
          <path d="M250.32,82.06h11.96v52.17h-11.96v-52.17Z"/>
        </g>
        <g>
          <path class="cls-1" d="M118.27,314.94c-.4,1.04-.96,1.98-1.68,2.81-.72.83-1.58,1.5-2.57,2.01-.99.51-2.07.76-3.24.76-.77,0-1.49-.1-2.16-.3-.12-.03-.2-.09-.24-.21-.04-.11-.04-.24-.02-.37.02-.14.07-.25.15-.34.07-.09.17-.13.3-.13.12.02.25.04.37.04h.37c1.84,0,3.27-.51,4.3-1.53,1.03-1.02,1.54-2.43,1.54-4.25,0-.82-.12-1.64-.37-2.46-.25-.82-.61-1.55-1.08-2.2-.47-.65-1.05-1.17-1.73-1.58-.68-.41-1.46-.61-2.33-.61-.42,0-.83.05-1.23.15-.4.1-.77.21-1.12.34v21.41c0,.1.02.29.07.58.05.29.11.59.17.91.06.32.13.62.21.89.07.27.14.43.19.48.12.13.31.2.56.24.25.04.47.07.67.09.35.03.65.06.89.09.25.04.43.19.56.47.07.12.07.23-.02.32-.09.09-.22.13-.39.13-1.49,0-2.99.01-4.49.04-1.5.02-3.01,0-4.52-.07-.25-.02-.38-.13-.39-.32-.01-.19.11-.3.35-.36.52-.1.93-.21,1.23-.33.3-.12.52-.3.67-.52.15-.22.23-.52.26-.89.02-.37.04-.87.04-1.49v-20.78c0-.37-.04-.67-.13-.89-.09-.22-.2-.39-.33-.5-.14-.11-.29-.19-.47-.22-.17-.04-.35-.07-.52-.09-.3-.05-.59-.11-.88-.17-.29-.06-.49-.23-.62-.5-.07-.12-.07-.24,0-.33.07-.1.21-.15.41-.15h1.97c.4,0,.81.01,1.23.04.4.03.78.03,1.15,0,.37-.02.74-.04,1.12-.04h3.02c1.14,0,2.27.06,3.39.19,1.12.12,2.11.41,2.98.86.87.45,1.58,1.11,2.12,1.99.55.88.82,2.08.82,3.59,0,1.09-.2,2.16-.6,3.2"/>
          <path class="cls-1" d="M153.83,324.84c-.67,1.49-1.58,2.78-2.74,3.87-1.15,1.09-2.5,2-4.04,2.72-1.54.72-3.18,1.28-4.92,1.68-.15.02-.33.05-.54.07-.21.02-.43.04-.67.06-.24.01-.48.02-.73.02h-.56c-1.02,0-2.07-.19-3.17-.56-1.09-.37-2.15-.87-3.16-1.51-1.02-.63-1.98-1.38-2.89-2.25-.91-.87-1.69-1.81-2.36-2.81-.67-1.01-1.21-2.05-1.6-3.15-.4-1.09-.6-2.18-.6-3.28,0-2.19.24-4.12.71-5.81.47-1.69,1.23-3.15,2.27-4.39,1.04-1.24,2.38-2.28,4.02-3.11,1.64-.83,3.62-1.5,5.96-1.99.35-.08.71-.13,1.1-.17.38-.04.75-.06,1.1-.06,2.33,0,4.37.47,6.11,1.42,1.74.94,3.18,2.16,4.32,3.65,1.14,1.49,1.99,3.16,2.55,5.01.56,1.85.84,3.68.84,5.49,0,1.91-.33,3.61-1.01,5.1M150.37,314.85c-.47-1.6-1.17-3.03-2.1-4.3-.93-1.27-2.07-2.3-3.42-3.09-1.35-.8-2.91-1.19-4.67-1.19-1.66,0-3.13.3-4.41.91-1.28.61-2.36,1.44-3.24,2.49-.88,1.06-1.55,2.29-2.01,3.69-.46,1.4-.69,2.9-.69,4.49s.24,3.23.73,4.84c.48,1.61,1.2,3.07,2.14,4.36.94,1.29,2.1,2.34,3.48,3.15,1.38.81,2.95,1.21,4.71,1.21,1.66,0,3.13-.32,4.39-.95,1.27-.63,2.33-1.48,3.18-2.55.86-1.07,1.51-2.31,1.95-3.74.45-1.43.67-2.92.67-4.49s-.24-3.22-.71-4.82"/>
          <path class="cls-1" d="M187.34,333.26c-.62.15-1.25.22-1.9.22-1.04,0-1.98-.19-2.81-.58-.83-.39-1.6-.89-2.31-1.53-.71-.63-1.37-1.35-1.97-2.14-.61-.79-1.2-1.6-1.77-2.42-.57-.79-1.14-1.57-1.69-2.33-.56-.76-1.14-1.4-1.73-1.92-.45-.4-1-.65-1.66-.74-.66-.1-1.25-.15-1.77-.15h-.67c-.22,0-.43.01-.63.04v6.93c0,.12.02.34.06.63.04.3.09.61.17.95.08.33.15.64.22.91.07.27.15.44.22.48.12.05.29.09.5.11.21.02.38.05.5.07.27.02.55.06.84.11.29.05.54.17.76.37.15.12.19.25.11.37-.08.12-.21.19-.41.19h-4.54c-1.51,0-3.03-.04-4.54-.11-.25-.03-.38-.13-.39-.32-.01-.19.1-.3.35-.35.55-.1.97-.21,1.27-.33.3-.13.51-.3.65-.52.14-.22.22-.53.24-.91s.04-.88.04-1.47v-20.63c0-.42-.05-.76-.15-1-.1-.25-.22-.43-.37-.54-.15-.11-.31-.19-.48-.22-.17-.04-.35-.07-.52-.09-.35-.02-.65-.07-.89-.15-.25-.07-.41-.23-.48-.48-.08-.12-.08-.23,0-.32.07-.09.2-.13.37-.13h3.13c.42.02.82.03,1.19.02.37-.01.76-.02,1.15-.02.22,0,.44,0,.65-.02.21-.01.43-.02.65-.02h1.97c1.04,0,2.07.07,3.07.2,1.01.14,1.94.41,2.79.82.86.41,1.59.99,2.22,1.75.62.76,1.08,1.76,1.38,3,.05.13.08.29.09.49.01.2.02.39.02.56,0,.77-.12,1.54-.37,2.29-.25.76-.57,1.5-.97,2.22-.4.72-.85,1.4-1.36,2.03-.51.63-1.04,1.21-1.58,1.73.4.42.81.93,1.25,1.53.43.6.87,1.19,1.32,1.79.74.99,1.52,2.02,2.33,3.07.81,1.06,1.65,2,2.53,2.83.88.83,1.78,1.49,2.7,1.97.92.48,1.85.65,2.79.5l.22.63c-.57.27-1.17.48-1.79.63M175.85,311.33c-.24-.87-.59-1.64-1.06-2.33-.47-.68-1.06-1.24-1.77-1.68-.71-.43-1.53-.65-2.48-.65-.72,0-1.42.11-2.08.34v12.25c.99.15,2.02.22,3.09.22.42,0,.91-.02,1.45-.07.55-.05.99-.21,1.34-.49.35-.27.64-.6.88-.99.23-.38.43-.8.58-1.25.15-.45.25-.91.32-1.38.06-.47.09-.93.09-1.38,0-.87-.12-1.74-.35-2.61"/>
          <path class="cls-1" d="M216.11,308.11c-.06.68-.17,1.35-.32,1.99-.05.17-.2.26-.45.26-.22,0-.36-.09-.41-.26-.22-1.14-.7-1.9-1.43-2.27-.73-.37-1.62-.56-2.66-.56-.27,0-.52,0-.74.02-.22.01-.46.03-.71.06-.22.02-.48.04-.76.06-.29.01-.53.02-.72.02h-.63c-.2,0-.39-.01-.56-.04v21.15c0,.07.02.25.06.54.04.29.07.58.11.87.04.3.08.57.13.82.05.25.09.39.11.41.25.25.5.4.74.45.25.05.48.09.71.11.35.02.64.06.89.11.25.05.43.2.56.45.07.12.07.23,0,.32-.07.09-.2.13-.37.13-1.52,0-3.02.01-4.52.04-1.5.02-3.01.01-4.53-.04-.25-.02-.38-.12-.41-.3-.03-.17.09-.29.33-.34.52-.1.93-.21,1.23-.32.3-.11.52-.28.67-.5.15-.22.24-.51.28-.86.04-.35.06-.82.06-1.41v-21.71h-5.77c-.72,0-1.35.25-1.9.76-.54.51-.97,1.09-1.26,1.73-.08.15-.22.22-.43.21-.21-.01-.34-.11-.39-.28-.02-.1-.04-.19-.06-.28-.01-.09-.02-.19-.02-.32,0-.45.08-.94.22-1.47.15-.53.31-1.07.48-1.62.07-.22.13-.43.17-.63.04-.2.08-.4.13-.6.05-.12.14-.2.28-.24.13-.04.26-.03.39.02.15.1.36.19.63.28.27.09.56.17.88.24.31.07.61.13.89.17.28.04.5.06.65.06h15.94c.15,0,.34-.03.58-.09.24-.06.45-.12.65-.17.12-.05.27-.08.43-.09.16-.01.3-.03.43-.06.12-.03.24-.01.35.04s.17.14.17.26v.82c0,.7-.03,1.38-.09,2.07"/>
          <path class="cls-1" d="M235.8,332.5c-.06.11-.19.17-.39.17-.65-.02-1.23-.05-1.75-.07-.52-.02-1.1-.04-1.75-.06-.65-.01-1.3-.02-1.97-.02-1.09,0-2.08.02-2.96.06-.88.04-1.41.02-1.58-.06-.1-.05-.15-.12-.15-.22s.02-.2.07-.3c.05-.1.12-.18.22-.24.1-.06.2-.07.3-.02.12.05.35.03.69-.06.33-.09.54-.13.61-.13.27,0,.5-.12.67-.37.17-.25.32-.54.43-.89.11-.35.19-.7.22-1.06.04-.36.06-.66.06-.91v-20.33c0-.75-.24-1.26-.71-1.55-.47-.28-1.03-.46-1.67-.54-.22-.02-.33-.14-.33-.33s.11-.31.33-.33c.72-.05,1.43-.07,2.14-.06.71.01,1.42.02,2.14.02s1.39-.01,2.09-.04c.69-.02,1.4-.01,2.12.04.25.03.38.13.41.32.02.19-.09.3-.33.35-.67.12-1.22.31-1.64.56-.42.25-.63.76-.63,1.53v20.52c0,.12.02.33.08.61.05.29.11.59.19.91.07.32.15.63.24.91.09.29.17.48.24.58.12.05.29.1.48.15.2.05.36.07.48.07.27,0,.55.02.82.06.27.04.52.17.74.39.13.12.15.24.09.35"/>
          <path class="cls-1" d="M269.24,329.65c-.21.87-.5,1.64-.87,2.31-.07.12-.19.19-.33.19-1.56.25-3.13.45-4.71.61-1.57.16-3.17.24-4.79.24-2.03,0-3.91-.33-5.64-.99-1.73-.66-3.21-1.59-4.45-2.79-1.24-1.2-2.22-2.65-2.92-4.32-.71-1.68-1.06-3.53-1.06-5.57,0-2.18.42-4.29,1.25-6.31.83-2.02,2.02-3.82,3.56-5.38.57-.6,1.29-1.09,2.16-1.49.87-.4,1.78-.72,2.76-.97.97-.25,1.94-.42,2.92-.52.98-.1,1.87-.15,2.66-.15.92,0,1.83.06,2.72.17.89.11,1.77.23,2.64.35.65.1,1.29.19,1.94.28.64.09,1.28.15,1.9.2.25,0,.37.11.37.34-.02,1.14-.1,2.28-.22,3.41-.12,1.13-.29,2.25-.48,3.37-.05.2-.2.3-.45.3-.22,0-.36-.1-.41-.3-.17-1.07-.51-2-1.01-2.81-.5-.81-1.11-1.48-1.83-2.03-.72-.55-1.54-.96-2.46-1.23-.92-.27-1.9-.41-2.94-.41-1.71,0-3.26.27-4.64.82-1.38.55-2.56,1.31-3.54,2.29-.98.98-1.74,2.17-2.27,3.57-.54,1.4-.8,2.96-.8,4.67s.32,3.51.95,5.18c.63,1.66,1.52,3.14,2.66,4.43,1.14,1.29,2.49,2.32,4.04,3.09,1.55.77,3.26,1.15,5.12,1.15,1.07,0,1.98-.11,2.74-.34.76-.22,1.42-.56,1.99-1.02.57-.46,1.07-1.03,1.51-1.73.43-.7.87-1.5,1.32-2.42l.82.07c.07.42.11.86.11,1.3,0,.75-.1,1.55-.32,2.42"/>
          <path class="cls-1" d="M303.16,306.41c-.43.27-.65.77-.65,1.49v14.08c0,1.56-.25,3.03-.75,4.39-.49,1.37-1.21,2.56-2.14,3.57-.93,1.02-2.05,1.83-3.37,2.42-1.32.6-2.79.9-4.43.9-1.24,0-2.43-.19-3.56-.58-1.13-.38-2.17-.92-3.11-1.6-.94-.68-1.78-1.5-2.5-2.46s-1.29-1.99-1.71-3.11c-.05-.1-.1-.27-.15-.52-.05-.25-.09-.51-.13-.78-.04-.27-.07-.53-.11-.76-.04-.24-.06-.4-.06-.5v-14.78c0-.4-.05-.77-.15-1.12-.1-.35-.31-.58-.63-.71-.07-.03-.15-.03-.22-.02-.07.01-.19,0-.34-.02-.35-.03-.71-.09-1.08-.19-.37-.1-.58-.29-.63-.56-.02-.1.01-.18.11-.24.1-.06.21-.09.33-.09l1.42.04c1.21.05,2.43.03,3.65-.06,1.22-.09,2.45-.07,3.69.06.25.02.37.14.37.33s-.13.31-.37.33c-.67.07-1.2.24-1.58.48-.39.25-.58.75-.58,1.49v3.99c0,1.32-.01,2.64-.04,3.98-.03,1.34-.03,2.67-.02,3.98.01,1.32.02,2.64.02,3.98,0,1.12.19,2.12.56,3.01.37.89.89,1.66,1.55,2.31.66.64,1.44,1.14,2.35,1.49.91.35,1.89.52,2.96.52s2.06-.18,3-.54c.93-.36,1.74-.86,2.42-1.51.68-.65,1.21-1.43,1.6-2.35.39-.92.58-1.94.58-3.05v-3.95c0-1.29-.01-2.59-.04-3.91v-1.86c0-.67,0-1.35-.02-2.03-.01-.68-.02-1.36-.02-2.03v-1.9c0-.4-.05-.77-.15-1.12-.1-.35-.31-.58-.63-.71-.07-.02-.15-.03-.22-.02-.08.01-.19,0-.33-.02-.35-.02-.71-.08-1.08-.17-.37-.09-.58-.27-.63-.54-.03-.1.01-.18.11-.24.1-.06.21-.09.34-.09,1.34,0,2.67-.02,3.98-.06,1.32-.04,2.65,0,3.98.09l.04.67c-.65.1-1.19.29-1.62.56"/>
          <path class="cls-1" d="M326.66,328.57c-.63.97-1.43,1.8-2.4,2.5-.97.69-2.04,1.23-3.2,1.62-1.17.38-2.28.58-3.35.58-.52,0-1.07-.06-1.64-.17-.57-.11-1.09-.3-1.56-.56-.47-.26-.86-.61-1.17-1.06-.31-.45-.46-.99-.46-1.64,0-.4.04-.77.11-1.12.07-.35.16-.69.26-1.04.05-.27.1-.53.15-.76.05-.23.1-.45.15-.65.02-.1.08-.17.17-.21.09-.04.18-.06.28-.06.12,0,.22.03.3.08.08.05.11.12.11.22l-.04.6c-.05.67.06,1.27.32,1.81.26.53.63.99,1.1,1.36.47.37,1.01.66,1.6.86.6.2,1.22.3,1.86.3.57,0,1.15-.1,1.75-.3.6-.2,1.14-.48,1.62-.86.48-.37.88-.82,1.19-1.34.31-.52.46-1.1.46-1.75s-.15-1.24-.45-1.86c-.3-.62-.69-1.23-1.17-1.84-.48-.61-1.04-1.22-1.66-1.84-.62-.62-1.25-1.25-1.9-1.9v.04c-.72-.7-1.43-1.39-2.14-2.08-.71-.7-1.33-1.4-1.88-2.12-.55-.72-.99-1.44-1.32-2.18-.33-.73-.5-1.48-.5-2.25,0-1.14.33-2.12.99-2.94.66-.82,1.47-1.5,2.44-2.03.97-.53,2.01-.92,3.13-1.17,1.12-.25,2.15-.37,3.09-.37,1.32,0,2.55.16,3.69.48.2.05.3.16.3.33v1.34c0,.67-.02,1.36-.07,2.07-.05.71-.25,1.3-.6,1.77-.13.12-.29.16-.48.11-.2-.05-.3-.16-.3-.34,0-.62-.11-1.18-.32-1.67-.21-.5-.52-.92-.91-1.27-.4-.35-.85-.61-1.36-.8-.51-.19-1.06-.28-1.66-.28s-1.11.1-1.62.3c-.51.2-.96.48-1.34.86-.38.37-.69.81-.91,1.32-.22.51-.34,1.07-.34,1.69s.14,1.26.41,1.83c.27.57.64,1.12,1.1,1.66.46.53.98,1.05,1.56,1.54.58.5,1.17,1.01,1.77,1.53.72.6,1.43,1.21,2.12,1.83.7.62,1.32,1.27,1.86,1.96.55.68.99,1.41,1.32,2.18.33.77.5,1.6.5,2.5,0,1.19-.32,2.27-.95,3.24"/>
        </g>
        <g>
          <path d="M50.9,321.86c0-3.55-.02-4.23-.05-5-.02-.99-.36-1.38-1.06-1.45-.29-.02-.63-.05-.89-.07-.36-.02-.43-.12-.43-.24,0-.19.19-.24.48-.24,1.47,0,2.68.07,3.86.07,1.59,0,3.02-.07,3.96-.07,5.1,0,6.06,2.37,6.06,3.72,0,1.96-1.35,3.21-2.95,4.03,2.54.77,4.69,2.32,4.69,5.24,0,2.68-2.51,5.34-7.32,5.34-.89,0-3.74-.14-4.47-.14-1.06,0-2.2.07-3.5.07-.34,0-.51-.07-.51-.24s.12-.24.48-.24c.31-.02.53-.05.72-.1.44-.07.7-.44.77-1.33.1-1.33.15-2.73.15-5.77v-3.58ZM55.08,325.96c0,1.16-.02,2.85.05,4.08.05.77.15,1.09.63,1.33.53.31,1.11.39,1.59.39,1.26,0,2.75-.87,2.75-3.29,0-1.26-.31-2.68-1.43-3.72-.65-.63-1.5-.87-2.25-.92-.39-.02-.97-.02-1.21,0-.1,0-.15.05-.15.17v1.96ZM55.08,322.12c0,.19.1.22.22.24.39.07,1.18.1,1.52.1.56,0,1.11-.1,1.45-.39.51-.41.8-1.26.8-2.29,0-1.96-.97-3.6-2.87-3.6-.39,0-.68.05-.87.12-.15.05-.24.1-.24.43v5.39Z"/>
          <path d="M71.6,326.86c0-1.3-.27-1.79-.68-2.58-.89-1.64-3.29-5.63-4.11-6.86-.92-1.4-1.18-1.71-1.96-1.96-.15-.05-.44-.1-.63-.12-.24-.02-.36-.12-.36-.27,0-.17.19-.22.48-.22.99,0,2.8.07,3.72.07.41,0,1.93-.07,3.45-.07.27,0,.46.05.46.19,0,.19-.12.24-.48.31-.65.07-.75.31-.75.51,0,.17.07.39.24.7.39.7,3.41,6.06,3.79,6.79,1.47-2.78,2.78-5.19,3.24-6.16.24-.51.39-.92.39-1.23,0-.27-.15-.48-.87-.6-.22-.05-.41-.12-.41-.29,0-.15.15-.22.53-.22.99,0,1.81.07,2.73.07.34,0,2.32-.07,2.78-.07.29,0,.48.05.48.22,0,.19-.17.27-.48.27-.31.02-.65.1-.94.19-.68.27-.92.68-1.35,1.23-.82,1.01-4.28,6.93-4.61,7.95-.36,1.01-.39,1.96-.39,2.29v1.72c0,.39,0,1.38.07,2.39.05.6.1,1.21.99,1.38.44.1.92.1,1.33.15.29.02.39.1.39.27,0,.12-.12.22-.48.22-1.74,0-3.74-.07-4.54-.07-.7,0-2.66.07-3.74.07-.34,0-.48-.1-.48-.27,0-.12.15-.22.43-.22.39-.05.63-.05.85-.12.63-.17.77-.6.82-1.3.07-1.01.1-2.1.1-2.49v-1.86Z"/>
        </g>
      </g>
    </g>
  </g>
</svg>