<?xml version="1.0" encoding="UTF-8"?>
<svg xmlns="http://www.w3.org/2000/svg" version="1.1" viewBox="0 0 935.37 224.13">
  <!-- Generator: Adobe Illustrator 28.7.2, SVG Export Plug-In . SVG Version: 1.2.0 Build 154)  -->
  <g>
    <g id="Layer_1">
      <g>
        <path d="M581.85,61.33s-.04-.09-.05-.1c-.04-.09-.1-.18-.16-.26-.41-.6-1.08-.96-1.8-.96h-6.05c-.78,0-1.5.42-1.9,1.1-.04.06-.09.13-.12.2l-47.54,100.95c-.19.4-.16.87.08,1.24s.65.6,1.09.6h9.78c.5,0,.95-.29,1.17-.74l38.16-80.9h0c.41-.91,1.32-1.55,2.38-1.55s1.97.64,2.38,1.55h0l37.84,80.9c.21.45.67.74,1.17.74h9.86c.44,0,.85-.23,1.09-.6.24-.37.27-.84.08-1.24l-47.47-100.94Z"/>
        <path d="M875.3,162.48l-27.76-100.62s0-.01,0-.02c-.32-1.09-1.28-1.82-2.4-1.82h-6.04c-1.01,0-1.96.68-2.35,1.69-.02.05-.04.11-.06.17l-27.77,100.59c-.11.39-.03.8.22,1.12.24.32.62.51,1.03.51h9.29c.58,0,1.09-.39,1.24-.95l20.51-74.72c.11-.5.59-.83,1.1-.74.38.07.66.37.74.72h0s20.48,74.73,20.48,74.73c.15.56.66.95,1.24.95h9.29c.4,0,.78-.19,1.03-.51.24-.32.33-.74.22-1.12Z"/>
        <path d="M322.76,61.86s0-.01,0-.02c-.32-1.09-1.28-1.82-2.4-1.82h-6.04c-1.01,0-1.96.68-2.35,1.69-.02.05-.04.11-.06.17l-27.77,100.59c-.11.39-.03.8.22,1.12.24.32.62.51,1.03.51h9.29c.58,0,1.09-.39,1.24-.95l20.51-74.72c.11-.5.59-.83,1.1-.74.38.07.66.37.74.72h0s20.48,74.73,20.48,74.73c.15.56.66.95,1.24.95h9.29c.4,0,.78-.19,1.03-.51.24-.32.32-.73.22-1.12l-27.76-100.62Z"/>
        <path d="M62.34,60.02h6.87c1.28,0,2.32,1.04,2.32,2.32v99.45c0,1.28-1.04,2.32-2.32,2.32h-6.87c-1.28,0-2.32-1.04-2.32-2.32V62.34c0-1.28,1.04-2.32,2.32-2.32Z"/>
        <path d="M172.77,60.02h6.87c1.28,0,2.32,1.04,2.32,2.32v99.45c0,1.28-1.04,2.32-2.32,2.32h-6.87c-1.28,0-2.32-1.04-2.32-2.32V62.34c0-1.28,1.04-2.32,2.32-2.32Z"/>
        <path d="M444.88,60.02h6.87c1.28,0,2.32,1.04,2.32,2.32v99.45c0,1.28-1.04,2.32-2.32,2.32h-6.87c-1.28,0-2.32-1.04-2.32-2.32V62.34c0-1.28,1.04-2.32,2.32-2.32Z"/>
        <path d="M541.37,69.21v-6.87c0-1.28-1.04-2.32-2.32-2.32h-70.11c-1.28,0-2.32,1.04-2.32,2.32v6.87c0,1.28,1.04,2.32,2.32,2.32h26.73c1.4,0,2.53,1.14,2.53,2.53l.03,87.72c0,1.28,1.04,2.32,2.32,2.32h6.87c1.28,0,2.32-1.04,2.32-2.32l.04-87.75c.03-1.37,1.16-2.49,2.53-2.49l26.74-.02c1.28,0,2.32-1.04,2.32-2.32Z"/>
        <path d="M392.82,59.86h0c-6.98,0-12.18.87-19.16,5.38v-2.9c0-1.28-1.04-2.32-2.32-2.32h-6.87c-1.28,0-2.32,1.04-2.32,2.32v99.45c0,1.28,1.04,2.32,2.32,2.32h6.87c1.28,0,2.32-1.04,2.32-2.32l.02-32.43c.07.04.15.08.23.11,5.62,3.3,12.15,5.04,18.91,5.04,20.6,0,37.35-16.73,37.35-37.3-.08-20.52-16.83-37.26-37.35-37.34ZM392.82,122.99c-4.19,0-8.77-.48-13.89-3.99-2.62-1.79-5.27-5.27-5.27-8.97v-25.74c0-3.38,2.51-6.64,4.87-8.55,5.29-4.31,9.71-4.67,14.15-4.67,13.84,0,25.98,12.22,25.98,26.15s-11.59,25.77-25.84,25.77Z"/>
        <path d="M247.63,133.76c-1.14-1.25-1.14-1.43-1.14-1.89,0-.91.69-1.41.99-1.58,12.81-7.4,19.87-19.1,19.87-32.95-.08-20.52-16.83-37.26-37.35-37.34-6.98,0-12.18.87-19.16,5.38v-3.05c0-1.28-1.04-2.32-2.32-2.32h-6.87c-1.28,0-2.32,1.04-2.32,2.32v99.45c0,1.28,1.04,2.32,2.32,2.32h6.87c.31,0,.62-.06.91-.18.86-.37,1.42-1.2,1.42-2.14l.02-32.27c.07.04.15.08.23.11,5.62,3.3,12.15,5.04,18.91,5.04.7,0,1.39-.03,2.08-.08l28.54,28.44c.72.7,1.66,1.09,2.66,1.09h9.52c1.19,0,2.15-.96,2.15-2.15,0-.55-.21-1.08-.62-1.5l-26.68-26.69ZM229.99,123.14c-4.19,0-8.77-.48-13.89-3.99-2.62-1.79-5.27-5.27-5.27-8.97v-25.74c0-3.38,2.51-6.64,4.87-8.55,5.29-4.31,9.71-4.67,14.15-4.67,13.84,0,25.98,12.22,25.98,26.15s-11.59,25.77-25.84,25.77Z"/>
        <path d="M795.06,67.65h0c-9.33-5.46-18.8-8.23-28.16-8.23-29.03,0-52.64,23.62-52.64,52.64s23.61,52.64,52.64,52.64c6.23,0,12.11-.99,17.47-2.85.04,1.25,1.05,2.26,2.31,2.26h6.87c1.28,0,2.32-1.04,2.32-2.32v-14.22s0-.01,0-.02v-29.57c-.01-1.4-1.14-2.55-2.52-2.55h-6.66c-1.38,0-2.51,1.14-2.51,2.54l-.02,30.22c-.01.53-.34,1.07-.78,1.31-5.23,2.31-10.77,3.49-16.48,3.49-22.57,0-40.93-18.36-40.93-40.93s18.36-40.93,40.93-40.93c9.66,0,20.51,4.99,26.5,9.62.43.33,1.26.52,1.83.24.41-.2.64-.61.64-1.15v-10.39c0-.91-.12-1.39-.81-1.8Z"/>
        <path d="M697.72,60.02h-6.93c-1.28,0-2.33,1.04-2.33,2.33v72.45h0c0,.52-.43.94-.94.94-.36,0-.66-.21-.82-.51l-33.44-73.78c-.36-.87-1.2-1.43-2.14-1.43h-8.77c-1.28,0-2.32,1.04-2.32,2.32v99.45c0,1.28,1.04,2.32,2.32,2.32h6.87c1.28,0,2.32-1.04,2.32-2.32l.03-72.32c0-.52.43-.93.94-.93.39,0,.72.23.87.57h0s33.49,73.63,33.49,73.63c.38.83,1.21,1.37,2.11,1.37h8.73c1.28,0,2.32-1.04,2.32-2.32V62.34c0-1.28-1.04-2.33-2.32-2.33Z"/>
        <path d="M150.91,117.01c-3.27-6.03-8.53-10.97-14.76-13.84,7.46-8.38,8.64-20.97,2.86-30.57-4.77-7.91-13.38-12.56-22.56-12.57-5.7,0-11.15,1.11-15.99,4.35,0-1.12.24-2.56-.52-3.49-.82-1.01-2.04-.86-3.19-.86h-4.26c-1.2,0-2.44-.09-3.19,1.08-.78,1.23-.36,3.65-.36,5.01v94.94c0,.69-.03,1.37.36,1.99.74,1.16,1.99,1.08,3.19,1.08h4.26c1.11,0,2.29.15,3.11-.78s.6-2.4.6-3.56c0,0,0,0,0,0,10.3,6.07,23.43,6.8,34.33,1.91,5.11-2.29,10.23-5.89,13.61-10.41,3.44-4.61,5.62-10.13,6.2-15.86.64-6.34-.65-12.8-3.69-18.4ZM105.32,75.23c1.9-1.55,4.03-2.72,6.44-3.25,1.66-.36,3.36-.34,5.05-.33,4.32.04,8.44,1.98,11.15,5.36,2.86,3.56,3.86,8.4,2.61,12.8-1.27,4.49-4.75,8.17-9.17,9.68-2.36.8-4.75.76-7.2.76-3,0-13.74,0-13.74,0v-15.09c0-.99-.04-1.97.17-2.94.6-2.77,2.53-5.22,4.69-6.98ZM142.25,138.11c-4.45,14.48-24.13,19.54-36.22,11.53-2.77-1.84-5.18-4.8-5.52-8.18-.09-.85-.06-1.71-.06-2.57,0-3.54,0-27.02,0-27.02,0,0,20.92-.02,22.54,0,3.54.04,7.04,1,10.09,2.8,6.27,3.69,10.18,10.6,10.05,17.88-.03,1.88-.33,3.76-.89,5.56Z"/>
      </g>
    </g>
  </g>
</svg>