<?xml version="1.0" encoding="UTF-8"?>
<svg xmlns="http://www.w3.org/2000/svg" version="1.1" viewBox="0 0 3235.12 961.44">
  <defs>
    <style>
      .cls-1 {
        fill: #1e120d;
      }
    </style>
  </defs>
  <!-- Generator: Adobe Illustrator 28.7.2, SVG Export Plug-In . SVG Version: 1.2.0 Build 154)  -->
  <g>
    <g id="Camada_1">
      <g>
        <path class="cls-1" d="M1653.73,766.44c0,2.01-.14,3.91-.42,5.69-.28,1.78-.78,3.5-1.49,5.17-.71,1.67-1.61,3.11-2.69,4.31-1.08,1.2-2.47,2.17-4.17,2.89-1.71.72-3.65,1.09-5.84,1.09s-4.08-.36-5.78-1.07c-1.69-.71-3.08-1.66-4.16-2.83-1.08-1.18-1.98-2.6-2.7-4.27-.72-1.67-1.23-3.4-1.53-5.21-.29-1.8-.44-3.72-.44-5.76v-27.12h-8.46v27.12c0,2.87.25,5.58.75,8.11.5,2.54,1.33,4.97,2.48,7.29,1.15,2.32,2.6,4.3,4.34,5.94,1.74,1.64,3.93,2.96,6.57,3.94,2.64.98,5.61,1.47,8.92,1.47,4,0,7.51-.7,10.54-2.1,3.03-1.4,5.45-3.34,7.25-5.83,1.8-2.49,3.15-5.31,4.03-8.46.88-3.15,1.32-6.6,1.32-10.36v-27.12h-8.53v27.12ZM1725.8,777.99l-30.32-38.67h-6.92v53.5h8.43v-37.83l29.92,37.83h7.4v-53.43h-8.5v38.6ZM1761.4,792.82h8.43v-53.5h-8.43v53.5ZM1812.42,739.32l-20.97,53.5h8.98l5.59-14.54h20.64l5.63,14.54h8.9l-20.79-53.5h-7.98ZM1807.53,772.03l8.87-23.44,8.61,23.44h-17.48ZM1807.86,732.2c.07-.31.22-.7.44-1.18.22-.48.6-.88,1.14-1.21.54-.33,1.2-.5,1.99-.5.88,0,1.82.27,2.82.81.99.54,2.08,1.08,3.26,1.62,1.18.54,2.42.81,3.72.81s2.4-.26,3.44-.79c1.04-.53,1.87-1.16,2.48-1.9.61-.74,1.13-1.53,1.56-2.39.43-.86.72-1.59.88-2.21.16-.61.24-1.08.24-1.4h-4.75c0,.12-.02.3-.06.52s-.14.52-.31.9c-.17.38-.4.73-.68,1.05-.28.32-.69.6-1.21.85-.53.25-1.14.37-1.82.37-1.01,0-2.02-.28-3.05-.83-1.03-.55-2.11-1.1-3.24-1.66-1.13-.55-2.32-.83-3.57-.83-1.18,0-2.25.25-3.22.75-.97.51-1.74,1.12-2.32,1.84-.58.73-1.07,1.51-1.47,2.35-.41.85-.68,1.59-.83,2.23-.15.64-.22,1.14-.22,1.51h4.67c0-.17.04-.41.11-.72M1901.76,747.5c-2.17-2.56-4.88-4.63-8.12-6.2-3.24-1.57-6.71-2.35-10.42-2.35s-7.01.75-10.23,2.24c-3.22,1.5-5.95,3.48-8.21,5.96-2.26,2.48-4.04,5.37-5.35,8.66s-1.97,6.72-1.97,10.25c0,2.72.39,5.42,1.18,8.08.78,2.66,1.93,5.13,3.44,7.42,1.51,2.28,3.29,4.29,5.33,6.03,2.05,1.74,4.42,3.11,7.12,4.1,2.7.99,5.54,1.49,8.54,1.49,3.61,0,7.01-.74,10.23-2.22,3.21-1.49,5.93-3.47,8.17-5.94,2.23-2.48,4.01-5.36,5.32-8.65,1.31-3.29,1.97-6.7,1.97-10.23s-.62-6.67-1.88-9.92c-1.25-3.25-2.96-6.16-5.13-8.72M1898.96,773.17c-.77,2.31-1.86,4.39-3.26,6.24-1.4,1.85-3.19,3.34-5.37,4.47-2.18,1.13-4.58,1.69-7.18,1.69-3.39,0-6.4-.93-9.05-2.8-2.65-1.86-4.65-4.27-6.01-7.21-1.36-2.94-2.05-6.11-2.05-9.49,0-2.43.39-4.8,1.18-7.1.79-2.3,1.89-4.38,3.31-6.22,1.42-1.84,3.23-3.32,5.43-4.43,2.2-1.12,4.6-1.67,7.2-1.67s4.82.53,6.97,1.6c2.15,1.07,3.94,2.5,5.37,4.3,1.43,1.8,2.56,3.88,3.39,6.22.82,2.35,1.23,4.78,1.23,7.31s-.39,4.8-1.16,7.1M1974.61,769.01h23.88v-7.03h-23.88v-15.2h27.6v-7.47h-36.02v53.5h36.68v-7.47h-28.26v-16.34ZM2097.21,766.56c1.92-2.93,2.87-6.21,2.87-9.84,0-2.13-.42-4.24-1.25-6.33-.83-2.08-1.96-3.95-3.39-5.59-1.42-1.64-3.18-2.97-5.28-3.97-2.1-1.01-4.31-1.51-6.64-1.51h-23.29v53.5h8.42v-18.62h12.44l11.62,18.62h9.5l-12.59-20.35c3.14-1,5.67-2.97,7.58-5.91M2083.45,766.73h-14.79v-19.94h14.32c2.26,0,4.24.98,5.96,2.93,1.72,1.95,2.58,4.29,2.58,7.01s-.76,5.13-2.28,7.08c-1.52,1.95-3.45,2.92-5.78,2.92M2133.52,769.01h23.88v-7.03h-23.88v-15.2h27.6v-7.47h-36.03v53.5h36.69v-7.47h-28.26v-16.34ZM2217.43,781.87c-1.63,1.36-3.33,2.33-5.08,2.91-1.75.57-3.55.86-5.39.86-3.24,0-6.19-.91-8.87-2.74-2.68-1.83-4.74-4.24-6.2-7.23-1.46-2.99-2.19-6.22-2.19-9.68,0-1.89.23-3.75.68-5.59.45-1.84,1.16-3.6,2.12-5.26.96-1.67,2.1-3.13,3.42-4.38,1.32-1.25,2.92-2.25,4.78-3,1.86-.75,3.88-1.12,6.03-1.12,1.35,0,2.67.15,3.96.44,1.29.3,2.57.75,3.84,1.38,1.28.62,2.45,1.51,3.53,2.65,1.08,1.14,1.98,2.49,2.69,4.03l6.62-4.45c-1.79-3.53-4.46-6.36-8-8.48-3.55-2.12-7.66-3.18-12.35-3.18-3.17,0-6.15.51-8.94,1.53-2.8,1.02-5.22,2.4-7.25,4.14-2.04,1.74-3.8,3.75-5.28,6.02-1.48,2.27-2.59,4.69-3.33,7.25-.74,2.56-1.1,5.14-1.1,7.74,0,3.39.64,6.73,1.91,10.03,1.28,3.3,3.01,6.25,5.21,8.85,2.19,2.6,4.91,4.7,8.13,6.29,3.22,1.59,6.65,2.39,10.28,2.39,2.87,0,5.73-.47,8.57-1.4,2.84-.93,5.46-2.37,7.84-4.31,2.38-1.94,4.09-4.18,5.15-6.73l-7.03-3.97c-.88,1.99-2.14,3.66-3.77,5.02M2291.33,747.5c-2.17-2.56-4.88-4.63-8.12-6.2-3.24-1.57-6.71-2.35-10.42-2.35s-7.01.75-10.23,2.24c-3.22,1.5-5.95,3.48-8.21,5.96-2.26,2.48-4.04,5.37-5.35,8.66-1.31,3.3-1.97,6.72-1.97,10.25,0,2.72.39,5.42,1.18,8.08.78,2.66,1.93,5.13,3.44,7.42,1.51,2.28,3.29,4.29,5.33,6.03,2.05,1.74,4.42,3.11,7.12,4.1,2.7.99,5.54,1.49,8.54,1.49,3.61,0,7.01-.74,10.23-2.22,3.21-1.49,5.93-3.47,8.17-5.94,2.23-2.48,4-5.36,5.31-8.65,1.31-3.29,1.97-6.7,1.97-10.23s-.62-6.67-1.88-9.92c-1.25-3.25-2.96-6.16-5.13-8.72M2288.53,773.17c-.77,2.31-1.86,4.39-3.26,6.24-1.4,1.85-3.19,3.34-5.37,4.47-2.18,1.13-4.58,1.69-7.18,1.69-3.39,0-6.4-.93-9.05-2.8-2.65-1.86-4.65-4.27-6.01-7.21-1.36-2.94-2.04-6.11-2.04-9.49,0-2.43.39-4.8,1.18-7.1.79-2.3,1.89-4.38,3.31-6.22,1.42-1.84,3.23-3.32,5.43-4.43,2.2-1.12,4.6-1.67,7.2-1.67s4.82.53,6.97,1.6c2.15,1.07,3.94,2.5,5.37,4.3,1.43,1.8,2.56,3.88,3.39,6.22.82,2.35,1.23,4.78,1.23,7.31s-.39,4.8-1.16,7.1M2359.4,777.99l-30.32-38.67h-6.92v53.5h8.43v-37.83l29.92,37.83h7.4v-53.43h-8.5v38.6ZM2429.56,769.07c-.93-1.04-2.17-1.99-3.72-2.83-1.54-.85-3.15-1.55-4.82-2.1-1.67-.55-3.68-1.11-6.04-1.68-1.47-.37-2.66-.67-3.57-.9-.91-.23-1.88-.52-2.93-.85-1.04-.33-1.86-.64-2.47-.94-.6-.29-1.21-.65-1.82-1.07-.61-.42-1.07-.85-1.38-1.3-.31-.45-.56-.98-.75-1.56-.2-.59-.3-1.25-.3-1.99,0-2.35.86-4.18,2.6-5.46,1.73-1.29,4.33-1.93,7.82-1.93,2.94,0,5.8.59,8.57,1.77,2.77,1.18,4.73,2.41,5.89,3.68l3.83-6.92c-5.47-4.02-11.49-6.03-18.07-6.03-2.77,0-5.34.36-7.69,1.07-2.35.71-4.41,1.74-6.14,3.09-1.74,1.35-3.11,3.06-4.1,5.13-.99,2.07-1.49,4.4-1.49,6.97,0,2.06.32,3.85.96,5.35.64,1.51,1.66,2.81,3.07,3.92,1.41,1.11,3.03,2.04,4.87,2.8,1.84.76,4.17,1.51,6.99,2.25,1.82.47,3.26.85,4.32,1.14,1.07.3,2.24.66,3.53,1.1,1.29.44,2.28.87,2.98,1.29.7.42,1.38.91,2.04,1.49.66.58,1.13,1.22,1.4,1.93.27.71.4,1.51.4,2.39,0,2.21-.9,3.9-2.7,5.08-1.8,1.18-4.37,1.77-7.71,1.77-3.71,0-7.3-.74-10.8-2.22-3.5-1.49-6.02-3.02-7.56-4.62l-3.86,7.25c3.04,2.33,6.46,4.11,10.26,5.35,3.8,1.24,7.74,1.86,11.81,1.86,2.21,0,4.27-.18,6.18-.53,1.91-.36,3.71-.93,5.37-1.73,1.67-.8,3.09-1.79,4.27-2.96,1.18-1.18,2.1-2.62,2.78-4.34.67-1.72,1.01-3.64,1.01-5.78,0-1.91-.28-3.62-.83-5.11-.55-1.5-1.3-2.77-2.23-3.81M2451.22,746.79h17.85v46.03h8.54v-46.03h17.77v-7.47h-44.16v7.47ZM2554.56,766.56c1.91-2.93,2.87-6.21,2.87-9.84,0-2.13-.42-4.24-1.25-6.33-.84-2.08-1.96-3.95-3.39-5.59-1.42-1.64-3.18-2.97-5.28-3.97-2.1-1.01-4.31-1.51-6.65-1.51h-23.29v53.5h8.42v-18.62h12.44l11.63,18.62h9.49l-12.58-20.35c3.14-1,5.67-2.97,7.58-5.91M2540.81,766.73h-14.8v-19.94h14.32c2.26,0,4.24.98,5.96,2.93,1.72,1.95,2.57,4.29,2.57,7.01s-.76,5.13-2.28,7.08c-1.53,1.95-3.45,2.92-5.78,2.92M2619.27,766.44c0,2.01-.14,3.91-.42,5.69-.28,1.78-.78,3.5-1.49,5.17-.71,1.67-1.61,3.11-2.68,4.31-1.08,1.2-2.47,2.17-4.18,2.89-1.71.72-3.65,1.09-5.83,1.09s-4.08-.36-5.78-1.07c-1.69-.71-3.08-1.66-4.16-2.83-1.08-1.18-1.98-2.6-2.71-4.27-.72-1.67-1.23-3.4-1.53-5.21-.29-1.8-.44-3.72-.44-5.76v-27.12h-8.46v27.12c0,2.87.25,5.58.75,8.11.5,2.54,1.33,4.97,2.48,7.29,1.15,2.32,2.6,4.3,4.35,5.94,1.74,1.64,3.93,2.96,6.57,3.94,2.64.98,5.61,1.47,8.92,1.47,4,0,7.51-.7,10.54-2.1,3.03-1.4,5.45-3.34,7.25-5.83,1.8-2.49,3.15-5.31,4.03-8.46.88-3.15,1.32-6.6,1.32-10.36v-27.12h-8.53v27.12ZM2687.02,781.87c-1.63,1.36-3.33,2.33-5.08,2.91-1.75.57-3.55.86-5.39.86-3.24,0-6.19-.91-8.87-2.74-2.67-1.83-4.74-4.24-6.2-7.23-1.46-2.99-2.19-6.22-2.19-9.68,0-1.89.23-3.75.68-5.59.45-1.84,1.16-3.6,2.12-5.26.96-1.67,2.1-3.13,3.42-4.38,1.32-1.25,2.92-2.25,4.78-3,1.86-.75,3.88-1.12,6.03-1.12,1.35,0,2.67.15,3.96.44,1.29.3,2.57.75,3.84,1.38,1.28.62,2.45,1.51,3.53,2.65,1.08,1.14,1.97,2.49,2.69,4.03l6.62-4.45c-1.79-3.53-4.46-6.36-8-8.48-3.54-2.12-7.66-3.18-12.34-3.18-3.17,0-6.15.51-8.94,1.53-2.8,1.02-5.21,2.4-7.25,4.14-2.03,1.74-3.79,3.75-5.28,6.02-1.48,2.27-2.59,4.69-3.33,7.25-.73,2.56-1.1,5.14-1.1,7.74,0,3.24.58,6.44,1.75,9.6,1.16,3.16,2.76,6.02,4.8,8.57,2.03,2.55,4.54,4.67,7.52,6.37,2.98,1.69,6.18,2.67,9.59,2.94,2.7,1.77,4.05,3.63,4.05,5.59,0,1.15-.4,2.03-1.2,2.63-.8.6-1.91.9-3.33.9-1.64,0-3.42-.53-5.34-1.58l-2.1,4.45c2.82,1.45,5.78,2.17,8.87,2.17,2.6,0,4.62-.64,6.07-1.91,1.45-1.28,2.17-2.99,2.17-5.15,0-2.67-1.29-5.09-3.86-7.25,3.97-.57,7.64-1.92,11-4.07,3.36-2.14,5.73-4.86,7.1-8.15l-7.03-3.97c-.88,1.99-2.14,3.66-3.77,5.02M2735.39,739.32l-20.97,53.5h8.98l5.59-14.54h20.64l5.63,14.54h8.91l-20.79-53.5h-7.98ZM2730.5,772.03l8.87-23.44,8.61,23.44h-17.48ZM2730.83,732.2c.08-.31.22-.7.44-1.18.22-.48.6-.88,1.14-1.21.54-.33,1.2-.5,1.99-.5.88,0,1.82.27,2.82.81,1,.54,2.08,1.08,3.26,1.62,1.18.54,2.42.81,3.72.81s2.4-.26,3.44-.79c1.04-.53,1.87-1.16,2.48-1.9.61-.74,1.13-1.53,1.56-2.39.43-.86.72-1.59.88-2.21.16-.61.24-1.08.24-1.4h-4.74c0,.12-.02.3-.06.52-.04.22-.14.52-.31.9-.17.38-.4.73-.68,1.05-.28.32-.69.6-1.21.85-.53.25-1.14.37-1.82.37-1,0-2.02-.28-3.05-.83-1.03-.55-2.11-1.1-3.24-1.66-1.13-.55-2.32-.83-3.57-.83-1.18,0-2.25.25-3.22.75-.97.51-1.74,1.12-2.32,1.84-.58.73-1.07,1.51-1.47,2.35-.41.85-.68,1.59-.83,2.23-.15.64-.22,1.14-.22,1.51h4.67c0-.17.04-.41.11-.72M2829.86,756.23c-1.25-3.25-2.96-6.16-5.13-8.72-2.17-2.56-4.88-4.63-8.11-6.2-3.24-1.57-6.71-2.35-10.41-2.35s-7.02.75-10.23,2.24c-3.21,1.5-5.95,3.48-8.21,5.96-2.26,2.48-4.04,5.37-5.35,8.66-1.31,3.3-1.97,6.72-1.97,10.25,0,2.72.39,5.42,1.18,8.08.78,2.66,1.93,5.13,3.44,7.42,1.51,2.28,3.29,4.29,5.34,6.03,2.05,1.74,4.42,3.11,7.12,4.1,2.7.99,5.55,1.49,8.54,1.49,3.6,0,7.01-.74,10.23-2.22,3.21-1.49,5.94-3.47,8.17-5.94,2.23-2.48,4-5.36,5.32-8.65,1.31-3.29,1.97-6.7,1.97-10.23s-.63-6.67-1.88-9.92M2821.93,773.17c-.77,2.31-1.86,4.39-3.26,6.24-1.4,1.85-3.19,3.34-5.37,4.47-2.18,1.13-4.58,1.69-7.18,1.69-3.39,0-6.4-.93-9.05-2.8-2.65-1.86-4.66-4.27-6.02-7.21-1.36-2.94-2.04-6.11-2.04-9.49,0-2.43.39-4.8,1.18-7.1.78-2.3,1.89-4.38,3.31-6.22,1.42-1.84,3.23-3.32,5.43-4.43,2.19-1.12,4.59-1.67,7.19-1.67s4.83.53,6.97,1.6c2.15,1.07,3.94,2.5,5.37,4.3,1.44,1.8,2.56,3.88,3.39,6.22.82,2.35,1.23,4.78,1.23,7.31s-.39,4.8-1.16,7.1"/>
        <path class="cls-1" d="M1645.83,199.57h18.34c-1.6,4.41-6.21,8.02-13.43,8.02-10.32,0-17.44-7.42-17.44-17.63s7.12-18.14,17.13-18.14c6.41,0,11.92,3.11,14.93,8.51l15.63-9.32c-6.31-10.52-17.83-16.93-30.36-16.93-19.84,0-35.67,15.83-35.67,35.77s15.73,35.57,35.77,35.57c18.83,0,33.06-13.83,33.06-35.07v-5.31h-37.97v14.53ZM1744.82,154.09c-19.94,0-35.77,15.83-35.77,35.67s15.83,35.67,35.77,35.67,35.57-15.83,35.57-35.67-15.83-35.67-35.57-35.67M1744.82,206.59c-9.12,0-16.13-7.21-16.13-16.83s7.01-16.83,16.13-16.83,15.83,7.21,15.83,16.83-6.91,16.83-15.83,16.83M1833.28,197.67l-15.83-41.98h-19.74l26.35,68.13h18.34l26.65-68.13h-19.74l-16.03,41.98ZM1892.99,223.82h48.8v-16.63h-30.36v-10.12h20.04v-14.63h-20.04v-10.12h30.36v-16.63h-48.8v68.13ZM2026.64,177.83c0-12.63-10.22-22.14-23.54-22.14h-32.96v68.13h18.14v-23.55h7.72l13.53,23.55h20.34l-15.13-26.25c7.21-3.81,11.92-11.02,11.92-19.74M2001.09,184.74h-12.83v-12.72h12.83c4.41,0,7.01,3,7.01,6.41s-2.7,6.31-7.01,6.31M2098.07,191.66l-27.55-35.97h-15.43v68.13h18.14v-35.87l27.45,35.87h15.53v-68.13h-18.14v35.97ZM2178.42,154.09c-19.94,0-35.77,15.83-35.77,35.67s15.83,35.67,35.77,35.67,35.57-15.83,35.57-35.67-15.83-35.67-35.57-35.67M2178.42,206.59c-9.12,0-16.13-7.21-16.13-16.83s7.01-16.83,16.13-16.83,15.83,7.21,15.83,16.83-6.91,16.83-15.83,16.83M2285.52,223.82h18.44v-24.85h20.04v-15.43h-20.04v-11.52h30.36v-16.33h-48.8v68.13ZM2361.86,223.82h48.8v-16.63h-30.36v-10.12h20.04v-14.63h-20.04v-10.12h30.36v-16.63h-48.8v68.13ZM2466.75,155.69h-27.76v68.13h27.76c20.74,0,36.37-14.53,36.37-34.07s-15.63-34.07-36.37-34.07M2465.85,206.09h-8.32v-32.66h8.32c10.82,0,18.24,6.41,18.24,16.33s-7.42,16.33-18.24,16.33M2529.57,223.82h48.8v-16.63h-30.36v-10.12h20.04v-14.63h-20.04v-10.12h30.36v-16.63h-48.8v68.13ZM2663.22,177.83c0-12.63-10.22-22.14-23.55-22.14h-32.96v68.13h18.14v-23.55h7.72l13.53,23.55h20.34l-15.13-26.25c7.21-3.81,11.92-11.02,11.92-19.74M2637.67,184.74h-12.83v-12.72h12.83c4.41,0,7.01,3,7.01,6.41s-2.7,6.31-7.01,6.31M2715.01,155.69l-28.46,68.13h19.14l4.71-11.73h26.95l4.81,11.73h19.04l-28.76-68.13h-17.43ZM2717.02,195.87l6.81-16.73,6.82,16.73h-13.63ZM2804.48,206.29v-50.6h-19.34v68.13h47.99v-17.54h-28.65Z"/>
        <path class="cls-1" d="M2294.78,551.19l60.73,102.11h50.19v-192.98h-110.93v90.87ZM2449.88,431.32h-37.81v221.98h37.81c61.2,0,110.99-49.79,110.99-110.99s-49.79-110.99-110.99-110.99M2371.31,453.95h34.39v-153.11h-34.37c-42.21,0-76.56,34.34-76.56,76.55s34.33,76.54,76.53,76.55M1764.77,308.4v202.8h131.76l-131.76-202.8ZM2712.24,532.78h117.7v-231.94h-117.7v231.94ZM2539.94,300.84h-127.87v124.12h127.87v-124.12ZM2836.31,653.3h117.7v-114.15h-117.7v114.15ZM2712.23,653.3h117.7v-114.15h-117.7v114.15ZM2567.23,653.3h117.7v-352.46h-117.7v352.46ZM2294.78,653.3h53.32l-53.32-89.66v89.66ZM1710.9,369.64c0-37.94-30.86-68.8-68.8-68.8h-25.54v137.61h25.54c37.94,0,68.8-30.87,68.8-68.8M1492.48,438.45h117.7v-137.61h-117.7v137.61ZM1492.48,653.3h117.7v-208.49h-117.7v208.49ZM1654.16,444.81h-37.61v208.49h37.61c57.48,0,104.24-46.77,104.24-104.24s-46.76-104.24-104.24-104.24M1959.45,607.94l-26.97,45.36h56.47s-29.5-45.36-29.5-45.36ZM1963.09,601.83l33.45,51.47h9.71c.82-34.99,15.05-67.79,40.12-92.42,25.25-24.81,58.61-38.48,93.92-38.48s68.67,13.66,93.92,38.48c25.07,24.64,39.3,57.44,40.12,92.42h14.09v-100.36l-148.13-249.06-177.2,297.95ZM2007.57,406.02c0-57.99-47.18-105.18-105.18-105.18h-134.94l136.66,210.34c57.08-.92,103.46-48.02,103.46-105.16M2140.29,528.76c-33.62,0-65.38,13.01-89.43,36.62-23.86,23.43-37.43,54.63-38.25,87.92h255.37c-.82-33.28-14.39-64.49-38.25-87.92-24.05-23.62-55.81-36.62-89.43-36.62M1900.66,517.56h-135.9v135.74h160.3l30.51-51.31-54.92-84.44Z"/>
        <polygon class="cls-1" points="341.53 440.47 341.53 389.24 320.37 428.11 313.7 428.11 292.43 389.24 292.43 440.47 281.11 440.47 281.11 368.58 293.28 368.58 317.06 412.53 340.84 368.58 353 368.58 353 440.47 341.53 440.47"/>
        <rect class="cls-1" x="389.43" y="368.57" width="11.32" height="71.89"/>
        <polygon class="cls-1" points="448.54 389.64 448.54 440.47 437.22 440.47 437.22 368.58 446.52 368.58 487.26 420.54 487.26 368.67 498.68 368.67 498.68 440.47 488.74 440.47 448.54 389.64"/>
        <rect class="cls-1" x="535.1" y="368.57" width="11.32" height="71.89"/>
        <path class="cls-1" d="M625.42,385.48c-1.55-1.71-4.19-3.36-7.91-4.94-3.73-1.58-7.57-2.37-11.52-2.37-4.68,0-8.19.87-10.51,2.6-2.32,1.73-3.49,4.18-3.49,7.34,0,.99.13,1.88.4,2.67.26.79.6,1.49,1.01,2.1.41.61,1.03,1.2,1.85,1.75.82.56,1.64,1.04,2.45,1.43.81.4,1.91.82,3.31,1.26,1.4.45,2.71.83,3.93,1.14,1.22.32,2.82.72,4.8,1.21,3.16.76,5.87,1.51,8.11,2.25,2.24.74,4.4,1.68,6.48,2.82,2.08,1.14,3.74,2.41,4.99,3.8,1.25,1.4,2.25,3.11,2.99,5.12.74,2.01,1.11,4.3,1.11,6.87,0,2.87-.45,5.46-1.36,7.76-.91,2.31-2.15,4.26-3.73,5.84-1.58,1.58-3.49,2.91-5.74,3.98-2.24,1.07-4.65,1.85-7.22,2.32-2.57.48-5.34.72-8.31.72-5.47,0-10.76-.83-15.87-2.5-5.11-1.66-9.71-4.06-13.8-7.19l5.19-9.74c2.07,2.15,5.46,4.21,10.16,6.21,4.7,2,9.54,2.99,14.51,2.99,4.48,0,7.94-.79,10.36-2.37,2.43-1.58,3.64-3.86,3.64-6.82,0-1.19-.18-2.26-.55-3.21-.36-.96-.99-1.82-1.88-2.6-.89-.78-1.8-1.44-2.74-2-.94-.56-2.28-1.14-4.01-1.73-1.73-.59-3.31-1.09-4.75-1.48-1.43-.4-3.37-.9-5.81-1.53-3.79-.99-6.92-1.99-9.39-3.01-2.47-1.02-4.66-2.27-6.55-3.76-1.9-1.49-3.27-3.24-4.13-5.27-.86-2.03-1.29-4.43-1.29-7.2,0-3.46.67-6.59,2-9.37,1.34-2.79,3.17-5.08,5.51-6.9,2.34-1.81,5.09-3.2,8.26-4.15,3.16-.95,6.61-1.43,10.33-1.43,8.83,0,16.93,2.7,24.28,8.11l-5.14,9.29Z"/>
        <polygon class="cls-1" points="717.76 378.61 693.88 378.61 693.88 440.47 682.41 440.47 682.41 378.61 658.43 378.61 658.43 368.58 717.76 368.58 717.76 378.61"/>
        <path class="cls-1" d="M796.9,430.43v10.04h-49.3v-71.89h48.41v10.04h-37.08v20.42h32.09v9.44h-32.09v21.95h37.97ZM776.78,361.16l-7.32-2.22,5.79-11.13h10.63l-9.1,13.35Z"/>
        <path class="cls-1" d="M828.88,440.47v-71.89h31.3c3.13,0,6.1.67,8.92,2.03,2.82,1.35,5.18,3.13,7.1,5.34,1.91,2.21,3.43,4.72,4.55,7.51,1.12,2.81,1.68,5.64,1.68,8.51,0,4.88-1.29,9.29-3.86,13.23-2.57,3.94-5.97,6.58-10.19,7.93l16.91,27.35h-12.76l-15.62-25.02h-16.71v25.02h-11.32ZM840.2,405.41h19.88c3.13,0,5.72-1.31,7.76-3.93,2.04-2.62,3.06-5.79,3.06-9.52s-1.15-6.8-3.46-9.42c-2.31-2.62-4.98-3.93-8.01-3.93h-19.23v26.8Z"/>
        <rect class="cls-1" x="916.03" y="368.57" width="11.32" height="71.89"/>
        <path class="cls-1" d="M959.27,404.52c0-4.75.88-9.33,2.65-13.77,1.76-4.44,4.16-8.32,7.19-11.64,3.03-3.33,6.71-6,11.03-8.01,4.32-2.01,8.9-3.01,13.75-3.01s9.64,1.06,13.99,3.16c4.35,2.11,7.99,4.89,10.9,8.33,2.92,3.45,5.22,7.35,6.9,11.72,1.68,4.37,2.52,8.81,2.52,13.32,0,4.75-.88,9.33-2.65,13.75-1.76,4.42-4.14,8.29-7.14,11.62-3,3.33-6.66,5.99-10.98,7.98-4.32,2-8.9,2.99-13.74,2.99-4.02,0-7.85-.67-11.47-2-3.63-1.33-6.82-3.17-9.57-5.51-2.75-2.34-5.14-5.04-7.17-8.11-2.03-3.07-3.57-6.39-4.63-9.96-1.05-3.58-1.58-7.2-1.58-10.86M993.78,430.73c3.49,0,6.71-.76,9.64-2.27,2.93-1.52,5.34-3.52,7.22-6.01,1.88-2.49,3.34-5.28,4.38-8.38,1.04-3.1,1.56-6.28,1.56-9.54s-.55-6.67-1.66-9.81c-1.1-3.15-2.62-5.93-4.55-8.36-1.93-2.42-4.33-4.35-7.22-5.78-2.88-1.43-6.01-2.15-9.37-2.15s-6.72.75-9.66,2.25c-2.95,1.5-5.38,3.48-7.29,5.95-1.91,2.47-3.4,5.26-4.45,8.36-1.05,3.1-1.58,6.28-1.58,9.54,0,4.55.92,8.8,2.74,12.76,1.83,3.95,4.52,7.19,8.08,9.69,3.56,2.51,7.61,3.76,12.16,3.76"/>
        <path class="cls-1" d="M1105.44,440.47v-71.89h25.52c5.64,0,10.7.93,15.2,2.79,4.5,1.86,8.18,4.43,11.05,7.71,2.87,3.28,5.05,7.07,6.55,11.37,1.5,4.3,2.25,8.96,2.25,13.97,0,10.88-3.19,19.61-9.57,26.18-6.38,6.57-14.88,9.86-25.49,9.86h-25.52ZM1130.96,378.61h-14.19v51.82h14.19c4.94,0,9.2-1.15,12.78-3.44,3.58-2.29,6.25-5.38,8.03-9.27,1.78-3.89,2.67-8.32,2.67-13.3,0-7.68-2.09-13.9-6.25-18.66-4.17-4.76-9.91-7.14-17.23-7.14"/>
        <path class="cls-1" d="M1216.33,368.58h10.73l27.94,71.89h-11.96l-7.57-19.53h-27.74l-7.52,19.53h-12.07l28.18-71.89ZM1233.24,412.53l-11.57-31.5-11.92,31.5h23.49Z"/>
        <path class="cls-1" d="M704.15,510.31c6.76,0,12.72,1.42,17.9,4.25,5.17,2.83,9.03,6.64,11.57,11.42l-15.08,10.73c-.66-1.68-1.55-3.12-2.67-4.33-1.12-1.2-2.37-2.13-3.76-2.77-1.38-.64-2.76-1.1-4.13-1.38-1.37-.28-2.78-.42-4.23-.42-2.7,0-5.12.55-7.27,1.66-2.14,1.1-3.85,2.57-5.12,4.4-1.27,1.83-2.23,3.83-2.9,6.01-.66,2.17-.99,4.43-.99,6.77,0,5.24,1.5,9.72,4.5,13.45,3,3.72,6.99,5.59,11.97,5.59,1.95,0,3.81-.27,5.59-.82,1.78-.54,3.49-1.5,5.12-2.87,1.63-1.37,2.83-3.07,3.59-5.12l16.12,9.59c-1.35,3.39-3.72,6.39-7.09,9-3.38,2.6-7.13,4.54-11.25,5.81-4.12,1.27-8.27,1.9-12.46,1.9-5.14,0-10-1.07-14.56-3.22-4.57-2.14-8.41-4.95-11.52-8.43-3.12-3.48-5.57-7.45-7.36-11.92-1.8-4.47-2.7-8.99-2.7-13.57s.85-8.74,2.55-12.98c1.7-4.23,4.07-8.05,7.12-11.45,3.05-3.39,6.93-6.13,11.64-8.21,4.71-2.08,9.86-3.11,15.43-3.11"/>
        <path class="cls-1" d="M792.98,583.2c-4.48,0-8.55-.63-12.19-1.88-3.64-1.25-6.71-2.97-9.2-5.14-2.49-2.18-4.58-4.78-6.26-7.82-1.68-3.03-2.9-6.27-3.66-9.72-.76-3.45-1.14-7.11-1.14-11v-36.93h19.78v36.93c0,2.47.24,4.77.72,6.87.48,2.11,1.2,4.01,2.17,5.71.97,1.7,2.29,3.03,3.96,4.01,1.66.97,3.6,1.46,5.81,1.46s4.2-.49,5.89-1.48c1.68-.99,3.01-2.35,3.98-4.08.97-1.73,1.7-3.64,2.18-5.74.48-2.09.72-4.34.72-6.75v-36.93h19.73v36.93c0,5.11-.66,9.79-1.98,14.04-1.32,4.25-3.27,7.99-5.86,11.22-2.59,3.23-5.98,5.75-10.19,7.57-4.2,1.81-9.02,2.72-14.46,2.72"/>
        <polygon class="cls-1" points="857.04 582.6 857.04 510.71 876.77 510.71 876.77 565.39 909.4 565.39 909.4 582.6 857.04 582.6"/>
        <polygon class="cls-1" points="982.86 527.92 962.24 527.92 962.24 582.6 942.46 582.6 942.46 527.92 921.69 527.92 921.69 510.71 982.86 510.71 982.86 527.92"/>
        <path class="cls-1" d="M1041.68,583.2c-4.48,0-8.55-.63-12.19-1.88-3.64-1.25-6.71-2.97-9.2-5.14-2.49-2.18-4.58-4.78-6.26-7.82-1.68-3.03-2.9-6.27-3.66-9.72-.76-3.45-1.14-7.11-1.14-11v-36.93h19.78v36.93c0,2.47.24,4.77.72,6.87.48,2.11,1.2,4.01,2.17,5.71.97,1.7,2.29,3.03,3.96,4.01,1.66.97,3.6,1.46,5.81,1.46s4.2-.49,5.89-1.48c1.68-.99,3.01-2.35,3.98-4.08.97-1.73,1.7-3.64,2.18-5.74.48-2.09.72-4.34.72-6.75v-36.93h19.73v36.93c0,5.11-.66,9.79-1.98,14.04-1.32,4.25-3.27,7.99-5.86,11.22-2.59,3.23-5.98,5.75-10.19,7.57-4.2,1.81-9.02,2.72-14.46,2.72"/>
        <path class="cls-1" d="M1105.74,582.6v-71.89h33.03c3.39,0,6.62.72,9.69,2.17,3.07,1.45,5.64,3.35,7.71,5.69,2.08,2.34,3.73,5,4.95,7.99,1.22,2.98,1.83,6.01,1.83,9.07,0,4.15-.92,8.04-2.75,11.67-1.83,3.63-4.36,6.57-7.59,8.85l15.18,26.45h-21.66l-12.66-22.05h-8.01v22.05h-19.73ZM1125.47,543.29h12.46c1.29,0,2.44-.7,3.46-2.1,1.02-1.4,1.53-3.25,1.53-5.56s-.58-4.17-1.73-5.59c-1.15-1.42-2.41-2.13-3.76-2.13h-11.96v15.38Z"/>
        <path class="cls-1" d="M1210.94,510.71h22.05l22.89,71.89h-20.02l-4.35-14.09h-19.18l-4.25,14.09h-20.12l22.99-71.89ZM1228.35,555.36l-6.38-25.32-6.67,25.32h13.05Z"/>
      </g>
    </g>
  </g>
</svg>