<?xml version="1.0" encoding="UTF-8"?>
<svg xmlns="http://www.w3.org/2000/svg" version="1.1" viewBox="0 0 425.2 212.6">
  <defs>
    <style>
      .cls-1 {
        fill: #1e120d;
      }
    </style>
  </defs>
  <!-- Generator: Adobe Illustrator 28.7.2, SVG Export Plug-In . SVG Version: 1.2.0 Build 154)  -->
  <g>
    <g id="Camada_1">
      <g>
        <path class="cls-1" d="M115.91,137.75c-.56,1.47-1.35,2.79-2.36,3.96-1.01,1.17-2.22,2.12-3.62,2.84-1.4.72-2.92,1.07-4.57,1.07-1.08,0-2.1-.14-3.04-.42-.17-.04-.29-.13-.34-.29-.05-.16-.06-.33-.03-.53.03-.19.1-.35.21-.47.1-.12.24-.18.42-.18.17.03.35.05.52.05h.53c2.59,0,4.61-.72,6.06-2.15,1.45-1.44,2.18-3.43,2.18-5.99,0-1.15-.17-2.31-.52-3.47-.35-1.15-.86-2.18-1.52-3.1-.67-.91-1.48-1.65-2.44-2.23-.96-.58-2.06-.87-3.28-.87-.6,0-1.17.07-1.73.21-.56.14-1.08.3-1.57.47v30.18c0,.14.03.41.1.81.07.4.15.83.24,1.28.09.46.18.88.29,1.26.1.39.19.61.26.68.17.18.44.29.79.34.35.05.67.1.94.13.49.04.91.08,1.26.13.35.05.61.27.79.66.1.17.1.32-.03.44-.12.12-.31.18-.55.18-2.1,0-4.21.02-6.33.05-2.12.03-4.24,0-6.38-.1-.35-.03-.53-.18-.55-.45-.02-.26.15-.43.5-.5.74-.14,1.31-.29,1.73-.47.42-.17.74-.42.94-.74.21-.31.33-.74.37-1.26.03-.52.05-1.22.05-2.1v-29.29c0-.53-.06-.94-.18-1.26-.12-.32-.28-.55-.47-.71-.19-.16-.41-.26-.66-.31-.24-.05-.49-.1-.73-.13-.42-.07-.83-.15-1.23-.24-.4-.09-.69-.32-.87-.71-.1-.18-.1-.33,0-.47.11-.14.3-.21.58-.21h2.78c.56,0,1.14.02,1.73.05.56.04,1.1.04,1.63,0,.53-.03,1.05-.05,1.58-.05h4.25c1.61,0,3.2.09,4.78.26,1.57.18,2.97.58,4.2,1.21,1.22.63,2.22,1.57,2.99,2.81.77,1.24,1.15,2.93,1.15,5.06,0,1.54-.28,3.04-.84,4.51"/>
        <path class="cls-1" d="M166.04,151.71c-.95,2.1-2.23,3.92-3.86,5.46-1.63,1.54-3.53,2.82-5.69,3.83-2.17,1.02-4.48,1.8-6.93,2.36-.21.03-.46.07-.76.1-.3.03-.61.06-.94.08-.33.02-.68.03-1.02.03h-.79c-1.43,0-2.92-.26-4.46-.79-1.54-.52-3.03-1.23-4.46-2.12-1.44-.89-2.79-1.95-4.07-3.18-1.28-1.22-2.39-2.55-3.33-3.96-.95-1.42-1.7-2.89-2.26-4.43-.56-1.54-.84-3.08-.84-4.62,0-3.08.33-5.81,1-8.19.66-2.38,1.73-4.44,3.2-6.19,1.47-1.75,3.36-3.21,5.67-4.38,2.31-1.17,5.11-2.11,8.4-2.81.49-.11,1.01-.18,1.55-.24.54-.05,1.06-.08,1.55-.08,3.29,0,6.16.67,8.61,2,2.45,1.33,4.48,3.04,6.09,5.14,1.61,2.1,2.81,4.45,3.6,7.06.79,2.61,1.18,5.19,1.18,7.74,0,2.7-.47,5.09-1.42,7.19M161.16,137.62c-.66-2.26-1.65-4.28-2.97-6.06-1.31-1.79-2.92-3.24-4.83-4.36-1.91-1.12-4.1-1.68-6.59-1.68-2.35,0-4.42.43-6.22,1.29-1.8.86-3.32,2.03-4.57,3.52-1.24,1.49-2.19,3.22-2.83,5.2-.65,1.98-.97,4.09-.97,6.33s.34,4.55,1.02,6.83c.68,2.28,1.69,4.32,3.02,6.14,1.33,1.82,2.97,3.3,4.91,4.43,1.94,1.14,4.15,1.71,6.64,1.71,2.34,0,4.41-.45,6.19-1.34,1.78-.89,3.28-2.09,4.49-3.6,1.21-1.5,2.13-3.26,2.76-5.28.63-2.01.95-4.12.95-6.33s-.33-4.54-1-6.8"/>
        <path class="cls-1" d="M213.28,163.58c-.88.21-1.77.32-2.68.32-1.47,0-2.79-.27-3.96-.81-1.17-.54-2.26-1.26-3.25-2.15-1-.89-1.93-1.9-2.78-3.02-.86-1.12-1.69-2.26-2.49-3.41-.81-1.12-1.6-2.21-2.39-3.28-.79-1.07-1.6-1.97-2.44-2.7-.63-.56-1.41-.91-2.34-1.05-.93-.14-1.76-.21-2.49-.21h-.95c-.32,0-.61.02-.89.05v9.76c0,.17.03.47.08.89.05.42.13.87.24,1.34.11.47.21.9.32,1.28.1.39.21.61.32.68.17.07.41.12.71.16.3.04.53.07.71.1.38.03.78.09,1.18.16.4.07.76.24,1.07.52.21.17.26.35.16.53-.11.17-.3.26-.58.26h-6.4c-2.13,0-4.27-.05-6.4-.16-.35-.04-.53-.18-.55-.45-.02-.26.15-.43.5-.5.77-.14,1.37-.3,1.79-.47.42-.18.73-.42.92-.74.19-.31.31-.74.34-1.28s.05-1.24.05-2.07v-29.08c0-.59-.07-1.07-.21-1.42-.14-.35-.32-.6-.53-.76-.21-.16-.44-.26-.68-.32-.25-.05-.49-.09-.74-.13-.49-.04-.91-.11-1.26-.21-.35-.1-.58-.33-.68-.68-.11-.17-.11-.32,0-.44.1-.12.28-.18.52-.18h4.41c.6.03,1.15.04,1.68.03.52-.02,1.07-.03,1.63-.03.32,0,.62,0,.92-.03.3-.02.6-.02.92-.02h2.78c1.47,0,2.91.1,4.33.29,1.42.19,2.73.58,3.94,1.16,1.21.58,2.25,1.4,3.12,2.47.87,1.07,1.52,2.48,1.94,4.22.07.18.11.4.13.68.02.28.03.54.03.79,0,1.09-.18,2.16-.52,3.23-.35,1.07-.81,2.11-1.37,3.12-.56,1.02-1.2,1.97-1.92,2.86-.72.89-1.46,1.7-2.23,2.44.56.6,1.14,1.31,1.76,2.15.61.84,1.23,1.68,1.86,2.52,1.05,1.4,2.14,2.84,3.28,4.33,1.14,1.49,2.33,2.82,3.57,3.99,1.24,1.17,2.51,2.1,3.8,2.78,1.29.68,2.61.92,3.94.71l.32.9c-.81.38-1.65.68-2.52.89M197.09,132.66c-.33-1.23-.83-2.32-1.5-3.28-.66-.96-1.5-1.75-2.49-2.36-1-.61-2.16-.92-3.49-.92-1.02,0-2,.16-2.94.47v17.27c1.4.21,2.85.32,4.36.32.59,0,1.28-.03,2.05-.1.77-.07,1.4-.3,1.89-.68.49-.39.9-.85,1.23-1.39.33-.54.6-1.13.81-1.76.21-.63.36-1.28.45-1.94.09-.66.13-1.31.13-1.94,0-1.22-.17-2.45-.5-3.67"/>
        <path class="cls-1" d="M253.84,128.12c-.09.96-.24,1.9-.45,2.81-.07.24-.28.37-.63.37-.31,0-.51-.12-.58-.37-.32-1.61-.99-2.68-2.02-3.2-1.04-.53-2.28-.79-3.75-.79-.38,0-.73,0-1.05.03-.31.02-.65.04-1,.08-.31.04-.67.06-1.07.08-.4.02-.74.02-1.02.02h-.89c-.28,0-.54-.01-.79-.05v29.82c0,.1.03.36.08.76.05.4.1.81.16,1.23.05.42.11.81.18,1.16.07.35.12.54.16.58.35.35.7.56,1.05.63.35.07.68.12,1,.16.49.03.91.09,1.26.16.35.07.61.28.79.63.1.17.1.32,0,.45-.1.12-.28.19-.52.19-2.14,0-4.26.02-6.38.05-2.12.03-4.24.02-6.38-.05-.35-.03-.54-.17-.57-.42-.04-.25.12-.4.47-.47.74-.14,1.31-.29,1.73-.45.42-.16.73-.4.95-.71.21-.31.34-.72.39-1.21.05-.49.08-1.16.08-1.99v-30.6h-8.14c-1.01,0-1.91.36-2.68,1.07-.77.72-1.36,1.53-1.78,2.44-.11.21-.31.31-.6.29-.3-.02-.48-.15-.55-.39-.03-.14-.06-.27-.08-.39-.02-.12-.03-.27-.03-.45,0-.63.11-1.32.32-2.07.21-.75.44-1.51.68-2.28.1-.31.18-.61.24-.89.05-.28.11-.56.18-.84.07-.17.2-.29.4-.34.19-.05.37-.04.55.03.21.14.51.27.89.39.38.12.79.24,1.23.34.43.1.86.18,1.26.24.4.05.71.08.92.08h22.47c.21,0,.48-.04.81-.13.33-.09.64-.16.92-.23.17-.07.38-.12.6-.13.23-.02.43-.05.6-.08.17-.04.34-.02.5.05s.24.19.24.37v1.15c0,.98-.04,1.95-.13,2.92"/>
        <path class="cls-1" d="M281.6,162.5c-.09.16-.27.24-.55.24-.91-.03-1.73-.07-2.47-.1-.73-.03-1.55-.06-2.47-.08-.91-.02-1.84-.03-2.78-.03-1.54,0-2.93.03-4.17.08-1.24.05-1.99.03-2.23-.08-.14-.07-.21-.17-.21-.31s.03-.28.11-.42c.07-.14.17-.25.31-.34.14-.09.28-.09.42-.02.17.07.5.05.97-.08.47-.12.76-.19.87-.19.39,0,.7-.17.94-.52.24-.35.45-.77.6-1.26.16-.49.26-.99.32-1.49.05-.51.08-.94.08-1.29v-28.66c0-1.05-.33-1.78-1-2.18-.66-.4-1.45-.65-2.36-.76-.32-.03-.47-.19-.47-.47s.15-.44.47-.47c1.02-.07,2.02-.1,3.02-.08,1,.02,2,.02,3.02.02s1.96-.02,2.94-.05c.98-.03,1.98-.02,2.99.05.35.04.54.19.58.45.04.26-.12.43-.47.5-.95.18-1.72.44-2.31.79-.6.35-.89,1.07-.89,2.15v28.92c0,.18.04.46.11.87.07.4.16.83.26,1.28.1.46.22.88.34,1.28.12.4.23.68.34.81.18.07.4.14.68.21.28.07.51.1.68.1.39,0,.77.03,1.16.08.38.05.73.24,1.05.55.18.17.22.34.13.5"/>
        <path class="cls-1" d="M328.74,158.48c-.3,1.23-.71,2.31-1.23,3.25-.1.17-.26.26-.47.26-2.21.35-4.42.64-6.64.87-2.22.23-4.47.34-6.75.34-2.87,0-5.52-.46-7.95-1.39-2.43-.93-4.52-2.24-6.27-3.94-1.75-1.7-3.12-3.73-4.12-6.09-1-2.36-1.5-4.98-1.5-7.85,0-3.08.59-6.04,1.76-8.9,1.17-2.85,2.84-5.38,5.01-7.58.8-.84,1.82-1.54,3.05-2.1,1.22-.56,2.52-1.01,3.88-1.37,1.36-.35,2.74-.6,4.12-.74,1.38-.14,2.63-.21,3.75-.21,1.3,0,2.57.08,3.83.24,1.26.16,2.5.32,3.73.5.91.14,1.82.27,2.73.39.91.12,1.8.22,2.68.29.35,0,.52.16.52.47-.04,1.61-.14,3.21-.32,4.8-.17,1.59-.4,3.17-.68,4.75-.07.28-.28.42-.63.42-.32,0-.51-.14-.58-.42-.25-1.51-.72-2.82-1.42-3.96-.7-1.14-1.56-2.09-2.57-2.86-1.01-.77-2.17-1.35-3.46-1.73-1.3-.38-2.68-.58-4.15-.58-2.42,0-4.59.38-6.54,1.15-1.94.77-3.6,1.84-4.99,3.23-1.38,1.38-2.45,3.06-3.2,5.04-.76,1.98-1.13,4.17-1.13,6.59s.45,4.95,1.34,7.3c.89,2.34,2.14,4.43,3.75,6.25,1.61,1.82,3.51,3.27,5.7,4.36,2.19,1.08,4.59,1.63,7.22,1.63,1.5,0,2.79-.16,3.86-.47,1.07-.32,2-.8,2.81-1.44.8-.65,1.51-1.46,2.13-2.44.61-.98,1.23-2.12,1.86-3.41l1.15.1c.1.6.16,1.21.16,1.84,0,1.05-.15,2.19-.45,3.41"/>
        <path class="cls-1" d="M376.56,125.73c-.61.39-.92,1.08-.92,2.1v19.84c0,2.2-.35,4.27-1.05,6.19-.7,1.93-1.7,3.6-3.02,5.04-1.31,1.44-2.9,2.58-4.75,3.41-1.86.84-3.94,1.26-6.25,1.26-1.75,0-3.42-.27-5.01-.81-1.59-.54-3.05-1.29-4.38-2.26-1.33-.96-2.51-2.12-3.52-3.46s-1.82-2.81-2.42-4.38c-.07-.14-.14-.39-.21-.74-.07-.35-.13-.72-.18-1.1-.05-.38-.1-.74-.15-1.08-.05-.33-.08-.57-.08-.71v-20.84c0-.56-.07-1.08-.21-1.58-.14-.49-.44-.82-.9-.99-.1-.04-.21-.04-.31-.03-.11.02-.26,0-.47-.02-.49-.04-.99-.12-1.52-.26-.52-.14-.82-.4-.89-.79-.04-.14.02-.25.16-.34.14-.09.3-.13.47-.13l2,.05c1.71.07,3.43.04,5.14-.08,1.71-.12,3.45-.1,5.2.08.35.03.52.19.52.47s-.18.44-.52.47c-.95.1-1.69.33-2.23.68-.54.35-.81,1.05-.81,2.1v5.62c0,1.85-.02,3.73-.05,5.62-.04,1.89-.04,3.76-.03,5.62.02,1.86.03,3.73.03,5.62,0,1.57.26,2.99.79,4.25.53,1.26,1.25,2.35,2.18,3.26.93.91,2.03,1.61,3.31,2.1,1.28.49,2.67.74,4.17.74s2.91-.26,4.23-.76c1.31-.51,2.45-1.22,3.41-2.13.96-.91,1.71-2.01,2.26-3.31.54-1.29.81-2.73.81-4.31v-5.56c0-1.82-.02-3.66-.05-5.51v-2.62c0-.94,0-1.9-.03-2.86-.02-.96-.03-1.92-.03-2.86v-2.68c0-.56-.07-1.08-.21-1.57-.14-.49-.44-.82-.89-1-.1-.03-.21-.04-.31-.02-.11.02-.26,0-.47-.03-.49-.03-1-.11-1.52-.24-.53-.12-.82-.38-.89-.76-.04-.14.02-.25.16-.34.14-.09.3-.13.47-.13,1.89,0,3.76-.02,5.62-.08,1.86-.05,3.73,0,5.62.13l.05.94c-.91.14-1.67.4-2.29.79"/>
        <path class="cls-1" d="M409.68,156.96c-.89,1.37-2.02,2.54-3.39,3.52-1.36.98-2.87,1.74-4.51,2.28-1.65.54-3.22.81-4.73.81-.73,0-1.5-.08-2.31-.24-.8-.16-1.54-.42-2.21-.79-.66-.37-1.21-.87-1.65-1.5-.44-.63-.65-1.4-.65-2.31,0-.56.05-1.08.16-1.58.1-.49.23-.98.37-1.47.07-.38.14-.74.21-1.08.07-.33.14-.64.21-.92.03-.14.11-.24.23-.29.12-.05.26-.08.4-.08.17,0,.32.04.42.11.11.07.16.17.16.31l-.05.84c-.07.94.08,1.79.45,2.55.37.75.88,1.39,1.55,1.91.67.53,1.42.93,2.26,1.21.84.28,1.72.42,2.63.42.8,0,1.63-.14,2.47-.42.84-.28,1.6-.68,2.28-1.21.68-.52,1.24-1.16,1.68-1.89.44-.73.65-1.56.65-2.47s-.21-1.75-.63-2.63c-.42-.87-.97-1.74-1.65-2.6-.68-.86-1.46-1.72-2.34-2.6-.87-.87-1.77-1.77-2.68-2.68v.05c-1.01-.98-2.02-1.96-3.02-2.94-1-.98-1.88-1.98-2.65-2.99-.77-1.01-1.39-2.04-1.86-3.07-.47-1.03-.71-2.09-.71-3.17,0-1.61.46-2.99,1.39-4.15.93-1.15,2.07-2.11,3.44-2.86,1.36-.75,2.83-1.3,4.41-1.65,1.58-.35,3.03-.52,4.36-.52,1.86,0,3.59.22,5.2.68.28.07.42.23.42.47v1.89c0,.94-.04,1.92-.1,2.91-.07,1-.35,1.83-.84,2.49-.18.18-.4.23-.68.16-.28-.07-.42-.23-.42-.47,0-.87-.15-1.66-.45-2.36-.3-.7-.73-1.29-1.29-1.79-.56-.49-1.2-.87-1.92-1.13-.72-.26-1.49-.39-2.34-.39s-1.57.14-2.28.42c-.72.28-1.35.68-1.89,1.21-.54.52-.97,1.15-1.29,1.86-.32.72-.47,1.51-.47,2.39s.19,1.77.58,2.57c.39.8.9,1.58,1.55,2.33.65.75,1.38,1.48,2.2,2.18.82.7,1.66,1.42,2.49,2.15,1.02.84,2.01,1.7,2.99,2.57.98.88,1.86,1.79,2.63,2.76.77.96,1.39,1.98,1.86,3.07.47,1.09.71,2.26.71,3.52,0,1.68-.45,3.2-1.34,4.57"/>
        <path class="cls-1" d="M14.17,47.98s43.28,17.73,21.76,116c-2.13,9.72,50.34-94.44-21.76-116"/>
        <path class="cls-1" d="M51.5,66.39s24.78-20.25,39.22-1.69c14.43,18.56-19.07,38.27-19.07,38.27,0,0,21.5-18.19,12.78-31.92-8.72-13.73-32.93-4.66-32.93-4.66"/>
      </g>
    </g>
  </g>
</svg>