<?xml version="1.0" encoding="UTF-8"?>
<svg xmlns="http://www.w3.org/2000/svg" version="1.1" viewBox="0 0 2638.29 1373.14">
  <defs>
    <style>
      .cls-1, .cls-2, .cls-3 {
        fill: #1e120d;
      }

      .cls-2 {
        font-size: 264.18px;
      }

      .cls-2, .cls-3 {
        font-family: Seravek-Bold, Seravek;
        font-weight: 700;
      }

      .cls-3 {
        font-size: 267.3px;
      }
    </style>
  </defs>
  <!-- Generator: Adobe Illustrator 28.7.2, SVG Export Plug-In . SVG Version: 1.2.0 Build 154)  -->
  <g>
    <g id="Camada_1">
      <g>
        <g>
          <text class="cls-2" transform="translate(1088.94 811.19)"><tspan x="0" y="0">CULTURA</tspan></text>
          <text class="cls-3" transform="translate(1095.89 575.93)"><tspan x="0" y="0">REDE</tspan></text>
          <text class="cls-3" transform="translate(1998.71 1051.27)"><tspan x="0" y="0">RJ</tspan></text>
          <path class="cls-1" d="M624.01,370.65c0,36.07-29.26,65.35-65.36,65.35-36.1,0-65.36-29.27-65.36-65.35,0-36.12,29.27-65.37,65.36-65.37,36.1,0,65.36,29.26,65.36,65.37ZM992.75,358.9c-.83,36.09-30.77,64.67-66.86,63.82-11.32-.24-20.49-9.17-31.06-8.68-30.61,1.45-78.44,52.69-91.14,85.99,4.61,9.45,7.28,20.01,7.28,31.24,0,13.78-3.98,26.59-10.76,37.5,10.39,28.25,53.83,63.35,85.09,75.96,10.87-6.72,23.64-10.66,37.34-10.67,39.35,0,71.24,31.91,71.24,71.24,0,39.36-31.89,71.23-71.24,71.24-12.77,0-24.71-3.39-35.07-9.27-32.2,4.58-83.26,58.84-87.67,89.55,6.97,11.02,11.07,24.02,11.08,38.02-.01,8.01-1.4,15.69-3.84,22.88,12.54,33.85,66.88,79.69,97.92,87.44,5.64,1.41,11.48-2.47,17.58-2.46,36.1,0,65.37,29.25,65.37,65.35,0,36.09-29.26,65.35-65.37,65.35-36.1,0-65.35-29.25-65.35-65.35,0-10.37,8.47-19.28,6.78-28.84-5.03-28.33-49.19-74.46-82.01-87.16-11.84,8.77-26.46,14.02-42.32,14.02-17.12,0-32.84-6.06-45.13-16.14-26.6,11.73-58.62,45.66-71.83,72.66,7.58,11.32,12,24.92,12.01,39.57-.01,39.33-31.89,71.23-71.23,71.23-15.64,0-30.04-5.1-41.8-13.64-17.81-11.67-29.6-31.78-29.6-54.67,0-.72.11-1.44.19-2.15,0-.26-.04-.51-.04-.77,0-9.08,1.76-17.72,4.85-25.71-8.08-29.11-54.36-71.47-87.96-84.07-9.7,4.94-20.65,7.8-32.29,7.79-39.34,0-71.23-31.89-71.23-71.23,0-39.34,31.89-71.24,71.24-71.24,12.96,0,25.09,3.53,35.55,9.57,27.37-8.63,66.33-44.8,80.58-74.29-7.88-11.47-12.51-25.33-12.51-40.29,0-13.72,3.95-26.49,10.67-37.37-17.17-33.7-66.17-77.17-96.27-82.75-4.68-.88-9.44,1.63-14.4,1.64-36.08,0-65.35-29.28-65.35-65.36,0-36.09,29.27-65.37,65.36-65.37,36.11,0,65.37,29.29,65.37,65.37,0,11.33-8.7,20.71-7.97,31.25,2.09,29.51,50.94,73.93,84.54,87.69,8.94-4.04,18.83-6.34,29.28-6.34,12.36,0,23.97,3.16,34.1,8.69,30.38-7.81,79.23-52.62,90.94-85.5-5.29-9.96-8.31-21.31-8.33-33.39,0-39.35,31.9-71.24,71.24-71.24,11.41,0,22.16,2.74,31.72,7.53,34.65-12.56,85.22-65.23,91.93-97.28.98-4.63-1.41-9.47-1.31-14.42.84-36.08,30.78-64.66,66.86-63.82,36.09.83,64.66,30.76,63.83,66.86ZM522.36,777.55c-29.97,13.95-66.84,54.59-79.78,83.73,3.59,8.52,5.58,17.88,5.58,27.69,0,11.47-2.78,22.26-7.59,31.86,13.74,29.75,59.79,65.5,91.06,77.72,9.6-4.84,20.44-7.62,31.92-7.62,10.73,0,20.87,2.44,30,6.69,28.77-14.04,65.21-48.24,79.99-76.6-3.21-8.11-5.02-16.91-5.02-26.17,0-13.7,3.94-26.45,10.63-37.31-12.87-31.64-58.69-76.92-89.97-84.26-10.87,6.73-23.65,10.69-37.38,10.69-10.51,0-20.45-2.33-29.43-6.42ZM620.39,689.01c-.29,1.32-.29,2.63-.2,3.97.79,2.75,1.4,5.57,1.85,8.45,1.17,3.67,2.4,7.45,2.31,11.36-.2,7.72-1.76,15.07-4.38,21.9,6.73,33.24,63.2,84.3,96.84,92.77,7.2-2.45,14.88-3.84,22.92-3.84.67,0,1.32.08,1.98.1.39-.03.81-.09,1.2-.1,1.04,0,2.08.14,3.1.31,4.53.41,8.9,1.24,13.13,2.44.53-.05,1.06-.09,1.58-.22,31.5-7.97,86.15-55.84,97.77-89.99-4.49-9.32-7.08-19.77-7.07-30.83-.01-9.01,1.73-17.61,4.79-25.54-15.19-30.31-59.8-68.8-92.28-81.58-7.58,2.75-15.69,4.31-24.21,4.31-11.76,0-22.84-2.91-32.63-7.95-33.96,13.08-79.97,64.11-86.7,94.45Z"/>
        </g>
        <g>
          <path class="cls-1" d="M1115.41,892.52c20.87-.09,37.56,15.16,38.15,37.59.57,21.52-1.84,43.12-2.74,64.69-.28,6.6-.6,13.32.41,19.79.66,4.28,3.66,8.19,5.61,12.27,4.17-2.63,10.04-4.29,12.19-8.07,5.64-9.89,10.26-20.48,14.2-31.2,10.04-27.28,18.99-54.96,29.39-82.1,4.54-11.84,11.16-22.96,17.57-33.98,5-8.58,12.76-14.1,23.19-11.33,10.21,2.71,10.12,11.18,10.29,20.14.42,23.27,11.66,37.78,34.43,44.33,9.21,2.65,19.05,3.54,28.67,4.22,14.54,1.02,25.4-2.06,30.89-19.07,6.29-19.49,20.43-19.87,32.51-2.7,9,12.79,10.53,26.93,6.41,41.7-8.77,31.4-17.81,62.74-26.61,94.13-1.61,5.75-2.63,11.66-1.18,19.76,4.01-2.57,8.71-4.48,11.92-7.82,29.66-30.9,59.2-61.92,88.36-93.29,3.23-3.47,4.87-9.29,5.42-14.22,1.73-15.34,2.78-30.76,3.68-46.17.55-9.46,5.01-10.98,13.17-8.17,16.83,5.8,28.67,21.98,28.32,42.16-.33,19.37-2.59,38.71-3.52,58.08-.4,8.31.04,16.72.97,24.99.33,3.01,2.99,7.96,4.92,8.12,3.24.27,8.3-1.65,9.87-4.27,5.63-9.39,11.04-19.12,14.85-29.34,11.1-29.71,20.87-59.92,32.24-89.52,4.54-11.81,11.42-22.82,18.1-33.66,5.04-8.18,13.85-13.4,22.47-8.63,4.93,2.72,8.56,11.67,8.94,18.04,1.75,29.1,18.84,46.27,51.77,49.48,7.44.73,15.03.38,22.51-.05,10.06-.58,17.62-4.38,23.86-13.57,16.59-24.46,38.56-42.28,68.54-48.33,15.58-3.15,30.04-.7,42.54,9.26,15.56,12.39,15.56,32.16-1.15,46.7-2.13-5.16-3.76-9.82-5.93-14.21-5.14-10.38-13.34-14.27-23.95-8.86-6.58,3.36-13,7.71-18.26,12.87-28.17,27.61-48.24,60.69-63.25,96.87-2.86,6.9-3.07,14.9-4.5,22.4,1.31.95,2.61,1.9,3.92,2.85,5.4-3.67,11.87-6.4,16.01-11.15,20.87-23.95,41.29-48.29,61.54-72.77,11.15-13.48,21.22-16.91,32.82-10,11.84,7.05,15.23,20.08,8.69,34.8-5.01,11.28-10.5,22.35-15.62,33.58-1.27,2.79-2.89,5.93-2.66,8.77.64,8.02-.42,20.22,3.98,22.89,5.69,3.44,17.91,1.98,23.97-2.2,14.39-9.94,27.51-22.04,39.83-34.55,13.92-14.14,26.08-29.99,39.66-44.48,5.71-6.1,13.07-10.65,19.68-15.91,1.03.8,2.06,1.59,3.08,2.38-.59,4.16-.29,8.7-1.91,12.42-17.59,40.24-40.99,76.28-77.88,101.62-10.08,6.93-21.33,12.61-32.75,17.03-23.8,9.21-45.14.03-56.18-22.95-1.87-3.9-3.41-7.97-5.59-13.1-5.86,4.2-10.84,8.61-16.55,11.67-8.5,4.55-17.15,9.47-26.35,11.91-33.62,8.91-60.48-18.17-52.13-52.82,5.04-20.89,12.06-41.3,17.84-60.72-13.78-.61-29.04,1.03-42.96-2.55-14.09-3.62-26.84-12.41-41.75-19.7-1.68,3.45-4.07,8.41-6.5,13.35-12.24,24.92-23.76,50.23-37.04,74.58-6.89,12.64-15.78,24.66-25.73,35.08-23.3,24.39-52.64,19.16-65.52-12.02-6.25-15.14-8.61-31.89-13.05-49.17-2.81,3.47-5.42,6.7-8.03,9.91-20.33,24.99-40.53,50.08-61.04,74.92-12.28,14.87-28.31,21.54-47.2,16.57-14.72-3.87-26.65-22.83-25.43-42.65,1.71-27.6,5.82-55.06,9.17-82.55.73-5.97,2.57-11.8,4.37-19.75-33.87,10.25-62.14,1.84-88.25-20.95-8.85,19.01-16.66,37.61-26.02,55.39-10.46,19.85-21.79,39.32-33.88,58.23-4.86,7.61-12.02,14.3-19.41,19.62-18.39,13.23-40.12,9.42-51.21-10.3-6.97-12.4-13.72-26.95-14.02-40.68-.82-36.93,1.86-73.94,3.24-110.91.06-1.64,1.07-3.24,1.58-4.71"/>
          <path class="cls-1" d="M1378.99,888.82c-.95-13.67-4.29-27.79-1.82-40.81,1.17-6.17,13.66-14.57,20.68-14.26,11.48.51,14.79,12.07,10.6,22.11-5.07,12.15-12.46,23.32-18.84,34.92-3.54-.65-7.08-1.3-10.62-1.95"/>
        </g>
      </g>
    </g>
  </g>
</svg>