<?xml version="1.0" encoding="UTF-8"?>
<svg xmlns="http://www.w3.org/2000/svg" version="1.1" viewBox="0 0 3235.12 961.44">
  <defs>
    <style>
      .cls-1, .cls-2 {
        fill: #1e120d;
      }

      .cls-2 {
        fill-rule: evenodd;
      }
    </style>
  </defs>
  <!-- Generator: Adobe Illustrator 28.7.2, SVG Export Plug-In . SVG Version: 1.2.0 Build 154)  -->
  <g>
    <g id="Camada_1">
      <g>
        <g>
          <path class="cls-1" d="M310.63,412.38l3.61-5.52c6.09,3.96,12.39,5.45,18.76,5.45,10.69,0,14.73-2.76,14.73-9.13s-5.73-7.58-14.8-9.06c-12.04-1.98-19.54-4.04-19.54-14.94s6.58-14.59,19.68-14.59c8.85,0,14.94,2.05,19.12,4.82l-3.89,5.87c-3.61-2.41-9.35-4.11-15.22-4.11-9.06,0-12.6,2.34-12.6,7.86,0,5.95,5.17,7.08,14.23,8.64,11.75,1.98,20.11,3.75,20.11,15.15,0,10.48-6.44,15.79-21.59,15.79-8.57,0-16.07-1.84-22.59-6.23"/>
          <path class="cls-1" d="M361.76,398.14c0-11.33,3.47-20.53,19.19-20.53s16.78,11.26,16.57,23.22h-29.1c.43,7.15,2.9,11.9,12.68,11.9,6.37,0,9.49-1.63,12.53-3.89l3.68,4.81c-4.18,3.26-8.78,5.03-16.21,5.03-16.14,0-19.33-9.13-19.33-20.53M368.49,394.74h22.51c-.35-6.23-.92-11.05-10.27-11.05s-11.68,4.39-12.25,11.05"/>
          <path class="cls-1" d="M404.25,398.14c0-12.18,4.04-20.53,19.47-20.53,7.01,0,11.61,2.48,14.66,5.88l-5.03,4.74c-1.84-1.91-4.6-3.96-9.63-3.96-9.7,0-12.53,5.24-12.53,14.02s2.69,14.16,12.53,14.16c4.25,0,7.01-1.35,9.98-4.04l4.6,4.39c-4.04,3.75-7.93,5.81-14.87,5.81-15.08,0-19.19-8.28-19.19-20.46"/>
          <path class="cls-1" d="M446.46,378.88l5.45-.35.71,4.81c1.56-2.83,6.37-5.17,13.31-5.31v6.94c-9.49.07-12.53,4.96-12.53,12.18v20.75h-6.94v-39.01Z"/>
          <path class="cls-1" d="M470.82,398.14c0-11.33,3.47-20.53,19.19-20.53s16.78,11.26,16.57,23.22h-29.1c.43,7.15,2.9,11.9,12.68,11.9,6.37,0,9.49-1.63,12.53-3.89l3.68,4.81c-4.18,3.26-8.78,5.03-16.21,5.03-16.14,0-19.33-9.13-19.33-20.53M477.54,394.74h22.51c-.35-6.23-.92-11.05-10.27-11.05s-11.68,4.39-12.25,11.05"/>
          <path class="cls-1" d="M512.17,378.53h7.15l1.2-11.19,5.45-1.06v12.25h10.41v6.23h-10.41v21.45c0,3.47.42,5.59,5.66,5.59h4.75v6.09c-.85.07-4.89.07-5.95.07-9.35,0-11.33-3.54-11.33-10.83v-22.38h-6.94v-6.23Z"/>
          <path class="cls-1" d="M542.48,406.71c0-11.19,6.3-14.44,25.99-14.44h2.12c-.14-5.66-1.49-8.21-9.84-8.21-4.96,0-9.13,1.77-11.61,3.33l-3.61-5.38c2.62-1.77,8.85-4.39,15.86-4.39,13.45,0,15.86,4.6,15.86,15.79v14.02c0,3.82.28,4.39,3.89,4.39v6.02c-.5.14-1.41.14-2.83.14-4.32,0-5.74-1.2-6.73-4.46-2.34,3.33-6.58,5.1-15.01,5.1-11.33,0-14.09-5.24-14.09-11.9M570.59,400.55v-2.41h-1.77c-16.21,0-19.75,1.84-19.75,8.07,0,4.18,1.91,6.44,8.64,6.44,9.13,0,12.89-3.68,12.89-12.11"/>
          <path class="cls-1" d="M589.22,378.88l5.45-.35.71,4.81c1.56-2.83,6.37-5.17,13.31-5.31v6.94c-9.49.07-12.53,4.96-12.53,12.18v20.75h-6.94v-39.01Z"/>
          <path class="cls-1" d="M615.85,365.43h6.94v8.35h-6.94v-8.35ZM615.92,378.53h6.8v39.37h-6.8v-39.37Z"/>
          <path class="cls-1" d="M631,406.71c0-11.19,6.3-14.44,25.99-14.44h2.12c-.14-5.66-1.49-8.21-9.84-8.21-4.96,0-9.13,1.77-11.61,3.33l-3.61-5.38c2.62-1.77,8.85-4.39,15.86-4.39,13.45,0,15.86,4.6,15.86,15.79v14.02c0,3.82.28,4.39,3.89,4.39v6.02c-.5.14-1.41.14-2.83.14-4.32,0-5.74-1.2-6.73-4.46-2.34,3.33-6.58,5.1-15.01,5.1-11.33,0-14.09-5.24-14.09-11.9M659.11,400.55v-2.41h-1.77c-16.21,0-19.75,1.84-19.75,8.07,0,4.18,1.91,6.44,8.64,6.44,9.13,0,12.89-3.68,12.89-12.11"/>
          <path class="cls-1" d="M692.12,398c0-11.96,3.83-20.32,17.14-20.32,8.21,0,12.18,1.56,14.09,4.74v-19.47h6.94v54.66l-5.31.5-.78-4.6c-2.48,3.47-6.73,5.1-15.15,5.1-13.17,0-16.92-8.5-16.92-20.6M723.34,398c0-10.34-3.33-13.88-12.81-13.88s-11.4,5.31-11.4,13.88,2.34,14.3,11.4,14.3,12.81-3.89,12.81-14.3"/>
          <path class="cls-1" d="M738.57,398.14c0-11.33,3.47-20.53,19.19-20.53s16.78,11.26,16.57,23.22h-29.1c.43,7.15,2.9,11.9,12.68,11.9,6.37,0,9.49-1.63,12.53-3.89l3.68,4.81c-4.18,3.26-8.78,5.03-16.21,5.03-16.14,0-19.33-9.13-19.33-20.53M745.3,394.74h22.51c-.35-6.23-.92-11.05-10.26-11.05s-11.68,4.39-12.25,11.05"/>
          <path class="cls-1" d="M310.49,469.52c0-18.83,10.27-27.05,27.68-27.05,9.56,0,15.65,2.55,20.6,7.58l-8,8c-3.19-3.12-6.94-4.96-12.67-4.96-11.19,0-15.93,5.66-15.93,16.57s3.97,16.57,16,16.57c6.8,0,10.05-2.26,13.31-5.31l7.65,7.5c-4.18,4.32-9.77,8.14-21.67,8.14-19.61,0-26.98-9.7-26.98-27.05"/>
          <path class="cls-1" d="M366.01,477.1v-21.38h11.12v21.59c0,5.59.14,9.49,8.07,9.49s8-3.96,8-9.56v-21.52h10.9v21.31c0,13.73-3.68,19.4-18.98,19.4s-19.12-5.59-19.12-19.33"/>
          <path class="cls-1" d="M413.1,483.68v-42.84h11.05v41.49c0,3.26.64,4.18,3.96,4.18h1.35v9.13c-.92.14-3.11.28-5.38.28-7.22,0-10.97-2.76-10.97-12.25"/>
          <path class="cls-1" d="M434.21,455.72h7.08l1.91-9.77,8.64-1.77v11.54h9.49v9.49h-9.49v16.5c0,3.11.42,4.81,5.17,4.81h4.32v9.28c-1.63.14-4.6.14-6.59.14-10.83,0-13.95-3.68-13.95-12.6v-18.13h-6.59v-9.49Z"/>
          <path class="cls-1" d="M468.69,477.1v-21.38h11.12v21.59c0,5.59.14,9.49,8.07,9.49s8-3.96,8-9.56v-21.52h10.9v21.31c0,13.73-3.68,19.4-18.98,19.4s-19.12-5.59-19.12-19.33"/>
          <path class="cls-1" d="M515.36,456.35l8.64-.64,1.13,4.39c1.7-2.55,6.58-4.6,12.81-4.82v10.62c-9.42.07-11.47,3.75-11.47,10.05v19.83h-11.11v-39.44Z"/>
          <path class="cls-1" d="M541.35,484.04c0-11.33,7.93-14.02,25.7-14.02h1.63c-.07-3.61-.99-5.45-7.93-5.45-4.89,0-9.21,1.77-11.61,3.26l-5.52-8.14c2.83-1.91,9.91-4.89,18.34-4.89,14.44,0,17.42,4.6,17.42,15.93v12.18c0,3.18.21,3.68,3.47,3.68v9.06c-.78.21-2.2.28-4.67.28-4.25,0-6.09-.85-7.65-3.97-2.05,2.76-6.51,4.46-14.09,4.46-12.39,0-15.08-5.38-15.08-12.39M568.68,479.15v-1.49h-.92c-14.16,0-15.86,1.13-15.86,5.45,0,2.97,1.63,4.39,6.73,4.39,7.01,0,10.05-2.48,10.05-8.35"/>
          <path class="cls-1" d="M602.96,475.68c0-11.19,3.68-20.89,20.82-20.89s18.2,11.75,17.84,25.13h-27.9c.64,4.82,2.98,7.65,10.13,7.65,6.16,0,9.63-1.49,12.6-3.68l5.59,7.22c-5.17,3.89-10.26,5.45-18.2,5.45-17.35,0-20.89-9.49-20.89-20.89M613.72,472h17.77c-.28-4.6-1.2-7.93-8.07-7.93s-9.13,3.04-9.7,7.93"/>
          <polygon class="cls-1" points="664.78 443.32 704.22 443.32 704.22 453.81 676.39 453.81 676.39 464 703.51 464 703.51 474.12 676.39 474.12 676.39 485.74 704.5 485.74 704.5 495.79 664.78 495.79 664.78 443.32"/>
          <path class="cls-1" d="M710.67,475.68c0-11.61,3.75-20.89,21.03-20.89,7.22,0,12.6,2.41,16.28,6.51l-7.79,7.36c-1.7-1.77-3.96-3.68-8.5-3.68-7.93,0-9.84,4.32-9.84,10.97s1.77,11.12,9.91,11.12c3.75,0,6.23-1.2,9.06-3.89l7.08,6.8c-4.67,4.32-8.64,6.44-16.71,6.44-16.57,0-20.53-8.99-20.53-20.75"/>
          <path class="cls-1" d="M752.24,475.68c0-13.45,5.88-20.89,20.96-20.89s20.89,7.43,20.89,20.89-5.81,20.89-20.89,20.89-20.96-7.43-20.96-20.89M782.97,475.97c0-6.8-2.12-11.05-9.77-11.05s-9.77,4.25-9.77,11.05,2.05,11.12,9.77,11.12,9.77-4.32,9.77-11.12"/>
          <path class="cls-1" d="M800.96,456.35l8.64-.64.92,3.47c2.12-2.34,6.02-4.39,14.51-4.39,12.11,0,14.37,6.73,14.37,16.71v24.29h-11.05v-22.09c0-4.89-.57-8.43-7.29-8.43-7.72,0-8.99,3.61-8.99,8.92v21.6h-11.11v-39.44Z"/>
          <path class="cls-1" d="M846.07,475.68c0-13.45,5.88-20.89,20.96-20.89s20.89,7.43,20.89,20.89-5.81,20.89-20.89,20.89-20.96-7.43-20.96-20.89M876.8,475.97c0-6.8-2.12-11.05-9.77-11.05s-9.77,4.25-9.77,11.05,2.05,11.12,9.77,11.12,9.77-4.32,9.77-11.12"/>
          <path class="cls-1" d="M894.79,456.35l8.64-.64.92,3.47c1.77-2.41,6.02-4.39,14.09-4.39,8.78,0,10.41,1.98,11.68,4.53,2.05-2.62,6.44-4.53,14.87-4.53,12.11,0,14.02,6.73,14.02,16.71v24.29h-11.19v-22.09c0-4.89-.07-8.43-6.8-8.43-7.72,0-8.57,3.61-8.57,8.92v21.6h-11.12v-22.09c0-4.89-.14-8.43-6.87-8.43-7.72,0-8.57,3.61-8.57,8.92v21.6h-11.11v-39.44Z"/>
          <path class="cls-1" d="M967.87,441.91h11.19v10.13h-11.19v-10.13ZM967.95,455.72h11.05v40.08h-11.05v-40.08Z"/>
          <path class="cls-1" d="M985.65,484.04c0-11.33,7.93-14.02,25.7-14.02h1.63c-.07-3.61-.99-5.45-7.93-5.45-4.89,0-9.21,1.77-11.61,3.26l-5.52-8.14c2.83-1.91,9.91-4.89,18.34-4.89,14.44,0,17.42,4.6,17.42,15.93v12.18c0,3.18.21,3.68,3.47,3.68v9.06c-.78.21-2.2.28-4.67.28-4.25,0-6.09-.85-7.65-3.97-2.05,2.76-6.51,4.46-14.09,4.46-12.39,0-15.08-5.38-15.08-12.39M1012.98,479.15v-1.49h-.92c-14.16,0-15.86,1.13-15.86,5.45,0,2.97,1.63,4.39,6.73,4.39,7.01,0,10.05-2.48,10.05-8.35"/>
          <path class="cls-1" d="M310.49,547.42c0-18.83,10.27-27.05,27.68-27.05,9.56,0,15.65,2.55,20.6,7.58l-8,8c-3.19-3.11-6.94-4.96-12.67-4.96-11.19,0-15.93,5.67-15.93,16.57s3.97,16.57,16,16.57c6.8,0,10.05-2.26,13.31-5.31l7.65,7.5c-4.18,4.32-9.77,8.14-21.67,8.14-19.61,0-26.98-9.7-26.98-27.05"/>
          <path class="cls-1" d="M366.22,534.25l8.64-.64,1.13,4.39c1.7-2.55,6.58-4.6,12.81-4.82v10.62c-9.42.07-11.47,3.75-11.47,10.05v19.83h-11.11v-39.44Z"/>
          <path class="cls-1" d="M395.19,519.81h11.19v10.12h-11.19v-10.12ZM395.26,533.62h11.05v40.07h-11.05v-40.07Z"/>
          <path class="cls-1" d="M412.96,561.94c0-11.33,7.93-14.02,25.7-14.02h1.63c-.07-3.61-.99-5.45-7.93-5.45-4.89,0-9.21,1.77-11.61,3.26l-5.52-8.14c2.83-1.91,9.91-4.89,18.34-4.89,14.44,0,17.42,4.6,17.42,15.93v12.18c0,3.18.21,3.68,3.47,3.68v9.06c-.78.21-2.2.28-4.67.28-4.25,0-6.09-.85-7.65-3.97-2.05,2.76-6.51,4.46-14.09,4.46-12.39,0-15.08-5.38-15.08-12.39M440.29,557.05v-1.49h-.92c-14.16,0-15.86,1.13-15.86,5.45,0,2.97,1.63,4.39,6.73,4.39,7.01,0,10.05-2.48,10.05-8.35"/>
          <path class="cls-1" d="M458.64,533.62h7.08l1.91-9.77,8.64-1.77v11.54h9.49v9.49h-9.49v16.5c0,3.12.42,4.82,5.17,4.82h4.32v9.27c-1.63.14-4.6.14-6.59.14-10.83,0-13.95-3.68-13.95-12.6v-18.13h-6.59v-9.49Z"/>
          <path class="cls-1" d="M493.69,519.81h11.19v10.12h-11.19v-10.12ZM493.76,533.62h11.05v40.07h-11.05v-40.07Z"/>
          <polygon class="cls-1" points="509.62 533.62 521.59 533.62 531.72 560.81 541.84 533.62 553.1 533.62 537.17 574.12 525.56 574.12 509.62 533.62"/>
          <path class="cls-1" d="M554.87,561.94c0-11.33,7.93-14.02,25.7-14.02h1.63c-.07-3.61-.99-5.45-7.93-5.45-4.89,0-9.21,1.77-11.61,3.26l-5.52-8.14c2.83-1.91,9.91-4.89,18.34-4.89,14.44,0,17.42,4.6,17.42,15.93v12.18c0,3.18.21,3.68,3.47,3.68v9.06c-.78.21-2.2.28-4.67.28-4.25,0-6.09-.85-7.65-3.97-2.05,2.76-6.51,4.46-14.09,4.46-12.39,0-15.08-5.38-15.08-12.39M582.21,557.05v-1.49h-.92c-14.16,0-15.86,1.13-15.86,5.45,0,2.97,1.63,4.39,6.73,4.39,7.01,0,10.05-2.48,10.05-8.35"/>
        </g>
        <g>
          <path class="cls-2" d="M1434.06,635.58c1.6-1.47,3.86-1.71,5.7-.83-3.77-3.35-6.44-8.18-7.13-13.81-.8-6.36,1.03-12.36,4.63-16.78,4.54,3.33,7.81,8.62,8.66,14.86.43-.67.88-1.32,1.39-1.98,3.17-4.09,7.42-6.81,11.92-8-.96-1.54-1.05-3.54-.1-5.23.85-1.5,2.36-2.39,3.97-2.54-.26-.53-.4-1.11-.48-1.67-1.47.68-3.2.66-4.7-.21-2.48-1.42-3.3-4.53-1.92-7,1.41-2.43,4.56-3.3,7-1.89,1.51.86,2.41,2.33,2.56,3.95.51-.26,1.06-.4,1.62-.44-.66-1.48-.62-3.19.23-4.67,1.02-1.78,2.97-2.76,4.94-2.54-4.42-2.22-8.19-6.04-10.4-11.1-2.54-5.89-2.44-12.18-.24-17.39,5.29,1.93,9.9,6.06,12.46,11.83.22-.76.48-1.51.77-2.27,1.99-5.05,5.54-8.96,9.78-11.32-1.64-1.2-2.47-3.34-1.91-5.43.44-1.69,1.68-2.95,3.17-3.5-.35-.47-.66-.97-.86-1.52-1.23,1.02-2.95,1.49-4.6,1.02-2.74-.71-4.38-3.51-3.65-6.24.73-2.75,3.56-4.41,6.26-3.66,1.69.46,2.92,1.65,3.5,3.17.44-.35.91-.65,1.43-.86-1-1.24-1.4-2.89-.97-4.55.59-2.19,2.52-3.68,4.68-3.8-4.98-.99-9.74-3.85-13.19-8.39-3.87-5.07-5.3-11.22-4.37-16.81,5.55.58,11.04,3.54,14.92,8.51.02-.78.1-1.59.2-2.39.71-5.27,3.12-9.85,6.54-13.11-1.66-.89-2.76-2.65-2.72-4.67.03-1.74.94-3.25,2.27-4.11-.48-.36-.88-.79-1.21-1.28-.95,1.29-2.51,2.12-4.23,2.07-2.84-.05-5.08-2.39-5-5.23.05-2.82,2.39-5.05,5.22-5.01,1.72.03,3.22.93,4.13,2.25.34-.44.73-.84,1.21-1.16-1.27-.97-2.07-2.48-2.04-4.19.08-2.2,1.49-4.05,3.47-4.74-4.98.09-10.14-1.65-14.45-5.2-4.93-4.1-7.67-9.76-8.04-15.42,5.56-.68,11.57.95,16.46,4.95-.16-.77-.25-1.58-.33-2.38-.48-5.18.78-10.05,3.25-14-1.79-.5-3.25-1.98-3.62-3.96-.34-1.71.21-3.37,1.33-4.52-.54-.21-1.01-.55-1.44-.96-.66,1.47-2.02,2.59-3.71,2.92-2.79.53-5.45-1.28-5.99-4.04-.54-2.79,1.27-5.49,4.07-6.01,1.68-.34,3.35.21,4.51,1.33.22-.51.56-.98.93-1.42-1.44-.64-2.54-1.98-2.87-3.64-.35-1.93.37-3.8,1.8-4.97-4.72,1.06-9.98.49-14.81-1.96-5.75-2.89-9.69-7.8-11.3-13.23,5.28-1.89,11.5-1.67,17.17,1.15-.33-.74-.63-1.49-.88-2.23-1.71-5.23-1.44-10.6.37-15.19-2.12.24-4.2-.91-5.16-2.92-.73-1.56-.61-3.32.19-4.7-.57-.1-1.12-.3-1.62-.61-.3,1.59-1.31,3.02-2.87,3.75-2.57,1.21-5.61.1-6.82-2.47-1.2-2.54-.09-5.63,2.48-6.79,1.56-.76,3.29-.62,4.69.18.11-.57.28-1.11.55-1.6-1.56-.3-2.94-1.31-3.66-2.86-.93-1.97-.48-4.23.96-5.71-4.28,2.37-9.54,3.32-14.94,2.28-6.28-1.15-11.43-4.79-14.51-9.56,4.53-3.28,10.58-4.78,16.79-3.65-.5-.6-.98-1.25-1.46-1.91-3.04-4.49-4.3-9.64-3.87-14.46-1.91.71-4.15.2-5.61-1.42-1.13-1.28-1.55-2.99-1.15-4.57-.59.08-1.17.04-1.74-.09.17,1.59-.37,3.26-1.69,4.42-2.12,1.87-5.33,1.67-7.22-.44-1.89-2.1-1.73-5.34.4-7.23,1.27-1.15,2.99-1.53,4.55-1.18-.05-.55-.01-1.11.11-1.67-1.59.15-3.23-.42-4.36-1.69-1.13-1.27-1.51-2.94-1.18-4.49-3.3,3.44-7.91,5.89-13.19,6.58-6.37.86-12.41-.97-16.79-4.56,3.28-4.53,8.54-7.81,14.79-8.7-.68-.44-1.33-.87-1.98-1.36-5.09-3.91-8.06-9.47-8.67-15.11,5.6-.9,11.73.52,16.81,4.41.65.5,1.27,1.03,1.85,1.58-.73-6.24,1.09-12.15,4.6-16.49,4.58,3.33,7.9,8.66,8.76,15,.73,5.57-.58,10.85-3.3,15.06,1.99-.9,4.41-.44,5.95,1.26,1.13,1.25,1.51,2.95,1.18,4.5.53-.03,1.06-.03,1.58.07-.15-1.56.43-3.16,1.69-4.29,2.12-1.89,5.34-1.7,7.22.43,1.89,2.08,1.71,5.33-.41,7.22-1.26,1.13-2.94,1.51-4.47,1.18.05.55.01,1.11-.11,1.64,1.6-.19,3.25.4,4.4,1.68,1.56,1.74,1.72,4.24.53,6.12,4.78,1.33,9.27,4.36,12.38,8.98.48.68.91,1.36,1.29,2.05,1.23-6.15,4.8-11.19,9.5-14.21,3.29,4.58,4.81,10.7,3.62,16.99-1.15,6.09-4.58,11.12-9.13,14.21,2.39-.68,4.98.44,6.1,2.75.69,1.57.59,3.26-.19,4.65.53.1,1.04.27,1.49.53.32-1.54,1.33-2.89,2.87-3.61,2.54-1.22,5.62-.12,6.8,2.45,1.2,2.56.1,5.61-2.44,6.82-1.55.71-3.25.6-4.63-.16-.12.55-.3,1.07-.58,1.54,1.58.27,3.03,1.31,3.75,2.87,1,2.14.41,4.6-1.31,6.07,4.31,2.59,7.8,6.82,9.56,12.18.26.75.48,1.55.63,2.34,2.93-5.59,7.79-9.44,13.11-11.02,1.91,5.33,1.64,11.62-1.24,17.32-2.59,5.14-6.84,8.85-11.61,10.72,2.16.26,4.02,1.87,4.46,4.1.31,1.7-.2,3.32-1.29,4.49.48.23.91.53,1.31.88.68-1.4,1.98-2.49,3.64-2.82,2.76-.55,5.46,1.29,5.99,4.06.56,2.76-1.27,5.46-4.05,6.01-1.66.32-3.3-.19-4.46-1.28-.22.5-.55.96-.92,1.36,1.48.65,2.61,1.98,2.95,3.71.4,2.11-.56,4.2-2.3,5.27,3.27,3.42,5.5,8.07,5.97,13.34.08.81.1,1.64.1,2.45,4.06-4.78,9.66-7.48,15.22-7.83.66,5.62-1.01,11.69-5.09,16.61-3.84,4.63-9.08,7.34-14.39,7.94,2.29.55,4,2.65,3.95,5.11-.06,1.71-.91,3.2-2.22,4.11.43.33.78.69,1.09,1.13.95-1.24,2.5-2.01,4.18-1.99,2.82.08,5.05,2.42,5.01,5.24-.09,2.84-2.42,5.09-5.23,5.01-1.71-.03-3.17-.87-4.08-2.19-.35.46-.76.83-1.21,1.15,1.29.95,2.12,2.49,2.08,4.22-.05,2.3-1.58,4.21-3.66,4.8,2.47,4.1,3.62,9.18,2.92,14.5-.1.8-.26,1.6-.45,2.38,5.03-3.75,11.08-5.1,16.58-4.2-.6,5.62-3.57,11.18-8.66,15.07-4.85,3.68-10.63,5.14-16.02,4.49,2.29.99,3.57,3.53,2.92,6.03-.44,1.62-1.64,2.89-3.12,3.47.35.38.61.85.82,1.37,1.22-1,2.89-1.39,4.49-.99,2.75.75,4.38,3.53,3.65,6.28-.73,2.7-3.53,4.36-6.27,3.61-1.64-.42-2.86-1.6-3.45-3.06-.43.34-.89.59-1.42.81,1.03,1.2,1.47,2.94,1.03,4.6-.62,2.24-2.59,3.72-4.79,3.79,1.58,4.68,1.54,10.09-.48,15.26-.3.77-.64,1.48-1.01,2.23,5.79-2.45,12-2.34,17.1-.14-1.94,5.34-6.15,9.98-12.02,12.52-5.44,2.41-11.26,2.48-16.25.72,1.76,1.56,2.25,4.2,1.01,6.3-.84,1.5-2.31,2.39-3.87,2.58.19.48.35.97.4,1.51,1.44-.64,3.14-.61,4.6.26,2.47,1.37,3.33,4.51,1.92,6.96-1.42,2.46-4.54,3.32-7,1.92-1.48-.83-2.37-2.29-2.55-3.86-.5.21-1.03.34-1.58.39.68,1.46.68,3.24-.2,4.72-1.11,1.94-3.27,2.88-5.36,2.52.08,4.71-1.49,9.63-4.73,13.82-.51.67-1.04,1.27-1.58,1.85,6.23-.71,12.14,1.13,16.45,4.69-3.34,4.56-8.7,7.88-15.04,8.69-6.01.75-11.75-.86-16.06-4.11,1.5,2.09,1.24,5.01-.71,6.78-1.24,1.15-2.93,1.56-4.47,1.24.06.5.03,1.07-.07,1.57,1.56-.14,3.16.41,4.31,1.65,1.91,2.09,1.75,5.33-.33,7.24-2.1,1.91-5.3,1.76-7.22-.32-1.16-1.25-1.56-2.92-1.24-4.45-.55.05-1.1.02-1.63-.11.21,1.6-.36,3.28-1.64,4.45-2.09,1.91-5.34,1.75-7.24-.32-1.9-2.1-1.76-5.33.32-7.27,1.3-1.15,3-1.55,4.56-1.19-.05-.58-.02-1.18.07-1.75-1.58.21-3.24-.36-4.4-1.64-1.91-2.08-1.76-5.33.32-7.22,2.1-1.93,5.32-1.75,7.23.33,1.15,1.24,1.56,2.97,1.24,4.53.55-.05,1.13-.05,1.66.08-.17-1.58.37-3.22,1.64-4.36"/>
          <path class="cls-2" d="M1226.9,321.52c-10.51,12.24-19.82,26.26-27.59,41.5l8.49-31.08c.13-.44-.07-.91-.48-1.09l-7.92-3.5c-.43-.19-.93-.03-1.16.38l-21.56,38.27c-.24.39-.12.91.26,1.19.39.26.89.21,1.22-.14,0,0,15.36-17.92,18.35-21.43l-2.1,27.56c-1.2,2.69-2.35,5.36-3.49,8.11-6.59,16.23-11.52,33.57-14.73,51.46l-.57-33.58c-.03-.44-.37-.82-.81-.87l-8.55-1.15c-.49-.06-.91.22-1.04.69l-9.91,42.78c-.11.46.16.93.59,1.08.44.15.93-.08,1.12-.49,0,0,9.69-21.49,11.59-25.72l5.9,27.86c-1.71,12.44-2.59,25.07-2.59,37.7,0,6.93.27,13.81.75,20.58l-8.75-32.11c-.12-.44-.54-.7-.98-.64l-8.61.99c-.47.06-.8.44-.8.92l.92,43.92c0,.46.37.85.83.88.47.03.91-.29.99-.76,0,0,4.09-23.22,4.88-27.78l12.53,25.43c2.28,20.16,6.78,39.68,13.43,58.34l-16.9-28.31c-.24-.38-.73-.54-1.14-.38l-8.01,3.26c-.44.19-.68.66-.52,1.11l12.69,42.05c.12.47.59.73,1.05.64.42-.1.73-.46.73-.91v-.08s-2.34-23.48-2.77-28.06l18.83,20.97c7.51,18.43,17.18,35.47,28.5,50.38l-24.3-20.89c-.34-.28-.85-.28-1.18,0l-6.58,5.63c-.35.31-.39.82-.14,1.22l25.35,35.87c.26.39.77.5,1.19.26.28-.14.46-.46.46-.77,0-.13-.03-.26-.08-.39,0,0-9.61-21.53-11.5-25.74l23.85,13.59c3.23,3.8,6.58,7.45,10.04,10.91,1.87,1.83,4.85,1.83,6.68-.03,1.85-1.85,1.83-4.83,0-6.66-3.65-3.64-7.15-7.45-10.55-11.48l-2.05-22.41c3.03,3.57,18.31,21.24,18.31,21.24.29.33.83.41,1.22.12.39-.25.5-.79.26-1.18l-22.23-38.02c-.24-.4-.69-.54-1.11-.4l-8.09,3.21c-.46.17-.7.67-.54,1.11l9.25,30.1c-11.73-15.27-21.68-32.97-29.24-52.17l4.53-23.52c1.98,4.14,12.45,25.79,12.45,25.79.21.45.71.63,1.14.48.44-.16.71-.64.57-1.1l-11.16-42.56c-.1-.44-.52-.73-.99-.67l-8.65.88c-.46.06-.83.47-.82.93l.27,32.62c-6.64-18.67-11.03-38.23-13.14-58.44l10.57-22.14c.89,4.49,5.51,28.15,5.51,28.15.11.46.51.77.99.71.46-.06.82-.42.82-.91v-44.02c0-.46-.34-.82-.79-.9l-8.59-1.33c-.46-.07-.91.21-1.01.68l-8.16,32.2c-.51-6.73-.77-13.54-.77-20.44,0-13.13.97-26.1,2.84-38.76l15.38-18.82c-.21,4.58-1.3,28.61-1.3,28.61v.06c0,.46.3.82.77.9.47.08.9-.23,1.02-.7l10.44-42.74c.1-.44-.14-.88-.55-1.07l-8.03-3.33c-.45-.18-.95,0-1.14.41l-15.3,28.81c3.8-21.17,10.13-41.38,18.71-59.85l20.26-13c-1.62,4.29-10.13,26.8-10.13,26.8-.05.1-.05.24-.05.33,0,.34.19.64.48.79.45.21.94.08,1.2-.33l23.18-37.43c.23-.35.16-.88-.18-1.16l-6.62-5.66c-.37-.31-.87-.29-1.24.06l-23.62,22.79c7.49-14.81,16.47-28.4,26.77-40.35l33.47-28.74c.18-.16.21-.41.07-.61-.14-.19-.4-.24-.61-.13,0,0-9.9,5.66-17.48,9.97l22.01-28.25c.14-.19.13-.47-.05-.62-.18-.15-.44-.15-.63,0l-25.73,24.56c3.5-7.93,7.98-18.09,7.98-18.09.1-.21.03-.47-.19-.59-.19-.11-.46-.06-.59.15l-25.67,36.44.05.03Z"/>
          <path class="cls-2" d="M1408.46,452.42c-.22.12-.79.59-2.21,2.41,0,0-.09.11-.2.26-2.97,3.94-6.78,6.22-11.23,7.52-5.15,1.52-16.32,4.08-23.69,7.46,5.07.18,25.21,2.19,32.77,1.27,7.55-.93,15.7-5.05,16-11.24.28-5.97-5.5-7.83-11.45-7.68M1424.57,424.26h0c-2.06.53,1.63-3.73,5.19-1.13,0,0-3.41.67-5.19,1.13M1337.45,496.55c-.08-3.32-.1-8.99.1-11.53.37-4.38,2.21-8.03,6.94-11.32-1.18,1.89.23,17.45,1.18,23.05-1.83-.17-3.68-.26-5.57-.26-.89,0-1.76.02-2.64.06M1362.53,321.47c2.81,3.93,2.79,9.74,2.79,9.74l4.38,73.57,21.59.39,32.08-38.24c-16.25-22.77-37.29-38.98-60.84-45.46M1225.02,441.99l26.18,9.49c3.57,0,6.18-2.68,7.89-5.32,10.31.03,19.88-1.76,23.39-2.25-3.28,1.1-23.01,5.17-22.53,5.72.26,1.86,12.38,4.64,35.99-2.69-3.89,2.71-13.25,5.88-20.31,7.88-.46.13.35.53,1.65.84,4.06.84,13.87,1.76,34.06-5.41-4.59,2.46-13.85,5.98-20.69,8.19-3.81,1.22,6.45,2.18,13.99.72,7.89-1.52,14.8-5.1,20.12-5.73l3.99-.36c-8.03,1.46-28.04,11.32-34.5,14.93-7.31,4.09-21.46,9.83-28.48,10.57,2.81,2.67,11.21,6.58,17.7,8.25,7.16,1.85,18.43,2.75,28.07,1.2,3.22-7.76,15.78-15.64,21.59-17.85-6.62,5.9-6.68,9.98-6.91,13.9-.02,3.06,1.73,9.87,2.41,13.46-1.54.28-3.05.59-4.54,1h-.68c-27.53,7.15-47.86,32.16-47.86,61.92,0,.77.01,1.54.04,2.3h-38.03c20.44,48.41,58.46,81.02,101.9,81.02s81.44-32.6,101.89-81h-37.88c.01-.77.03-1.54.03-2.31,0-30.2-20.92-55.51-49.06-62.23h.43l-.27-.06c-1.35-3.31.21-14.65.86-17.39.86-3.6,7.45-8.49,12.78-11.8,5.32-3.31,15.06-5.9,21.2-7.67,6.14-1.77,9.05-3,10.5-4.16,2.5-1.65,4.57-4.76,7.64-7.98,1-.91,1.86-1.82,1.87-1.85.02,0,6.71-6.96,17.61-11.6,2.77-1.17,8.51-2.61,10.82-2.46,2.32.15,3.6.75,5.01,2.07.16-2.35-.32-4.58-1.06-6.84-.76-2.34-2.95-7.13-10.21-5.75-1.24-2.49-6.96-1.55-12.26-.09-5.3,1.47-15.38,5.59-19.77,7.07-4.38,1.47-11.36,2.38-13.7,1.08.45,1.42,1.81,2.23,3.35,2.81-.44,0-1.01,0-1.63-.07-2.19-.61-5.31-2.09-7.12-5.72-2.19-4.38-1.91-8.34-3.46-11.17-1.53-2.82-2.38-7.19-10.06-7.19s-24.73,6.16-39.59,9.94c-14.84,3.77-40.5,10.94-51.9,13.93-3.06.81-6.93,1.62-11.11,2.38l21.7-42.14c12.14-26.19,20.9-9.99,20.9-9.99,0,0,4.4-4.22,9.33-6.63,6.64-4.21,12.13,5.12,12.13,5.12,0,0,1.34-6.33,11.52-7.6,2.26-.29,7.56-38.04,7.56-38.04,0,0,1.11-12.62,5.8-16.92-4.53-.74-9.16-1.12-13.83-1.12-55.24,0-101.72,52.73-114.44,123.65M1339.45,309.6c-69.76,0-126.48,76.91-126.48,171.42s56.72,171.46,126.48,171.46,126.46-76.91,126.46-171.46-56.74-171.42-126.46-171.42"/>
          <path class="cls-1" d="M1285.72,564.45h0c-.06-1.02-.34-1.46-1.3-1.41-.98.07-1.21.52-1.14,1.58l.15,2.19,2.43-.15-.14-2.21ZM1287.36,564.65l.1,1.9,2.81-.17.12,1.83-8.46.54-.26-4.09c-.17-2.66.93-3.37,2.56-3.47,1.16-.08,2.26.24,2.79,1.61l2.91-1.87.12,2-2.7,1.74Z"/>
          <polygon class="cls-1" points="1281.95 554.38 1283.05 548.1 1284.71 548.39 1283.94 552.82 1285.56 553.12 1286.32 548.8 1287.93 549.08 1287.17 553.39 1289.01 553.72 1289.81 549.24 1291.4 549.54 1290.3 555.85 1281.95 554.38"/>
          <polygon class="cls-1" points="1284.99 541.23 1286.01 539.01 1292.25 539.33 1287.95 534.82 1288.96 532.6 1296.66 536.14 1295.9 537.81 1290.76 535.43 1294.96 539.88 1294.36 541.18 1288.3 540.88 1293.41 543.23 1292.7 544.77 1284.99 541.23"/>
          <path class="cls-1" d="M1298.98,526.02h0c.68-.81.7-1.4-.06-2.03-.77-.65-1.29-.52-2.01.34l-1.42,1.69,2.05,1.73,1.44-1.73ZM1293.09,526.39l2.61-3.11c1.67-2,3.02-1.9,4.35-.77,1.33,1.1,1.87,2.51.1,4.62l-1.39,1.65,2,1.67-1.18,1.42-6.5-5.47Z"/>
          <path class="cls-1" d="M1305.82,520.39l-3.08-4.24,1.53-1.1,2.94,4.04c.73,1.02,1.4,1.42,2.79.42,1.38-1.01,1.24-1.76.5-2.81l-2.95-4.04,1.47-1.08,3.08,4.25c.96,1.31,1.74,2.94-1.14,5.03-2.9,2.11-4.18.84-5.14-.48"/>
          <path class="cls-1" d="M1321.83,513.05h0c.89-.35,1.15-.74.9-1.39-.26-.65-.69-.75-1.6-.38l-2.14.84.72,1.78,2.12-.85ZM1320.4,509.81h0c.93-.38,1.04-.77.82-1.32-.23-.56-.6-.71-1.49-.35l-2,.8.67,1.67,2-.8ZM1315.43,508.14l3.66-1.45c2.1-.83,3.22-.61,3.79.84.37.92.27,1.62-.35,2.17,1.02-.15,1.58.31,2.03,1.43.68,1.71-.25,2.61-2.36,3.44l-3.63,1.45-3.13-7.88Z"/>
          <polygon class="cls-1" points="1328.82 503.76 1330.67 503.49 1331.72 510.27 1335.83 509.63 1336.08 511.24 1330.11 512.15 1328.82 503.76"/>
          <polygon class="cls-1" points="1341.05 502.68 1342.91 502.73 1342.69 511.21 1340.83 511.15 1341.05 502.68"/>
          <path class="cls-1" d="M1348.61,507.4c.68-2.97,2.59-3.89,5.34-3.27,1.5.35,2.37.97,2.97,1.94l-1.55.97c-.39-.6-.92-1.02-1.82-1.24-1.76-.4-2.72.33-3.1,2.04-.38,1.67.03,2.75,1.92,3.19,1.06.25,1.67,0,2.29-.36l.93,1.45c-.81.54-1.84.93-3.71.51-3.09-.7-3.9-2.5-3.28-5.23"/>
          <path class="cls-1" d="M1365.29,514.4h0l.32-3.61-2.7,2.43,2.38,1.18ZM1365.79,508.39l1.71.85-.75,9.17-1.74-.87.14-1.49-3.46-1.7-1.12,1-1.64-.82,6.85-6.13Z"/>
          <polygon class="cls-1" points="1376.17 514.6 1377.99 516.23 1375.83 522.08 1381.4 519.3 1383.22 520.93 1377.56 527.25 1376.19 526.02 1379.98 521.8 1374.49 524.5 1373.44 523.54 1375.51 517.85 1371.76 522.04 1370.49 520.91 1376.17 514.6"/>
          <path class="cls-1" d="M1393.62,551.44c3.06-.24,4.48,1.27,4.7,4.11.12,1.72-.29,2.8-.93,3.53l-1.4-1.18c.38-.46.7-1.05.61-2.22-.14-1.85-1.11-2.5-2.87-2.36-1.85.13-2.72.71-2.57,2.75.13,1.64.71,2.07,1.89,1.99h.19s-.19-2.37-.19-2.37l1.56-.12.31,4.21-1.38.1c-2.4.19-3.74-.68-3.97-3.79-.27-3.37,1.22-4.45,4.03-4.65"/>
          <polygon class="cls-1" points="1398.21 564.56 1397.36 570.9 1395.68 570.66 1396.29 566.2 1394.65 565.99 1394.06 570.32 1392.44 570.1 1393.03 565.76 1391.16 565.51 1390.55 570.01 1388.94 569.79 1389.81 563.42 1398.21 564.56"/>
          <path class="cls-1" d="M1390.95,578.52h0c-.34.96-.26,1.48.66,1.8.92.34,1.3,0,1.65-1l.73-2.06-2.3-.82-.75,2.08ZM1389.53,577.69l.64-1.79-2.66-.93.62-1.73,7.99,2.85-1.38,3.86c-.9,2.51-2.2,2.73-3.71,2.18-1.11-.38-2-1.1-1.94-2.58l-3.42.57.68-1.87,3.18-.55Z"/>
          <polygon class="cls-1" points="1391.29 587.81 1387.95 593.23 1386.52 592.36 1388.85 588.52 1387.45 587.66 1385.16 591.4 1383.77 590.55 1386.05 586.8 1384.45 585.83 1382.08 589.69 1380.69 588.85 1384.04 583.38 1391.29 587.81"/>
          <path class="cls-1" d="M1379.04,597.66h0c-.69.74-.84,1.24-.12,1.89.71.68,1.19.55,1.92-.24l1.49-1.58-1.78-1.69-1.51,1.61ZM1378.08,596.32l1.3-1.39-2.05-1.92,1.24-1.34,6.19,5.82-2.81,2.97c-1.83,1.95-3.1,1.65-4.28.53-.86-.8-1.38-1.82-.74-3.15l-3.36-.84,1.38-1.47,3.13.79Z"/>
          <polygon class="cls-1" points="1375.6 606.29 1370.37 609.92 1369.4 608.54 1373.09 605.96 1372.16 604.6 1368.56 607.12 1367.62 605.76 1371.22 603.27 1370.15 601.73 1366.41 604.32 1365.49 602.97 1370.77 599.32 1375.6 606.29"/>
          <path class="cls-1" d="M1345.32,614.19h0c-1.02.12-1.44.41-1.33,1.36.12.99.58,1.2,1.64,1.06l2.16-.25-.28-2.43-2.2.26ZM1345.44,612.55l1.89-.21-.33-2.79,1.82-.22.98,8.43-4.08.47c-2.65.33-3.42-.75-3.6-2.36-.14-1.17.11-2.28,1.46-2.88l-2.02-2.81,1.99-.23,1.89,2.61Z"/>
          <polygon class="cls-1" points="1337.15 618.58 1330.8 617.98 1330.96 616.28 1335.44 616.7 1335.6 615.08 1331.23 614.66 1331.38 613.03 1335.75 613.44 1335.92 611.57 1331.4 611.15 1331.56 609.54 1337.95 610.14 1337.15 618.58"/>
          <path class="cls-1" d="M1327.37,613.08c-.89,2.92-2.88,3.7-5.57,2.88-1.47-.46-2.29-1.14-2.83-2.14l1.62-.86c.34.64.84,1.1,1.73,1.36,1.73.53,2.73-.12,3.25-1.8.5-1.63.17-2.75-1.69-3.32-1.05-.32-1.66-.13-2.3.19l-.84-1.53c.85-.46,1.9-.79,3.74-.22,3.02.92,3.72,2.78,2.89,5.45"/>
          <polygon class="cls-1" points="1312.85 610.23 1315.43 611.64 1314.61 613.13 1307.81 609.41 1308.63 607.91 1311.18 609.32 1314.45 603.38 1316.1 604.28 1312.85 610.23"/>
          <polygon class="cls-1" points="1303.9 606.61 1299.02 602.5 1300.12 601.2 1303.55 604.1 1304.61 602.85 1301.27 600.02 1302.32 598.76 1305.67 601.59 1306.88 600.16 1303.41 597.22 1304.46 595.99 1309.37 600.13 1303.9 606.61"/>
          <path class="cls-2" d="M1383.38,550.84h0c.09,1.12.93,6.66.93,8.93,0,24.74-20.06,44.8-44.78,44.8-11.1,0-25.65-6.63-33.47-13.32l.65-.84c24.87-31.98,65.26-39.02,75.96-39.53l.71-.03ZM1339.53,514.94h0l3.14,9.3,9.81.13-7.85,5.85,2.88,9.32c.39-.12.77-.24,1.13-.35,12.4-3.74,23.51-4.45,27.96-4.6-8.05-11.86-21.67-19.65-37.07-19.65M1294.71,559.76c0-24.74,20.08-44.82,44.82-44.82l-3.16,9.3-9.81.13,7.86,5.85-2.91,9.38,8.02-5.65,7.92,5.59c-14.69,4.62-33.84,17.57-49.18,38.19-1.62-4.63-3.56-12.77-3.56-17.97"/>
          <path class="cls-1" d="M1311.24,572.4h0c-.77-.68-1.43-.5-2.17.33-.84.96-.62,1.49,0,2.03.61.55,1.22.64,2.01-.25.73-.82.81-1.53.17-2.11M1311.48,577.6l.51-.58c1.9-2.16,1.26-2.83.66-3.46.12.57-.19,1.25-.99,2.15-1.3,1.5-2.47,1.27-3.62.24-1.29-1.13-1.54-2.42-.02-4.15,1.58-1.8,3.06-1.76,4.77-.27,2.36,2.07,2.69,3.55.17,6.41l-.46.55-1.02-.88Z"/>
          <path class="cls-1" d="M1320.24,566.88h0l-2.91-1.48,1.12,3.06,1.79-1.58ZM1315.39,564.45l1.29-1.14,7.4,3.71-1.31,1.16-1.21-.62-2.59,2.3.46,1.27-1.24,1.1-2.8-7.78Z"/>
          <path class="cls-1" d="M1327,563.15h0c.7-.5.84-.89.46-1.41-.35-.5-.77-.5-1.48.02l-1.67,1.21,1.02,1.4,1.67-1.22ZM1325.02,560.64h0c.73-.51.74-.89.43-1.32-.32-.44-.68-.48-1.37.02l-1.58,1.14.96,1.32,1.56-1.16ZM1320.32,560.31l2.88-2.09c1.64-1.2,2.67-1.24,3.5-.12.53.73.59,1.38.17,1.98.85-.35,1.46-.09,2.09.8.97,1.34.37,2.32-1.29,3.53l-2.85,2.07-4.5-6.17Z"/>
          <path class="cls-1" d="M1332.28,556.66h0c.79-.46,1.03-.86.59-1.61-.44-.77-.9-.77-1.73-.27l-1.69,1,1.11,1.88,1.71-1ZM1332.78,558.06l-1.47.86,1.29,2.19-1.42.84-3.86-6.59,3.18-1.86c2.06-1.23,3.08-.64,3.82.63.53.91.73,1.91-.16,2.9l2.68,1.58-1.55.92-2.5-1.47Z"/>
          <polygon class="cls-1" points="1334.85 551.1 1336.35 550.36 1339.76 557.19 1338.24 557.94 1334.85 551.1"/>
          <polygon class="cls-1" points="1338.32 549.41 1339.87 548.75 1342.28 554.43 1345.74 552.97 1346.31 554.32 1341.3 556.43 1338.32 549.41"/>
          <polygon class="cls-1" points="1348.44 547.09 1347.19 547.49 1346.77 546.09 1349.5 545.24 1351.8 552.52 1350.28 553 1348.44 547.09"/>
          <path class="cls-1" d="M1357.67,548.64h0c-.16-.71-.69-1.03-1.89-.75-1.2.28-1.51.8-1.33,1.51.16.7.66,1.02,1.87.74,1.2-.26,1.52-.81,1.36-1.49M1356.72,545.48h0c-.12-.53-.53-.8-1.63-.53-1.11.26-1.34.65-1.21,1.19.12.54.51.82,1.62.55,1.1-.26,1.34-.68,1.22-1.21M1352.88,549.89c-.21-.88-.12-1.74.73-2.25-.85-.12-1.15-.67-1.31-1.35-.23-1,.11-2.04,2.5-2.6,2.41-.57,3.18.22,3.41,1.21.16.7.12,1.33-.59,1.8,1.02.09,1.48.82,1.69,1.69.29,1.24-.26,2.45-2.7,3.01-2.42.58-3.44-.26-3.72-1.51"/>
          <path class="cls-1" d="M1364.79,544.75h0c-.15-1.02-.76-1.33-1.86-1.16-1.27.17-1.44.72-1.32,1.53.12.83.52,1.29,1.67,1.11,1.11-.15,1.63-.62,1.51-1.48M1361.59,548.86l.77-.11c2.85-.41,2.81-1.32,2.76-2.2-.28.53-.96.83-2.15,1.01-1.95.27-2.69-.66-2.9-2.19-.25-1.69.4-2.83,2.68-3.16,2.37-.34,3.46.66,3.8,2.91.43,3.1-.26,4.43-4.04,4.98l-.71.08-.2-1.31Z"/>
          <path class="cls-1" d="M1367.85,548.08l2.35-2.31c1.09-1.06,1.47-1.47,1.42-2.12-.04-.61-.33-.86-1.35-.8-.74.04-1.6.32-2.04.6l-.81-1.2c.79-.47,1.49-.73,2.92-.81,1.83-.12,2.79.42,2.88,1.95.08,1.17-.44,1.91-1.6,3.03l-1.49,1.46,3.44-.21.08,1.33-5.72.37-.08-1.27Z"/>
          <polygon class="cls-2" points="1360.29 303.33 1342.94 291.07 1325.6 303.33 1331.92 283.04 1314.87 270.33 1336.13 270.05 1342.94 249.93 1349.77 270.05 1371.02 270.33 1353.99 283.04 1360.29 303.33"/>
          <path class="cls-2" d="M1295.62,695.02h0c4.23,1.71,5.5-1.43,6.79-4.65,1.33-3.24,2.55-6.33-1.67-8.04-4.21-1.71-5.48,1.38-6.8,4.63-1.29,3.2-2.55,6.33,1.69,8.05M1296.37,693.2h0c-1.44-.61-1.09-2.05.17-5.19,1.27-3.15,2.01-4.45,3.48-3.86,1.44.62,1.07,2.04-.21,5.19-1.26,3.12-2,4.42-3.44,3.86M1280.47,689.78h0l4.31,1.24c4.56,1.31,5.54-3.26,6.11-5.23,1.13-3.95,1.16-6.48-2.32-7.45l-4.45-1.31-3.65,12.75ZM1286.21,679.77h0l1.37.39c1.86.5,1.27,2.59.59,4.94-.9,3.17-1.58,4.31-3.19,3.84l-1.3-.37,2.54-8.81ZM1268.01,687.81h0c4.53.65,5-2.69,5.48-6.13.5-3.46.96-6.77-3.56-7.4-4.52-.61-5.01,2.69-5.48,6.15-.5,3.45-.95,6.77,3.56,7.39M1268.29,685.86h0c-1.55-.23-1.55-1.71-1.05-5.05.46-3.35.87-4.79,2.41-4.58,1.55.24,1.55,1.71,1.09,5.08-.5,3.36-.88,4.76-2.44,4.56M1252.48,686.87h0l4.52.09c4.72.11,4.49-4.58,4.52-6.62.08-4.11-.57-6.54-4.18-6.62l-4.62-.06-.24,13.22ZM1255.45,675.74h0l1.42.02c1.94.03,1.88,2.17,1.84,4.6-.06,3.34-.39,4.6-2.1,4.56l-1.32-.03.16-9.15ZM1246.09,682.55h0l-2.63.31.59-5.83h.03l2.01,5.52ZM1242.76,687.95h0l.39-3,3.75-.46,1.09,2.83,2.89-.33-5.15-12.72-3.6.42-2.07,13.59,2.7-.33ZM1228.74,677.22h0l.43,2.14,3.03-.65,2.3,10.82,2.72-.58-2.31-10.81,3-.64-.44-2.17-8.73,1.89ZM1229.08,686.87h0c-1.34-3.93-6.53-1.92-7.36-4.28-.29-.88.05-1.51.91-1.8,1.05-.37,1.52.54,1.86,1.47l2.54-.88c-.73-2.69-2.38-3.37-4.95-2.49-3.17,1.09-3.56,2.96-2.88,4.93,1.27,3.72,6.59,2.04,7.37,4.31.28.83.05,1.54-.84,1.86-1.44.5-1.83-.49-2.24-1.68l-2.62.91c.61,2.2,1.87,3.9,5.13,2.79,1.97-.69,4.24-1.88,3.08-5.12M1220.25,693.59h0l-.88-1.82-4.13,2.01-1.68-3.49,3.69-1.78-.87-1.85-3.7,1.79-1.42-2.94,4.01-1.95-.88-1.82-6.53,3.15,5.78,11.91,6.61-3.22ZM1338.8,697.22h0c3.86,2.43,5.66-.41,7.52-3.33,1.87-2.97,3.64-5.79-.2-8.22-3.86-2.44-5.64.37-7.53,3.35-1.82,2.91-3.65,5.76.21,8.21M1339.87,695.54h0c-1.33-.83-.71-2.18,1.11-5.05,1.8-2.86,2.76-4,4.09-3.17,1.31.87.69,2.21-1.11,5.08-1.82,2.85-2.77,3.98-4.09,3.14M1332.26,692.83h0l7.11-11.18-2.35-1.49-7.09,11.14,2.32,1.52ZM1325.62,682.13h0l.62.35c1.78,1.13.96,2.2.1,3.55-.46.73-1.01,1.43-1.11,2.32l2.26,1.44c.08-.59,1.38-2.72,1.85-3.46,1.26-2.01-.19-3.09-.65-3.48l.03-.05c1.68.73,2.9,0,3.8-1.42,1.22-1.91.85-3.56-.75-4.57l-4.31-2.73-7.11,11.17,2.35,1.5,2.93-4.62ZM1328.69,677.29h0l1.03.65c.77.47.95,1.17.27,2.23-.45.72-1.3,1.49-2.23.88l-1.03-.65,1.96-3.11ZM1458.79,690.86h0c4.21-1.78,2.9-4.89,1.56-8.1-1.38-3.2-2.69-6.28-6.87-4.49-4.22,1.78-2.92,4.86-1.57,8.07,1.37,3.2,2.7,6.3,6.88,4.52M1458.05,689.04h0c-1.45.61-2.2-.66-3.53-3.78-1.32-3.12-1.71-4.55-.27-5.17,1.42-.61,2.18.68,3.53,3.79,1.32,3.14,1.7,4.56.28,5.16M1444.53,689.8h0l.7-.2c2.05-.61,2.27.69,2.74,2.23.25.82.45,1.7,1.02,2.37l2.61-.8c-.41-.44-1.18-2.83-1.41-3.62-.71-2.32-2.46-1.91-3.06-1.81h-.01c1.65-.83,1.9-2.21,1.41-3.84-.65-2.18-2.15-3-3.95-2.45l-4.91,1.48,3.83,12.7,2.63-.81-1.59-5.25ZM1442.91,684.33h0l1.15-.37c.86-.26,1.5.04,1.87,1.27.22.79.25,1.94-.8,2.26l-1.17.35-1.06-3.51ZM1440.15,696.76h0l-2.78-12.95-2.7.57,2.76,12.95,2.72-.57ZM1434.97,697.81h0l-.34-1.99-4.52.72-.61-3.84,4.05-.61-.3-2.03-4.06.65-.52-3.25,4.42-.68-.33-2.01-7.13,1.13,2.07,13.09,7.28-1.18ZM1416.49,699.69h0l-.45-9.66h.04l4.04,9.51,3.64-.19-.59-13.2-2.58.11.41,9.16h-.02l-3.96-9.01-3.73.19.6,13.23,2.59-.14ZM1407.04,694.62h0l-2.63-.19,1.65-5.6h.04l.94,5.79ZM1402.75,699.3h0l.94-2.88,3.77.26.54,3,2.91.21-2.66-13.46-3.65-.26-4.58,12.95,2.72.19ZM1397.45,685.24h0l-1.62,10.19c-.09.57-.59,1.08-1.22.96-1.44-.22-.95-1.73-.77-2.8l-2.79-.42c-.48,2.97-.57,4.57,3.26,5.19,1.94.31,3.93-.39,4.29-2.65l1.6-10.04-2.74-.43ZM1382.9,695.48h0l.61-1.94-4.4-1.4,1.16-3.66,3.9,1.24.62-1.97-3.91-1.2.96-3.14,4.27,1.35.62-1.95-6.9-2.16-3.99,12.6,7.05,2.23ZM1364,688.15h0l4.08,1.86c4.33,1.97,5.98-2.41,6.81-4.25,1.73-3.76,2.12-6.24-1.19-7.73l-4.22-1.95-5.48,12.07ZM1371.16,679.1l1.29.6c1.76.77.89,2.74-.16,4.96-1.36,3.01-2.19,4.02-3.72,3.33l-1.21-.56,3.8-8.33ZM1460.78,663.42c-13.63,8.48-29.74,13.36-46.98,13.36s-33.38-4.91-47.02-13.36l-10.41,16.83-30.09-18.65s-5.52,8.98-10.52,17.02c-17.54-9.68-37.7-15.2-59.18-15.2-23.65,0-45.75,6.68-64.45,18.29,0,0,13.35,21.67,17.44,28.28,13.67-8.45,29.77-13.35,47.01-13.35s33.34,4.89,47,13.35l10.45-16.89,29.74,18.42c1.76-2.83,6.55-10.27,10.73-16.81,17.58,9.73,37.78,15.16,59.29,15.16,23.65,0,45.74-6.58,64.49-18.18,0,0-14.14-22.81-17.51-28.27"/>
          <g>
            <path class="cls-1" d="M1601.94,486.38h0v23.45h16.99c6.89,0,12.13-.9,15.72-2.69,3.58-1.78,5.37-4.97,5.37-9.6,0-3.89-1.37-6.72-4.09-8.5-2.74-1.79-6.71-2.67-11.9-2.67h-22.08ZM1602.79,538v38.88c0,1.27-.43,2.36-1.27,3.31-.86.94-1.89,1.4-3.12,1.4h-31.43c-1.13,0-2.13-.46-2.97-1.4-.84-.95-1.27-2.05-1.27-3.31v-113.97c0-1.26.43-2.37,1.27-3.3.84-.95,1.84-1.42,2.97-1.42h71.08c12.18,0,21.96,2.99,29.33,8.98,7.94,6.5,11.89,15.06,11.89,25.65,0,11.97-3.26,20.62-9.78,25.97-1.6,1.36-3.47,2.65-5.59,3.86-2.13,1.22-4.47,2.27-7.01,3.23,3.01,1.78,5.6,3.72,7.7,5.82,2.13,2.11,3.91,4.19,5.31,6.3l19.41,36.35c.95,1.8,1.02,3.46.22,4.96-.82,1.53-2.1,2.28-3.9,2.28h-35.96c-.76,0-1.49-.25-2.2-.78-.72-.52-1.26-1.15-1.63-1.89l-18.14-37.46.15.33c-.37-.53-.79-1.06-1.2-1.58-.41-.52-.87-.94-1.34-1.25-.76-.64-3.69-.95-8.79-.95h-13.73Z"/>
            <path class="cls-1" d="M1699.93,581.59c-1.04,0-1.91-.46-2.61-1.4-.71-.95-1.08-2.05-1.08-3.31v-113.97c0-1.26.37-2.37,1.08-3.3.71-.95,1.58-1.42,2.61-1.42h26.34c1.05,0,1.91.47,2.63,1.42.71.93,1.06,2.05,1.06,3.3v113.97c0,1.27-.36,2.36-1.06,3.31-.72.94-1.58,1.4-2.63,1.4h-26.34Z"/>
            <path class="cls-1" d="M1823.06,499.35h0c-4.66-4.57-11.43-6.84-20.31-6.84s-15.62,2.27-20.26,6.84c-4.63,4.56-6.94,11.36-6.94,20.38s2.31,15.82,6.94,20.39c4.63,4.57,11.38,6.84,20.26,6.84s15.65-2.27,20.31-6.84c4.69-4.57,7.02-11.36,7.02-20.39s-2.34-15.82-7.02-20.38M1852.45,567.75c-11.23,10.49-27.81,15.73-49.71,15.73s-38.47-5.24-49.71-15.73c-11.23-10.49-16.85-26.49-16.85-48.01s5.63-37.53,16.85-48.09c11.24-10.54,27.8-15.82,49.71-15.82s38.48,5.27,49.71,15.82c11.24,10.56,16.85,26.57,16.85,48.09s-5.61,37.52-16.85,48.01"/>
            <path class="cls-1" d="M1992.81,501.79h0c-3.32-4.1-8.17-6.15-14.59-6.15h-24.93v48.49h23.8c6.8,0,11.93-2.03,15.43-6.08,3.5-4.02,5.24-10.04,5.24-18.02s-1.65-14.16-4.95-18.25M1979.34,458.18c16.91,0,30.64,5.72,41.22,17.16,10.48,11.33,15.72,26.18,15.72,44.55s-5.3,32.74-15.86,44.39c-10.49,11.55-23.99,17.3-40.5,17.3h-62.32c-1.23,0-2.27-.46-3.12-1.4-.84-.95-1.27-2.05-1.27-3.31v-113.97c0-1.26.43-2.37,1.27-3.3.86-.95,1.89-1.42,3.12-1.42h61.74Z"/>
            <path class="cls-1" d="M2046.76,581.59c-1.13,0-2.13-.46-2.97-1.4-.86-.95-1.27-2.05-1.27-3.31v-113.97c0-1.26.41-2.37,1.27-3.3.84-.95,1.84-1.42,2.97-1.42h82.57c1.12,0,2.12.47,2.97,1.42.84.93,1.26,2.05,1.26,3.3v22.97c0,1.37-.41,2.52-1.26,3.46-.86.96-1.85,1.42-2.97,1.42h-47.59v12.59h40.65c1.12,0,2.12.48,2.97,1.42.84.95,1.26,2.04,1.26,3.3v22.66c0,1.37-.41,2.53-1.26,3.46-.86.94-1.85,1.42-2.97,1.42l-40.65.14v13.24h51.41c1.22,0,2.25.47,3.04,1.42.79.93,1.2,2.09,1.2,3.46v22.98c0,1.27-.41,2.36-1.2,3.31-.79.94-1.83,1.4-3.04,1.4h-86.39Z"/>
            <path class="cls-1" d="M2259.17,456.93c1.13,0,2.1.48,2.92,1.42.79.95,1.19,2.1,1.19,3.46v80.91c0,12.81-3.97,23.35-11.89,31.63-7.74,7.98-17.79,11.97-30.16,11.97-6.62,0-13.45-1.26-20.55-3.78-3.5-1.26-6.31-2.31-8.42-3.15-2.13-.83-3.66-1.57-4.6-2.2-.47-.31-.93-.86-1.35-1.66-.41-.78-.69-1.44-.76-1.96l-4.11-35.89c-.21-1.27-.04-2.34.41-3.24.47-.88,1.11-1.55,1.91-1.96.8-.41,1.66-.56,2.54-.39.91.15,1.73.71,2.49,1.65,1.52,1.99,4.52,4.4,9.07,7.23,4.15,2.64,8.63,3.95,13.44,3.95,8.86,0,13.31-4.52,13.31-13.53v-69.59c0-1.36.43-2.51,1.27-3.46.86-.94,1.84-1.42,2.97-1.42h30.31Z"/>
            <path class="cls-1" d="M2317.25,535.78h26.34l-12.75-27.38-13.59,27.38ZM2367.52,581.59c-.66,0-1.4-.26-2.2-.79-.8-.52-1.35-1.15-1.63-1.89l-7.22-15.42h-53.12l-7.2,15.42c-.39.74-.94,1.37-1.71,1.89-.75.53-1.51.79-2.25.79h-29.33c-1.88,0-3.25-.74-4.11-2.2-.84-1.47-.8-3.09.15-4.88l58.2-113.79c.29-.64.86-1.21,1.7-1.74.84-.54,1.56-.8,2.13-.8h25.07c.66,0,1.37.26,2.13.8.75.53,1.3,1.15,1.69,1.89l54.81,113.81c.75,1.78.75,3.38,0,4.8-.76,1.42-2.07,2.12-3.95,2.12h-33.14Z"/>
            <path class="cls-1" d="M2478.82,508.48c2.64,4.04,5.34,8.16,8.09,12.35v-57.93c0-1.26.4-2.37,1.26-3.3.86-.95,1.89-1.42,3.11-1.42h27.61c1.23,0,2.27.47,3.12,1.42.86.93,1.27,2.05,1.27,3.3v113.97c0,1.27-.41,2.36-1.27,3.31-.86.94-1.89,1.4-3.12,1.4h-31.72c-.46,0-1.08-.17-1.84-.55-.76-.36-1.31-.8-1.7-1.33l-39.93-59.81v56.99c0,1.27-.42,2.36-1.29,3.31-.84.94-1.88,1.4-3.11,1.4h-27.61c-1.12,0-2.12-.46-2.97-1.4-.86-.95-1.27-2.05-1.27-3.31v-113.97c0-1.26.41-2.37,1.27-3.3.86-.95,1.85-1.42,2.97-1.42h31.44c.57,0,1.24.21,2.06.63.79.42,1.29.9,1.48,1.42,4.15,6.29,8.19,12.41,12.11,18.33,3.91,5.94,7.89,11.9,11.96,17.88,2.74,3.99,5.42,8,8.07,12.04"/>
            <path class="cls-1" d="M2536.31,581.59c-1.13,0-2.13-.46-2.96-1.4-.87-.95-1.29-2.05-1.29-3.31v-113.97c0-1.26.41-2.37,1.29-3.3.83-.95,1.82-1.42,2.96-1.42h82.56c1.15,0,2.14.47,2.99,1.42.84.93,1.27,2.05,1.27,3.3v22.97c0,1.37-.43,2.52-1.27,3.46-.84.96-1.84,1.42-2.99,1.42h-47.56v12.59h40.64c1.12,0,2.13.48,2.97,1.42.86.95,1.27,2.04,1.27,3.3v22.66c0,1.37-.41,2.53-1.27,3.46-.84.94-1.85,1.42-2.97,1.42l-40.64.14v13.24h51.39c1.23,0,2.24.47,3.06,1.42.79.93,1.2,2.09,1.2,3.46v22.98c0,1.27-.41,2.36-1.2,3.31-.82.94-1.82,1.4-3.06,1.4h-86.39Z"/>
            <path class="cls-1" d="M2636.87,581.59c-1.05,0-1.92-.46-2.63-1.4-.71-.95-1.06-2.05-1.06-3.31v-113.97c0-1.26.36-2.37,1.06-3.3.71-.95,1.58-1.42,2.63-1.42h26.34c1.04,0,1.89.47,2.61,1.42.71.93,1.06,2.05,1.06,3.3v113.97c0,1.27-.36,2.36-1.06,3.31-.72.94-1.58,1.4-2.61,1.4h-26.34Z"/>
            <path class="cls-1" d="M2712.35,486.38h0v23.45h16.99c6.9,0,12.13-.9,15.71-2.69,3.59-1.78,5.39-4.97,5.39-9.6,0-3.89-1.37-6.72-4.11-8.5-2.75-1.79-6.71-2.67-11.9-2.67h-22.08ZM2713.21,538v38.88c0,1.27-.43,2.36-1.29,3.31-.84.94-1.89,1.4-3.12,1.4h-31.43c-1.13,0-2.12-.46-2.97-1.4-.86-.95-1.27-2.05-1.27-3.31v-113.97c0-1.26.41-2.37,1.27-3.3.86-.95,1.84-1.42,2.97-1.42h71.08c12.2,0,21.94,2.99,29.33,8.98,7.92,6.5,11.9,15.06,11.9,25.65,0,11.97-3.28,20.62-9.8,25.97-1.58,1.36-3.44,2.65-5.59,3.86-2.12,1.22-4.45,2.27-7,3.23,3.01,1.78,5.59,3.72,7.72,5.82,2.13,2.11,3.9,4.19,5.31,6.3l19.4,36.35c.94,1.8,1.02,3.46.21,4.96-.79,1.53-2.1,2.28-3.9,2.28h-35.96c-.76,0-1.49-.25-2.2-.78-.71-.52-1.24-1.15-1.6-1.89l-18.14-37.46.14.33c-.37-.53-.77-1.06-1.2-1.58-.41-.52-.87-.94-1.34-1.25-.76-.64-3.68-.95-8.79-.95h-13.72Z"/>
            <path class="cls-1" d="M2878.38,499.35h0c-4.66-4.57-11.43-6.84-20.31-6.84s-15.62,2.27-20.26,6.84c-4.6,4.56-6.94,11.36-6.94,20.38s2.34,15.82,6.94,20.39c4.63,4.57,11.38,6.84,20.26,6.84s15.65-2.27,20.31-6.84c4.69-4.57,7.02-11.36,7.02-20.39s-2.34-15.82-7.02-20.38M2907.78,567.75c-11.23,10.49-27.8,15.73-49.71,15.73s-38.47-5.24-49.71-15.73c-11.23-10.49-16.85-26.49-16.85-48.01s5.63-37.53,16.85-48.09c11.24-10.54,27.82-15.82,49.71-15.82s38.48,5.27,49.71,15.82c11.23,10.56,16.85,26.57,16.85,48.09s-5.63,37.52-16.85,48.01"/>
            <g>
              <path class="cls-1" d="M1562.47,392.11c0-22.26,10.45-31.73,29.13-31.73,11.21,0,18.02,3.66,22.41,8.72l-8.36,9.38c-2.83-2.98-6.5-5.64-14.12-5.64-12.1,0-16.83,6.64-16.83,19.44,0,13.46,3.3,20.1,16.68,20.1,10.76,0,13.9-3.99,13.9-12.62v-1.34h-15.47v-11.29h27.58v10.05c0,17.53-6.28,26.67-26.6,26.67-22.12,0-28.32-11.31-28.32-31.73"/>
              <path class="cls-1" d="M1697.32,392.34h0c0-12.03-4.26-19.51-16.95-19.51s-16.97,7.48-16.97,19.51,4.26,19.61,16.97,19.61,16.95-7.56,16.95-19.61M1651.07,392.11c0-23.09,11.66-31.73,29.3-31.73s29.35,8.64,29.35,31.73-11.74,31.81-29.35,31.81-29.3-8.64-29.3-31.81"/>
              <polygon class="cls-1" points="1740.43 361.37 1753.28 361.37 1768.75 406.39 1784.14 361.37 1796.77 361.37 1774.72 423.33 1762.32 423.33 1740.43 361.37"/>
              <polygon class="cls-1" points="1832.63 361.37 1874.24 361.37 1874.24 373.67 1844.88 373.67 1844.88 385.62 1873.5 385.62 1873.5 397.5 1844.88 397.5 1844.88 411.12 1874.55 411.12 1874.55 422.92 1832.63 422.92 1832.63 361.37"/>
              <path class="cls-1" d="M1939.62,390.77h0c6.65,0,9.65-1.81,9.65-8.79s-2.85-8.97-9.8-8.97h-14.27v17.76h14.42ZM1937.6,402.48h-12.4v20.44h-11.96v-61.55h26.75c17.42,0,21.6,8.3,21.6,20.1,0,8.48-2.46,16.29-11.66,19.53l10.98,21.92h-13.07l-10.25-20.44Z"/>
              <polygon class="cls-1" points="2000.2 361.37 2013.44 361.37 2038.9 400.16 2038.9 361.37 2050.57 361.37 2050.57 422.92 2039.36 422.92 2011.93 381.38 2011.93 422.92 2000.2 422.92 2000.2 361.37"/>
              <path class="cls-1" d="M2134.25,392.34h0c0-12.03-4.27-19.51-16.97-19.51s-16.96,7.48-16.96,19.51,4.26,19.61,16.96,19.61,16.97-7.56,16.97-19.61M2088,392.11c0-23.09,11.64-31.73,29.28-31.73s29.35,8.64,29.35,31.73-11.72,31.81-29.35,31.81-29.28-8.64-29.28-31.81"/>
              <path class="cls-1" d="M2249.61,411.04h0c15.09,0,18.14-5.05,18.14-18.93s-2.54-18.53-18.38-18.53h-7.76v37.46h7.99ZM2229.35,361.37h19.87c21.82,0,30.88,6.32,30.88,30.74s-9.33,30.81-31.17,30.81h-19.58v-61.55Z"/>
              <path class="cls-1" d="M2360.62,392.34h0c0-12.03-4.26-19.51-16.97-19.51s-16.96,7.48-16.96,19.51,4.27,19.61,16.96,19.61,16.97-7.56,16.97-19.61M2314.37,392.11c0-23.09,11.66-31.73,29.28-31.73s29.38,8.64,29.38,31.73-11.75,31.81-29.38,31.81-29.28-8.64-29.28-31.81"/>
              <polygon class="cls-1" points="2455.72 361.37 2497.34 361.37 2497.34 373.67 2467.98 373.67 2467.98 385.62 2496.6 385.62 2496.6 397.5 2467.98 397.5 2467.98 411.12 2497.64 411.12 2497.64 422.92 2455.72 422.92 2455.72 361.37"/>
              <path class="cls-1" d="M2531.56,415.77l6.12-9.79c5.9,4.4,12.78,6.55,19.88,6.55,10.84,0,12.84-2.31,12.84-7.47s-4.62-6.07-13.13-7.4c-14.81-2.31-22.5-5.32-22.5-18.68s7.45-18.61,23.09-18.61c11.28,0,18.15,2.91,22.41,6.07l-6.57,10.54c-3.53-2.56-10.02-4.73-16.01-4.73-8.65,0-10.74,1.91-10.74,6.39,0,4.98,4.55,5.89,13.36,7.31,13.3,2.15,22.21,4.57,22.21,18.44,0,12.45-6.13,19.44-24.58,19.44-10.98,0-20.12-2.91-26.38-8.07"/>
              <polygon class="cls-1" points="2632.42 373.67 2613.22 373.67 2613.22 361.38 2663.89 361.38 2663.89 373.67 2644.74 373.67 2644.74 422.92 2632.42 422.92 2632.42 373.67"/>
              <path class="cls-1" d="M2724.4,401.58h0l-8.67-24.51-8.67,24.51h17.34ZM2709.84,360.96h12.39l22.34,61.96h-12.69l-3.59-10.14h-25.1l-3.59,10.14h-11.95l22.19-61.96Z"/>
              <path class="cls-1" d="M2800.68,411.04h0c15.1,0,18.17-5.05,18.17-18.93s-2.54-18.53-18.39-18.53h-7.77v37.46h7.99ZM2780.43,361.37h19.87c21.83,0,30.86,6.32,30.86,30.74s-9.33,30.81-31.14,30.81h-19.59v-61.55Z"/>
              <path class="cls-1" d="M2911.7,392.34h0c0-12.03-4.24-19.51-16.97-19.51s-16.97,7.48-16.97,19.51,4.26,19.61,16.97,19.61,16.97-7.56,16.97-19.61M2865.45,392.11c0-23.09,11.66-31.73,29.28-31.73s29.37,8.64,29.37,31.73-11.72,31.81-29.37,31.81-29.28-8.64-29.28-31.81"/>
            </g>
          </g>
        </g>
      </g>
    </g>
  </g>
</svg>