<?xml version="1.0" encoding="UTF-8"?>
<svg xmlns="http://www.w3.org/2000/svg" version="1.1" viewBox="0 0 1042 1042">
  <defs>
    <style>
      .cls-1 {
        fill: #da4847;
      }

      .cls-2 {
        fill: #502424;
        stroke: #502424;
        stroke-miterlimit: 10;
      }
    </style>
  </defs>
  <!-- Generator: Adobe Illustrator 28.7.2, SVG Export Plug-In . SVG Version: 1.2.0 Build 154)  -->
  <g>
    <g id="Camada_1">
      <g>
        <g>
          <path class="cls-2" d="M686.22,527.11c-.4,0-.8-.12-1.14-.36l-74.33-52.23c-.3-.21-.54-.5-.68-.84-5.55-12.75-20.97-46.89-25.7-51.62-2.06-2.06-14.43-9.79-22.44-14.6l-22.78-4.95c-.56-.12-1.04-.48-1.32-.98l-36.09-64.58-24.59,64.32c-.06.16-.15.32-.25.46l-16.07,22.1c-.61.84-1.75,1.07-2.64.54l-20.09-12.05c-.12-.07-.23-.16-.33-.25-.3-.28-30.25-28.24-38.22-36.21-7.78-7.79-23.59-17.7-23.75-17.8-.35-.22-.63-.55-.79-.93l-12.68-30.8-46.12,65.34c-.22.31-.52.55-.87.7l-43.8,17.92-86.09,90.09c-.76.8-2.02.82-2.82.06-.8-.76-.82-2.02-.06-2.82l86.38-90.4c.19-.2.43-.36.69-.47l43.66-17.86,47.88-67.83c.42-.59,1.12-.92,1.85-.83.72.08,1.34.55,1.62,1.22l13.82,33.56c2.93,1.86,16.56,10.66,23.92,18.02,7.62,7.63,35.63,33.78,37.97,35.97l18.34,11.01,14.84-20.41,26.02-68.06c.28-.72.95-1.22,1.72-1.28.78-.04,1.51.34,1.88,1.02l37.73,67.52,22.22,4.83c.21.05.41.13.6.24,2.08,1.25,20.39,12.27,23.49,15.37,5.94,5.94,23.4,45.65,26.31,52.33l73.87,51.91c.9.63,1.12,1.88.48,2.78-.39.55-1,.85-1.63.85Z"/>
          <path class="cls-2" d="M844.92,444.74c-.22,0-.44-.04-.66-.11-12.67-4.47-33.55-11.67-35.63-11.95-.7.02-2.61,0-51.37-40.63-.07-.06-.13-.12-.2-.19l-41.19-45.11-52.9,25.47c-.73.35-1.6.23-2.21-.32l-42.57-38.7c-11.66,14.09-74.55,66.54-77.36,68.89-.85.7-2.1.59-2.81-.26-.7-.85-.59-2.1.26-2.81,20.04-16.7,73.11-61.8,77.91-69.81.31-.51.83-.86,1.42-.95.6-.09,1.19.1,1.63.5l43.2,39.27,53.03-25.53c.79-.38,1.74-.2,2.34.45l42.09,46.1c17.5,14.58,46.08,38.01,49.36,39.7,3.92.76,24.14,7.81,36.31,12.1,1.04.37,1.58,1.5,1.22,2.54-.29.82-1.06,1.33-1.88,1.33ZM808.76,428.7c.1,0,.24.02.42.05-.1-.03-.25-.05-.42-.05Z"/>
        </g>
        <g>
          <path class="cls-1" d="M189.88,603.24l-1.22-19.13c0-10.69,3.17-16.03,9.51-16.03,4.05,0,9.58.94,16.59,2.82,7,1.88,10.51,4.29,10.51,7.24,0,3.1-2.21,5.46-6.64,7.08-7-2.36-12.72-3.8-17.14-4.31.22,3.25.33,6.49.33,9.73l-1,32.51c0,.15.22,1.33.66,3.54l8.07-.33c7.3,0,10.95,2.07,10.95,6.19,0,1.62-.66,3.04-1.99,4.26s-3,1.83-5.03,1.83-4.22-.15-6.58-.44h-5.75c.44,5.75.66,11.46.66,17.14l-1,41.02c0,8.48.15,12.72.44,12.72l16.7-.55c5.75,0,8.63,1.84,8.63,5.53,0,2.29-1,3.94-2.99,4.98-1.99,1.03-4.24,1.55-6.75,1.55h-19.13c-1.99,0-3.8-.68-5.42-2.05-1.62-1.36-2.47-3-2.54-4.92v-5.97l-1.44-38.26,1.55-66.13Z"/>
          <path class="cls-1" d="M237.76,625.91l1.33-42.24c0-7,2.76-12.57,8.29-16.7v1.44c.59-.37,1.14-.55,1.66-.55,3.54,0,7.96,6.1,13.27,18.3,5.31,12.2,10.1,25.6,14.37,40.19,4.27,14.6,8.53,29.32,12.77,44.18,4.24,14.85,6.87,23.57,7.91,26.15,3.02-31.63,4.53-69.92,4.53-114.89l-.33-6.08c0-4.5,1.88-6.75,5.64-6.75,2.14,0,3.74.88,4.81,2.65,1.07,1.77,1.6,3.83,1.6,6.19v17.14c-.15,17.77-.94,41.49-2.38,71.16-1.44,29.67-3.37,46.43-5.81,50.26-4.13,1.25-6.99,1.88-8.57,1.88s-2.8-.54-3.65-1.6c-.85-1.07-1.53-2.71-2.05-4.92-.52-2.21-.96-3.68-1.33-4.42l.11-1c0-5.6-5.42-23.4-16.26-53.41-10.84-30-18.69-50.65-23.55-61.92v114.01c.15.29.44.81.88,1.55.96,1.62,1.44,3.13,1.44,4.53s-.68,2.8-2.05,4.2c-1.36,1.4-2.97,2.1-4.81,2.1-4.94,0-7.41-4.61-7.41-13.82l-.44-77.62Z"/>
          <path class="cls-1" d="M327.33,662.84l-.11-13.27v-5.42c0-22.26,1.11-37.74,3.32-46.44,2.65-10.76,6.34-18.21,11.06-22.34,6.41-5.75,14.52-8.63,24.33-8.63,2.36,0,4.11.55,5.25,1.66,1.14,1.11,1.71,2.43,1.71,3.98s-.46,2.93-1.38,4.15c-.92,1.22-2.08,1.86-3.48,1.93h-10.62c-3.1,0-5.79,1.99-8.07,5.97-2.21,3.98-3.83,8.85-4.87,14.6-1.92,10.91-2.84,19.94-2.76,27.09v1.11l-1,43.68c0,9.22.5,15.59,1.49,19.13.99,3.54,2.03,6.4,3.1,8.57,1.07,2.18,2.34,3.96,3.81,5.36,3.39,3.24,7.74,4.87,13.05,4.87,1.77,0,3.39-.66,4.87-1.99,1.77,0,3.35.41,4.75,1.22,1.4.81,2.1,2.06,2.1,3.76,0,5.97-4.17,8.96-12.5,8.96-3.39,0-6.95-.5-10.67-1.49-3.72-1-6.51-2.08-8.35-3.26-10.03-6.49-15.04-24.22-15.04-53.19Z"/>
          <path class="cls-1" d="M383.61,648.36l.22-8.62c0-.74-.11-1.11-.33-1.11v-4.09c0-23.74,1.36-40.62,4.09-50.64,2.28-8.48,4.5-13.71,6.63-15.7,2.14-1.99,4.24-2.99,6.3-2.99,17.54,0,29.63,8.85,36.27,26.54,3.83,10.17,5.75,22.71,5.75,37.6v1.66l.44,25.65c0,43.42-10.06,65.13-30.19,65.13-8.33,0-14.71-4.61-19.13-13.82-4.2-8.85-6.78-17.54-7.74-26.1-1.55-12.9-2.32-24.07-2.32-33.5ZM396.99,617.4l-1.11,20.9c0,21.89,1.77,40.99,5.31,57.28,3.76,9.51,7.33,15.11,10.73,16.81,2.73,0,5.2-1.11,7.41-3.32,2.21-2.21,3.96-5.18,5.25-8.9,1.29-3.72,2.38-7.65,3.26-11.78.81-4.05,1.44-8.4,1.88-13.05.74-8.03,1.11-14.89,1.11-20.57s-.5-14.37-1.49-26.1c-.99-11.72-1.49-20.46-1.49-26.21v-3.98c-.15-5.53-1.95-10.45-5.42-14.76-3.47-4.31-7.89-6.47-13.27-6.47s-8.59,2.91-10.28,8.74c-1.4,4.87-2.1,10.87-2.1,18.02l.22,13.38Z"/>
          <path class="cls-1" d="M457.03,625.91l1.33-42.24c0-7,2.76-12.57,8.29-16.7v1.44c.59-.37,1.14-.55,1.66-.55,3.54,0,7.96,6.1,13.27,18.3,5.31,12.2,10.1,25.6,14.37,40.19,4.27,14.6,8.53,29.32,12.77,44.18,4.24,14.85,6.87,23.57,7.91,26.15,3.02-31.63,4.53-69.92,4.53-114.89l-.33-6.08c0-4.5,1.88-6.75,5.64-6.75,2.14,0,3.74.88,4.81,2.65,1.07,1.77,1.6,3.83,1.6,6.19v17.14c-.15,17.77-.94,41.49-2.38,71.16-1.44,29.67-3.37,46.43-5.81,50.26-4.13,1.25-6.98,1.88-8.57,1.88s-2.8-.54-3.65-1.6c-.85-1.07-1.53-2.71-2.05-4.92-.52-2.21-.96-3.68-1.33-4.42l.11-1c0-5.6-5.42-23.4-16.26-53.41-10.84-30-18.69-50.65-23.55-61.92v114.01c.15.29.44.81.88,1.55.96,1.62,1.44,3.13,1.44,4.53s-.68,2.8-2.05,4.2c-1.36,1.4-2.97,2.1-4.81,2.1-4.94,0-7.41-4.61-7.41-13.82l-.44-77.62Z"/>
          <path class="cls-1" d="M569.82,713.93l-.44-17.36c0-.07.11-2.65.33-7.74-.59-1.92-1.79-18.94-3.59-51.09-1.81-32.14-2.78-51.79-2.93-58.94h-.88c-12.24-.22-18.36-2.47-18.36-6.74,0-1.4.81-2.56,2.43-3.48,1.62-.92,3.21-1.38,4.75-1.38l30.74,2.1,3.65-.11c4.72,0,7.08,1.81,7.08,5.42,0,1.84-.77,3.34-2.32,4.48-1.55,1.14-3.28,1.71-5.2,1.71l-10.39-1.55-.44,2.32c0,14.3,1.25,35.72,3.76,64.25,2.5,28.53,3.76,49.98,3.76,64.36,0,1.77-.81,3.34-2.43,4.7-1.62,1.36-3.39,2.05-5.31,2.05l-4.2-2.99Z"/>
          <path class="cls-1" d="M614.27,641.72l-.22,24.55c0,19.98,1.44,35.72,4.31,47.22l-2.54,6.08h-6.3l-2.98-3.32c.15-6.78.22-14.39.22-22.83s-.65-26.48-1.94-54.13c-1.29-27.64-1.93-48.28-1.93-61.92,0-7.15,2.5-10.73,7.52-10.73,7.89,0,14.52,2.06,19.9,6.19,5.38,4.13,8.07,10.03,8.07,17.69v15.92c0,4.35-.81,8.31-2.43,11.89-1.62,3.58-3.5,7.34-5.64,11.28-2.14,3.94-3.32,6.14-3.54,6.58.81,3.69,2.25,10.91,4.31,21.67,4.42,23.52,9.32,40.43,14.71,50.76,1.55,2.95,2.32,5.25,2.32,6.91s-.46,3.06-1.38,4.2c-.92,1.14-2.16,1.71-3.7,1.71-3.17,0-6.21-3.63-9.12-10.89-2.91-7.26-5.25-15.32-7.02-24.16-5.38-27.05-8.66-41.95-9.84-44.67h-2.77ZM615.16,575.05l-.77,3.21c0,6.19.15,15.13.44,26.82.29,11.68.44,20.18.44,25.49,3.54-1.84,6.39-6.65,8.57-14.43,2.17-7.78,3.26-13.73,3.26-17.86s-.11-7.17-.33-9.12c-.22-1.95-.7-4.11-1.44-6.47-1.48-4.87-4.87-7.41-10.17-7.63Z"/>
          <path class="cls-1" d="M709.92,717.47c-4.64,0-6.97-1.95-6.97-5.86v-29.52c-2.14-1.47-5.99-2.73-11.56-3.76-5.57-1.03-10.52-1.69-14.87-1.99-1.55,2.65-2.82,6.49-3.81,11.5-1,5.01-2.03,10.06-3.1,15.15-1.07,5.09-2.49,9.11-4.26,12.05-5.9,0-9.22-1.51-9.95-4.53,2.06-2.95,5.42-18.02,10.06-45.23,4.64-27.2,8.46-48.49,11.44-63.86,2.99-15.37,6.21-28.29,9.68-38.76,3.46-10.47,6.78-15.7,9.95-15.7s5.6.66,7.3,1.99c0,5.38,1.47,19.94,4.42,43.68,2.95,23.74,4.42,39.09,4.42,46.06s.79,18.54,2.38,34.72c1.58,16.18,2.38,28.33,2.38,36.44,0,5.09-2.51,7.63-7.52,7.63ZM700.41,643.55c-1.33-13.38-2.53-26.13-3.59-38.26-1.07-12.13-1.6-19.46-1.6-22.01s.04-4,.11-4.37c-2.36,2.43-5.77,15.96-10.23,40.58-4.46,24.62-6.84,40.21-7.13,46.77,6.27,1.7,11.52,2.54,15.76,2.54s7.24-.22,9.01-.66c-.22-3.02-1-11.22-2.32-24.6Z"/>
          <path class="cls-1" d="M789.21,634.2l.55,4.75c.07,10.69-2.76,23.3-8.51,37.82-6.49,16.59-14.15,28.35-23,35.27-5.01,3.98-10.17,6.01-15.48,6.08-2.8,0-5.35-.64-7.63-1.94-2.29-1.29-3.43-3.22-3.43-5.81,3.32-3.46,4.98-12.35,4.98-26.65,0-8.4-.7-20.9-2.1-37.49-1.4-16.59-2.1-29.01-2.1-37.26l.66-24.77c0-3.98-.83-9.34-2.49-16.09-1.66-6.75-2.49-11.52-2.49-14.32,0-5.23,5.79-7.85,17.36-7.85h3.43c15.41,0,26.57,8.62,33.5,25.88,4.87,12.02,7.3,28.6,7.3,49.76v10.51c-.37.66-.55,1.36-.55,2.1ZM747.52,683.3v21.67c5.68-3.69,10.62-8.83,14.82-15.43,4.2-6.6,7.41-13.8,9.62-21.62,4.13-14.96,6.19-29.89,6.19-44.78,0-17.1-2.14-30.59-6.41-40.47-4.35-10.17-9.73-16.88-16.14-20.13-3.98-2.06-8.48-3.06-13.49-2.99v.22c0,13.64.9,34.17,2.71,61.59,1.81,27.42,2.71,48.07,2.71,61.92Z"/>
          <path class="cls-1" d="M847.48,717.47c-4.64,0-6.97-1.95-6.97-5.86v-29.52c-2.14-1.47-5.99-2.73-11.56-3.76-5.57-1.03-10.52-1.69-14.87-1.99-1.55,2.65-2.82,6.49-3.81,11.5-1,5.01-2.03,10.06-3.1,15.15-1.07,5.09-2.49,9.11-4.26,12.05-5.9,0-9.22-1.51-9.95-4.53,2.06-2.95,5.42-18.02,10.06-45.23,4.64-27.2,8.46-48.49,11.44-63.86,2.99-15.37,6.21-28.29,9.68-38.76,3.46-10.47,6.78-15.7,9.95-15.7s5.6.66,7.3,1.99c0,5.38,1.47,19.94,4.42,43.68,2.95,23.74,4.42,39.09,4.42,46.06s.79,18.54,2.38,34.72c1.58,16.18,2.38,28.33,2.38,36.44,0,5.09-2.51,7.63-7.52,7.63ZM837.97,643.55c-1.33-13.38-2.53-26.13-3.59-38.26-1.07-12.13-1.6-19.46-1.6-22.01s.04-4,.11-4.37c-2.36,2.43-5.77,15.96-10.23,40.58-4.46,24.62-6.84,40.21-7.13,46.77,6.27,1.7,11.52,2.54,15.76,2.54s7.24-.22,9.01-.66c-.22-3.02-1-11.22-2.32-24.6Z"/>
        </g>
      </g>
    </g>
  </g>
</svg>