<svg width="155" height="92" viewBox="0 0 155 92" fill="none" xmlns="http://www.w3.org/2000/svg">
<path d="M115.798 47.6536C115.707 47.6536 115.616 47.6266 115.539 47.5725L98.6152 35.8009C98.5469 35.7535 98.4922 35.6882 98.4604 35.6115C97.1967 32.7379 93.6859 25.0434 92.6089 23.9774C92.1399 23.5131 89.3235 21.7709 87.4998 20.6868L82.3132 19.5712C82.1857 19.5442 82.0764 19.463 82.0126 19.3503L73.7956 4.79523L68.1969 19.2917C68.1833 19.3278 68.1628 19.3638 68.14 19.3954L64.4812 24.3763C64.3423 24.5656 64.0827 24.6175 63.8801 24.498L59.306 21.7822C59.2786 21.7664 59.2536 21.7461 59.2308 21.7258C59.1625 21.6627 52.3434 15.3611 50.5288 13.5648C48.7575 11.8091 45.1578 9.57555 45.1214 9.55302C45.0417 9.50343 44.9779 9.42906 44.9415 9.34341L42.0545 2.40168L31.5538 17.1281C31.5037 17.1979 31.4354 17.252 31.3557 17.2858L21.3833 21.3247L1.78217 41.6292C1.60913 41.8095 1.32226 41.814 1.14011 41.6427C0.957966 41.4714 0.953413 41.1875 1.12645 41.0072L20.7936 20.6327C20.8369 20.5877 20.8915 20.5516 20.9507 20.5268L30.8913 16.5015L41.7927 1.21393C41.8883 1.08095 42.0477 1.00658 42.2139 1.02687C42.3778 1.0449 42.519 1.15083 42.5827 1.30183L45.7293 8.86561C46.3964 9.28482 49.4997 11.2682 51.1754 12.927C52.9104 14.6466 59.2877 20.5403 59.8205 21.0339L63.9962 23.5154L67.375 18.9153L73.2993 3.57592C73.363 3.41365 73.5156 3.30096 73.6909 3.28743C73.8685 3.27842 74.0347 3.36406 74.1189 3.51732L82.7094 18.735L87.7684 19.8236C87.8162 19.8349 87.8618 19.8529 87.9051 19.8777C88.3786 20.1594 92.5475 22.6431 93.2533 23.3418C94.6057 24.6806 98.581 33.6304 99.2436 35.136L116.062 46.8355C116.267 46.9775 116.317 47.2592 116.172 47.4621C116.083 47.586 115.944 47.6536 115.801 47.6536H115.798Z" fill="#502424" stroke="#502424" stroke-miterlimit="10"/>
<path d="M151.931 29.089C151.881 29.089 151.831 29.08 151.781 29.0642C148.896 28.0568 144.142 26.434 143.669 26.3709C143.509 26.3754 143.074 26.3709 131.973 17.2137C131.957 17.2002 131.943 17.1867 131.927 17.1709L122.549 7.00397L110.505 12.7444C110.338 12.8233 110.14 12.7963 110.001 12.6723L100.309 3.95006C97.6543 7.12568 83.3354 18.9469 82.6956 19.4765C82.502 19.6343 82.2174 19.6095 82.0558 19.4179C81.8964 19.2264 81.9215 18.9446 82.115 18.7846C86.6777 15.0208 98.7608 4.85609 99.8537 3.05079C99.9242 2.93585 100.043 2.85697 100.177 2.83668C100.314 2.8164 100.448 2.85922 100.548 2.94937L110.384 11.8001L122.458 6.0461C122.638 5.96046 122.854 6.00103 122.991 6.14753L132.574 16.5376C136.558 19.8236 143.065 25.1043 143.812 25.4852C144.705 25.6565 149.308 27.2454 152.079 28.2123C152.316 28.2957 152.439 28.5504 152.357 28.7848C152.291 28.9696 152.116 29.0845 151.929 29.0845L151.931 29.089ZM143.698 25.4739C143.721 25.4739 143.753 25.4784 143.794 25.4852C143.771 25.4784 143.737 25.4739 143.698 25.4739Z" fill="#502424" stroke="#502424" stroke-miterlimit="10"/>
<path d="M2.79057 64.8118L2.5128 60.5003C2.5128 58.091 3.23455 56.8875 4.67805 56.8875C5.60016 56.8875 6.85924 57.0993 8.45529 57.523C10.0491 57.9467 10.8482 58.4899 10.8482 59.1548C10.8482 59.8535 10.345 60.3854 9.33642 60.7505C7.74264 60.2186 6.44031 59.894 5.43395 59.7791C5.48404 60.5116 5.50909 61.2418 5.50909 61.972L5.28141 69.2992C5.28141 69.333 5.33149 69.5989 5.43167 70.097L7.26907 70.0226C8.93114 70.0226 9.76218 70.4892 9.76218 71.4177C9.76218 71.7829 9.61191 72.1029 9.30909 72.3779C9.00628 72.6528 8.62605 72.7903 8.16385 72.7903C7.70166 72.7903 7.20304 72.7565 6.66571 72.6911H5.35654C5.45672 73.9871 5.50681 75.274 5.50681 76.5542L5.27913 85.7993C5.27913 87.7105 5.31328 88.6661 5.37931 88.6661L9.18159 88.5422C10.4908 88.5422 11.1465 88.9569 11.1465 89.7885C11.1465 90.3047 10.9188 90.6765 10.4657 90.9109C10.0126 91.1431 9.50035 91.2603 8.92886 91.2603H4.57332C4.12023 91.2603 3.70812 91.107 3.33928 90.7982C2.97043 90.4917 2.77691 90.1221 2.76097 89.6894V88.3438L2.43311 79.7208L2.78601 64.8163L2.79057 64.8118Z" fill="#DA4847"/>
<path d="M13.6924 69.9212L13.9952 60.4011C13.9952 58.8235 14.6236 57.5681 15.8827 56.6373V56.9618C16.017 56.8784 16.1422 56.8379 16.2606 56.8379C17.0666 56.8379 18.073 58.2127 19.282 60.9623C20.491 63.712 21.5815 66.7321 22.5537 70.0204C23.5259 73.3109 24.4959 76.6286 25.4612 79.9777C26.4266 83.3246 27.0254 85.2899 27.2622 85.8714C27.9498 78.7426 28.2936 70.1128 28.2936 59.9774L28.2185 58.6071C28.2185 57.5929 28.6465 57.0858 29.5026 57.0858C29.9898 57.0858 30.3541 57.2841 30.5977 57.683C30.8414 58.082 30.962 58.5462 30.962 59.0781V62.9412C30.9279 66.9462 30.748 72.2922 30.4202 78.9793C30.0923 85.6663 29.6529 89.4437 29.0973 90.3069C28.157 90.5886 27.5058 90.7306 27.1461 90.7306C26.7864 90.7306 26.5086 90.6089 26.3151 90.37C26.1215 90.1289 25.9667 89.7592 25.8483 89.2611C25.7299 88.763 25.6297 88.4317 25.5455 88.265L25.5705 88.0396C25.5705 86.7774 24.3365 82.7657 21.8684 76.002C19.4004 69.2406 17.6131 64.5864 16.5065 62.0464V87.7421C16.5407 87.8074 16.6067 87.9246 16.7069 88.0914C16.9255 88.4565 17.0347 88.7969 17.0347 89.1124C17.0347 89.4279 16.8799 89.7435 16.568 90.059C16.2584 90.3745 15.8918 90.5323 15.4728 90.5323C14.3481 90.5323 13.7857 89.4933 13.7857 87.4175L13.6855 69.9235L13.6924 69.9212Z" fill="#DA4847"/>
<path d="M34.0861 78.2445L34.061 75.2537V74.0322C34.061 69.0152 34.3138 65.5263 34.8169 63.5655C35.4203 61.1404 36.2604 59.4613 37.3351 58.5305C38.7945 57.2345 40.641 56.5854 42.8746 56.5854C43.4119 56.5854 43.8104 56.7094 44.0699 56.9596C44.3295 57.2098 44.4593 57.5073 44.4593 57.8566C44.4593 58.2059 44.3545 58.517 44.1451 58.7919C43.9356 59.0669 43.6715 59.2111 43.3527 59.2269H40.9347C40.2289 59.2269 39.6165 59.6754 39.0974 60.5724C38.5942 61.4695 38.2253 62.5671 37.9885 63.863C37.5514 66.3219 37.3419 68.3571 37.3601 69.9686V70.2187L37.1325 80.0634C37.1325 82.1414 37.2463 83.577 37.4717 84.3749C37.6971 85.1727 37.9339 85.8173 38.1775 86.3064C38.4211 86.7977 38.7103 87.1989 39.045 87.5144C39.8168 88.2447 40.8072 88.6121 42.0162 88.6121C42.4192 88.6121 42.7881 88.4633 43.125 88.1635C43.528 88.1635 43.8878 88.256 44.2065 88.4385C44.5253 88.6211 44.6847 88.9028 44.6847 89.2859C44.6847 90.6315 43.7352 91.3054 41.8386 91.3054C41.0668 91.3054 40.2563 91.1927 39.4093 90.9695C38.5623 90.7442 37.9271 90.5007 37.5081 90.2348C35.2245 88.7721 34.0838 84.7761 34.0838 78.2468L34.0861 78.2445Z" fill="#DA4847"/>
<path d="M46.8996 74.9811L46.9496 73.0383C46.9496 72.8715 46.9246 72.7881 46.8745 72.7881V71.8663C46.8745 66.5158 47.1842 62.7113 47.8057 60.453C48.3248 58.5418 48.8303 57.3631 49.3153 56.9145C49.8025 56.466 50.2806 56.2407 50.7497 56.2407C54.7432 56.2407 57.4959 58.2353 59.0077 62.2223C59.8797 64.5144 60.3168 67.3407 60.3168 70.6966V71.0707L60.417 76.8517C60.417 86.6378 58.1265 91.5308 53.5433 91.5308C51.6467 91.5308 50.1941 90.4918 49.1878 88.416C48.2315 86.4214 47.6441 84.4628 47.4255 82.5336C47.0726 79.6262 46.8973 77.1087 46.8973 74.9833L46.8996 74.9811ZM49.9459 68.0033L49.6932 72.7137C49.6932 77.6473 50.0962 81.9521 50.9022 85.6236C51.7583 87.7669 52.5711 89.0291 53.3452 89.4122C53.9668 89.4122 54.5292 89.162 55.0323 88.6639C55.5355 88.1658 55.934 87.4965 56.2277 86.658C56.5214 85.8196 56.7696 84.9339 56.9699 84.0031C57.1543 83.0903 57.2978 82.1099 57.398 81.0618C57.5664 79.252 57.6507 77.7059 57.6507 76.4258C57.6507 75.1456 57.5368 73.187 57.3114 70.5433C57.086 67.9019 56.9722 65.932 56.9722 64.6361V63.7391C56.938 62.4927 56.5282 61.3838 55.7382 60.4124C54.9481 59.4411 53.9418 58.9542 52.7168 58.9542C51.4919 58.9542 50.761 59.6101 50.3763 60.9241C50.0575 62.0217 49.8981 63.374 49.8981 64.9854L49.9482 68.001L49.9459 68.0033Z" fill="#DA4847"/>
<path d="M63.6162 69.9212L63.919 60.4011C63.919 58.8235 64.5474 57.5681 65.8065 56.6373V56.9618C65.9408 56.8784 66.0661 56.8379 66.1845 56.8379C66.9904 56.8379 67.9968 58.2127 69.2058 60.9623C70.4148 63.712 71.5054 66.7321 72.4776 70.0204C73.4498 73.3109 74.4197 76.6286 75.3851 79.9777C76.3504 83.3246 76.9492 85.2899 77.186 85.8714C77.8736 78.7426 78.2174 70.1128 78.2174 59.9774L78.1423 58.6071C78.1423 57.5929 78.5703 57.0858 79.4264 57.0858C79.9137 57.0858 80.278 57.2841 80.5216 57.683C80.7652 58.082 80.8859 58.5462 80.8859 59.0781V62.9412C80.8517 66.9462 80.6718 72.2922 80.344 78.9793C80.0161 85.6663 79.5767 89.4437 79.0211 90.3069C78.0808 90.5886 77.4319 90.7306 77.0699 90.7306C76.7079 90.7306 76.4324 90.6089 76.2389 90.37C76.0453 90.1289 75.8905 89.7592 75.7721 89.2611C75.6537 88.763 75.5536 88.4317 75.4693 88.265L75.4944 88.0396C75.4944 86.7774 74.2603 82.7657 71.7923 76.002C69.3242 69.2406 67.5369 64.5864 66.4304 62.0464V87.7421C66.4645 87.8074 66.5305 87.9246 66.6307 88.0914C66.8493 88.4565 66.9586 88.7969 66.9586 89.1124C66.9586 89.4279 66.8037 89.7435 66.4918 90.059C66.1822 90.3745 65.8156 90.5323 65.3967 90.5323C64.2719 90.5323 63.7096 89.4933 63.7096 87.4175L63.6094 69.9235L63.6162 69.9212Z" fill="#DA4847"/>
<path d="M89.2964 89.7591L89.1962 85.8465C89.1962 85.8308 89.2212 85.2493 89.2713 84.1021C89.137 83.6694 88.8638 79.8334 88.4539 72.5874C88.0418 65.3436 87.821 60.9149 87.7868 59.3034H87.5865C84.7997 59.2539 83.4062 58.7467 83.4062 57.7844C83.4062 57.4688 83.5907 57.2074 83.9595 57.0001C84.3284 56.7927 84.6904 56.689 85.041 56.689L92.0399 57.1623L92.871 57.1375C93.9456 57.1375 94.483 57.5455 94.483 58.3591C94.483 58.7738 94.3077 59.1119 93.9547 59.3688C93.6018 59.6257 93.2079 59.7542 92.7708 59.7542L90.4052 59.4049L90.305 59.9277C90.305 63.1507 90.5896 67.9783 91.1611 74.4085C91.7303 80.8386 92.0172 85.673 92.0172 88.914C92.0172 89.3129 91.8328 89.6667 91.4639 89.9733C91.0951 90.2798 90.6921 90.4353 90.2549 90.4353L89.2987 89.7614L89.2964 89.7591Z" fill="#DA4847"/>
<path d="M99.4165 73.4845L99.3664 79.0176C99.3664 83.5207 99.6942 87.0682 100.348 89.6601L99.7694 91.0304H98.335L97.6565 90.2821C97.6906 88.7541 97.7066 87.0389 97.7066 85.1367C97.7066 83.2345 97.5586 79.1686 97.2649 72.9368C96.9712 66.7073 96.8254 62.0555 96.8254 58.9813C96.8254 57.3698 97.3946 56.5629 98.5376 56.5629C100.334 56.5629 101.844 57.0272 103.068 57.958C104.293 58.8889 104.906 60.2186 104.906 61.945V65.5331C104.906 66.5135 104.721 67.406 104.353 68.2129C103.984 69.0197 103.556 69.8671 103.068 70.7551C102.581 71.6431 102.313 72.139 102.262 72.2382C102.447 73.0698 102.775 74.6971 103.244 77.1222C104.25 82.4231 105.366 86.2343 106.593 88.5625C106.946 89.2274 107.121 89.7457 107.121 90.1199C107.121 90.494 107.016 90.8095 106.807 91.0665C106.598 91.3234 106.315 91.4519 105.965 91.4519C105.243 91.4519 104.551 90.6337 103.888 88.9975C103.226 87.3612 102.693 85.5446 102.29 83.5523C101.065 77.4557 100.318 74.0975 100.049 73.4845H99.4187H99.4165ZM99.6191 58.4584L99.4438 59.1819C99.4438 60.577 99.4779 62.5919 99.544 65.2266C99.61 67.859 99.6441 69.7747 99.6441 70.9715C100.45 70.5568 101.099 69.4727 101.595 67.7193C102.089 65.9658 102.338 64.6248 102.338 63.694C102.338 62.7632 102.313 62.078 102.262 61.6385C102.212 61.199 102.103 60.7122 101.935 60.1803C101.598 59.0827 100.826 58.5102 99.6191 58.4606V58.4584Z" fill="#DA4847"/>
<path d="M121.194 90.557C120.138 90.557 119.608 90.1176 119.608 89.2363V82.5831C119.12 82.2518 118.244 81.9678 116.976 81.7357C115.707 81.5035 114.58 81.3548 113.59 81.2871C113.237 81.8844 112.948 82.7499 112.722 83.879C112.495 85.0082 112.26 86.1463 112.017 87.2935C111.773 88.4407 111.45 89.3467 111.047 90.0094C109.703 90.0094 108.947 89.6691 108.781 88.9884C109.25 88.3235 110.015 84.927 111.072 78.7944C112.128 72.6641 112.998 67.8657 113.676 64.4016C114.357 60.9375 115.09 58.0256 115.88 55.6658C116.668 53.3061 117.424 52.1274 118.146 52.1274C118.868 52.1274 119.421 52.2761 119.808 52.5759C119.808 53.7884 120.143 57.07 120.814 62.4205C121.486 67.7711 121.821 71.2306 121.821 72.8016C121.821 74.3725 122 76.9801 122.362 80.6268C122.722 84.2734 122.904 87.0118 122.904 88.8396C122.904 89.9868 122.333 90.5593 121.192 90.5593L121.194 90.557ZM119.029 73.8969C118.726 70.8813 118.453 68.0077 118.212 65.2738C117.968 62.54 117.848 60.8879 117.848 60.3132C117.848 59.7385 117.857 59.4117 117.873 59.3283C117.335 59.876 116.559 62.9254 115.543 68.4742C114.528 74.0231 113.986 77.5368 113.92 79.0153C115.348 79.3985 116.543 79.5878 117.508 79.5878C118.474 79.5878 119.157 79.5382 119.56 79.439C119.51 78.7584 119.332 76.9102 119.031 73.8946L119.029 73.8969Z" fill="#DA4847"/>
<path d="M139.247 71.7896L139.372 72.8602C139.388 75.2695 138.744 78.1116 137.435 81.3841C135.957 85.1232 134.213 87.7736 132.198 89.3333C131.057 90.2303 129.883 90.6878 128.674 90.7036C128.036 90.7036 127.455 90.5593 126.936 90.2663C126.415 89.9756 126.155 89.5406 126.155 88.9569C126.911 88.1771 127.289 86.1734 127.289 82.9505C127.289 81.0573 127.13 78.24 126.811 74.501C126.492 70.7619 126.333 67.9627 126.333 66.1033L126.483 60.5206C126.483 59.6236 126.294 58.4155 125.916 56.8942C125.538 55.3729 125.349 54.2978 125.349 53.6668C125.349 52.488 126.668 51.8975 129.302 51.8975H130.083C133.591 51.8975 136.132 53.8403 137.71 57.7304C138.819 60.4395 139.372 64.1763 139.372 68.9453V71.3141C139.288 71.4628 139.247 71.6206 139.247 71.7874V71.7896ZM129.755 82.8558V87.7398C131.048 86.9082 132.173 85.7497 133.129 84.2622C134.086 82.7747 134.816 81.1519 135.32 79.3895C136.26 76.0178 136.729 72.6528 136.729 69.2969C136.729 65.4429 136.242 62.4025 135.269 60.1758C134.279 57.8836 133.054 56.3713 131.595 55.6388C130.688 55.1746 129.664 54.9492 128.523 54.965V55.0145C128.523 58.0887 128.728 62.7158 129.14 68.8957C129.552 75.0757 129.757 79.7298 129.757 82.8513L129.755 82.8558Z" fill="#DA4847"/>
<path d="M152.514 90.557C151.458 90.557 150.927 90.1176 150.927 89.2363V82.5831C150.44 82.2518 149.564 81.9678 148.295 81.7357C147.027 81.5035 145.9 81.3548 144.91 81.2871C144.557 81.8844 144.268 82.7499 144.042 83.879C143.815 85.0082 143.58 86.1463 143.336 87.2935C143.093 88.4407 142.769 89.3467 142.366 90.0094C141.023 90.0094 140.267 89.6691 140.101 88.9884C140.57 88.3235 141.335 84.927 142.392 78.7944C143.448 72.6641 144.318 67.8657 144.996 64.4016C145.677 60.9375 146.41 58.0256 147.2 55.6658C147.988 53.3061 148.744 52.1274 149.466 52.1274C150.187 52.1274 150.741 52.2761 151.128 52.5759C151.128 53.7884 151.462 57.07 152.134 62.4205C152.806 67.7711 153.14 71.2306 153.14 72.8016C153.14 74.3725 153.32 76.9801 153.682 80.6268C154.042 84.2734 154.224 87.0118 154.224 88.8396C154.224 89.9868 153.653 90.5593 152.512 90.5593L152.514 90.557ZM150.349 73.8969C150.046 70.8813 149.773 68.0077 149.532 65.2738C149.288 62.54 149.167 60.8879 149.167 60.3132C149.167 59.7385 149.176 59.4117 149.192 59.3283C148.655 59.876 147.879 62.9254 146.863 68.4742C145.848 74.0231 145.306 77.5368 145.24 79.0153C146.667 79.3985 147.863 79.5878 148.828 79.5878C149.793 79.5878 150.477 79.5382 150.88 79.439C150.829 78.7584 150.652 76.9102 150.351 73.8946L150.349 73.8969Z" fill="#DA4847"/>
</svg>
