<?xml version="1.0" encoding="UTF-8"?>
<svg xmlns="http://www.w3.org/2000/svg" xmlns:xlink="http://www.w3.org/1999/xlink" version="1.1" viewBox="0 0 63.3 57">
  <defs>
    <style>
      .cls-1 {
        fill: none;
      }

      .cls-2 {
        fill-rule: evenodd;
      }

      .cls-2, .cls-3 {
        fill: #fff;
      }

      .cls-4 {
        fill: #f8cf15;
      }

      .cls-5 {
        fill: #000001;
      }

      .cls-6 {
        clip-path: url(#clippath);
      }
    </style>
    <clipPath id="clippath">
      <rect class="cls-1" x=".3" y=".2" width="62.8" height="56.5"/>
    </clipPath>
  </defs>
  <!-- Generator: Adobe Illustrator 28.7.2, SVG Export Plug-In . SVG Version: 1.2.0 Build 154)  -->
  <g>
    <g id="Camada_1">
      <g>
        <rect class="cls-5" x=".7" y=".7" width="61.9" height="55.6"/>
        <rect class="cls-5" x=".8" y="6.3" width="61.7" height="26.9"/>
        <path class="cls-5" d="M62.1,32.7H1.3V6.7h60.8v26ZM62.5,6.3H.8v26.9h61.7V6.3Z"/>
        <polygon class="cls-4" points="45.7 5.8 57.6 5.8 62.2 1.6 62.2 1.2 54.7 1.2 45.7 5.8"/>
        <polygon class="cls-4" points="42.2 1.2 39 1.2 32.9 5.8 44.8 5.6 42.2 1.2"/>
        <polygon class="cls-4" points="30.3 5.8 32.4 1.2 25.3 1.2 20.9 5.8 30.3 5.8"/>
        <g class="cls-6">
          <path class="cls-4" d="M1.8,5.2c.2,0,.3-.2.5-.5.1-.2.2-.3.2-.5,0-.2-.2-.4-.3-.5,0,0-.2-.1-.3-.2,0,0-.3,0-.5.2-.1.1-.1.3-.2.5,0,.1,0,.4.2.6,0,0,.2.3.5.3"/>
          <path class="cls-4" d="M3.5,4.1c-.2.3-.2.4-.2.5,0,.3.6.5.6.5,0,0,.4,0,.8-.2.6-.4.5-1.4.3-1.5,0,0-.1,0-.2,0-.3,0-1,.2-1.4.8"/>
          <path class="cls-4" d="M2.7,3.2c.2.2.3.2.3.2.1,0,.2-.1.5-.5.3-.3.4-.4.5-.6,0,0,0-.2,0-.3,0-.2-.3-.4-.8-.5-.4,0-.6,0-.8.2,0,0-.2.1-.3.3,0,.2,0,.3,0,.5,0,.4.4.6.6.8"/>
          <polygon class="cls-4" points="17.2 5.8 21 1.3 9.1 1.3 5.3 5.8 17.2 5.8"/>
          <rect class="cls-4" x=".7" y="33.4" width="61.9" height="14.3"/>
          <polygon class="cls-2" points="32.8 13.6 34.1 16.4 42.5 14.4 35.8 20 37.2 22.7 46.6 14.5 45 11.2 32.8 13.6"/>
          <path class="cls-2" d="M23.3,17.2c2.8-1.4,6.2,0,7.7,3,1.4,3,.4,6.6-2.4,8-2.8,1.4-6.2,0-7.7-3-1.4-3-.4-6.6,2.4-8M24.4,19.6c1.3-.6,3,.2,3.8,1.9.8,1.7.4,3.6-.9,4.3-1.3.6-3-.2-3.8-1.9-.8-1.7-.4-3.6.9-4.3"/>
          <path class="cls-5" d="M62.6,56.3H.7V.7h61.9v55.6ZM63.1.2H.3v56.5h62.8V.2Z"/>
          <path class="cls-5" d="M3.6,44.8v-7.8h3.1c.6,0,1.1,0,1.4.3.4.2.7.4.9.7s.3.6.3,1,0,.6-.2.8c-.1.2-.3.4-.5.6-.2.1-.5.2-.7.3h0c.3,0,.6.2.8.3.3.2.5.4.6.7.2.3.2.6.2,1s-.1.8-.3,1.1c-.2.3-.5.6-.9.8-.4.2-.9.3-1.5.3h-3.3ZM5.2,40.2h1.3c.2,0,.4,0,.6-.1.2,0,.3-.2.4-.4.1-.2.2-.3.2-.5s-.1-.5-.3-.7c-.2-.2-.5-.3-.9-.3h-1.3v2ZM5.2,43.5h1.4c.5,0,.8,0,1-.3.2-.2.3-.4.3-.7s0-.4-.2-.6c-.1-.2-.3-.3-.5-.4-.2,0-.4-.1-.7-.1h-1.4v2.1Z"/>
          <path class="cls-5" d="M13.7,44.9c-.6,0-1.1-.1-1.6-.4-.4-.2-.8-.6-1-1-.2-.5-.3-1-.3-1.6s.1-1.1.3-1.6c.2-.5.6-.8,1-1.1.4-.3.9-.4,1.5-.4s.7,0,1.1.2c.3.1.6.3.9.6.3.2.4.6.6.9.1.4.2.8.2,1.3v.4h-4.9v-1h4.2l-.7.3c0-.3,0-.6-.1-.8,0-.2-.2-.4-.4-.5s-.4-.2-.7-.2-.5,0-.7.2c-.2.1-.3.3-.4.5,0,.2-.1.5-.1.7v.7c0,.3,0,.6.2.9.1.2.3.4.5.5.2.1.4.2.7.2s.4,0,.5,0c.2,0,.3-.1.4-.2.1-.1.2-.2.2-.4l1.4.3c0,.3-.3.6-.5.8-.2.2-.5.4-.9.6-.4.1-.8.2-1.2.2"/>
          <path class="cls-5" d="M17.8,44.8v-5.9h1.5v1.5c0,0,0,0,0,0,0-.4.2-.7.4-.9.2-.2.4-.4.6-.5.2-.1.5-.2.8-.2.4,0,.8.1,1,.4.3.3.5.7.6,1.2h-.2c0-.4.2-.7.4-.9.2-.2.4-.4.7-.5.3-.1.6-.2.9-.2s.7,0,1,.2c.3.2.5.4.7.7.2.3.2.7.2,1.1v4h-1.6v-3.7c0-.3,0-.6-.3-.7-.2-.2-.4-.2-.7-.2s-.4,0-.5.1c-.1,0-.3.2-.3.4,0,.2-.1.3-.1.5v3.6h-1.5v-3.7c0-.3,0-.5-.3-.7-.2-.2-.4-.3-.7-.3s-.4,0-.5.1-.3.2-.4.4c0,.2-.1.4-.1.6v3.6h-1.6Z"/>
          <path class="cls-5" d="M29.7,41.8c-.3,0-.5,0-.6-.3-.2-.2-.3-.4-.3-.6s0-.5.3-.6c.2-.2.4-.3.6-.3s.5,0,.6.3c.2.2.3.4.3.6s0,.5-.3.6c-.2.2-.4.3-.6.3"/>
          <path class="cls-5" d="M36.6,40.1h-3.5v-1.2h3.5v1.2ZM33.9,37.5h1.6v5.6c0,.2,0,.3.1.4,0,0,.2.1.4.1s.1,0,.3,0c.1,0,.2,0,.2,0l.2,1.2c-.2,0-.3,0-.5.1-.2,0-.3,0-.5,0-.6,0-1-.1-1.4-.4-.3-.3-.5-.7-.5-1.2v-5.7Z"/>
          <path class="cls-5" d="M40.5,44.9c-.6,0-1.1-.1-1.6-.4-.4-.2-.8-.6-1-1-.2-.5-.3-1-.3-1.6s.1-1.1.3-1.6c.2-.5.6-.8,1-1.1.4-.3.9-.4,1.5-.4s.7,0,1.1.2c.3.1.6.3.9.6.3.2.4.6.6.9.1.4.2.8.2,1.3v.4h-4.9v-1h4.2l-.7.3c0-.3,0-.6-.1-.8,0-.2-.2-.4-.4-.5-.2-.1-.4-.2-.7-.2s-.5,0-.7.2c-.2.1-.3.3-.4.5,0,.2-.1.5-.1.7v.7c0,.3,0,.6.2.9.1.2.3.4.5.5.2.1.4.2.7.2s.4,0,.5,0c.2,0,.3-.1.4-.2.1-.1.2-.2.2-.4l1.4.3c0,.3-.3.6-.5.8-.2.2-.5.4-.9.6-.4.1-.8.2-1.2.2"/>
          <path class="cls-5" d="M46.7,42.9c-.3,0-.5,0-.6-.3-.2-.2-.3-.4-.3-.6s0-.5.3-.6c.2-.2.4-.3.6-.3s.5,0,.6.3c.2.2.3.4.3.6s0,.5-.3.6c-.2.2-.4.3-.6.3"/>
          <path class="cls-5" d="M52.7,44.9l-2.7-7.8h1.8l1.3,3.8c.2.5.3,1,.5,1.6.2.6.3,1.2.5,1.9h-.3c.2-.7.3-1.3.5-1.9.1-.6.3-1.1.4-1.6l1.2-3.8h1.8l-2.7,7.8h-2.1Z"/>
          <path class="cls-5" d="M59.6,38.2c-.2,0-.4,0-.6-.2-.2-.2-.3-.3-.3-.6s0-.4.3-.6c.2-.2.4-.2.6-.2s.4,0,.6.2c.2.2.3.3.3.6s0,.4-.3.6c-.2.2-.4.2-.6.2M58.8,39h1.6v5.9h-1.6v-5.9Z"/>
          <path class="cls-3" d="M6.3,54.3h-.5v-4.2h.5v4.2ZM7.1,54.3h-1v-.5h1c.3,0,.6,0,.9-.2.2-.1.4-.3.5-.6.1-.2.2-.5.2-.9s0-.6-.2-.9c-.1-.2-.3-.4-.5-.6-.2-.1-.5-.2-.8-.2h-1.1v-.5h1.1c.4,0,.8,0,1.1.3.3.2.5.4.7.7.2.3.2.7.2,1.1s0,.8-.2,1.1c-.2.3-.4.6-.7.7-.3.2-.7.3-1.1.3"/>
          <path class="cls-3" d="M16.1,54.3l-1.6-4.2h.6l.9,2.5c0,.1.1.3.2.6,0,.2.2.5.3.9h-.1c.1-.4.2-.7.3-.9,0-.2.1-.4.2-.6l.9-2.5h.6l-1.5,4.2h-.6Z"/>
          <path class="cls-3" d="M21.7,54.3c-.3,0-.6,0-.8-.2-.2-.1-.4-.3-.5-.6-.1-.2-.2-.5-.2-.9s0-.6.2-.9c.1-.2.3-.4.5-.6.2-.1.5-.2.8-.2s.3,0,.5,0c.2,0,.3.1.4.3.1.1.2.3.3.5,0,.2.1.5.1.7v.2h-2.5v-.4h2.2l-.2.2c0-.2,0-.4,0-.6,0-.2-.2-.3-.3-.4-.1,0-.3-.1-.5-.1s-.4,0-.5.1c-.1,0-.2.2-.3.4,0,.2-.1.3-.1.5v.3c0,.2,0,.4.1.6,0,.2.2.3.3.4.1,0,.3.1.5.1s.2,0,.3,0c.1,0,.2,0,.3-.2,0,0,.1-.2.2-.3h.5c0,.3-.1.4-.3.6-.1.1-.3.2-.4.3-.2,0-.4.1-.6.1"/>
          <path class="cls-3" d="M25.5,54.3v-4.2h1.5c.3,0,.6,0,.8.2.2.1.4.3.5.5.1.2.2.4.2.7s0,.5-.2.7c-.1.2-.3.3-.5.5-.2.1-.5.2-.8.2h-1.2v-.5h1.1c.2,0,.4,0,.5,0,.1,0,.2-.2.3-.3,0-.1,0-.3,0-.4s0-.3,0-.4c0-.1-.2-.2-.3-.3-.1,0-.3-.1-.5-.1h-.9v3.8h-.5ZM28,54.3l-1-1.9h.6l1,1.9h-.6Z"/>
          <path class="cls-3" d="M32.1,54.3c-.2,0-.4,0-.6,0-.2,0-.3-.2-.4-.3-.1-.1-.2-.3-.2-.5h.5c0,0,.1.2.3.3.1,0,.3.1.5.1s.4,0,.5-.1c.1,0,.2-.2.2-.3s0-.2-.1-.3c0,0-.2-.1-.4-.2h-.5c-.3-.2-.5-.3-.6-.4-.1-.1-.2-.3-.2-.6s0-.3.2-.5c.1-.1.2-.2.4-.3.2,0,.4-.1.6-.1s.4,0,.6,0c.2,0,.3.2.4.3,0,.1.2.2.2.4h-.5s-.1,0-.2-.2c-.1,0-.3-.1-.5-.1s-.3,0-.5.1c-.1,0-.2.2-.2.3s0,.2.1.3c0,0,.2.1.4.2h.5c.3.2.5.3.6.4.1.1.2.3.2.5s0,.4-.2.5c-.1.1-.3.3-.4.3-.2,0-.4.1-.7.1"/>
          <path class="cls-3" d="M40.3,54.3c-.3,0-.5,0-.7-.2-.2-.1-.4-.3-.5-.6-.1-.2-.2-.5-.2-.9s0-.6.2-.9c.1-.2.3-.4.5-.6s.4-.2.7-.2.4,0,.5.1c.1,0,.2.1.3.2,0,0,.1.2.1.2h0v-1.6h.5v4.2h-.5v-.5h0c0,0,0,.1-.2.2,0,0-.2.2-.3.2-.1,0-.3.1-.5.1M40.4,53.9c.2,0,.4,0,.5-.2.1-.1.2-.2.3-.4,0-.2.1-.4.1-.6s0-.4-.1-.6c0-.2-.2-.3-.3-.4-.1,0-.3-.1-.5-.1s-.4,0-.5.2c-.1.1-.2.2-.3.4,0,.2,0,.4,0,.6s0,.4.1.6c0,.2.2.3.3.4.1.1.3.2.5.2"/>
          <path class="cls-3" d="M44.2,54.3l1.5-4.2h.6l1.6,4.2h-.6l-.9-2.5c0-.2-.1-.3-.2-.6,0-.2-.2-.5-.3-.9h.1c-.1.4-.2.7-.3.9,0,.2-.1.4-.2.6l-.9,2.5h-.6ZM44.9,52.6h2.2v.5h-2.2v-.5Z"/>
          <path class="cls-3" d="M51.4,54.3c-.3,0-.5,0-.7-.2-.2-.1-.4-.3-.5-.6-.1-.2-.2-.5-.2-.9s0-.6.2-.9c.1-.2.3-.4.5-.6s.4-.2.7-.2.4,0,.5.1c.1,0,.2.1.3.2,0,0,.1.2.1.2h0v-1.6h.5v4.2h-.5v-.5h0c0,0,0,.1-.2.2,0,0-.2.2-.3.2-.1,0-.3.1-.5.1M51.5,53.9c.2,0,.4,0,.5-.2.1-.1.2-.2.3-.4,0-.2.1-.4.1-.6s0-.4-.1-.6c0-.2-.2-.3-.3-.4-.1,0-.3-.1-.5-.1s-.4,0-.5.2c-.1.1-.2.2-.3.4,0,.2,0,.4,0,.6s0,.4.1.6c0,.2.2.3.3.4.1.1.3.2.5.2"/>
          <polygon class="cls-3" points="55.6 54.3 55.6 50 58.2 50 58.2 50.5 56.2 50.5 56.2 51.9 58.1 51.9 58.1 52.4 56.2 52.4 56.2 53.8 58.2 53.8 58.2 54.3 55.6 54.3"/>
          <path class="cls-3" d="M6.3,54.3h-.5v-4.2h.5v4.2ZM7.1,54.3h-1v-.5h1c.3,0,.6,0,.9-.2.2-.1.4-.3.5-.6.1-.2.2-.5.2-.9s0-.6-.2-.9c-.1-.2-.3-.4-.5-.6-.2-.1-.5-.2-.8-.2h-1.1v-.5h1.1c.4,0,.8,0,1.1.3.3.2.5.4.7.7.2.3.2.7.2,1.1s0,.8-.2,1.1c-.2.3-.4.6-.7.7-.3.2-.7.3-1.1.3"/>
          <path class="cls-3" d="M12,50.6c0,0-.2,0-.3,0,0,0-.1-.1-.1-.2s0-.2.1-.2c0,0,.2,0,.3,0s.2,0,.3,0c0,0,.1.1.1.2s0,.2-.1.2c0,0-.2,0-.3,0M11.7,51.1h.5v3.2h-.5v-3.2Z"/>
          <path class="cls-3" d="M36.1,50.6c0,0-.2,0-.3,0,0,0-.1-.1-.1-.2s0-.2.1-.2c0,0,.2,0,.3,0s.2,0,.3,0c0,0,.1.1.1.2s0,.2-.1.2c0,0-.2,0-.3,0M35.9,51.1h.5v3.2h-.5v-3.2Z"/>
          <path class="cls-3" d="M16.1,54.3l-1.6-4.2h.6l.9,2.5c0,.1.1.3.2.6,0,.2.2.5.3.9h-.1c.1-.4.2-.7.3-.9,0-.2.1-.4.2-.6l.9-2.5h.6l-1.5,4.2h-.6Z"/>
          <path class="cls-3" d="M21.7,54.3c-.3,0-.6,0-.8-.2-.2-.1-.4-.3-.5-.6-.1-.2-.2-.5-.2-.9s0-.6.2-.9c.1-.2.3-.4.5-.6.2-.1.5-.2.8-.2s.3,0,.5,0c.2,0,.3.1.4.3.1.1.2.3.3.5,0,.2.1.5.1.7v.2h-2.5v-.4h2.2l-.2.2c0-.2,0-.4,0-.6,0-.2-.2-.3-.3-.4-.1,0-.3-.1-.5-.1s-.4,0-.5.1c-.1,0-.2.2-.3.4,0,.2-.1.3-.1.5v.3c0,.2,0,.4.1.6,0,.2.2.3.3.4.1,0,.3.1.5.1s.2,0,.3,0c.1,0,.2,0,.3-.2,0,0,.1-.2.2-.3h.5c0,.3-.1.4-.3.6-.1.1-.3.2-.4.3-.2,0-.4.1-.6.1"/>
          <path class="cls-3" d="M25.5,54.3v-4.2h1.5c.3,0,.6,0,.8.2.2.1.4.3.5.5.1.2.2.4.2.7s0,.5-.2.7c-.1.2-.3.3-.5.5-.2.1-.5.2-.8.2h-1.2v-.5h1.1c.2,0,.4,0,.5,0,.1,0,.2-.2.3-.3,0-.1,0-.3,0-.4s0-.3,0-.4c0-.1-.2-.2-.3-.3-.1,0-.3-.1-.5-.1h-.9v3.8h-.5ZM28,54.3l-1-1.9h.6l1,1.9h-.6Z"/>
          <path class="cls-3" d="M32.1,54.3c-.2,0-.4,0-.6,0-.2,0-.3-.2-.4-.3-.1-.1-.2-.3-.2-.5h.5c0,0,.1.2.3.3.1,0,.3.1.5.1s.4,0,.5-.1c.1,0,.2-.2.2-.3s0-.2-.1-.3c0,0-.2-.1-.4-.2h-.5c-.3-.2-.5-.3-.6-.4-.1-.1-.2-.3-.2-.6s0-.3.2-.5c.1-.1.2-.2.4-.3.2,0,.4-.1.6-.1s.4,0,.6,0c.2,0,.3.2.4.3,0,.1.2.2.2.4h-.5s-.1,0-.2-.2c-.1,0-.3-.1-.5-.1s-.3,0-.5.1c-.1,0-.2.2-.2.3s0,.2.1.3c0,0,.2.1.4.2h.5c.3.2.5.3.6.4.1.1.2.3.2.5s0,.4-.2.5c-.1.1-.3.3-.4.3-.2,0-.4.1-.7.1"/>
          <path class="cls-3" d="M40.3,54.3c-.3,0-.5,0-.7-.2-.2-.1-.4-.3-.5-.6-.1-.2-.2-.5-.2-.9s0-.6.2-.9c.1-.2.3-.4.5-.6s.4-.2.7-.2.4,0,.5.1c.1,0,.2.1.3.2,0,0,.1.2.1.2h0v-1.6h.5v4.2h-.5v-.5h0c0,0,0,.1-.2.2,0,0-.2.2-.3.2-.1,0-.3.1-.5.1M40.4,53.9c.2,0,.4,0,.5-.2.1-.1.2-.2.3-.4,0-.2.1-.4.1-.6s0-.4-.1-.6c0-.2-.2-.3-.3-.4-.1,0-.3-.1-.5-.1s-.4,0-.5.2c-.1.1-.2.2-.3.4,0,.2,0,.4,0,.6s0,.4.1.6c0,.2.2.3.3.4.1.1.3.2.5.2"/>
          <path class="cls-3" d="M44.2,54.3l1.5-4.2h.6l1.6,4.2h-.6l-.9-2.5c0-.2-.1-.3-.2-.6,0-.2-.2-.5-.3-.9h.1c-.1.4-.2.7-.3.9,0,.2-.1.4-.2.6l-.9,2.5h-.6ZM44.9,52.6h2.2v.5h-2.2v-.5Z"/>
          <path class="cls-3" d="M51.4,54.3c-.3,0-.5,0-.7-.2-.2-.1-.4-.3-.5-.6-.1-.2-.2-.5-.2-.9s0-.6.2-.9c.1-.2.3-.4.5-.6s.4-.2.7-.2.4,0,.5.1c.1,0,.2.1.3.2,0,0,.1.2.1.2h0v-1.6h.5v4.2h-.5v-.5h0c0,0,0,.1-.2.2,0,0-.2.2-.3.2-.1,0-.3.1-.5.1M51.5,53.9c.2,0,.4,0,.5-.2.1-.1.2-.2.3-.4,0-.2.1-.4.1-.6s0-.4-.1-.6c0-.2-.2-.3-.3-.4-.1,0-.3-.1-.5-.1s-.4,0-.5.2c-.1.1-.2.2-.3.4,0,.2,0,.4,0,.6s0,.4.1.6c0,.2.2.3.3.4.1.1.3.2.5.2"/>
          <polygon class="cls-3" points="55.6 54.3 55.6 50 58.2 50 58.2 50.5 56.2 50.5 56.2 51.9 58.1 51.9 58.1 52.4 56.2 52.4 56.2 53.8 58.2 53.8 58.2 54.3 55.6 54.3"/>
        </g>
      </g>
    </g>
  </g>
</svg>