<?xml version="1.0" encoding="UTF-8"?>
<svg xmlns="http://www.w3.org/2000/svg" xmlns:xlink="http://www.w3.org/1999/xlink" version="1.1" viewBox="0 0 63.33 57">
  <defs>
    <style>
      .cls-1 {
        fill: none;
      }

      .cls-2 {
        fill-rule: evenodd;
      }

      .cls-2, .cls-3 {
        fill: #fff;
      }

      .cls-4 {
        fill: #000101;
      }

      .cls-5 {
        clip-path: url(#clippath);
      }
    </style>
    <clipPath id="clippath">
      <rect class="cls-1" x=".26" y=".23" width="62.81" height="56.53"/>
    </clipPath>
  </defs>
  <!-- Generator: Adobe Illustrator 28.7.2, SVG Export Plug-In . SVG Version: 1.2.0 Build 154)  -->
  <g>
    <g id="Camada_1">
      <g>
        <rect class="cls-4" x=".71" y=".69" width="61.91" height="55.63"/>
        <rect class="cls-4" x=".82" y="6.26" width="61.7" height="26.88"/>
        <path class="cls-4" d="M62.06,32.69H1.27V6.72h60.79v25.98ZM62.52,6.26H.82v26.88h61.7V6.26Z"/>
        <polygon class="cls-3" points="45.74 5.81 57.63 5.81 62.16 1.58 62.16 1.19 54.74 1.19 45.74 5.81"/>
        <polygon class="cls-3" points="42.22 1.19 38.98 1.19 32.93 5.81 44.83 5.65 42.22 1.19"/>
        <polygon class="cls-3" points="30.28 5.81 32.4 1.19 25.27 1.19 20.88 5.81 30.28 5.81"/>
        <g class="cls-5">
          <path class="cls-3" d="M1.78,5.19c.2-.02.33-.23.45-.46.1-.18.17-.3.15-.46-.03-.24-.22-.39-.3-.46-.08-.06-.17-.13-.3-.15-.01,0-.27-.03-.45.15-.13.14-.14.3-.15.46,0,.1-.02.37.15.62.05.08.23.33.45.31"/>
          <path class="cls-3" d="M3.45,4.12c-.18.26-.16.41-.15.46.07.34.57.45.61.46.04,0,.43.08.76-.15.56-.4.55-1.41.3-1.54-.05-.03-.12-.01-.15,0-.32.06-.99.23-1.36.77"/>
          <path class="cls-3" d="M2.69,3.19c.2.15.27.16.3.15.15,0,.19-.14.45-.46.28-.34.4-.39.45-.62.02-.09.05-.2,0-.31-.08-.18-.31-.38-.76-.46-.37-.07-.57.06-.76.15-.06.03-.22.12-.3.31-.07.18-.03.34,0,.46.1.38.38.59.61.77"/>
          <polygon class="cls-3" points="17.24 5.81 21.03 1.35 9.14 1.27 5.27 5.81 17.24 5.81"/>
          <rect class="cls-3" x=".72" y="33.42" width="61.91" height="14.34"/>
          <polygon class="cls-2" points="32.81 13.65 34.14 16.41 42.55 14.44 35.84 19.95 37.16 22.71 46.6 14.47 45.02 11.19 32.81 13.65"/>
          <path class="cls-2" d="M23.28,17.21c2.78-1.38,6.21-.05,7.66,2.97,1.45,3.02.37,6.58-2.41,7.95-2.78,1.38-6.21.04-7.66-2.97-1.45-3.02-.37-6.58,2.41-7.95M24.39,19.57c1.3-.64,3.02.23,3.85,1.95.83,1.72.44,3.63-.86,4.28-1.3.64-3.02-.23-3.85-1.95-.83-1.72-.44-3.63.86-4.28"/>
          <path class="cls-4" d="M62.62,56.31H.71V.69h61.91v55.63ZM63.07.23H.26v56.53h62.81V.23Z"/>
          <path class="cls-4" d="M3.57,44.78v-7.83h3.11c.57,0,1.05.09,1.44.26.38.17.67.41.86.71s.29.65.29,1.04c0,.31-.06.58-.18.81-.12.23-.29.42-.5.56-.21.15-.45.25-.72.31v.08c.29.01.57.09.83.25.26.16.47.37.64.65.16.28.24.61.24,1,0,.41-.1.78-.31,1.11-.2.33-.5.58-.9.77-.4.19-.89.28-1.49.28h-3.31ZM5.17,40.24h1.27c.23,0,.43-.04.62-.12.18-.08.33-.2.43-.35.1-.15.16-.33.16-.54,0-.28-.1-.52-.3-.69-.2-.18-.49-.27-.87-.27h-1.3v1.98ZM5.17,43.46h1.39c.47,0,.81-.09,1.03-.27.22-.18.33-.42.33-.72,0-.22-.05-.42-.16-.59-.11-.17-.26-.3-.45-.4-.2-.1-.43-.14-.7-.14h-1.43v2.12Z"/>
          <path class="cls-4" d="M13.7,44.9c-.6,0-1.12-.12-1.55-.37-.43-.25-.77-.59-1-1.05-.23-.45-.35-.99-.35-1.61s.12-1.14.35-1.59c.23-.46.56-.81.98-1.07.42-.26.92-.38,1.49-.38.39,0,.75.06,1.08.18.33.12.63.31.88.55.25.25.45.56.59.93.14.37.21.81.21,1.31v.44h-4.94v-.99h4.16l-.74.26c0-.31-.05-.57-.14-.8-.09-.23-.23-.4-.42-.53s-.41-.19-.68-.19-.51.06-.7.19c-.19.13-.34.3-.43.51-.1.22-.15.46-.15.74v.7c0,.34.06.63.17.86.11.23.27.4.48.52.21.12.44.17.72.17.19,0,.35-.03.5-.08.15-.05.28-.13.39-.23.11-.1.19-.23.24-.38l1.43.27c-.09.32-.26.61-.49.85-.23.24-.53.43-.88.57-.35.13-.76.2-1.22.2"/>
          <path class="cls-4" d="M17.85,44.78v-5.88h1.46l.08,1.46h-.12c.09-.36.23-.66.4-.88.18-.23.38-.4.62-.5.24-.11.49-.16.75-.16.42,0,.77.13,1.03.4.26.27.45.68.57,1.24h-.18c.09-.37.23-.68.43-.93.2-.24.43-.42.7-.54.27-.12.56-.18.85-.18.36,0,.68.08.96.24.28.16.5.38.67.68.16.3.24.66.24,1.09v3.96h-1.58v-3.66c0-.33-.09-.58-.27-.74-.18-.16-.4-.24-.66-.24-.2,0-.37.04-.51.13-.15.09-.26.21-.34.36-.08.15-.12.33-.12.54v3.62h-1.52v-3.71c0-.29-.09-.52-.26-.69-.17-.17-.39-.26-.66-.26-.19,0-.35.04-.5.13s-.27.21-.35.37c-.09.16-.13.36-.13.6v3.55h-1.58Z"/>
          <path class="cls-4" d="M29.7,41.77c-.26,0-.47-.09-.65-.26-.18-.17-.26-.39-.26-.64s.09-.47.26-.64c.18-.17.39-.26.65-.26s.47.09.65.26c.18.17.26.39.26.64s-.09.47-.26.64c-.18.17-.39.26-.65.26"/>
          <path class="cls-4" d="M36.55,40.11h-3.49v-1.2h3.49v1.2ZM33.87,37.5h1.58v5.56c0,.19.04.32.12.41.08.09.22.13.41.13.06,0,.14,0,.25-.02.11-.02.19-.03.25-.04l.23,1.18c-.18.05-.35.09-.52.11-.17.02-.34.03-.5.03-.59,0-1.04-.14-1.35-.43-.31-.29-.47-.7-.47-1.24v-5.69Z"/>
          <path class="cls-4" d="M40.51,44.9c-.6,0-1.12-.12-1.55-.37-.43-.25-.77-.59-1-1.05-.23-.45-.35-.99-.35-1.61s.12-1.14.35-1.59c.23-.46.56-.81.98-1.07.42-.26.92-.38,1.49-.38.39,0,.75.06,1.08.18.33.12.63.31.88.55.25.25.45.56.59.93.14.37.21.81.21,1.31v.44h-4.94v-.99h4.16l-.74.26c0-.31-.05-.57-.14-.8-.09-.23-.23-.4-.42-.53-.18-.12-.41-.19-.68-.19s-.51.06-.7.19c-.19.13-.34.3-.43.51-.1.22-.15.46-.15.74v.7c0,.34.06.63.17.86.11.23.27.4.48.52.21.12.44.17.72.17.19,0,.35-.03.5-.08.15-.05.28-.13.39-.23.11-.1.19-.23.24-.38l1.43.27c-.09.32-.26.61-.49.85-.23.24-.53.43-.88.57-.35.13-.76.2-1.22.2"/>
          <path class="cls-4" d="M46.72,42.93c-.26,0-.47-.09-.65-.26-.18-.17-.26-.39-.26-.64s.09-.47.26-.64c.18-.17.39-.26.65-.26s.47.09.65.26c.18.17.26.39.26.64s-.09.47-.26.64c-.18.17-.39.26-.65.26"/>
          <path class="cls-4" d="M52.68,44.9l-2.74-7.83h1.78l1.25,3.78c.15.48.3,1,.46,1.57.15.57.32,1.2.49,1.88h-.35c.17-.69.33-1.32.47-1.88.15-.57.29-1.09.44-1.57l1.21-3.78h1.77l-2.68,7.83h-2.1Z"/>
          <path class="cls-4" d="M59.56,38.25c-.24,0-.44-.08-.61-.24-.17-.16-.25-.35-.25-.57s.08-.42.25-.57c.17-.16.37-.24.61-.24s.44.08.61.24c.17.16.25.35.25.57s-.09.42-.25.57c-.17.16-.37.24-.61.24M58.77,39.02h1.58v5.88h-1.58v-5.88Z"/>
          <path class="cls-3" d="M6.34,54.28h-.54v-4.24h.54v4.24ZM7.12,54.28h-1.03v-.48h.99c.35,0,.63-.07.86-.2.23-.13.4-.32.51-.57.11-.25.17-.54.17-.89s-.06-.63-.17-.88c-.11-.24-.28-.43-.5-.56-.22-.13-.49-.2-.82-.2h-1.07v-.48h1.1c.41,0,.77.08,1.06.25.29.17.52.41.68.73.16.32.23.69.23,1.13s-.08.82-.24,1.14c-.16.32-.39.56-.69.73-.3.17-.67.26-1.1.26"/>
          <path class="cls-3" d="M16.11,54.28l-1.56-4.24h.57l.9,2.52c.05.14.12.34.19.58.08.24.17.54.27.89h-.11c.1-.36.19-.66.27-.9.08-.24.14-.43.19-.57l.87-2.52h.58l-1.54,4.24h-.62Z"/>
          <path class="cls-3" d="M21.67,54.35c-.31,0-.57-.07-.8-.21-.22-.14-.4-.33-.52-.57-.12-.24-.18-.53-.18-.86s.06-.61.18-.86c.12-.25.28-.44.5-.58.22-.14.47-.21.76-.21.17,0,.34.03.5.08.16.06.31.15.45.27.13.12.24.29.32.49.08.2.12.45.12.75v.21h-2.47v-.43h2.2l-.24.16c0-.21-.03-.39-.1-.56-.07-.16-.16-.29-.29-.38-.13-.09-.29-.14-.48-.14s-.36.05-.49.14c-.14.09-.24.22-.31.37-.07.15-.11.31-.11.49v.29c0,.24.04.44.12.6.08.16.2.29.34.37.15.08.32.13.51.13.13,0,.24-.02.34-.05.1-.04.19-.09.26-.16.07-.07.13-.16.17-.27l.5.14c-.05.16-.13.3-.25.42-.12.12-.26.22-.44.28-.17.07-.37.1-.59.1"/>
          <path class="cls-3" d="M25.55,54.28v-4.24h1.45c.33,0,.6.06.82.17.21.11.37.27.48.47.1.2.16.42.16.68s-.05.48-.16.67c-.1.19-.26.35-.47.45-.21.11-.48.16-.81.16h-1.15v-.48h1.13c.22,0,.4-.03.54-.1.14-.07.23-.16.3-.28.06-.12.09-.26.09-.43s-.03-.32-.09-.44c-.06-.12-.16-.22-.3-.29-.14-.07-.32-.1-.54-.1h-.88v3.77h-.54ZM27.98,54.28l-1.03-1.91h.61l1.04,1.91h-.63Z"/>
          <path class="cls-3" d="M32.07,54.35c-.22,0-.41-.03-.58-.1-.17-.06-.31-.16-.42-.28-.11-.13-.18-.28-.22-.46l.49-.12c.05.17.13.3.26.38.13.08.28.12.47.12.22,0,.4-.05.53-.14.13-.09.2-.21.2-.34,0-.11-.04-.2-.12-.28-.08-.07-.19-.13-.35-.16l-.53-.13c-.29-.07-.5-.17-.64-.32-.14-.14-.21-.33-.21-.55,0-.18.05-.34.15-.48.1-.14.24-.25.42-.33.18-.08.38-.12.61-.12s.4.03.56.1c.15.07.28.16.37.27.1.11.17.25.22.4l-.46.12c-.04-.11-.12-.22-.22-.31-.1-.09-.25-.14-.46-.14-.19,0-.35.04-.47.13-.13.09-.19.2-.19.33,0,.12.04.21.13.28.09.07.22.13.41.17l.48.11c.29.07.5.17.64.32.14.14.21.32.21.54,0,.19-.05.35-.16.5-.11.15-.25.26-.44.34-.19.08-.41.13-.66.13"/>
          <path class="cls-3" d="M40.33,54.35c-.26,0-.5-.07-.7-.2-.2-.13-.36-.33-.48-.57-.11-.25-.17-.54-.17-.88s.06-.63.17-.87c.12-.25.27-.44.48-.57s.44-.2.7-.2c.21,0,.37.03.49.1.12.07.21.15.28.23.07.09.12.16.15.21h.04v-1.57h.51v4.24h-.5v-.49h-.06c-.03.06-.09.13-.15.22-.07.09-.16.17-.28.24-.12.07-.29.1-.49.1M40.4,53.89c.19,0,.36-.05.49-.15.13-.1.23-.24.3-.42.07-.18.1-.39.1-.62s-.03-.44-.1-.62c-.07-.18-.17-.31-.3-.41-.13-.1-.3-.15-.49-.15s-.37.05-.5.16c-.13.1-.23.25-.3.42-.07.18-.1.38-.1.6s.03.42.1.61c.07.18.17.33.3.43.13.11.3.16.5.16"/>
          <path class="cls-3" d="M44.15,54.28l1.54-4.24h.63l1.56,4.24h-.57l-.9-2.52c-.06-.16-.12-.35-.19-.58-.07-.23-.16-.53-.27-.89h.1c-.1.36-.19.66-.27.9-.07.24-.14.43-.19.57l-.87,2.52h-.58ZM44.93,52.63h2.18v.47h-2.18v-.47Z"/>
          <path class="cls-3" d="M51.42,54.35c-.26,0-.5-.07-.7-.2-.2-.13-.36-.33-.48-.57-.11-.25-.17-.54-.17-.88s.06-.63.17-.87c.12-.25.27-.44.48-.57s.44-.2.7-.2c.21,0,.37.03.49.1.12.07.21.15.28.23.07.09.12.16.15.21h.04v-1.57h.51v4.24h-.5v-.49h-.06c-.03.06-.09.13-.15.22-.07.09-.16.17-.28.24-.12.07-.29.1-.49.1M51.5,53.89c.19,0,.36-.05.49-.15.13-.1.23-.24.3-.42.07-.18.1-.39.1-.62s-.03-.44-.1-.62c-.07-.18-.17-.31-.3-.41-.13-.1-.3-.15-.49-.15s-.37.05-.5.16c-.13.1-.23.25-.3.42-.07.18-.1.38-.1.6s.03.42.1.61c.07.18.17.33.3.43.13.11.3.16.5.16"/>
          <polygon class="cls-3" points="55.61 54.28 55.61 50.04 58.2 50.04 58.2 50.52 56.15 50.52 56.15 51.9 58.06 51.9 58.06 52.38 56.15 52.38 56.15 53.8 58.22 53.8 58.22 54.28 55.61 54.28"/>
          <path class="cls-3" d="M6.34,54.28h-.54v-4.24h.54v4.24ZM7.12,54.28h-1.03v-.48h.99c.35,0,.63-.07.86-.2.23-.13.4-.32.51-.57.11-.25.17-.54.17-.89s-.06-.63-.17-.88c-.11-.24-.28-.43-.5-.56-.22-.13-.49-.2-.82-.2h-1.07v-.48h1.1c.41,0,.77.08,1.06.25.29.17.52.41.68.73.16.32.23.69.23,1.13s-.08.82-.24,1.14c-.16.32-.39.56-.69.73-.3.17-.67.26-1.1.26"/>
          <path class="cls-3" d="M11.95,50.58c-.1,0-.18-.03-.25-.1-.07-.07-.11-.15-.11-.24s.04-.18.11-.24c.07-.07.15-.1.25-.1s.18.03.25.1c.07.07.11.15.11.24s-.04.17-.11.24c-.07.07-.15.1-.25.1M11.7,51.1h.51v3.18h-.51v-3.18Z"/>
          <path class="cls-3" d="M36.15,50.58c-.1,0-.18-.03-.25-.1-.07-.07-.11-.15-.11-.24s.03-.18.11-.24c.07-.07.15-.1.25-.1s.18.03.25.1c.07.07.11.15.11.24s-.03.17-.11.24c-.07.07-.15.1-.25.1M35.89,51.1h.51v3.18h-.51v-3.18Z"/>
          <path class="cls-3" d="M16.12,54.28l-1.56-4.24h.57l.9,2.52c.05.14.12.34.19.58.08.24.17.54.27.89h-.11c.1-.36.19-.66.27-.9.08-.24.14-.43.19-.57l.87-2.52h.58l-1.54,4.24h-.62Z"/>
          <path class="cls-3" d="M21.67,54.35c-.31,0-.57-.07-.8-.21-.22-.14-.4-.33-.52-.57-.12-.24-.18-.53-.18-.86s.06-.61.18-.86c.12-.25.28-.44.5-.58.22-.14.47-.21.76-.21.17,0,.34.03.5.08.16.06.31.15.45.27.13.12.24.29.32.49.08.2.12.45.12.75v.21h-2.47v-.43h2.2l-.24.16c0-.21-.03-.39-.1-.56-.07-.16-.16-.29-.29-.38-.13-.09-.29-.14-.48-.14s-.36.05-.49.14c-.14.09-.24.22-.31.37-.07.15-.11.31-.11.49v.29c0,.24.04.44.12.6.08.16.2.29.34.37.15.08.32.13.51.13.13,0,.24-.02.34-.05.1-.04.19-.09.26-.16.07-.07.13-.16.17-.27l.5.14c-.05.16-.13.3-.25.42-.12.12-.26.22-.44.28-.17.07-.37.1-.59.1"/>
          <path class="cls-3" d="M25.55,54.28v-4.24h1.45c.33,0,.6.06.82.17.21.11.37.27.48.47.1.2.16.42.16.68s-.05.48-.16.67c-.1.19-.26.35-.47.45-.21.11-.48.16-.81.16h-1.15v-.48h1.13c.22,0,.4-.03.54-.1.14-.07.23-.16.3-.28.06-.12.09-.26.09-.43s-.03-.32-.09-.44c-.06-.12-.16-.22-.3-.29-.14-.07-.32-.1-.54-.1h-.88v3.77h-.54ZM27.99,54.28l-1.03-1.91h.61l1.04,1.91h-.63Z"/>
          <path class="cls-3" d="M32.07,54.35c-.22,0-.41-.03-.58-.1-.17-.06-.31-.16-.42-.28-.11-.13-.18-.28-.22-.46l.49-.12c.05.17.13.3.26.38.13.08.28.12.47.12.22,0,.4-.05.53-.14.13-.09.2-.21.2-.34,0-.11-.04-.2-.12-.28-.08-.07-.19-.13-.35-.16l-.53-.13c-.29-.07-.5-.17-.64-.32-.14-.14-.21-.33-.21-.55,0-.18.05-.34.15-.48.1-.14.24-.25.42-.33.18-.08.38-.12.61-.12s.4.03.56.1c.15.07.28.16.37.27.1.11.17.25.22.4l-.46.12c-.04-.11-.12-.22-.22-.31-.1-.09-.25-.14-.46-.14-.19,0-.35.04-.47.13-.13.09-.19.2-.19.33,0,.12.04.21.13.28.09.07.22.13.41.17l.48.11c.29.07.5.17.64.32.14.14.21.32.21.54,0,.19-.05.35-.16.5-.11.15-.25.26-.44.34-.19.08-.41.13-.66.13"/>
          <path class="cls-3" d="M40.33,54.35c-.26,0-.5-.07-.7-.2-.2-.13-.36-.33-.48-.57-.11-.25-.17-.54-.17-.88s.06-.63.17-.87c.12-.25.27-.44.48-.57s.44-.2.7-.2c.21,0,.37.03.49.1.12.07.21.15.28.23.07.09.12.16.15.21h.04v-1.57h.51v4.24h-.5v-.49h-.06c-.03.06-.09.13-.15.22-.07.09-.16.17-.28.24-.12.07-.29.1-.49.1M40.4,53.89c.19,0,.36-.05.49-.15.13-.1.23-.24.3-.42.07-.18.1-.39.1-.62s-.03-.44-.1-.62c-.07-.18-.17-.31-.3-.41-.13-.1-.3-.15-.49-.15s-.37.05-.5.16c-.13.1-.23.25-.3.42-.07.18-.1.38-.1.6s.03.42.1.61c.07.18.17.33.3.43.13.11.3.16.5.16"/>
          <path class="cls-3" d="M44.15,54.28l1.54-4.24h.63l1.56,4.24h-.57l-.9-2.52c-.06-.16-.12-.35-.19-.58-.07-.23-.16-.53-.27-.89h.1c-.1.36-.19.66-.27.9-.07.24-.14.43-.19.57l-.87,2.52h-.58ZM44.93,52.63h2.18v.47h-2.18v-.47Z"/>
          <path class="cls-3" d="M51.42,54.35c-.26,0-.5-.07-.7-.2-.2-.13-.36-.33-.48-.57-.11-.25-.17-.54-.17-.88s.06-.63.17-.87c.12-.25.27-.44.48-.57s.44-.2.7-.2c.21,0,.37.03.49.1.12.07.21.15.28.23.07.09.12.16.15.21h.04v-1.57h.51v4.24h-.5v-.49h-.06c-.03.06-.09.13-.15.22-.07.09-.16.17-.28.24-.12.07-.29.1-.49.1M51.5,53.89c.19,0,.36-.05.49-.15.13-.1.23-.24.3-.42.07-.18.1-.39.1-.62s-.03-.44-.1-.62c-.07-.18-.17-.31-.3-.41-.13-.1-.3-.15-.49-.15s-.37.05-.5.16c-.13.1-.23.25-.3.42-.07.18-.1.38-.1.6s.03.42.1.61c.07.18.17.33.3.43.13.11.3.16.5.16"/>
          <polygon class="cls-3" points="55.61 54.28 55.61 50.04 58.2 50.04 58.2 50.52 56.16 50.52 56.16 51.9 58.06 51.9 58.06 52.38 56.16 52.38 56.16 53.81 58.23 53.81 58.23 54.28 55.61 54.28"/>
        </g>
      </g>
    </g>
  </g>
</svg>