<?xml version="1.0" encoding="UTF-8"?>
<svg xmlns="http://www.w3.org/2000/svg" version="1.1" viewBox="0 0 2896.61 897.69">
  <defs>
    <style>
      .cls-1 {
        fill: #df1215;
      }

      .cls-2 {
        fill: #3b3f38;
      }

      .cls-3 {
        fill: #2a9e34;
      }

      .cls-4 {
        fill: #161914;
      }

      .cls-5 {
        fill: #415ca3;
      }

      .cls-6 {
        fill: #fedb1a;
      }
    </style>
  </defs>
  <!-- Generator: Adobe Illustrator 28.7.2, SVG Export Plug-In . SVG Version: 1.2.0 Build 154)  -->
  <g>
    <g id="Camada_1">
      <g>
        <path d="M1496.25,750.93c0,2-.14,3.89-.42,5.66-.28,1.77-.78,3.49-1.49,5.15-.71,1.66-1.6,3.09-2.67,4.29-1.08,1.2-2.46,2.16-4.16,2.88-1.7.72-3.64,1.08-5.81,1.08s-4.06-.35-5.75-1.06c-1.68-.71-3.07-1.65-4.14-2.82-1.08-1.17-1.97-2.59-2.7-4.25-.72-1.66-1.23-3.39-1.52-5.19-.29-1.79-.44-3.7-.44-5.73v-27h-8.43v27c0,2.86.25,5.55.75,8.08.5,2.53,1.32,4.95,2.47,7.26,1.15,2.31,2.59,4.28,4.32,5.92,1.74,1.64,3.91,2.94,6.54,3.92,2.62.98,5.59,1.47,8.88,1.47,3.98,0,7.48-.7,10.5-2.09,3.02-1.4,5.42-3.33,7.22-5.81,1.8-2.48,3.13-5.29,4.01-8.43.88-3.14,1.32-6.58,1.32-10.32v-27h-8.5v27ZM1568.02,762.44l-30.19-38.51h-6.89v53.28h8.39v-37.67l29.79,37.67h7.37v-53.21h-8.47v38.44ZM1603.47,777.2h8.39v-53.28h-8.39v53.28ZM1654.28,723.92l-20.89,53.28h8.94l5.57-14.48h20.55l5.61,14.48h8.87l-20.7-53.28h-7.95ZM1649.4,756.5l8.83-23.34,8.58,23.34h-17.4ZM1649.73,716.83c.08-.3.22-.7.44-1.17.22-.47.6-.88,1.14-1.21.54-.33,1.2-.49,1.98-.49.88,0,1.82.27,2.8.81.99.54,2.07,1.08,3.24,1.61,1.17.54,2.41.81,3.7.81s2.39-.26,3.43-.79c1.04-.53,1.86-1.15,2.47-1.89.61-.73,1.13-1.53,1.56-2.38.43-.85.72-1.59.88-2.2.16-.61.24-1.07.24-1.39h-4.73c0,.12-.02.29-.06.51-.04.22-.14.52-.31.9-.17.38-.4.73-.68,1.05-.28.32-.68.6-1.21.84-.53.24-1.13.36-1.82.36-1,0-2.01-.27-3.04-.82-1.02-.55-2.1-1.1-3.22-1.65-1.12-.55-2.31-.83-3.55-.83-1.17,0-2.24.25-3.21.75-.97.5-1.74,1.11-2.31,1.83-.57.72-1.06,1.5-1.46,2.34-.4.84-.68,1.58-.83,2.22-.15.64-.22,1.14-.22,1.5h4.65c0-.17.04-.41.11-.72M1743.24,732.08c-2.16-2.55-4.86-4.61-8.08-6.17-3.22-1.56-6.68-2.34-10.37-2.34s-6.98.75-10.18,2.24c-3.2,1.49-5.92,3.47-8.17,5.94-2.25,2.47-4.02,5.34-5.33,8.63-1.31,3.28-1.96,6.69-1.96,10.21,0,2.71.39,5.39,1.17,8.04.78,2.65,1.92,5.11,3.42,7.38,1.5,2.27,3.27,4.28,5.31,6.01,2.04,1.74,4.4,3.1,7.09,4.09,2.69.99,5.52,1.49,8.5,1.49,3.59,0,6.99-.74,10.19-2.22,3.2-1.48,5.91-3.45,8.13-5.92,2.22-2.47,3.99-5.34,5.3-8.61,1.3-3.28,1.96-6.67,1.96-10.19s-.62-6.64-1.87-9.88c-1.24-3.24-2.95-6.13-5.11-8.69M1740.45,757.64c-.77,2.3-1.85,4.37-3.24,6.21-1.39,1.85-3.17,3.33-5.35,4.45-2.18,1.13-4.56,1.69-7.15,1.69-3.37,0-6.38-.93-9.02-2.78-2.64-1.86-4.63-4.25-5.99-7.18-1.36-2.93-2.04-6.08-2.04-9.45,0-2.42.39-4.78,1.17-7.07.78-2.3,1.88-4.36,3.3-6.19,1.42-1.83,3.22-3.3,5.4-4.42,2.19-1.11,4.58-1.67,7.17-1.67s4.8.53,6.94,1.6c2.14,1.06,3.92,2.49,5.35,4.29,1.43,1.79,2.55,3.86,3.37,6.19.82,2.33,1.23,4.76,1.23,7.28s-.39,4.77-1.16,7.07M1815.77,753.5h23.78v-7h-23.78v-15.13h27.48v-7.44h-35.87v53.28h36.53v-7.44h-28.14v-16.27ZM1937.87,751.06c1.91-2.92,2.86-6.19,2.86-9.8,0-2.13-.41-4.22-1.24-6.3-.83-2.07-1.96-3.93-3.37-5.57-1.41-1.64-3.17-2.96-5.26-3.96-2.09-1-4.29-1.5-6.61-1.5h-23.19v53.28h8.39v-18.54h12.39l11.58,18.54h9.46l-12.53-20.27c3.13-1,5.64-2.96,7.55-5.88M1924.17,751.22h-14.73v-19.86h14.26c2.25,0,4.23.97,5.94,2.91,1.71,1.94,2.56,4.27,2.56,6.98s-.76,5.11-2.27,7.05c-1.51,1.94-3.43,2.91-5.75,2.91M1974.02,753.5h23.78v-7h-23.78v-15.13h27.48v-7.44h-35.87v53.28h36.53v-7.44h-28.14v-16.27ZM2057.58,766.3c-1.62,1.36-3.31,2.32-5.06,2.89-1.75.57-3.53.86-5.37.86-3.22,0-6.17-.91-8.83-2.73-2.66-1.82-4.72-4.22-6.18-7.2-1.45-2.98-2.18-6.19-2.18-9.64,0-1.88.23-3.74.68-5.57.45-1.83,1.15-3.58,2.11-5.24.95-1.66,2.09-3.11,3.41-4.36,1.32-1.24,2.9-2.24,4.76-2.98,1.86-.74,3.86-1.12,6.01-1.12,1.34,0,2.66.15,3.94.44,1.28.3,2.56.75,3.83,1.38,1.27.62,2.44,1.5,3.52,2.64,1.07,1.14,1.97,2.47,2.68,4.01l6.6-4.43c-1.78-3.52-4.44-6.34-7.97-8.45-3.53-2.11-7.63-3.17-12.29-3.17-3.15,0-6.12.51-8.9,1.52-2.79,1.01-5.19,2.39-7.22,4.12-2.03,1.73-3.78,3.73-5.26,5.99-1.48,2.26-2.58,4.67-3.32,7.22-.73,2.55-1.1,5.12-1.1,7.71,0,3.37.64,6.7,1.91,9.98,1.27,3.29,3,6.23,5.18,8.81,2.19,2.59,4.89,4.68,8.1,6.26,3.21,1.59,6.63,2.38,10.24,2.38,2.86,0,5.7-.46,8.54-1.39,2.83-.93,5.43-2.36,7.81-4.29,2.37-1.93,4.08-4.17,5.13-6.71l-7-3.96c-.88,1.98-2.13,3.65-3.75,5M2131.16,732.08c-2.16-2.55-4.86-4.61-8.08-6.17-3.23-1.56-6.68-2.34-10.37-2.34s-6.98.75-10.18,2.24c-3.2,1.49-5.92,3.47-8.17,5.94-2.25,2.47-4.02,5.34-5.33,8.63-1.31,3.28-1.96,6.69-1.96,10.21,0,2.71.39,5.39,1.17,8.04.78,2.65,1.92,5.11,3.42,7.38,1.5,2.27,3.28,4.28,5.32,6.01,2.04,1.74,4.4,3.1,7.09,4.09,2.69.99,5.52,1.49,8.5,1.49,3.59,0,6.99-.74,10.19-2.22,3.2-1.48,5.91-3.45,8.13-5.92,2.22-2.47,3.99-5.34,5.3-8.61,1.3-3.28,1.96-6.67,1.96-10.19s-.62-6.64-1.87-9.88c-1.24-3.24-2.95-6.13-5.11-8.69M2128.38,757.64c-.77,2.3-1.85,4.37-3.24,6.21-1.39,1.85-3.17,3.33-5.35,4.45-2.18,1.13-4.56,1.69-7.15,1.69-3.37,0-6.38-.93-9.02-2.78-2.64-1.86-4.64-4.25-5.99-7.18-1.36-2.93-2.04-6.08-2.04-9.45,0-2.42.39-4.78,1.17-7.07.78-2.3,1.88-4.36,3.3-6.19,1.42-1.83,3.22-3.3,5.4-4.42,2.19-1.11,4.57-1.67,7.17-1.67s4.8.53,6.94,1.6c2.14,1.06,3.92,2.49,5.35,4.29,1.43,1.79,2.55,3.86,3.37,6.19.82,2.33,1.23,4.76,1.23,7.28s-.39,4.77-1.16,7.07M2198.96,762.44l-30.19-38.51h-6.89v53.28h8.39v-37.67l29.79,37.67h7.36v-53.21h-8.46v38.44ZM2268.82,753.55c-.93-1.04-2.16-1.98-3.7-2.82-1.54-.84-3.14-1.54-4.8-2.09-1.66-.55-3.66-1.11-6.01-1.67-1.47-.37-2.65-.67-3.55-.9-.91-.23-1.88-.51-2.92-.84-1.04-.33-1.85-.64-2.45-.94-.6-.29-1.2-.65-1.81-1.06-.61-.42-1.07-.85-1.37-1.3-.31-.45-.56-.97-.75-1.56-.2-.59-.29-1.25-.29-1.98,0-2.34.86-4.16,2.58-5.44,1.72-1.28,4.32-1.92,7.79-1.92,2.93,0,5.78.58,8.54,1.76,2.76,1.17,4.71,2.39,5.86,3.66l3.81-6.89c-5.45-4-11.44-6.01-17.99-6.01-2.76,0-5.31.36-7.66,1.06-2.34.71-4.39,1.74-6.12,3.08-1.74,1.34-3.09,3.05-4.09,5.11-.99,2.06-1.49,4.38-1.49,6.94,0,2.05.32,3.83.95,5.33.64,1.51,1.66,2.8,3.06,3.9,1.4,1.1,3.02,2.03,4.85,2.78,1.83.76,4.15,1.5,6.96,2.24,1.81.46,3.24.84,4.3,1.14,1.06.29,2.24.66,3.52,1.1,1.28.44,2.27.87,2.97,1.28.7.41,1.37.91,2.03,1.48.66.58,1.13,1.22,1.39,1.93.27.71.4,1.5.4,2.38,0,2.2-.9,3.88-2.69,5.06-1.8,1.17-4.36,1.76-7.68,1.76-3.69,0-7.27-.74-10.75-2.22-3.48-1.48-5.99-3.01-7.53-4.6l-3.85,7.22c3.03,2.32,6.43,4.1,10.22,5.33,3.79,1.23,7.71,1.85,11.77,1.85,2.2,0,4.25-.17,6.15-.53,1.91-.35,3.69-.93,5.35-1.72,1.66-.79,3.08-1.78,4.25-2.95,1.17-1.17,2.09-2.61,2.77-4.32.67-1.71,1.01-3.63,1.01-5.75,0-1.91-.28-3.6-.82-5.09-.55-1.49-1.29-2.75-2.22-3.79M2290.38,731.36h17.77v45.84h8.5v-45.84h17.7v-7.44h-43.97v7.44ZM2393.3,751.06c1.91-2.92,2.86-6.19,2.86-9.8,0-2.13-.42-4.22-1.24-6.3-.83-2.07-1.96-3.93-3.37-5.57-1.42-1.64-3.17-2.96-5.26-3.96-2.09-1-4.29-1.5-6.62-1.5h-23.19v53.28h8.39v-18.54h12.39l11.58,18.54h9.45l-12.53-20.27c3.13-1,5.64-2.96,7.55-5.88M2379.59,751.22h-14.73v-19.86h14.26c2.25,0,4.23.97,5.94,2.91,1.71,1.94,2.56,4.27,2.56,6.98s-.76,5.11-2.27,7.05c-1.52,1.94-3.43,2.91-5.75,2.91M2457.73,750.93c0,2-.14,3.89-.42,5.66-.28,1.77-.77,3.49-1.49,5.15-.71,1.66-1.6,3.09-2.67,4.29-1.08,1.2-2.46,2.16-4.16,2.88-1.7.72-3.64,1.08-5.81,1.08s-4.07-.35-5.75-1.06c-1.69-.71-3.07-1.65-4.14-2.82-1.07-1.17-1.97-2.59-2.69-4.25-.72-1.66-1.23-3.39-1.52-5.19-.29-1.79-.44-3.7-.44-5.73v-27h-8.43v27c0,2.86.25,5.55.75,8.08.5,2.53,1.32,4.95,2.47,7.26,1.15,2.31,2.59,4.28,4.33,5.92,1.73,1.64,3.91,2.94,6.54,3.92,2.62.98,5.59,1.47,8.88,1.47,3.98,0,7.48-.7,10.5-2.09,3.02-1.4,5.42-3.33,7.22-5.81,1.8-2.48,3.13-5.29,4.01-8.43.88-3.14,1.32-6.58,1.32-10.32v-27h-8.5v27ZM2525.19,766.3c-1.62,1.36-3.31,2.32-5.06,2.89-1.75.57-3.54.86-5.37.86-3.22,0-6.17-.91-8.83-2.73-2.66-1.82-4.72-4.22-6.18-7.2-1.45-2.98-2.18-6.19-2.18-9.64,0-1.88.23-3.74.68-5.57.45-1.83,1.15-3.58,2.11-5.24.95-1.66,2.09-3.11,3.41-4.36,1.32-1.24,2.9-2.24,4.76-2.98,1.86-.74,3.86-1.12,6.01-1.12,1.34,0,2.66.15,3.94.44,1.28.3,2.56.75,3.83,1.38,1.27.62,2.44,1.5,3.52,2.64,1.07,1.14,1.96,2.47,2.68,4.01l6.59-4.43c-1.78-3.52-4.44-6.34-7.97-8.45-3.53-2.11-7.63-3.17-12.29-3.17-3.15,0-6.12.51-8.9,1.52-2.79,1.01-5.19,2.39-7.22,4.12-2.03,1.73-3.78,3.73-5.26,5.99-1.48,2.26-2.58,4.67-3.31,7.22-.73,2.55-1.1,5.12-1.1,7.71,0,3.22.58,6.41,1.74,9.56,1.16,3.15,2.75,6,4.78,8.54,2.03,2.54,4.53,4.66,7.49,6.34,2.97,1.68,6.15,2.66,9.55,2.93,2.69,1.76,4.03,3.61,4.03,5.57,0,1.15-.4,2.02-1.19,2.62-.79.6-1.9.9-3.31.9-1.64,0-3.41-.53-5.31-1.58l-2.09,4.43c2.81,1.44,5.75,2.16,8.83,2.16,2.59,0,4.6-.63,6.04-1.9,1.44-1.27,2.17-2.98,2.17-5.13,0-2.66-1.28-5.07-3.85-7.22,3.96-.56,7.61-1.91,10.96-4.05,3.35-2.14,5.7-4.84,7.07-8.12l-7-3.96c-.88,1.98-2.13,3.65-3.75,5M2573.36,723.92l-20.89,53.28h8.94l5.57-14.48h20.55l5.61,14.48h8.87l-20.7-53.28h-7.95ZM2568.49,756.5l8.83-23.34,8.57,23.34h-17.4ZM2568.82,716.83c.07-.3.22-.7.44-1.17.22-.47.6-.88,1.14-1.21.54-.33,1.2-.49,1.98-.49.88,0,1.81.27,2.8.81.99.54,2.07,1.08,3.24,1.61,1.17.54,2.4.81,3.7.81s2.39-.26,3.43-.79c1.04-.53,1.86-1.15,2.47-1.89.61-.73,1.13-1.53,1.56-2.38.43-.85.72-1.59.88-2.2.16-.61.24-1.07.24-1.39h-4.73c0,.12-.02.29-.05.51-.04.22-.14.52-.31.9-.17.38-.4.73-.68,1.05-.28.32-.68.6-1.21.84-.53.24-1.13.36-1.82.36-1,0-2.01-.27-3.04-.82-1.02-.55-2.1-1.1-3.22-1.65-1.13-.55-2.31-.83-3.55-.83-1.17,0-2.24.25-3.21.75-.96.5-1.74,1.11-2.31,1.83-.57.72-1.06,1.5-1.46,2.34-.41.84-.68,1.58-.83,2.22-.15.64-.22,1.14-.22,1.5h4.66c0-.17.04-.41.11-.72M2667.43,740.76c-1.25-3.24-2.95-6.13-5.11-8.69-2.16-2.55-4.85-4.61-8.08-6.17-3.22-1.56-6.68-2.34-10.37-2.34s-6.99.75-10.19,2.24c-3.2,1.49-5.92,3.47-8.17,5.94-2.25,2.47-4.03,5.34-5.33,8.63-1.31,3.28-1.96,6.69-1.96,10.21,0,2.71.39,5.39,1.17,8.04.78,2.65,1.92,5.11,3.42,7.38,1.5,2.27,3.27,4.28,5.32,6.01,2.04,1.74,4.4,3.1,7.09,4.09,2.69.99,5.52,1.49,8.5,1.49,3.59,0,6.98-.74,10.18-2.22,3.2-1.48,5.91-3.45,8.13-5.92,2.22-2.47,3.99-5.34,5.3-8.61,1.31-3.28,1.96-6.67,1.96-10.19s-.62-6.64-1.87-9.88M2659.54,757.64c-.77,2.3-1.85,4.37-3.24,6.21-1.39,1.85-3.18,3.33-5.35,4.45-2.17,1.13-4.56,1.69-7.15,1.69-3.37,0-6.37-.93-9.02-2.78-2.64-1.86-4.64-4.25-5.99-7.18-1.36-2.93-2.04-6.08-2.04-9.45,0-2.42.39-4.78,1.17-7.07.78-2.3,1.88-4.36,3.3-6.19,1.42-1.83,3.22-3.3,5.4-4.42,2.19-1.11,4.57-1.67,7.16-1.67s4.81.53,6.94,1.6c2.14,1.06,3.92,2.49,5.35,4.29,1.43,1.79,2.55,3.86,3.37,6.19.82,2.33,1.23,4.76,1.23,7.28s-.39,4.77-1.15,7.07"/>
        <path d="M1488.39,186.45h18.26c-1.6,4.39-6.19,7.98-13.37,7.98-10.28,0-17.36-7.38-17.36-17.56s7.09-18.06,17.06-18.06c6.39,0,11.87,3.09,14.87,8.48l15.57-9.28c-6.29-10.48-17.76-16.86-30.23-16.86-19.75,0-35.52,15.76-35.52,35.62s15.67,35.42,35.62,35.42c18.76,0,32.93-13.77,32.93-34.92v-5.29h-37.82v14.47ZM1586.95,141.16c-19.86,0-35.62,15.76-35.62,35.52s15.76,35.52,35.62,35.52,35.42-15.76,35.42-35.52-15.76-35.52-35.42-35.52M1586.95,193.44c-9.08,0-16.06-7.18-16.06-16.76s6.98-16.76,16.06-16.76,15.77,7.19,15.77,16.76-6.88,16.76-15.77,16.76M1675.05,184.56l-15.76-41.81h-19.65l26.24,67.85h18.26l26.54-67.85h-19.65l-15.96,41.81ZM1734.5,210.6h48.59v-16.56h-30.23v-10.08h19.95v-14.57h-19.95v-10.08h30.23v-16.56h-48.59v67.85ZM1867.59,164.8c0-12.57-10.18-22.05-23.45-22.05h-32.82v67.85h18.06v-23.45h7.68l13.47,23.45h20.25l-15.07-26.14c7.18-3.79,11.87-10.98,11.87-19.66M1842.15,171.69h-12.77v-12.67h12.77c4.39,0,6.98,2.99,6.98,6.39s-2.69,6.28-6.98,6.28M1938.72,178.57l-27.44-35.82h-15.37v67.85h18.06v-35.72l27.34,35.72h15.46v-67.85h-18.06v35.82ZM2018.73,141.16c-19.85,0-35.62,15.76-35.62,35.52s15.76,35.52,35.62,35.52,35.42-15.76,35.42-35.52-15.76-35.52-35.42-35.52M2018.73,193.44c-9.08,0-16.06-7.18-16.06-16.76s6.98-16.76,16.06-16.76,15.77,7.19,15.77,16.76-6.88,16.76-15.77,16.76M2125.38,210.6h18.36v-24.74h19.96v-15.37h-19.96v-11.47h30.23v-16.26h-48.59v67.85ZM2201.4,210.6h48.59v-16.56h-30.23v-10.08h19.95v-14.57h-19.95v-10.08h30.23v-16.56h-48.59v67.85ZM2305.85,142.75h-27.64v67.85h27.64c20.65,0,36.22-14.47,36.22-33.92s-15.56-33.92-36.22-33.92M2304.95,192.94h-8.28v-32.53h8.28c10.78,0,18.16,6.38,18.16,16.26s-7.38,16.26-18.16,16.26M2368.41,210.6h48.59v-16.56h-30.23v-10.08h19.95v-14.57h-19.95v-10.08h30.23v-16.56h-48.59v67.85ZM2501.5,164.8c0-12.57-10.18-22.05-23.45-22.05h-32.82v67.85h18.06v-23.45h7.68l13.47,23.45h20.25l-15.07-26.14c7.18-3.79,11.87-10.98,11.87-19.66M2476.05,171.69h-12.77v-12.67h12.77c4.39,0,6.98,2.99,6.98,6.39s-2.69,6.28-6.98,6.28M2553.07,142.75l-28.34,67.85h19.06l4.69-11.68h26.84l4.79,11.68h18.96l-28.64-67.85h-17.36ZM2555.07,182.76l6.78-16.66,6.79,16.66h-13.57ZM2642.16,193.14v-50.39h-19.26v67.85h47.79v-17.46h-28.53Z"/>
        <rect class="cls-6" x="2547.14" y="284.12" width="123.55" height="237.3"/>
        <rect class="cls-5" x="2670.69" y="521.43" width="123.55" height="120.01"/>
        <rect class="cls-2" x="2547.14" y="521.43" width="123.55" height="120.01"/>
        <rect class="cls-3" x="2402.75" y="284.12" width="123.55" height="357.32"/>
        <rect class="cls-1" x="2131.44" y="442.93" width="116.8" height="198.51"/>
        <rect class="cls-5" x="2248.24" y="284.12" width="133.67" height="129.93"/>
        <path class="cls-6" d="M2289.06,414.05h-40.82v227.38h40.82c62.79,0,113.69-50.9,113.69-113.69s-50.9-113.69-113.69-113.69"/>
        <path class="cls-3" d="M2210.85,284.12c-43.85,0-79.4,35.55-79.4,79.4s35.55,79.4,79.4,79.4h37.39v-158.81h-37.39Z"/>
        <path class="cls-5" d="M1456.07,427.49h28.61c39.59,0,71.68-32.09,71.68-71.68s-32.09-71.68-71.68-71.68h-28.61v143.37Z"/>
        <rect class="cls-3" x="1332.52" y="284.12" width="123.55" height="143.37"/>
        <rect class="cls-6" x="1332.52" y="427.49" width="123.55" height="213.95"/>
        <path class="cls-1" d="M1496.69,427.49h-40.62v213.95h40.62c59.08,0,106.97-47.89,106.97-106.97s-47.89-106.97-106.97-106.97"/>
        <polygon class="cls-3" points="1743.87 499.93 1603.66 499.93 1603.66 641.44 1835.91 641.44 1743.87 499.93"/>
        <polygon class="cls-6" points="1743.87 499.93 1603.66 284.12 1603.66 499.93 1743.87 499.93"/>
        <path class="cls-5" d="M1743.87,284.12h-140.21l140.21,215.81c59.59,0,107.9-48.31,107.9-107.9s-48.31-107.9-107.9-107.9"/>
        <polygon class="cls-6" points="1980.77 284.12 1768.26 641.44 2193.28 641.44 1980.77 284.12"/>
        <polygon class="cls-2" points="2131.44 537.46 2131.44 641.44 2193.29 641.44 2131.44 537.46"/>
        <polygon class="cls-2" points="1768.26 641.44 1835.91 641.44 1800.58 587.09 1768.26 641.44"/>
        <path class="cls-5" d="M2111.13,641.44c0-71.99-58.36-130.36-130.36-130.36s-130.35,58.36-130.35,130.36h260.71Z"/>
        <polygon class="cls-4" points="181.42 427.57 181.42 376.34 160.25 415.21 153.58 415.21 132.31 376.34 132.31 427.57 120.99 427.57 120.99 355.67 133.15 355.67 156.94 399.63 180.72 355.67 192.89 355.67 192.89 427.57 181.42 427.57"/>
        <rect class="cls-4" x="229.32" y="355.67" width="11.32" height="71.9"/>
        <polygon class="cls-4" points="288.44 376.74 288.44 427.57 277.12 427.57 277.12 355.67 286.41 355.67 327.16 407.64 327.16 355.77 338.58 355.77 338.58 427.57 328.64 427.57 288.44 376.74"/>
        <rect class="cls-4" x="375.01" y="355.67" width="11.32" height="71.9"/>
        <path class="cls-4" d="M465.34,372.58c-1.55-1.71-4.19-3.36-7.91-4.94-3.73-1.58-7.57-2.37-11.52-2.37-4.68,0-8.19.87-10.51,2.6-2.32,1.73-3.49,4.18-3.49,7.34,0,.99.13,1.88.4,2.67.26.79.6,1.49,1.01,2.1.41.61,1.03,1.2,1.85,1.75.82.56,1.64,1.04,2.45,1.43.81.4,1.91.82,3.31,1.26,1.4.44,2.71.82,3.93,1.13,1.22.32,2.82.72,4.8,1.21,3.17.76,5.87,1.51,8.11,2.25,2.24.74,4.4,1.68,6.48,2.82,2.08,1.14,3.74,2.41,5,3.81,1.25,1.4,2.25,3.11,2.99,5.12.74,2.01,1.11,4.3,1.11,6.88,0,2.87-.45,5.46-1.36,7.76-.91,2.31-2.15,4.26-3.73,5.84-1.58,1.58-3.49,2.91-5.74,3.98-2.24,1.07-4.65,1.85-7.22,2.32-2.57.48-5.34.72-8.31.72-5.47,0-10.76-.83-15.87-2.5-5.11-1.66-9.71-4.06-13.8-7.19l5.19-9.74c2.08,2.15,5.47,4.21,10.16,6.21,4.7,2,9.54,2.99,14.52,2.99,4.49,0,7.94-.79,10.36-2.37,2.43-1.58,3.64-3.86,3.64-6.83,0-1.19-.18-2.26-.55-3.21-.36-.96-.99-1.82-1.88-2.6-.89-.78-1.81-1.44-2.75-2-.94-.56-2.27-1.14-4.01-1.73-1.73-.59-3.31-1.09-4.75-1.48-1.43-.4-3.37-.9-5.81-1.53-3.79-.99-6.92-1.99-9.39-3.02-2.47-1.02-4.66-2.27-6.55-3.76-1.9-1.48-3.27-3.24-4.13-5.27-.86-2.03-1.29-4.43-1.29-7.2,0-3.46.67-6.59,2-9.37,1.34-2.79,3.17-5.08,5.51-6.9,2.34-1.81,5.09-3.2,8.26-4.15,3.17-.95,6.61-1.43,10.33-1.43,8.84,0,16.93,2.7,24.28,8.11l-5.15,9.3Z"/>
        <polygon class="cls-4" points="557.7 365.71 533.81 365.71 533.81 427.57 522.34 427.57 522.34 365.71 498.35 365.71 498.35 355.67 557.7 355.67 557.7 365.71"/>
        <path class="cls-4" d="M636.85,417.54v10.04h-49.3v-71.9h48.41v10.04h-37.09v20.42h32.1v9.45h-32.1v21.96h37.98ZM616.72,348.25l-7.32-2.22,5.79-11.13h10.63l-9.1,13.35Z"/>
        <path class="cls-4" d="M668.82,427.57v-71.9h31.3c3.13,0,6.11.67,8.92,2.03,2.82,1.35,5.18,3.13,7.1,5.34,1.91,2.21,3.43,4.72,4.55,7.52,1.12,2.81,1.68,5.64,1.68,8.51,0,4.88-1.29,9.29-3.86,13.23-2.57,3.94-5.97,6.58-10.19,7.94l16.91,27.35h-12.76l-15.63-25.02h-16.72v25.02h-11.32ZM680.15,392.51h19.88c3.13,0,5.72-1.31,7.77-3.93,2.04-2.62,3.06-5.79,3.06-9.52s-1.15-6.8-3.46-9.42c-2.31-2.62-4.98-3.93-8.01-3.93h-19.24v26.8Z"/>
        <rect class="cls-4" x="755.99" y="355.67" width="11.32" height="71.9"/>
        <path class="cls-4" d="M799.24,391.62c0-4.75.88-9.33,2.65-13.77,1.76-4.43,4.16-8.32,7.19-11.65,3.03-3.33,6.71-6,11.03-8.01,4.32-2.01,8.9-3.02,13.75-3.02s9.64,1.06,13.99,3.16c4.35,2.11,7.99,4.89,10.9,8.33,2.92,3.45,5.22,7.35,6.9,11.72,1.68,4.37,2.52,8.81,2.52,13.33,0,4.75-.88,9.33-2.65,13.75-1.76,4.42-4.15,8.29-7.15,11.62-3,3.33-6.66,5.99-10.98,7.98-4.32,2-8.9,2.99-13.75,2.99-4.02,0-7.85-.67-11.47-2-3.63-1.33-6.82-3.17-9.57-5.51-2.75-2.34-5.14-5.04-7.17-8.11-2.03-3.07-3.57-6.39-4.62-9.96-1.06-3.58-1.58-7.2-1.58-10.86M833.75,417.83c3.49,0,6.71-.76,9.64-2.27,2.93-1.52,5.34-3.52,7.22-6.01,1.88-2.49,3.34-5.28,4.38-8.38,1.04-3.1,1.56-6.28,1.56-9.54s-.55-6.67-1.66-9.82c-1.1-3.15-2.62-5.93-4.55-8.36-1.93-2.42-4.33-4.35-7.22-5.79-2.88-1.43-6.01-2.15-9.37-2.15s-6.72.75-9.67,2.25c-2.95,1.5-5.38,3.49-7.3,5.96-1.91,2.47-3.4,5.26-4.45,8.36-1.05,3.1-1.58,6.28-1.58,9.54,0,4.55.92,8.8,2.74,12.76,1.83,3.95,4.53,7.19,8.09,9.69,3.56,2.51,7.62,3.76,12.16,3.76"/>
        <path class="cls-4" d="M945.43,427.57v-71.9h25.52c5.64,0,10.71.93,15.21,2.79,4.5,1.86,8.18,4.43,11.05,7.71,2.87,3.28,5.05,7.07,6.55,11.37,1.5,4.3,2.25,8.96,2.25,13.97,0,10.88-3.19,19.61-9.57,26.19-6.38,6.58-14.88,9.86-25.49,9.86h-25.52ZM970.95,365.71h-14.19v51.82h14.19c4.94,0,9.2-1.15,12.78-3.44,3.58-2.29,6.26-5.38,8.03-9.27,1.78-3.89,2.67-8.32,2.67-13.3,0-7.68-2.09-13.9-6.26-18.67-4.17-4.76-9.91-7.15-17.23-7.15"/>
        <path class="cls-4" d="M1056.33,355.67h10.73l27.94,71.9h-11.97l-7.57-19.53h-27.74l-7.52,19.53h-12.07l28.19-71.9ZM1073.24,399.63l-11.57-31.5-11.92,31.5h23.49Z"/>
        <path class="cls-4" d="M544.08,497.43c6.76,0,12.73,1.42,17.9,4.25,5.17,2.83,9.03,6.64,11.57,11.42l-15.08,10.73c-.66-1.68-1.55-3.12-2.67-4.33-1.12-1.2-2.37-2.13-3.76-2.77-1.38-.64-2.76-1.1-4.13-1.38-1.37-.28-2.78-.42-4.23-.42-2.7,0-5.13.55-7.27,1.66-2.14,1.1-3.85,2.57-5.12,4.4-1.27,1.83-2.23,3.83-2.89,6.01-.66,2.17-.99,4.43-.99,6.77,0,5.24,1.5,9.73,4.5,13.45,3,3.72,6.99,5.59,11.97,5.59,1.95,0,3.81-.27,5.59-.82,1.78-.54,3.49-1.5,5.12-2.87,1.63-1.37,2.83-3.07,3.59-5.12l16.12,9.59c-1.35,3.39-3.72,6.39-7.09,9-3.38,2.6-7.13,4.54-11.25,5.81-4.12,1.27-8.28,1.9-12.46,1.9-5.14,0-10-1.07-14.56-3.22-4.57-2.14-8.41-4.95-11.52-8.43-3.12-3.48-5.57-7.45-7.37-11.92-1.8-4.47-2.7-8.99-2.7-13.57s.85-8.74,2.55-12.98c1.7-4.23,4.07-8.05,7.12-11.45,3.05-3.39,6.93-6.13,11.64-8.21,4.72-2.08,9.86-3.11,15.43-3.11"/>
        <path class="cls-4" d="M632.92,570.32c-4.48,0-8.55-.63-12.19-1.88-3.64-1.25-6.71-2.97-9.2-5.14-2.49-2.18-4.57-4.78-6.26-7.82-1.68-3.03-2.9-6.27-3.66-9.72-.76-3.45-1.14-7.11-1.14-11v-36.94h19.78v36.94c0,2.47.24,4.77.72,6.88.48,2.11,1.2,4.01,2.17,5.71.97,1.7,2.29,3.03,3.96,4.01,1.66.97,3.6,1.46,5.81,1.46s4.2-.49,5.89-1.48c1.68-.99,3.01-2.35,3.98-4.08.97-1.73,1.7-3.64,2.18-5.74.48-2.09.72-4.34.72-6.75v-36.94h19.73v36.94c0,5.11-.66,9.79-1.98,14.05-1.32,4.25-3.27,7.99-5.86,11.22-2.59,3.23-5.98,5.75-10.19,7.57-4.2,1.81-9.02,2.72-14.46,2.72"/>
        <polygon class="cls-4" points="696.99 569.73 696.99 497.82 716.72 497.82 716.72 552.52 749.36 552.52 749.36 569.73 696.99 569.73"/>
        <polygon class="cls-4" points="822.83 515.03 802.21 515.03 802.21 569.73 782.42 569.73 782.42 515.03 761.65 515.03 761.65 497.82 822.83 497.82 822.83 515.03"/>
        <path class="cls-4" d="M881.65,570.32c-4.48,0-8.55-.63-12.19-1.88-3.64-1.25-6.71-2.97-9.2-5.14-2.49-2.18-4.58-4.78-6.26-7.82-1.68-3.03-2.9-6.27-3.66-9.72-.76-3.45-1.14-7.11-1.14-11v-36.94h19.78v36.94c0,2.47.24,4.77.72,6.88.48,2.11,1.2,4.01,2.17,5.71.97,1.7,2.29,3.03,3.96,4.01,1.66.97,3.6,1.46,5.81,1.46s4.2-.49,5.89-1.48c1.68-.99,3.01-2.35,3.98-4.08.97-1.73,1.7-3.64,2.18-5.74.48-2.09.72-4.34.72-6.75v-36.94h19.73v36.94c0,5.11-.66,9.79-1.98,14.05-1.32,4.25-3.27,7.99-5.86,11.22-2.59,3.23-5.98,5.75-10.18,7.57-4.2,1.81-9.03,2.72-14.47,2.72"/>
        <path class="cls-4" d="M945.72,569.72v-71.9h33.04c3.39,0,6.62.72,9.69,2.17,3.07,1.45,5.64,3.35,7.71,5.69,2.08,2.34,3.73,5,4.95,7.99,1.22,2.98,1.83,6.01,1.83,9.07,0,4.15-.92,8.04-2.75,11.67-1.83,3.63-4.36,6.58-7.59,8.85l15.18,26.46h-21.66l-12.66-22.05h-8.01v22.05h-19.73ZM965.46,530.41h12.46c1.29,0,2.44-.7,3.46-2.1,1.02-1.4,1.53-3.25,1.53-5.56s-.58-4.17-1.73-5.59c-1.15-1.42-2.41-2.13-3.76-2.13h-11.97v15.38Z"/>
        <path class="cls-4" d="M1050.94,497.82h22.05l22.9,71.9h-20.03l-4.35-14.09h-19.19l-4.25,14.09h-20.13l23-71.9ZM1068.35,542.48l-6.38-25.32-6.67,25.32h13.06Z"/>
      </g>
    </g>
  </g>
</svg>