<?xml version="1.0" encoding="UTF-8"?>
<svg xmlns="http://www.w3.org/2000/svg" version="1.1" viewBox="0 0 2340.22 1481.14">
  <defs>
    <style>
      .cls-1 {
        fill: #fdd51b;
      }

      .cls-2 {
        fill: #e23822;
      }

      .cls-3 {
        fill: #5fad28;
      }

      .cls-4 {
        fill: #2c59a2;
      }
    </style>
  </defs>
  <!-- Generator: Adobe Illustrator 28.7.2, SVG Export Plug-In . SVG Version: 1.2.0 Build 154)  -->
  <g>
    <g id="Camada_1">
      <g>
        <path d="M682.02,1220.5l-8.32-27.39-8.53,27.39h16.85ZM664.88,1176.56h17.73l24.5,71.23h-16.86l-5.53-15.97h-22.15l-5.43,15.97h-16.86l24.6-71.23Z"/>
        <polygon points="754.25 1247.79 754.25 1176.55 770.71 1176.55 770.71 1233.34 805.24 1233.34 805.24 1247.79 754.25 1247.79"/>
        <path d="M879.67,1191.01h-10.14v42.32h10.14c5.88,0,10.47-1.96,13.79-5.9,3.31-3.94,4.97-9.06,4.97-15.37s-1.67-11.46-5-15.3c-3.33-3.84-7.92-5.76-13.76-5.76M853.07,1247.79v-71.23h26.61c5.71,0,10.84.93,15.41,2.77,4.55,1.85,8.28,4.4,11.19,7.65,2.91,3.24,5.13,7,6.64,11.27,1.52,4.26,2.28,8.87,2.28,13.83,0,10.78-3.24,19.43-9.73,25.95-6.48,6.52-15.08,9.77-25.79,9.77h-26.61Z"/>
        <rect x="965.02" y="1176.56" width="16.45" height="71.23"/>
        <path d="M1051.69,1210.45h15.04c1.98,0,3.68-.93,5.07-2.79,1.39-1.86,2.08-4.21,2.08-7.06s-.78-5.07-2.35-6.88c-1.58-1.8-3.33-2.71-5.29-2.71h-14.55v19.44ZM1035.23,1247.79v-71.23h32.14c4.31,0,8.28,1.19,11.91,3.56,3.62,2.37,6.43,5.39,8.4,9.06,1.98,3.68,2.97,7.48,2.97,11.44,0,4.35-1.05,8.39-3.16,12.13-2.11,3.75-4.94,6.6-8.5,8.56l15.67,26.5h-18.17l-13.67-22.98h-11.12v22.98h-16.46Z"/>
        <path d="M1241.51,1218.3h-18.97v15.53h18.28c2.12,0,3.88-.71,5.29-2.13,1.4-1.42,2.1-3.24,2.1-5.47s-.63-4.09-1.9-5.63c-1.28-1.54-2.88-2.3-4.8-2.3M1222.54,1190.62v14.75h16.17c1.93,0,3.56-.65,4.9-1.94,1.34-1.28,2.01-3.12,2.01-5.51s-.59-4.07-1.78-5.36c-1.19-1.29-2.71-1.93-4.53-1.93h-16.76ZM1240.82,1247.79h-34.73v-71.23h39.63c3.2,0,6.07.92,8.63,2.72,2.54,1.81,4.46,4.09,5.73,6.84,1.27,2.74,1.91,5.65,1.91,8.71,0,3.5-.9,6.75-2.69,9.78-1.8,3.02-4.32,5.24-7.55,6.68,4.18,1.24,7.43,3.4,9.75,6.5,2.33,3.09,3.48,7,3.48,11.72,0,3.95-1.11,7.33-3.33,10.14-2.22,2.81-5.12,4.87-8.69,6.18-3.58,1.3-7.62,1.95-12.13,1.95"/>
        <polygon points="1314.8 1247.79 1314.8 1176.55 1331.26 1176.55 1331.26 1233.34 1365.8 1233.34 1365.8 1247.79 1314.8 1247.79"/>
        <path d="M1448.75,1220.5l-8.32-27.39-8.53,27.39h16.85ZM1431.6,1176.56h17.73l24.5,71.23h-16.86l-5.53-15.97h-22.14l-5.44,15.97h-16.86l24.6-71.23Z"/>
        <polygon points="1537.43 1207.08 1537.43 1247.78 1520.97 1247.78 1520.97 1176.56 1534.05 1176.56 1567.01 1218.5 1567.01 1176.56 1583.48 1176.56 1583.48 1247.78 1570.06 1247.78 1537.43 1207.08"/>
        <path d="M1668.83,1176.17c6.5,0,12.24,1.41,17.24,4.21,5,2.81,8.72,6.59,11.17,11.32l-12.64,8.82c-.78-1.79-1.79-3.36-3.04-4.68s-2.6-2.34-4.09-3.04c-1.49-.7-2.98-1.21-4.46-1.52-1.49-.32-3.02-.46-4.58-.46-2.45,0-4.7.4-6.76,1.22-2.06.82-3.81,1.92-5.23,3.3-1.44,1.39-2.66,3.01-3.65,4.86-1.01,1.84-1.73,3.77-2.21,5.78-.47,2.01-.71,4.07-.71,6.19,0,3.8.76,7.32,2.28,10.59,1.52,3.26,3.73,5.91,6.61,7.94,2.89,2.02,6.17,3.04,9.87,3.04,2.12,0,4.17-.31,6.15-.93,1.97-.62,3.87-1.7,5.71-3.21,1.82-1.52,3.19-3.4,4.11-5.66l13.43,7.9c-1.34,3.36-3.65,6.33-6.91,8.91-3.26,2.58-6.88,4.5-10.85,5.76-3.96,1.25-7.98,1.88-12.03,1.88-5,0-9.71-1.06-14.16-3.18-4.45-2.12-8.17-4.91-11.2-8.35-3.02-3.45-5.4-7.38-7.15-11.81-1.75-4.43-2.62-8.9-2.62-13.45,0-3.46.5-6.89,1.52-10.29,1.02-3.39,2.55-6.6,4.6-9.62,2.06-3.03,4.5-5.69,7.3-7.99,2.8-2.31,6.13-4.13,9.97-5.49,3.83-1.35,7.95-2.03,12.32-2.03"/>
        <path class="cls-3" d="M2014.76,764.2c25.29-29.42,40.66-67.6,40.66-109.43,0-91.79-73.59-166.26-164.97-167.94v.18h-80.44l-.02-.34h-129.87v303.42l97.23,163.73v.17l79.34,133.45h93.32c92.83,0,168.1-75.26,168.1-168.1,0-69.88-42.66-129.77-103.34-155.14"/>
        <path class="cls-1" d="M1202.76,935.97l-90.08,151.47h714.61l-357.3-600.77-90.19,151.65c.06,0,.12.02.18.03h-.21l-176.91,297.47-.09.16Z"/>
        <path class="cls-4" d="M1651.8,1087.44c0-100.42-81.41-181.82-181.82-181.82s-181.83,81.4-181.83,181.82h363.65Z"/>
        <rect class="cls-4" x="268.58" y="491.67" width="175.65" height="600.77"/>
        <polygon class="cls-4" points="1260.51 789.45 1260.51 490.41 1083.34 490.41 1083.34 1087.35 1260.51 789.45"/>
        <path class="cls-2" d="M2118.1,919.46c0-91.79-73.59-166.26-164.97-167.94v.18h-.2v-.18h-96.45v336.3h62.37v.16h34.08v-.16c76.61-1.33,140.57-53.86,159.38-124.88.15-.52.27-1.05.41-1.59.98-3.84,1.86-7.72,2.57-11.67.34-1.76.54-3.55.82-5.33.44-3.06.94-6.09,1.21-9.21.39-4.26.57-8.58.65-12.92,0-.8.12-1.58.12-2.38,0-.06,0-.11,0-.18s0-.13,0-.2"/>
        <path class="cls-1" d="M1952.93,751.52v.18h.2v-.18c21.99.4,42.95,5.04,62.11,13.1,16.33-18.97,28.52-41.6,35.12-66.54.15-.52.28-1.06.41-1.59.98-3.84,1.86-7.73,2.58-11.67.33-1.76.54-3.55.81-5.33.44-3.06.94-6.1,1.21-9.22.4-4.25.58-8.58.65-12.91,0-.81.12-1.58.12-2.38,0-.06,0-.12,0-.18,0-.07,0-.13,0-.2,0-91.79-73.59-166.27-164.97-167.94v.18h-34.68l.33,264.68h96.12Z"/>
        <polygon class="cls-3" points="685.38 490.41 685.38 543.71 685.38 769.31 685.38 1087.44 862.55 1087.44 862.55 490.41 685.38 490.41"/>
        <path d="M376.42,368.05h22.77c4.08,0,7.41-1.6,9.98-4.8,2.56-3.2,3.84-7.04,3.84-11.51s-1.43-8.24-4.29-11.42c-2.86-3.16-6.25-4.75-10.16-4.75h-22.14v32.48ZM369.36,400.58v-71.23h29.5c3.91,0,7.53,1.1,10.85,3.31,3.31,2.2,5.87,5.01,7.66,8.42,1.79,3.42,2.7,6.97,2.7,10.66,0,3.92-.86,7.59-2.55,11-1.7,3.41-4.14,6.19-7.32,8.33-3.18,2.14-6.75,3.2-10.71,3.2h-23.07v26.31h-7.06Z"/>
        <path d="M500.57,394.74c3.92,0,7.56-.86,10.93-2.59,3.35-1.73,6.15-4,8.37-6.81,2.22-2.81,3.96-5.98,5.21-9.52,1.26-3.55,1.89-7.16,1.89-10.85,0-5.16-1.11-10-3.33-14.5-2.23-4.51-5.37-8.16-9.45-10.97-4.09-2.81-8.63-4.21-13.62-4.21-3.91,0-7.56.85-10.92,2.56-3.36,1.72-6.16,3.97-8.38,6.76-2.22,2.8-3.96,5.96-5.21,9.5-1.26,3.55-1.89,7.17-1.89,10.85s.66,7.58,1.96,11.17c1.31,3.6,3.1,6.76,5.37,9.5,2.27,2.74,5.07,4.95,8.4,6.61,3.33,1.67,6.89,2.49,10.68,2.49M467.16,364.96c0-4.7.87-9.25,2.59-13.64,1.74-4.4,4.06-8.24,6.99-11.53,2.92-3.3,6.48-5.94,10.68-7.94,4.19-2,8.62-3,13.25-3,3.85,0,7.55.68,11.07,2.04,3.53,1.35,6.62,3.2,9.29,5.56,2.66,2.35,4.98,5.06,6.95,8.13,1.98,3.07,3.47,6.36,4.5,9.87,1.01,3.51,1.51,7.05,1.51,10.61,0,4.7-.86,9.25-2.56,13.62-1.72,4.37-4.04,8.21-6.96,11.5-2.93,3.3-6.48,5.94-10.66,7.92-4.18,1.98-8.6,2.97-13.23,2.97s-9.37-1.03-13.59-3.09c-4.23-2.06-7.77-4.77-10.63-8.13-2.86-3.37-5.11-7.22-6.73-11.54-1.64-4.33-2.45-8.77-2.45-13.35"/>
        <polygon points="587.34 400.58 587.34 329.34 594.4 329.34 594.4 394.36 635.5 394.36 635.5 400.58 587.34 400.58"/>
        <path d="M691.75,319.59l-4.51-1.71,5.92-9.31h7.21l-8.63,11.02ZM685.91,329.34h7.06v71.23h-7.06v-71.23Z"/>
        <polygon points="801.45 335.57 776.07 335.57 776.07 400.58 769.07 400.58 769.07 335.57 743.69 335.57 743.69 329.35 801.45 329.35 801.45 335.57"/>
        <rect x="852.22" y="329.34" width="7.05" height="71.23"/>
        <path d="M946.28,328.95c6.14,0,11.5,1.41,16.09,4.24,4.59,2.82,7.99,6.58,10.21,11.29l-5.53,3.43c-1.47-3.01-3.41-5.48-5.83-7.44-2.42-1.96-4.88-3.31-7.4-4.07-2.51-.75-5.16-1.12-7.94-1.12-3.3,0-6.38.56-9.26,1.69-2.88,1.13-5.34,2.66-7.42,4.58-2.07,1.93-3.85,4.16-5.33,6.69-1.49,2.52-2.59,5.2-3.31,8.03-.72,2.82-1.07,5.69-1.07,8.6,0,5.23,1.15,10.13,3.47,14.72,2.33,4.59,5.55,8.28,9.68,11.07,4.13,2.79,8.65,4.19,13.54,4.19,2.81,0,5.57-.45,8.28-1.35,2.71-.9,5.31-2.37,7.82-4.41,2.49-2.04,4.47-4.53,5.9-7.47l5.79,3c-1.47,3.39-3.77,6.37-6.89,8.93-3.12,2.56-6.51,4.48-10.18,5.74-3.68,1.25-7.37,1.88-11.1,1.88s-7.43-.68-10.92-2.06c-3.5-1.37-6.59-3.25-9.26-5.66-2.68-2.4-5.02-5.14-7.01-8.22-1.99-3.09-3.51-6.42-4.55-10-1.04-3.58-1.57-7.16-1.57-10.76,0-4.35.77-8.61,2.31-12.79,1.53-4.18,3.7-7.97,6.49-11.37,2.79-3.4,6.37-6.14,10.73-8.23,4.37-2.09,9.13-3.14,14.28-3.14"/>
        <path d="M1064.46,372.8l-14.36-35.22-14.55,35.22h28.91ZM1047.21,329.34h5.93l29.58,71.23h-7.44l-9.22-22.29h-31.99l-9.16,22.29h-7.49l29.78-71.23Z"/>
        <polygon points="1202.73 342.28 1202.73 400.58 1195.67 400.58 1195.67 329.35 1201.5 329.35 1248.24 388.72 1248.24 329.45 1255.3 329.45 1255.3 400.58 1248.77 400.58 1202.73 342.28"/>
        <path d="M1352.6,372.8l-14.36-35.22-14.55,35.22h28.91ZM1335.35,329.34h5.93l29.58,71.23h-7.44l-9.21-22.29h-32l-9.16,22.29h-7.49l29.78-71.23Z"/>
        <path d="M1447.7,328.95c6.14,0,11.5,1.41,16.09,4.24,4.59,2.82,7.99,6.58,10.21,11.29l-5.53,3.43c-1.47-3.01-3.41-5.48-5.83-7.44-2.42-1.96-4.89-3.31-7.4-4.07-2.51-.75-5.16-1.12-7.94-1.12-3.3,0-6.38.56-9.26,1.69-2.88,1.13-5.34,2.66-7.42,4.58-2.07,1.93-3.85,4.16-5.34,6.69-1.48,2.52-2.58,5.2-3.3,8.03-.72,2.82-1.08,5.69-1.08,8.6,0,5.23,1.16,10.13,3.48,14.72,2.33,4.59,5.55,8.28,9.68,11.07,4.13,2.79,8.65,4.19,13.54,4.19,2.81,0,5.57-.45,8.28-1.35,2.7-.9,5.31-2.37,7.82-4.41,2.49-2.04,4.47-4.53,5.9-7.47l5.79,3c-1.47,3.39-3.77,6.37-6.89,8.93-3.12,2.56-6.51,4.48-10.18,5.74-3.68,1.25-7.37,1.88-11.1,1.88s-7.43-.68-10.92-2.06c-3.5-1.37-6.59-3.25-9.26-5.66-2.68-2.4-5.02-5.14-7.01-8.22-1.99-3.09-3.51-6.42-4.55-10-1.04-3.58-1.57-7.16-1.57-10.76,0-4.35.76-8.61,2.3-12.79,1.54-4.18,3.71-7.97,6.5-11.37,2.79-3.4,6.37-6.14,10.73-8.23,4.37-2.09,9.13-3.14,14.28-3.14"/>
        <rect x="1527.51" y="329.34" width="7.05" height="71.23"/>
        <path d="M1621.19,394.74c3.92,0,7.56-.86,10.93-2.59,3.36-1.73,6.15-4,8.37-6.81,2.22-2.81,3.96-5.98,5.21-9.52,1.26-3.55,1.89-7.16,1.89-10.85,0-5.16-1.11-10-3.33-14.5-2.23-4.51-5.37-8.16-9.45-10.97-4.09-2.81-8.63-4.21-13.62-4.21-3.91,0-7.56.85-10.92,2.56-3.36,1.72-6.16,3.97-8.38,6.76-2.22,2.8-3.96,5.96-5.21,9.5-1.26,3.55-1.89,7.17-1.89,10.85s.66,7.58,1.97,11.17c1.3,3.6,3.09,6.76,5.36,9.5,2.27,2.74,5.07,4.95,8.4,6.61,3.33,1.67,6.89,2.49,10.68,2.49M1587.78,364.96c0-4.7.87-9.25,2.59-13.64,1.74-4.4,4.06-8.24,6.99-11.53,2.92-3.3,6.48-5.94,10.68-7.94,4.19-2,8.62-3,13.25-3,3.85,0,7.55.68,11.07,2.04,3.53,1.35,6.62,3.2,9.29,5.56,2.66,2.35,4.98,5.06,6.96,8.13,1.97,3.07,3.46,6.36,4.49,9.87,1.01,3.51,1.51,7.05,1.51,10.61,0,4.7-.86,9.25-2.56,13.62-1.72,4.37-4.04,8.21-6.96,11.5-2.93,3.3-6.48,5.94-10.66,7.92-4.18,1.98-8.59,2.97-13.23,2.97s-9.37-1.03-13.59-3.09c-4.23-2.06-7.77-4.77-10.63-8.13-2.86-3.37-5.11-7.22-6.73-11.54-1.64-4.33-2.45-8.77-2.45-13.35"/>
        <polygon points="1715.01 342.28 1715.01 400.58 1707.97 400.58 1707.97 329.35 1713.79 329.35 1760.53 388.72 1760.53 329.45 1767.59 329.45 1767.59 400.58 1761.06 400.58 1715.01 342.28"/>
        <path d="M1864.89,372.8l-14.35-35.22-14.55,35.22h28.9ZM1847.65,329.34h5.92l29.59,71.23h-7.45l-9.21-22.29h-31.99l-9.16,22.29h-7.49l29.78-71.23Z"/>
        <polygon points="1933.48 400.58 1933.48 329.34 1940.54 329.34 1940.54 394.36 1981.64 394.36 1981.64 400.58 1933.48 400.58"/>
        <polygon class="cls-2" points="1083.76 793.46 901.78 490.41 901.77 490.41 862.55 490.41 862.55 568.55 862.12 569.43 862.12 781.29 1044.12 1087.3 1044.12 1087.34 1044.14 1087.34 1044.2 1087.44 1044.26 1087.34 1083.34 1087.34 1083.34 1020.87 1083.76 1020.15 1083.76 793.46"/>
        <path class="cls-1" d="M663.74,659.77c0-91.79-73.59-166.26-164.97-167.94v.18h-54.24v336.28h54.04v-.16c76.61-1.33,140.57-53.86,159.38-124.87.15-.53.27-1.06.4-1.6.99-3.84,1.87-7.72,2.58-11.67.34-1.76.54-3.55.81-5.33.45-3.06.95-6.1,1.22-9.21.39-4.26.57-8.58.65-12.92,0-.8.12-1.58.12-2.38,0-.06,0-.11,0-.18s0-.13,0-.2"/>
      </g>
    </g>
  </g>
</svg>