<?xml version="1.0" encoding="UTF-8"?>
<svg xmlns="http://www.w3.org/2000/svg" version="1.1" viewBox="0 0 2545.71 1280.57">
  <defs>
    <style>
      .cls-1 {
        fill: #dd2285;
      }

      .cls-2 {
        fill: #e4472e;
      }

      .cls-3 {
        fill: #f8bf18;
      }

      .cls-4 {
        fill: #fff;
      }

      .cls-5 {
        fill: #00336a;
      }

      .cls-6 {
        fill: #e2362b;
      }
    </style>
  </defs>
  <!-- Generator: Adobe Illustrator 28.7.2, SVG Export Plug-In . SVG Version: 1.2.0 Build 154)  -->
  <g>
    <g id="Camada_1">
      <g>
        <path class="cls-4" d="M1750.79,891.79v-9.36l-16.48-19.82-14.3,8.25c4.21,3.51,8.96,7.18,14.3,10.83,5.77,3.95,11.32,7.29,16.48,10.1"/>
        <path class="cls-2" d="M1610.03,891.09c-6.94,1.62-11.59,5.85-15.64,11.07-1.72,2.22-3.2,4.63-5.38,7.81-.42.58-.85,1.22-1.28,1.87h7.54c1.71-2.03,3.66-3.8,5.85-5.22,2.25-1.46,4.69-2.36,7.35-2.67,4.32-.5,6.64,2.19,5,6.15-.24.58-.5,1.16-.75,1.74h12.05c.13-1.77.52-3.52,1.01-5.23,3.74-12.94-6.4-17.7-15.76-15.52"/>
        <path class="cls-2" d="M1491.81,886.38c-6.73-2.62-11-1.63-15.73,3.77-5.64,6.44-9.04,13.92-11.78,21.7h40.36c.51-5.72-.77-11.32-3.56-16.83-2.02-3.99-5-6.97-9.29-8.64"/>
        <path class="cls-1" d="M1683.06,493.75c.43-.55.86-1.08,1.29-1.62-.56.4-.99.94-1.29,1.62"/>
        <path class="cls-2" d="M1740.91,906.4c-4.38-.58-8.15-2.61-11.69-4.99-8.29-5.56-16.99-10.34-26.36-13.91-2.66-1.01-5.27-1.78-7.57.74-2.29,2.52-1.83,5.09-.23,7.71,2.09,3.42,4.09,6.88,6.29,10.22,1.25,1.9,2.16,3.79,2.79,5.68h46.65v-7.9c-2.75,2.24-6.07,2.96-9.88,2.46"/>
        <path class="cls-2" d="M1670.73,903.02c-2.69,2.47-4.38,5.63-6.4,8.57-.06.09-.13.17-.19.26h20.77c-.89-2.82-2.37-5.56-4.51-8.2-3.16-3.92-5.96-4.03-9.68-.63"/>
        <path class="cls-3" d="M1777.48,943.78h8.23l24.12,64.68h-7.05l-5.16-13.86h-32.02l-5.16,13.86h-7.05l24.08-64.68ZM1768.03,988.13h27.15l-13.57-36.4-13.58,36.4Z"/>
        <polygon class="cls-3" points="1829 1008.46 1829 943.78 1836.19 943.78 1871.14 996.77 1871.14 943.78 1877.77 943.78 1877.77 1008.46 1870.63 1008.46 1835.62 955.47 1835.62 1008.46 1829 1008.46"/>
        <path class="cls-3" d="M1930.18,1009.66c-4.48,0-8.69-.87-12.63-2.61-3.94-1.74-7.41-4.15-10.41-7.23-3-3.08-5.35-6.64-7.05-10.69-1.7-4.05-2.55-8.39-2.55-13.01s.85-8.95,2.55-13c1.7-4.05,4.05-7.61,7.05-10.7,3-3.08,6.46-5.49,10.41-7.23,3.94-1.74,8.15-2.61,12.63-2.61s8.73.87,12.68,2.61c3.94,1.74,7.41,4.15,10.41,7.23,3,3.08,5.34,6.64,7.03,10.7,1.69,4.05,2.53,8.38,2.53,13s-.84,8.96-2.53,13.01c-1.69,4.05-4.03,7.61-7.03,10.69-3,3.08-6.47,5.49-10.41,7.23-3.94,1.74-8.17,2.61-12.68,2.61M1930.18,1003.19c3.63,0,7.01-.72,10.14-2.15,3.14-1.43,5.9-3.4,8.28-5.89,2.38-2.5,4.24-5.37,5.58-8.64,1.34-3.26,2.01-6.73,2.01-10.4s-.68-7.18-2.03-10.46c-1.36-3.28-3.23-6.16-5.61-8.64-2.38-2.48-5.14-4.43-8.28-5.84-3.14-1.42-6.5-2.12-10.1-2.12s-7.01.72-10.15,2.15c-3.14,1.43-5.9,3.4-8.28,5.89-2.38,2.5-4.24,5.37-5.58,8.64-1.34,3.27-2.01,6.73-2.01,10.4s.68,7.22,2.03,10.49c1.36,3.27,3.23,6.14,5.61,8.64,2.38,2.5,5.14,4.44,8.28,5.84,3.14,1.4,6.5,2.1,10.1,2.1"/>
        <path class="cls-3" d="M2006.33,1009.66c-3.53,0-6.94-.54-10.24-1.62-3.3-1.08-6.17-2.62-8.63-4.62-2.46-2-4.2-4.39-5.2-7.16l6.2-2.26c.69,1.91,1.96,3.55,3.81,4.92,1.85,1.37,4.01,2.43,6.48,3.16,2.48.74,5.01,1.11,7.59,1.11,3.03,0,5.85-.49,8.47-1.48,2.62-.98,4.73-2.36,6.34-4.13,1.61-1.77,2.41-3.86,2.41-6.26s-.84-4.43-2.5-6c-1.67-1.57-3.83-2.81-6.46-3.72-2.63-.91-5.38-1.61-8.25-2.1-4.51-.77-8.55-1.82-12.13-3.14-3.58-1.32-6.41-3.19-8.49-5.61-2.08-2.42-3.12-5.61-3.12-9.59,0-3.73,1.1-6.96,3.31-9.7,2.2-2.74,5.11-4.87,8.73-6.38,3.61-1.51,7.51-2.26,11.71-2.26,3.44,0,6.8.52,10.08,1.57,3.28,1.05,6.17,2.57,8.68,4.57,2.51,2,4.31,4.45,5.42,7.35l-6.29,2.22c-.69-1.94-1.96-3.6-3.81-4.97-1.84-1.37-4-2.42-6.46-3.14-2.46-.72-5-1.09-7.62-1.09-3-.03-5.8.46-8.4,1.46-2.6,1-4.71,2.38-6.31,4.16-1.61,1.77-2.41,3.84-2.41,6.21,0,2.77.75,4.9,2.25,6.4,1.5,1.49,3.54,2.61,6.13,3.35,2.59.74,5.5,1.4,8.75,1.99,4.23.71,8.15,1.81,11.78,3.3,3.63,1.5,6.54,3.48,8.75,5.96,2.21,2.48,3.31,5.54,3.31,9.17s-1.11,6.92-3.31,9.68c-2.21,2.76-5.12,4.89-8.73,6.4-3.61,1.51-7.54,2.26-11.8,2.26"/>
        <path class="cls-5" d="M2108.24,888.14l-3.69-2.79c3.77-4.75,7.46-9.67,10.98-14.62l3.83,2.6c-3.57,5.01-7.31,9.99-11.12,14.81M2129.71,858l-3.96-2.41c3.26-5.1,6.43-10.36,9.42-15.62l4.08,2.21c-3.03,5.33-6.24,10.65-9.54,15.82M2147.97,825.91l-4.19-2.01c2.72-5.4,5.34-10.94,7.78-16.47l4.29,1.81c-2.47,5.59-5.12,11.2-7.88,16.67M2162.87,792.2l-4.38-1.59c2.16-5.64,4.19-11.41,6.05-17.14l4.45,1.38c-1.88,5.8-3.95,11.65-6.13,17.36M2174.23,757.2l-4.52-1.16c.72-2.68,1.41-5.36,2.06-8.05.77-3.17,1.51-6.4,2.18-9.6l4.58.93c-.69,3.25-1.43,6.52-2.21,9.73-.66,2.73-1.36,5.44-2.08,8.15M2181.86,721.25l-4.62-.69c.93-5.95,1.71-12,2.32-17.98l4.65.45c-.62,6.07-1.41,12.2-2.35,18.22M2185.59,684.71l-4.67-.21c.26-5.47.4-11.03.4-16.52v-1.61s4.67-.02,4.67-.02v1.63c0,5.56-.13,11.19-.4,16.73M2180.75,648.24c-.34-6-.85-12.08-1.51-18.07l4.65-.48c.67,6.07,1.18,12.22,1.53,18.3l-4.66.25ZM2176.8,612.2c-.89-5.47-1.92-11.01-3.07-16.47l-.29-1.37,4.57-.94.3,1.39c1.16,5.52,2.21,11.13,3.11,16.67l-4.61.71ZM2169.17,576.72c-1.57-5.83-3.3-11.69-5.16-17.42l4.46-1.38c1.88,5.8,3.63,11.73,5.22,17.64l-4.52,1.16ZM2157.97,542.15c-2.16-5.66-4.49-11.32-6.92-16.82l4.29-1.81c2.47,5.58,4.83,11.31,7.01,17.04l-4.38,1.59ZM2143.25,508.87c-2.74-5.41-5.66-10.81-8.67-16.03l4.07-2.24c3.05,5.29,6,10.76,8.78,16.24l-4.19,2.02ZM2125.05,477.29c-3.31-5.09-6.8-10.14-10.38-15.02l3.8-2.66c3.62,4.94,7.16,10.07,10.52,15.23l-3.94,2.45ZM2103.47,447.81c-3.83-4.7-7.84-9.38-11.92-13.91l3.51-3.01c4.12,4.59,8.18,9.33,12.06,14.08l-3.65,2.84ZM2078.98,420.55c-4.27-4.33-8.72-8.62-13.2-12.76l3.21-3.32c4.54,4.19,9.03,8.53,13.36,12.91l-3.36,3.17ZM2051.98,395.64c-4.69-3.94-9.52-7.81-14.36-11.51l2.88-3.59c4.9,3.74,9.79,7.66,14.53,11.64l-3.05,3.46ZM2022.72,373.29c-5.04-3.49-10.23-6.9-15.4-10.13l2.52-3.84c5.24,3.27,10.48,6.72,15.59,10.26l-2.7,3.72ZM1991.44,353.76c-1.12-.63-2.25-1.25-3.37-1.87-4.25-2.32-8.61-4.59-12.96-6.75l2.11-4.07c4.41,2.19,8.83,4.49,13.13,6.84,1.14.62,2.28,1.25,3.41,1.89l-2.32,3.96ZM1958.34,337.34c-5.62-2.45-11.39-4.79-17.14-6.96l1.68-4.25c5.83,2.2,11.67,4.57,17.36,7.05l-1.9,4.17ZM1923.72,324.26c-5.83-1.89-11.81-3.66-17.77-5.27l1.25-4.4c6.03,1.63,12.08,3.43,17.99,5.34l-1.47,4.33ZM1887.94,314.57c-6.01-1.32-12.13-2.52-18.21-3.56l.81-4.5c6.15,1.05,12.35,2.26,18.43,3.61l-1.03,4.45ZM1851.37,308.32c-4.57-.56-9.22-1.05-13.8-1.45-1.56-.14-3.11-.26-4.67-.38l.36-4.55c1.58.12,3.15.25,4.73.38,4.64.41,9.34.9,13.97,1.47l-.58,4.53Z"/>
        <path class="cls-6" d="M1450.21,506.27c-.89-5.19-3.02-7.31-8.44-7.57-10.29-.49-20.18,1.37-29.65,5.37-7.81,3.31-15.62,6.6-23.91,8.72-1.76.45-3.53.78-5.29,1.02l52.9,56.21c6.16-5.82,12.66-11.26,19.48-16.34-2.12-.73-3.81-2.58-4.45-5.39-1.05-4.6-.41-9.25-.08-13.87.68-9.4,1.04-18.79-.56-28.14"/>
        <path class="cls-6" d="M1367.46,492.84c6.39-2.67,13.19-2.76,19.91-3.05,17.77-.76,34.27-5.52,49.51-14.42,4.71-2.75,7.62-6.96,9.42-11.96,5.53-15.37,9.68-31.09,12.84-47.08.16-.79.34-1.56.52-2.33-7.17,2.29-14.22,4.83-21.15,7.63-38.02,15.36-67.39,34.57-88.13,57.61l14.25,15.14c.85-.56,1.78-1.09,2.83-1.53M1419.7,444.84c5.42-2.25,13.53-.44,17.1,4.11,4.19,5.34,5.56,11.37,3.59,17.93-1.18,3.92-4.07,6.48-8.1,6.61-9.99.31-16.18-3.32-18.15-12.62-.2-.95-.28-1.93-.42-2.89-.99-6.77.98-11.05,5.98-13.13"/>
        <path class="cls-6" d="M1705.86,857.84c-1.69,9.61-12.69,15.42-21.92,11.1-3.71-1.74-5.1-4.41-4.38-8.42.45-2.5,1.66-4.64,2.93-6.34,3.48-5.09,8.07-7.45,13.25-7.06-12.2-13.68-23.09-28.64-32.63-44.91-2.31-3.93-4.47-7.88-6.56-11.86h-113.14c-.28,8.44-1.97,16.69-4.66,24.79-1.65,4.96-3.87,6.92-7.31,6.46-3.78-.5-6.09-3.5-6.36-8.33-.06-.97,0-1.95,0-2.93.43-6.45,1.37-12.88-.11-19.33-2.36-10.31-8.56-17.2-18.87-20.47-5.53-1.75-8.25-.14-9.56,5.38-.95,3.99-.5,8.04-.51,12.05,0,4.56-.51,9.03-1.82,13.39-1.32,4.39-3.87,6.3-7.75,6.04-3.71-.24-5.71-2.34-6.71-6.72-1.21-5.28-.06-10.45.54-15.65.72-6.27,2.61-12.47,1.12-18.88-.68-2.91-1.34-5.95-4.67-6.98-3.49-1.08-5.95.92-8.15,3.29-3.19,3.44-6.38,6.89-9.69,10.23-4.06,4.11-9.21,5.25-14.83,4.59-3.59-.42-5.54-2.71-5.53-6.25.02-4.69,2.32-8.48,5.48-11.73,11.25-11.56,24.09-20.21,41.1-21.28,3.79-.24,7.19-1.96,10.54-3.68,16.08-8.24,32.19-16.4,48.26-24.67,7.72-3.97,15.28-4.21,22.82.35,5.57,3.36,7.28,8.4,6.74,14.47-.49,5.39-3.47,9-8.34,11.31-4.52,2.15-9.39,2.56-14.29,2.5-11.44-.15-22.77.7-33.95,3.11-3.17.68-6.14,1.56-6.68,5.37-.54,3.8,1.56,5.95,4.77,7.44,4.19,1.94,8.33,3.99,12.57,5.79,9.09,3.85,13.75,10.5,15.29,19.15,17.2-11.58,41.13-26.94,71.87-46.1,5.07-3.15,10.13-6.3,15.2-9.44.52-.32,1.05-.65,1.57-.97.76-.47,1.53-.95,2.3-1.43-.05-.09-.11-.17-.16-.26-5.01-10.1.19-20.66,10.86-22.09,6.51-.87,9.95,1.58,11.09,7.91.04.25.04.48.08.73,3.37-2.22,6.67-4.47,9.86-6.74,1.46-6.46,2.22-13.07,2.8-19.73.34-3.89.83-7.77,1.43-11.63.36-2.3,1.15-4.53,2.48-6.49,3.16-4.63,8.71-4.54,11.44.29,3,5.3,4.63,11.06,5.04,14.56.2,1.45.35,2.86.48,4.26,2.55-2.25,5.03-4.52,7.43-6.81-.33-5.5-.61-11.01-2.63-16.29-3.77-9.89-10.88-15.9-21.55-17.76-5.72-1-8.19.97-8.72,6.61-.38,4.08.62,8.03,1.18,12.01.63,4.52.76,9.01.07,13.51-.7,4.53-2.95,6.75-6.84,7.02-3.71.25-5.98-1.55-7.59-5.76-1.94-5.07-1.52-10.35-1.66-15.58-.16-6.31.84-12.71-1.53-18.85-1.08-2.79-2.16-5.71-5.6-6.29-3.61-.61-5.76,1.7-7.61,4.35-2.68,3.84-5.36,7.68-8.16,11.43-.38.51-.79.97-1.2,1.42-3.36,3.57-7.82,5.03-12.85,5.11-3.62.06-5.87-1.94-6.35-5.46-.64-4.65,1.11-8.71,3.78-12.35,5.39-7.33,11.41-13.8,18.66-18.65,5.56-3.72,11.83-6.47,19.08-7.92,3.72-.74,6.85-2.91,9.93-5.05,14.77-10.31,29.6-20.55,44.35-30.88,7.09-4.97,14.55-6.21,22.66-2.7,5.98,2.59,8.39,7.35,8.7,13.43.27,5.41-2.18,9.38-6.68,12.32-4.18,2.74-8.95,3.79-13.81,4.38-11.35,1.39-22.45,3.73-33.2,7.61-3.04,1.1-5.86,2.37-5.87,6.21,0,3.83,2.38,5.69,5.77,6.74,4.42,1.37,8.8,2.84,13.26,4.06,11.04,3.01,16.76,10.53,18.91,21.07.65,3.17,1.05,6.34,1.28,9.51,4.12-4.88,7.93-9.85,11.41-14.91,17.52-25.49,26.28-55.69,26.28-90.61,0-38.85-10.67-70.92-31.98-96.22-1.42,1.22-2.85,2.42-4.23,3.69-5.89,5.38-11.49,11.04-16.87,16.92,2.27.44,4.55.88,6.83,1.23,9.31,1.44,14.7,7.05,17.48,15.45,2.82,8.52,3.58,17.28,3.02,26.18-.27,4.27-1.63,6.28-4.46,6.61-3.11.36-5.58-1.57-6.81-5.35-.25-.77-.42-1.56-.63-2.33-1.01-5.21-1.62-10.52-4.15-15.36-4.04-7.73-10.42-11.97-19.32-12.51-2.08-.13-3.58.18-4.62.93-.43.54-.86,1.08-1.29,1.62-.41.94-.61,2.13-.57,3.65.09,3.37,1.29,6.5,2.13,9.69.95,3.63,1.49,7.29,1.36,11.02-.13,3.76-1.76,5.79-4.9,6.36-3.01.55-5.03-.72-6.76-4-1.82-3.48-2.18-7.26-2.65-11.02-.07-.52-.13-1.03-.21-1.55-.74-5.14-.54-10.45-3.08-15.25-1.15-2.18-2.32-4.46-5.18-4.62-3.01-.16-4.54,1.92-5.79,4.25-1.82,3.38-3.63,6.76-5.56,10.08-2.37,4.09-6.23,6.02-10.84,6.63-2.95.39-4.98-1.05-5.71-3.87-.97-3.74.06-7.21,1.89-10.43,6.52-11.46,14.92-20.92,28.24-25.18,2.97-.95,5.31-3,7.61-5.04,9.33-8.26,18.7-16.48,28.03-24.74-.06-.05-.11-.1-.17-.15-25.91-21.62-60.01-34.66-102.22-39.19.02.26.06.52.08.79.27,5.41-2.18,9.38-6.68,12.32-4.18,2.73-8.95,3.79-13.81,4.38-11.35,1.38-22.45,3.73-33.2,7.61-3.04,1.1-5.86,2.37-5.87,6.21,0,3.83,2.38,5.69,5.77,6.74,4.42,1.37,8.8,2.84,13.26,4.06,11.04,3.01,16.76,10.53,18.92,21.07,2.19,10.69,1.85,21.38-.1,32.06-.94,5.13-2.87,7.37-6.33,7.38-3.81,0-6.52-2.66-7.47-7.4-.19-.96-.28-1.94-.42-2.9-.47-6.44-.45-12.94-2.81-19.14-3.78-9.89-10.88-15.9-21.55-17.76-5.72-1-8.19.97-8.72,6.61-.38,4.09.63,8.03,1.18,12.01.63,4.52.76,9.01.07,13.51-.7,4.53-2.95,6.76-6.84,7.02-3.71.26-5.98-1.55-7.59-5.76-1.94-5.07-1.52-10.35-1.66-15.58-.16-6.31.84-12.71-1.53-18.85-1.08-2.79-2.16-5.71-5.6-6.29-3.61-.61-5.76,1.7-7.61,4.35-2.68,3.84-5.36,7.68-8.16,11.43-3.45,4.62-8.39,6.43-14.05,6.53-3.62.06-5.87-1.94-6.35-5.46-.64-4.65,1.11-8.71,3.78-12.35,9.52-12.95,21.03-23.24,37.74-26.56,3.72-.74,6.85-2.91,9.93-5.06,10.86-7.57,21.73-15.12,32.59-22.69-10.08.2-19.97.8-29.68,1.77,3.89,9.12-1.07,20.37-11.35,23.24-4.51,1.26-7.75,0-10.24-3.94-1.55-2.46-2.18-5.18-2.41-7.56-.46-3.21-.22-6.07.6-8.59-4.5.77-8.96,1.61-13.37,2.56.41,5.14-.89,10.15-3.21,15.12-3.83,8.19-9.38,15.28-14.82,22.45-5.53,7.29-9.6,15.16-9.97,24.49-.34,8.29,3.51,11.67,11.74,9.77,5.7-1.31,10.97-4.05,16.96-4.62,9.04-.86,14.26,2.1,17.46,10.42,2.38,6.17,3.38,12.52,2.61,19.07-.69,5.83-4.68,7.42-9.49,3.97-2.95-2.12-4.68-5.1-6.2-8.17-6.82-13.77-19.13-10.35-25.41-1.58-4.66,6.5-5.33,13.54-4.74,20.96.25,3.16.86,6.3,1.47,10.62.51,4.63,2.13,10.39.79,16.3-.09.39-.18.77-.28,1.15,3.23-2.12,6.53-4.15,9.88-6.12-3.48-7.42-4.69-15.74-2.69-23.12.79-2.91,2.16-5.47,4.19-7.7,3.29-3.61,7.35-3.04,9.01,1.54,2.42,6.65,4.44,13.45,6.69,20.17,1.54-.72,3.07-1.39,4.6-2.05-.5-7.6,4.45-14.19,12.72-15.3,6.4-.86,9.82,1.52,11.01,7.61,3.01-.65,6.01-1.19,8.99-1.57,2.17-7.75,3.12-15.78,3.83-23.88.34-3.89.83-7.77,1.43-11.63.36-2.3,1.15-4.52,2.48-6.48,3.16-4.64,8.71-4.54,11.44.29,3,5.3,4.63,11.06,5.04,14.56,1.4,10.12,1.12,18.95-1.34,26.95,9.45,1.34,17.57,4.66,24.36,9.98.53.42.99.89,1.49,1.33,10.37-2.88,19.94-7.56,28.68-14.11,3.58-2.68,5.55-6.39,6.53-10.64,3.02-13.06,4.89-26.28,5.92-39.63.52-6.73,2.29-13.03,6.99-18.31,4.89-5.49,10.86-4.9,14.45,1.48,3.38,6,3.04,12.13.96,18.38-2.34,7.04-6.18,13.34-9.93,19.7-3.81,6.46-6.36,13.26-5.77,20.91.53,6.8,4,9.2,10.53,6.89,4.53-1.6,8.57-4.32,13.4-5.34,7.3-1.54,11.84.4,15.27,6.89.09.17.15.34.24.51,2.38,4.67,3.74,9.59,3.74,14.82,0,4.83-3.1,6.49-7.36,4.12-2.03-1.13-3.51-2.77-4.79-4.55-.37-.51-.72-1.03-1.07-1.55-6.91-10.62-16.62-6.68-20.9,1.05-3.17,5.74-3.04,11.54-1.84,17.55.51,2.56,1.31,5.06,2.23,8.53.86,3.74,2.75,8.28,2.23,13.24-.26,2.45-.74,4.76-2.75,6.51-3.55,3.09-8.05,2.04-9.61-2.34-1.3-3.66-1.23-7.51-1.41-11.32-.35-7.74-.97-15.44-3.19-22.92-1.23-4.16-3.17-5.69-7.62-5.4-8.45.55-16.34,2.98-23.69,7.13-.77.44-1.55.87-2.32,1.3,2.09,5.36,3.17,11.6,3.17,18.75,0,9.78-2.27,19.26-6.79,28.46-4.53,9.2-10.01,17.17-16.44,23.92-6.44,6.76-15.08,13.85-25.92,21.3-10.85,7.45-20.62,13.56-29.32,18.33-8.7,4.77-19.61,10.77-32.71,17.98-13.11,7.22-23.23,12.92-30.39,17.11-17.88,10.71-32.71,21.53-44.51,32.47-11.8,10.95-21.39,22.23-28.78,33.87-5.29,8.33-9.65,17.91-13.1,28.68,13.52-.18,26.63-2.84,39.34-8.11,5.05-2.09,8.52-5.87,11-10.59,7.62-14.49,13.94-29.51,19.31-44.93,2.7-7.77,6.75-14.67,13.93-19.49,7.48-5.02,14.32-2.56,16.57,6.03,2.12,8.07-.2,15.19-4.59,21.94-4.94,7.6-11.43,13.89-17.83,20.27-6.5,6.48-11.63,13.73-13.3,22.92-1.49,8.17,1.84,12.03,10.26,11.25,5.84-.54,11.44-2.55,17.45-2.31,9.08.35,13.83,3.98,15.84,12.65,1.49,6.43,1.6,12.85-.09,19.24-1.5,5.69-5.67,6.73-9.95,2.67-2.63-2.49-3.92-5.68-5-8.92-4.83-14.56-17.5-12.8-24.95-4.96-5.52,5.82-7.18,12.7-7.63,20.13-.19,3.17-.03,6.35-.03,10.71-.15,4.66.66,10.57-1.49,16.25-1.06,2.8-2.36,5.39-5.27,6.85-5.14,2.59-10.12.01-10.59-5.61-.39-4.7.89-9.22,1.87-13.76,1.99-9.22,3.66-18.47,3.38-27.95-.16-5.26-1.97-7.64-7.3-8.63-10.12-1.86-20.18-1.34-30.12,1.37-5.34,1.45-10.68,2.86-16.1,3.97-2.89,13.93-4.89,27.98-5.9,42.16-1.2,16.76-1.79,38.18-1.79,64.25h93.36c4.21-5,8.72-9.77,12.98-14.73,9.42-10.97,8.99-16.95-2.25-26.19-2.29-1.88-4.87-3.43-7.36-5.06-13.76-8.98-20.29-29.15-14.12-43.57,1.19-2.78,2.91-5.13,5.23-7.07,3.76-3.14,7.7-2.03,8.71,2.73,1.52,7.17,2.59,14.43,3.94,21.64.59,3.12,1.25,6.24,2.15,9.29,2.17,7.28,8.75,10.22,16.01,7.31,5.54-2.22,9.54-6.2,12.96-10.82,7.96-10.76,11.5-23.21,14.44-35.91.88-3.81,1.91-7.59,3.04-11.33.68-2.22,1.77-4.33,3.36-6.09,3.78-4.17,9.26-3.34,11.29,1.82,2.23,5.65,3.03,11.57,2.96,15.1-.06,16.76-4.06,29.5-14.61,39.84-1.14,1.11-2.16,2.39-3.01,3.73-3.73,5.92-2.57,10.98,3.48,14.71,4.57,2.82,9.01,5.74,12.49,9.87,7.46,8.85,9.72,22.71,6.91,34.74h47.06c1.89-2.38,4.21-4.41,6.42-6.52,6.06-5.79,11.91-11.75,16.44-18.82,2.51-3.92,2.38-6.52-1.03-9.78-6.47-6.19-14.08-10.6-22.7-13.36-7.11-2.28-14.21-4.57-20.92-7.89-5.02-2.48-9.22-5.85-12.73-10.06-3.06-3.67-3.41-8.39-1.06-11.67,2.7-3.77,7-4.86,12.06-3.2,5.79,1.89,10.32,5.7,14.91,9.34,12.13,9.62,25.82,15.9,41.15,18.73,4.74.88,9.16-.23,13.34-2.5,12.81-6.95,24.93-14.92,36.56-23.63,5.86-4.39,12.27-7.51,19.93-7.61,7.97-.11,11.74,4.96,9.09,12.31-2.49,6.91-7.74,11.01-14.32,13.85-7.41,3.19-15.29,4.7-23.15,6.31-7.99,1.64-15.36,4.5-21.18,10.41-5.17,5.26-4.66,9.67,1.87,13.11,4.54,2.39,9.63,3.59,13.91,6.63,6.46,4.59,8.11,9.5,5.26,16.8-1.05,2.69-2.36,5.21-3.95,7.55h7.35c1.86-3.8,4.91-6.75,7.65-9.92,3.67-4.24,8.15-7.87,10.25-13.27.96-2.45,1.99-4.98.08-7.32-2.01-2.46-4.8-2.17-7.6-1.48-4.05.99-8.11,1.99-12.19,2.86-5.02,1.07-9.36-.56-13.13-3.72-2.41-2.02-2.69-4.62-.91-7.21,2.36-3.42,5.93-5.09,9.86-5.96,14-3.09,27.7-3.29,40.67,4.05,2.89,1.63,6.24,1.99,9.54,2.33,11.84,1.23,23.68,2.48,35.52,3.72-5.79-4.4-11.3-9.06-16.45-14.03-1.38-1.33-2.72-2.7-4.08-4.07M1662.17,442.82c3.3-1.61,6.51-1.1,9.03,1.44,7.02,7.05,4.48,19.14-4.81,22.91-3.56,1.44-6.33.72-8.74-2.27-1.5-1.86-2.28-4.03-2.7-5.95-1.94-7.29.69-12.96,7.21-16.13M1609.97,509.3c-.58,3.31-2.69,5.67-5.97,6.15-8.12,1.18-13.53-1.22-16.05-8.63-.26-.76-.42-1.55-.62-2.32-1.46-5.44-.27-9.11,3.61-11.28,4.21-2.34,11-1.61,14.36,1.77,3.94,3.97,5.64,8.77,4.67,14.31M1646.96,579c4.22-1.49,8.03-.43,10.71,2.98,7.47,9.48,2.67,23.75-9.1,27.03-4.51,1.26-7.75,0-10.24-3.94-1.55-2.46-2.18-5.18-2.41-7.56-1.29-9.08,2.7-15.57,11.03-18.52M1407.38,768.4c-1.72,3.72-4.94,5.88-8.95,5.47-9.93-1.03-15.56-5.45-16.22-14.93-.07-.97,0-1.95,0-2.92-.03-6.84,2.51-10.82,7.76-12.21,5.68-1.51,13.47,1.37,16.37,6.35,3.4,5.85,3.92,12,1.05,18.24M1553.65,630.17c5.42-2.25,13.53-.45,17.1,4.1,4.19,5.34,5.56,11.37,3.59,17.93-1.18,3.92-4.07,6.49-8.1,6.61-9.98.31-16.18-3.33-18.15-12.62-.2-.95-.28-1.93-.42-2.89-.99-6.77.98-11.05,5.98-13.13M1501.41,678.18c6.39-2.67,13.19-2.76,19.91-3.05,17.77-.77,34.27-5.53,49.51-14.42,4.71-2.75,7.62-6.96,9.42-11.96,5.52-15.37,9.68-31.09,12.84-47.08,1.59-8.06,4.64-15.44,11.07-21.17,6.7-5.97,13.82-4.44,17.26,3.77,3.23,7.71,1.93,15.08-1.47,22.35-3.83,8.19-9.38,15.28-14.82,22.45-5.53,7.29-9.6,15.16-9.97,24.49-.33,8.29,3.51,11.66,11.74,9.77,5.7-1.31,10.97-4.05,16.96-4.62.25-.02.46-.01.71-.03.02-1.28.07-2.56.1-3.84-.04,1.28-.09,2.56-.1,3.84,8.59-.63,13.64,2.36,16.76,10.44,2.38,6.17,3.38,12.52,2.61,19.07-.69,5.83-4.68,7.43-9.49,3.97-2.95-2.12-4.68-5.1-6.2-8.17-.96-1.93-2.03-3.5-3.17-4.78-6.99-7.89-16.84-4.33-22.24,3.2-4.66,6.5-5.33,13.54-4.74,20.96.25,3.16.86,6.3,1.47,10.61.51,4.64,2.13,10.39.8,16.3-.66,2.92-1.58,5.65-4.26,7.49-4.73,3.25-10.02,1.36-11.28-4.15-1.05-4.6-.41-9.25-.08-13.88.68-9.4,1.04-18.79-.56-28.14-.89-5.19-3.02-7.31-8.44-7.57-10.29-.49-20.18,1.37-29.65,5.37-7.81,3.31-15.62,6.6-23.91,8.72-6.19,1.59-12.37,1.82-18.62.83-5.45-.86-9.39-4.63-9.93-9.15-.62-5.2,2.2-9.3,7.79-11.63M1476.04,722.44c-.01-9.17,4.85-15.07,13.52-16.87,4.38-.91,8.01.65,10.19,4.38,6.08,10.39-.68,23.88-12.8,25.56-4.64.64-7.68-1.03-9.59-5.27-1.19-2.64-1.43-5.42-1.33-7.81M1468.91,850.47c-5.75,1.89-10.58-.47-12.44-6.08-3.55-10.67,3.08-20.44,13.85-20.43,6.57,0,9.64,2.89,9.87,9.31.3,8.11-4.11,14.84-11.29,17.2M1617.69,841.2c-.44,5.9-3.14,10.64-8.35,13.83-3.11,1.9-6.55,1.94-9.27-.27-6.75-5.49-8.65-11.4-4.39-18.64.44-.74.97-1.43,1.45-2.14,3.39-5.01,7.24-6.71,11.77-5.22,4.91,1.61,9.16,7.42,8.79,12.44"/>
        <path class="cls-5" d="M1706.06,856.35c.27-3.77-1.6-6.63-5.26-8.06-1.74-.68-3.43-1.06-5.07-1.18,3.27,3.67,6.66,7.24,10.12,10.72.09-.49.17-.98.21-1.49"/>
        <path class="cls-5" d="M2086.56,592.88c-6.31-23.63-16.03-46.67-29.14-69.14-13.11-22.46-28.78-42.54-47.01-60.23-18.23-17.68-40.4-31.89-66.5-42.59-26.1-10.71-54.05-16.06-83.83-16.06s-55.18,5.01-80.44,15.01c-23.39,9.27-43.88,21.57-61.55,36.82,21.3,25.31,31.98,57.37,31.98,96.22,0,34.92-8.76,65.12-26.28,90.61-3.48,5.06-7.29,10.02-11.41,14.9,0-.12-8.88,10.09-15.78,16.77-1.19,1.13-2.4,2.28-3.66,3.42-1.24,1.14-33.95,26.64-37.32,28.87-.04-.25-21.92,13.62-21.87,13.71-.39.24-.77.48-1.16.72-.94.58-1.88,1.15-2.81,1.73,3.19,9.84,6.84,20.14,11.04,30.8,5.07,12.87,10.38,24.85,15.72,35.9,2.09,3.97,4.26,7.93,6.56,11.86,9.54,16.27,20.43,31.23,32.63,44.91,1.64.12,3.33.5,5.07,1.18,3.66,1.42,5.53,4.29,5.26,8.06-.04.51-.12,1-.21,1.49,1.35,1.36,2.69,2.73,4.08,4.07,5.15,4.97,10.66,9.62,16.45,14.02,14.56,11.07,31.1,20.38,49.68,27.88,25.98,10.48,53.99,15.71,84.02,15.71,28.36,0,55.17-4.95,80.44-14.84,25.26-9.89,47.19-23.27,65.78-40.15,18.59-16.87,34.73-36.31,48.44-58.31,13.7-22,24.01-45.33,30.92-70.01,6.91-24.67,10.37-49.35,10.37-74.02,0-22.58-3.16-45.68-9.48-69.31M1749.2,881.1c-.97-.73-2.01-1.35-3.11-1.88,1.11.53,2.15,1.15,3.11,1.88M1742.54,877.93c-.28-.07-.56-.15-.85-.21.29.06.57.14.85.21M1945.89,707.23c-3.34,14.9-8.35,29.15-15.02,42.77-6.68,13.62-16.15,24.68-28.42,33.17-12.28,8.5-26.4,12.74-42.37,12.74s-29.31-4.01-41.47-12.04c-12.15-8.03-21.69-18.62-28.6-31.78-6.91-13.15-12.1-27.35-15.55-42.6-3.46-15.24-5.18-31.01-5.18-47.31,0-15.13,1.67-30.14,5.01-45.04,3.34-14.9,8.34-29.16,15.01-42.78,6.67-13.62,16.14-24.67,28.42-33.17,12.27-8.5,26.39-12.75,42.36-12.75s28.9,4.01,40.93,12.04c12.03,8.03,21.57,18.63,28.6,31.78,7.02,13.15,12.33,27.41,15.91,42.77,3.58,15.36,5.36,31.08,5.36,47.14,0,15.13-1.67,30.15-5,45.04"/>
        <path class="cls-3" d="M786.38,649.16c3.3,3.29,7.4,5.87,12.31,7.73,4.91,1.86,10.59,2.79,17.04,2.79,3.81,0,7.64-.35,11.49-1.07,3.85-.71,7.16-1.74,9.95-3.09l-2.64-12.92c-2.2.86-4.71,1.59-7.53,2.2-2.82.61-5.62.91-8.41.91-7.48,0-13.37-1.91-17.7-5.72-4.32-3.81-6.49-9.6-6.49-17.36s2.16-13.55,6.49-17.37c4.32-3.81,10.22-5.71,17.7-5.71,2.78,0,5.59.3,8.41.91,2.82.61,5.33,1.34,7.53,2.2l2.64-12.92c-2.78-1.35-6.1-2.38-9.95-3.09-3.85-.71-7.68-1.07-11.49-1.07-6.45,0-12.13.93-17.04,2.79-4.91,1.86-9.02,4.44-12.31,7.73-3.3,3.29-5.79,7.19-7.48,11.7-1.69,4.51-2.53,9.45-2.53,14.81s.84,10.31,2.53,14.82c1.69,4.51,4.18,8.41,7.48,11.7"/>
        <path class="cls-3" d="M879.49,659.68c9.75,0,17.35-2.4,22.81-7.19,5.46-4.79,8.19-11.41,8.19-19.86v-45.73h-18.03v46.27c0,4.08-1.1,7.19-3.3,9.34-2.2,2.15-5.43,3.22-9.67,3.22s-7.47-1.07-9.67-3.22c-2.2-2.15-3.3-5.26-3.3-9.34v-46.27h-18.03v45.73c0,8.45,2.73,15.07,8.19,19.86,5.46,4.8,13.06,7.19,22.81,7.19"/>
        <polygon class="cls-3" points="969.51 644.43 942.58 644.43 942.58 586.89 924.55 586.89 924.55 658.39 969.51 658.39 969.51 644.43"/>
        <polygon class="cls-3" points="987.76 658.39 1005.78 658.39 1005.78 600.85 1025.46 600.85 1025.46 586.89 968.08 586.89 968.08 600.85 987.76 600.85 987.76 658.39"/>
        <path class="cls-3" d="M1064.92,659.68c9.75,0,17.35-2.4,22.81-7.19,5.46-4.79,8.19-11.41,8.19-19.86v-45.73h-18.03v46.27c0,4.08-1.1,7.19-3.3,9.34-2.2,2.15-5.43,3.22-9.67,3.22s-7.47-1.07-9.67-3.22c-2.2-2.15-3.3-5.26-3.3-9.34v-46.27h-18.03v45.73c0,8.45,2.73,15.07,8.19,19.86,5.46,4.8,13.06,7.19,22.81,7.19"/>
        <path class="cls-3" d="M1128.02,633.59h3.3l20.12,24.8h22.2l-24.07-28.13c4.91-1.86,8.74-4.58,11.49-8.16,2.75-3.58,4.12-7.76,4.12-12.56,0-3.86-.81-7.21-2.42-10.04-1.61-2.83-3.85-5.17-6.7-7.03-2.86-1.86-6.23-3.26-10.11-4.19-3.89-.93-8.1-1.4-12.64-1.4h-23.3v71.5h18.03v-24.8ZM1128.02,600.42h5.17c4.62,0,8.21.77,10.77,2.31,2.56,1.54,3.85,3.92,3.85,7.14s-1.36,5.98-4.07,7.84c-2.71,1.86-6.48,2.79-11.32,2.79h-4.4v-20.08Z"/>
        <path class="cls-3" d="M1199.13,644.54h28.03l4.62,13.85h18.58l-27.26-71.5h-19.79l-27.26,71.5h18.58l4.51-13.85ZM1213.21,600.42l9.34,30.17h-18.8l9.45-30.17Z"/>
        <path class="cls-5" d="M816.06,767.97c-1.19,2.04-4.42,2.93-6.73,4.35-1.08-2.2-2.73-4.3-3.09-6.61-.56-3.48-.38-7.11-.23-10.66.5-11.62,1.83-23.25,1.51-34.84-.33-12.08-9.53-20.3-21.04-20.25-.28.79-.84,1.66-.87,2.54-.76,19.91-2.24,39.84-1.79,59.73.17,7.4,3.89,15.23,7.73,21.91,6.11,10.62,18.1,12.67,28.24,5.55,4.08-2.87,8.03-6.47,10.71-10.57,6.67-10.18,12.91-20.67,18.68-31.36,5.17-9.57,9.47-19.59,14.35-29.83,14.4,12.27,29.99,16.8,48.66,11.28-.99,4.28-2.01,7.42-2.41,10.64-1.85,14.81-4.11,29.6-5.06,44.46-.68,10.68,5.9,20.88,14.02,22.97,10.42,2.68,19.26-.91,26.03-8.93,11.31-13.38,22.45-26.89,33.66-40.35,1.44-1.73,2.88-3.47,4.43-5.34,2.45,9.31,3.75,18.33,7.2,26.48,7.11,16.8,23.28,19.61,36.13,6.48,5.49-5.61,10.39-12.09,14.19-18.89,7.32-13.12,13.68-26.75,20.43-40.17,1.34-2.66,2.66-5.33,3.58-7.19,8.22,3.93,15.26,8.66,23.03,10.61,7.68,1.93,16.09,1.05,23.69,1.37-3.18,10.46-7.06,21.45-9.83,32.7-4.61,18.66,10.21,33.25,28.75,28.45,5.07-1.31,9.85-3.96,14.53-6.41,3.15-1.65,5.9-4.02,9.13-6.29,1.2,2.76,2.05,4.95,3.08,7.05,6.09,12.38,17.86,17.32,30.98,12.36,6.3-2.38,12.5-5.44,18.06-9.17,20.34-13.65,33.25-33.06,42.95-54.74.89-2,.73-4.45,1.06-6.68-.57-.43-1.14-.86-1.7-1.28-3.65,2.83-7.71,5.28-10.85,8.57-7.49,7.81-14.19,16.35-21.87,23.96-6.79,6.74-14.03,13.25-21.96,18.61-3.34,2.25-10.08,3.04-13.22,1.19-2.43-1.44-1.84-8.01-2.2-12.33-.13-1.53.77-3.23,1.47-4.73,2.82-6.05,5.85-12.01,8.61-18.09,3.61-7.93,1.73-14.95-4.79-18.75-6.4-3.72-11.95-1.88-18.1,5.39-11.16,13.18-22.43,26.3-33.93,39.2-2.29,2.56-5.85,4.03-8.83,6.01-.72-.51-1.44-1.02-2.16-1.54.79-4.04.9-8.35,2.48-12.06,8.27-19.48,19.34-37.3,34.88-52.17,2.9-2.78,6.44-5.12,10.07-6.93,5.85-2.92,10.37-.82,13.2,4.77,1.2,2.37,2.1,4.88,3.27,7.65,9.22-7.83,9.21-18.48.63-25.15-6.89-5.36-14.87-6.68-23.46-4.99-16.53,3.26-28.65,12.86-37.8,26.03-3.44,4.95-7.61,7-13.16,7.31-4.12.23-8.31.41-12.41.02-18.16-1.73-27.59-10.97-28.55-26.65-.21-3.43-2.21-8.25-4.93-9.72-4.75-2.57-9.62.24-12.39,4.64-3.68,5.84-7.48,11.77-9.98,18.13-6.27,15.94-11.66,32.21-17.78,48.21-2.1,5.51-5.09,10.74-8.19,15.8-.87,1.41-3.65,2.45-5.44,2.3-1.06-.09-2.53-2.75-2.71-4.37-.51-4.45-.75-8.98-.53-13.46.51-10.43,1.76-20.85,1.94-31.28.19-10.87-6.34-19.58-15.62-22.7-4.5-1.51-6.95-.69-7.26,4.4-.5,8.3-1.08,16.6-2.03,24.86-.3,2.66-1.21,5.79-2.99,7.66-16.08,16.9-32.37,33.6-48.73,50.25-1.77,1.8-4.36,2.83-6.57,4.21-.8-4.36-.24-7.55.65-10.64,4.86-16.91,9.84-33.78,14.67-50.7,2.28-7.96,1.43-15.57-3.53-22.46-6.66-9.25-14.46-9.04-17.93,1.45-3.03,9.16-9.01,10.82-17.03,10.27-5.31-.36-10.73-.85-15.81-2.27-12.56-3.52-18.76-11.34-18.99-23.87-.09-4.82-.04-9.39-5.67-10.84-5.76-1.49-10.04,1.48-12.79,6.1-3.54,5.94-7.19,11.93-9.69,18.3-5.73,14.62-10.67,29.53-16.2,44.22-2.17,5.77-4.72,11.47-7.83,16.8"/>
        <path class="cls-5" d="M932.9,677.39c-1,5.14.35,10.71.73,16.1,1.43.26,2.86.51,4.29.77,2.58-4.57,5.56-8.98,7.61-13.77,1.69-3.96.36-8.52-4.28-8.72-2.83-.12-7.88,3.19-8.35,5.63"/>
        <path class="cls-6" d="M634.95,645.6c-.11,33.08-8.01,58.23-28.84,78.62-2.25,2.2-4.27,4.72-5.94,7.37-7.36,11.68-5.08,21.66,6.87,29.03,9.02,5.56,17.78,11.33,24.65,19.47,21.86,25.92,21.19,73.69-1.42,98.99-4.11,4.6-8.78,8.47-14.64,10.82-8.21,3.3-12.41.69-12.61-7.86-.14-6.15,1.54-11.98,3.74-17.61,6.57-16.87,4.68-33.1-3.35-49-3.99-7.88-9.87-13.76-18.34-17.05-13.28-5.16-21.71-3.22-31.04,7.43-15.18,17.35-22.19,38.5-28.81,59.78-2.81,9.04-6.35,17.75-10.9,26.07-3.65,6.68-8.31,12.65-14.41,17.29-6.78,5.16-14.14,9.52-23.1,5.13-7.52-3.69-12.26-15.14-10.75-24.51,1.21-7.56,4.68-14.16,8.8-20.53,11.66-18.07,27.02-33.22,40.97-49.47,18.58-21.65,17.73-33.45-4.44-51.68-4.51-3.71-9.6-6.78-14.53-9.99-27.16-17.71-40.04-57.53-27.87-85.99,2.34-5.48,5.73-10.13,10.31-13.94,7.42-6.19,15.2-4,17.19,5.38,3,14.15,5.11,28.48,7.78,42.7,1.16,6.16,2.46,12.32,4.25,18.33,4.29,14.37,17.27,20.17,31.59,14.43,10.93-4.39,18.84-12.25,25.58-21.36,15.71-21.23,22.7-45.82,28.5-70.87,1.74-7.51,3.77-14.98,6.01-22.37,1.33-4.39,3.49-8.54,6.64-12.03,7.46-8.23,18.28-6.59,22.28,3.59,4.39,11.15,5.98,22.84,5.84,29.8"/>
        <path class="cls-3" d="M450.65,692.94c-.29,9.19,1.3,20.87-2.95,32.08-2.1,5.53-4.65,10.63-10.39,13.53-10.15,5.12-19.97.03-20.91-11.08-.78-9.28,1.75-18.19,3.68-27.15,3.93-18.19,7.22-36.45,6.67-55.17-.3-10.38-3.88-15.09-14.41-17.02-19.99-3.67-39.82-2.64-59.45,2.69-16.19,4.4-32.36,8.78-49.15,10.75-12.54,1.47-24.69.3-36.62-3.28-10.41-3.13-17.08-11.52-16.88-20.51.23-10.33,6.88-17.6,18.44-20.68,13.22-3.53,26.55-1.93,39.77-.72,34.94,3.19,68.52-1.77,100.78-15.15,9.97-4.13,16.82-11.59,21.72-20.9,15.05-28.6,27.5-58.24,38.1-88.67,5.34-15.33,13.33-28.96,27.49-38.47,14.75-9.91,28.25-5.04,32.7,11.91,4.18,15.92-.39,29.98-9.06,43.31-9.75,14.99-22.56,27.4-35.18,39.99-12.83,12.79-22.94,27.11-26.26,45.24-2.94,16.11,3.64,23.73,20.25,22.2,11.52-1.06,22.57-5.03,34.43-4.56,17.92.7,27.29,7.87,31.27,24.96,2.95,12.69,3.15,25.36-.18,37.97-2.96,11.22-11.19,13.29-19.64,5.26-5.18-4.92-7.74-11.21-9.86-17.61-9.54-28.73-34.55-25.27-49.25-9.79-10.9,11.48-14.17,25.06-15.06,39.73-.38,6.25-.06,12.54-.06,21.14"/>
        <path class="cls-5" d="M650.7,648.31c.85-12.72,2.7-25.41-.22-38.15-4.65-20.34-16.88-33.94-37.23-40.4-10.91-3.46-16.29-.27-18.87,10.62-1.87,7.88-1,15.86-1,23.79-.01,9-1.01,17.82-3.6,26.43-2.61,8.66-7.64,12.42-15.3,11.92-7.33-.48-11.27-4.61-13.25-13.26-2.39-10.42-.12-20.63,1.07-30.89,1.43-12.38,5.16-24.62,2.2-37.26-1.34-5.75-2.64-11.73-9.21-13.77-6.9-2.14-11.74,1.81-16.09,6.49-6.3,6.79-12.6,13.6-19.11,20.19-8.02,8.12-18.19,10.36-29.27,9.06-7.09-.83-10.94-5.35-10.91-12.34.04-9.26,4.57-16.73,10.81-23.15,22.19-22.82,47.54-39.89,81.12-41.99,7.48-.47,14.19-3.88,20.81-7.27,31.72-16.27,63.54-32.38,95.23-48.69,15.23-7.84,30.16-8.31,45.04.69,10.99,6.63,14.38,16.57,13.3,28.56-.96,10.64-6.86,17.76-16.46,22.33-8.93,4.25-18.54,5.05-28.2,4.93-22.57-.29-44.93,1.38-67,6.13-6.26,1.34-12.12,3.08-13.19,10.59-1.07,7.49,3.08,11.75,9.41,14.69,8.26,3.83,16.43,7.87,24.81,11.42,20.76,8.8,29.85,25,31.16,46.17,1.33,21.46-2.29,42.28-9.05,62.65-3.25,9.78-7.64,13.64-14.43,12.75-7.46-.98-12.01-6.91-12.55-16.43-.11-1.92-.02-3.86-.02-5.79"/>
        <path class="cls-3" d="M368.75,541.12c-.06-13.49,4.96-21.35,15.32-24.1,11.22-2.98,26.58,2.7,32.3,12.53,6.72,11.54,7.73,23.69,2.06,36-3.38,7.35-9.74,11.61-17.66,10.79-19.61-2.02-30.71-10.76-32.01-29.45-.13-1.91-.02-3.85-.02-5.77"/>
        <path class="cls-5" d="M553.95,474.85c-.02-18.09,9.57-29.73,26.69-33.29,8.65-1.8,15.81,1.27,20.12,8.64,11.99,20.5-1.34,47.13-25.25,50.45-9.16,1.27-15.15-2.03-18.93-10.39-2.35-5.21-2.83-10.7-2.62-15.41"/>
        <path class="cls-6" d="M542.65,675.21c12.98,0,19.02,5.71,19.49,18.38.59,16.01-8.12,29.29-22.27,33.95-11.34,3.73-20.88-.93-24.56-12-6.99-21.06,6.07-40.34,27.34-40.32"/>
      </g>
    </g>
  </g>
</svg>