<?xml version="1.0" encoding="UTF-8"?>
<svg xmlns="http://www.w3.org/2000/svg" version="1.1" viewBox="0 0 2784.15 897.69">
  <defs>
    <style>
      .cls-1 {
        fill: #1e120d;
      }

      .cls-2, .cls-3, .cls-4, .cls-5, .cls-6 {
        fill-rule: evenodd;
      }

      .cls-2, .cls-7 {
        fill: #fff;
      }

      .cls-3 {
        fill: #46783a;
      }

      .cls-8, .cls-6 {
        fill: #a6a4aa;
      }

      .cls-9 {
        fill: #11160f;
      }

      .cls-4 {
        fill: #c1a000;
      }

      .cls-10, .cls-5 {
        fill: #00528e;
      }
    </style>
  </defs>
  <!-- Generator: Adobe Illustrator 28.7.2, SVG Export Plug-In . SVG Version: 1.2.0 Build 154)  -->
  <g>
    <g id="Camada_1">
      <g>
        <g>
          <g>
            <path class="cls-5" d="M996.79,458.64c0-92.29,54.74-167.12,122.29-167.12s122.28,74.83,122.28,167.12-54.74,167.08-122.28,167.08-122.29-74.79-122.29-167.08"/>
            <path class="cls-3" d="M1221.39,539.82l-204.38-.02c-8.36-20.08-13.71-42.82-15.19-67.05h234.81c-1.5,24.26-6.87,47-15.24,67.07"/>
            <path class="cls-6" d="M1236.63,472.62l-234.81.37c-.28-4.66-.44-9.36-.44-14.14,0-13.54,1.22-26.69,3.49-39.27l26.64,9.67c6.95,0,10.28-10.26,10.28-10.26l24.37-47.33c12.06-26.02,20.78-9.92,20.78-9.92,0,0,4.37-4.19,9.27-6.59,6.59-4.19,12.04,5.08,12.04,5.08,0,0,1.34-6.3,11.45-7.57,2.25-.28,7.51-37.8,7.51-37.8,0,0,1.22-13.88,6.52-17.42,2.58.44,5.17,1.01,7.7,1.68,3.54,3.85,3.51,10.59,3.51,10.59l4.37,73.12,21.44.39,32.32-38.53c21.01,29.41,33.98,69.74,33.98,114.15,0,4.65-.13,9.22-.42,13.77"/>
            <path class="cls-2" d="M1111.42,471.9h-109.14c.07,1.32.18,2.63.29,3.93h94.12l14.73-3.93ZM1142.83,475.83h94.12c.08-1.3.18-2.61.26-3.93h-109.06l14.68,3.93Z"/>
            <path class="cls-3" d="M1213.8,613.34c1.61-1.47,3.87-1.71,5.71-.83-3.78-3.34-6.44-8.17-7.14-13.8-.8-6.36,1.03-12.36,4.63-16.77,4.53,3.33,7.8,8.61,8.65,14.87.43-.67.89-1.33,1.39-1.98,3.17-4.1,7.42-6.82,11.93-8-.96-1.53-1.06-3.54-.1-5.23.86-1.5,2.36-2.39,3.97-2.53-.25-.53-.4-1.11-.48-1.68-1.45.67-3.19.65-4.7-.21-2.47-1.4-3.3-4.52-1.91-6.99,1.41-2.44,4.55-3.31,7-1.89,1.51.86,2.41,2.34,2.56,3.94.5-.25,1.06-.39,1.61-.44-.65-1.47-.63-3.17.22-4.66,1.03-1.77,2.97-2.75,4.93-2.53-4.4-2.21-8.18-6.04-10.39-11.1-2.54-5.88-2.44-12.18-.23-17.38,5.28,1.92,9.89,6.06,12.45,11.83.22-.76.47-1.52.78-2.28,1.99-5.05,5.54-8.95,9.77-11.33-1.64-1.19-2.47-3.33-1.91-5.42.45-1.69,1.69-2.95,3.17-3.49-.35-.47-.65-.97-.86-1.52-1.23,1.02-2.94,1.49-4.61,1.02-2.74-.71-4.37-3.51-3.65-6.25.73-2.75,3.55-4.39,6.27-3.66,1.68.46,2.92,1.66,3.5,3.18.43-.35.91-.65,1.43-.85-1-1.25-1.4-2.9-.98-4.56.58-2.19,2.52-3.68,4.68-3.79-4.99-1.01-9.74-3.86-13.18-8.39-3.88-5.08-5.31-11.22-4.38-16.8,5.56.58,11.05,3.53,14.92,8.51.03-.78.1-1.58.21-2.39.7-5.26,3.12-9.84,6.54-13.11-1.66-.89-2.77-2.64-2.72-4.66.03-1.73.93-3.25,2.27-4.12-.48-.35-.88-.78-1.21-1.26-.95,1.28-2.51,2.11-4.22,2.07-2.84-.05-5.08-2.4-5-5.24.05-2.81,2.39-5.05,5.23-5,1.72.05,3.22.93,4.13,2.26.33-.45.73-.85,1.21-1.17-1.26-.97-2.07-2.48-2.04-4.19.08-2.21,1.49-4.05,3.47-4.73-4.98.08-10.14-1.66-14.44-5.21-4.93-4.1-7.67-9.76-8.05-15.42,5.56-.68,11.57.96,16.46,4.95-.16-.77-.25-1.58-.33-2.38-.48-5.16.78-10.04,3.25-14-1.79-.49-3.25-1.98-3.62-3.95-.33-1.71.22-3.37,1.33-4.53-.53-.22-1.01-.55-1.43-.96-.66,1.46-2.02,2.59-3.7,2.92-2.79.53-5.45-1.29-6.01-4.05-.53-2.79,1.28-5.48,4.08-6.01,1.68-.34,3.34.22,4.5,1.33.22-.51.56-.98.93-1.41-1.43-.65-2.54-1.98-2.87-3.65-.35-1.93.38-3.79,1.81-4.96-4.73,1.05-9.98.48-14.81-1.96-5.74-2.9-9.69-7.8-11.3-13.24,5.28-1.88,11.49-1.66,17.16,1.16-.33-.73-.63-1.49-.89-2.24-1.71-5.23-1.44-10.6.38-15.17-2.12.23-4.21-.91-5.16-2.92-.73-1.56-.6-3.32.2-4.7-.58-.1-1.13-.3-1.63-.61-.3,1.58-1.31,3.02-2.87,3.75-2.57,1.21-5.61.1-6.82-2.46-1.2-2.54-.1-5.61,2.46-6.79,1.56-.76,3.3-.63,4.71.17.1-.55.27-1.11.55-1.59-1.56-.3-2.94-1.31-3.67-2.87-.93-1.97-.48-4.23.96-5.71-4.28,2.36-9.54,3.32-14.92,2.29-6.29-1.15-11.45-4.78-14.52-9.55,4.53-3.28,10.57-4.79,16.78-3.65-.5-.61-.98-1.26-1.46-1.91-3.04-4.5-4.3-9.64-3.87-14.47-1.91.71-4.15.2-5.61-1.41-1.13-1.28-1.54-2.99-1.16-4.58-.58.08-1.16.05-1.74-.08.18,1.58-.37,3.24-1.68,4.4-2.11,1.89-5.34,1.69-7.22-.43-1.89-2.09-1.71-5.34.4-7.22,1.28-1.15,2.99-1.53,4.55-1.18-.05-.56-.03-1.11.1-1.66-1.58.15-3.22-.43-4.35-1.68-1.13-1.28-1.51-2.95-1.18-4.5-3.29,3.44-7.9,5.89-13.18,6.58-6.37.86-12.4-.98-16.78-4.55,3.27-4.53,8.53-7.82,14.8-8.7-.68-.43-1.33-.87-1.99-1.36-5.08-3.9-8.05-9.46-8.65-15.1,5.59-.9,11.73.53,16.81,4.41.65.5,1.25,1.03,1.83,1.58-.73-6.23,1.08-12.15,4.6-16.48,4.58,3.32,7.9,8.67,8.75,15,.73,5.56-.58,10.85-3.3,15.04,1.99-.9,4.41-.45,5.94,1.26,1.13,1.25,1.51,2.94,1.19,4.5.53-.05,1.05-.02,1.58.08-.15-1.57.42-3.18,1.68-4.3,2.11-1.89,5.34-1.69,7.22.43,1.89,2.08,1.71,5.33-.41,7.22-1.26,1.13-2.94,1.5-4.48,1.18.05.56.03,1.11-.1,1.64,1.59-.18,3.25.4,4.4,1.68,1.56,1.74,1.71,4.25.53,6.12,4.78,1.33,9.26,4.37,12.38,8.98.47.68.91,1.36,1.28,2.05,1.24-6.16,4.81-11.18,9.51-14.21,3.29,4.58,4.81,10.7,3.62,16.99-1.15,6.08-4.58,11.12-9.13,14.21,2.39-.69,4.98.43,6.09,2.74.7,1.57.6,3.27-.18,4.65.53.1,1.03.28,1.49.53.32-1.54,1.34-2.9,2.87-3.62,2.54-1.22,5.61-.11,6.79,2.46,1.21,2.56.1,5.61-2.44,6.81-1.54.71-3.24.61-4.63-.14-.13.55-.3,1.06-.58,1.52,1.58.28,3.02,1.31,3.75,2.87,1,2.14.4,4.6-1.31,6.07,4.3,2.58,7.8,6.81,9.56,12.17.26.76.48,1.55.63,2.34,2.92-5.58,7.77-9.43,13.11-11.01,1.91,5.33,1.64,11.62-1.25,17.32-2.59,5.13-6.82,8.84-11.6,10.72,2.16.26,4.02,1.87,4.46,4.1.32,1.69-.21,3.33-1.29,4.48.48.23.91.53,1.31.88.67-1.41,1.98-2.48,3.64-2.82,2.77-.55,5.46,1.28,5.99,4.06.56,2.76-1.26,5.45-4.05,6.01-1.66.31-3.3-.2-4.46-1.28-.22.5-.55.95-.93,1.35,1.48.66,2.62,1.99,2.94,3.7.4,2.11-.55,4.2-2.29,5.29,3.27,3.42,5.48,8.07,5.96,13.33.07.81.1,1.64.1,2.44,4.08-4.78,9.66-7.47,15.22-7.82.66,5.61-1,11.69-5.08,16.6-3.85,4.63-9.08,7.35-14.39,7.95,2.29.55,4,2.65,3.95,5.11-.05,1.71-.91,3.19-2.22,4.1.43.33.78.7,1.08,1.13.96-1.24,2.49-2.02,4.18-1.99,2.82.08,5.06,2.41,5.01,5.23-.08,2.84-2.42,5.08-5.24,5-1.71-.02-3.17-.88-4.07-2.19-.35.46-.76.84-1.21,1.15,1.28.94,2.12,2.49,2.09,4.22-.05,2.3-1.58,4.21-3.67,4.81,2.47,4.1,3.62,9.18,2.91,14.49-.1.81-.25,1.61-.45,2.39,5.03-3.75,11.07-5.09,16.58-4.19-.61,5.61-3.58,11.17-8.65,15.05-4.86,3.69-10.64,5.15-16.03,4.49,2.29.99,3.57,3.52,2.92,6.02-.45,1.64-1.64,2.89-3.12,3.47.35.39.6.85.8,1.36,1.23-.99,2.89-1.38,4.5-.97,2.75.74,4.38,3.53,3.65,6.27-.73,2.73-3.52,4.36-6.26,3.62-1.64-.43-2.88-1.61-3.45-3.06-.43.34-.9.6-1.43.8,1.03,1.22,1.48,2.94,1.03,4.6-.6,2.24-2.59,3.71-4.78,3.79,1.58,4.68,1.53,10.09-.47,15.25-.3.75-.66,1.47-1.01,2.22,5.79-2.44,11.98-2.32,17.09-.13-1.94,5.33-6.14,9.99-12.01,12.52-5.45,2.4-11.27,2.47-16.25.71,1.76,1.55,2.24,4.2,1,6.31-.83,1.49-2.31,2.39-3.87,2.57.2.48.35.99.4,1.51,1.44-.64,3.15-.61,4.61.25,2.47,1.39,3.32,4.53,1.91,6.97-1.41,2.47-4.52,3.32-6.99,1.92-1.46-.83-2.37-2.3-2.54-3.85-.5.21-1.03.35-1.58.4.68,1.45.68,3.22-.2,4.7-1.11,1.94-3.27,2.88-5.36,2.52.08,4.73-1.48,9.63-4.73,13.82-.5.67-1.03,1.28-1.58,1.85,6.23-.71,12.15,1.13,16.45,4.67-3.34,4.56-8.7,7.88-15.05,8.69-6.01.75-11.75-.86-16.05-4.11,1.51,2.09,1.24,5-.7,6.78-1.26,1.15-2.94,1.56-4.48,1.25.05.5.03,1.05-.07,1.55,1.56-.14,3.17.41,4.3,1.64,1.91,2.1,1.76,5.34-.33,7.25-2.09,1.91-5.31,1.76-7.22-.33-1.16-1.26-1.56-2.92-1.24-4.45-.55.05-1.1.02-1.64-.11.21,1.61-.35,3.28-1.63,4.44-2.1,1.91-5.34,1.75-7.25-.33-1.91-2.09-1.76-5.33.32-7.25,1.29-1.16,3-1.56,4.55-1.2-.05-.58-.02-1.16.08-1.74-1.59.2-3.25-.36-4.4-1.64-1.91-2.08-1.76-5.33.32-7.22,2.09-1.92,5.31-1.76,7.22.33,1.16,1.26,1.57,2.97,1.24,4.54.55-.06,1.13-.06,1.66.07-.18-1.58.37-3.22,1.64-4.36"/>
            <path class="cls-3" d="M1006.71,299.38c-10.51,12.24-19.82,26.25-27.59,41.49l8.5-31.08c.13-.44-.08-.91-.49-1.09l-7.91-3.51c-.43-.18-.92-.03-1.16.38l-21.54,38.27c-.24.38-.13.9.26,1.18.38.26.9.21,1.21-.15,0,0,15.36-17.9,18.35-21.42l-2.1,27.55c-1.21,2.69-2.35,5.38-3.49,8.11-6.59,16.23-11.52,33.56-14.73,51.44l-.57-33.56c-.02-.44-.36-.83-.8-.88l-8.55-1.16c-.49-.05-.9.23-1.03.7l-9.92,42.76c-.1.46.16.93.6,1.08.44.15.93-.08,1.11-.49,0,0,9.69-21.49,11.6-25.71l5.89,27.85c-1.7,12.43-2.58,25.06-2.58,37.69,0,6.93.26,13.8.75,20.56l-8.76-32.09c-.13-.44-.54-.69-.98-.65l-8.6.99c-.47.05-.8.43-.8.92l.93,43.9c0,.46.36.85.82.88.47.03.91-.29.99-.75,0,0,4.08-23.22,4.88-27.77l12.53,25.43c2.27,20.15,6.77,39.66,13.41,58.32l-16.9-28.29c-.23-.39-.72-.54-1.14-.39l-8.01,3.27c-.44.16-.66.65-.52,1.1l12.69,42.03c.13.47.59.72,1.06.65.42-.11.73-.46.73-.91v-.07s-2.33-23.5-2.77-28.07l18.81,20.98c7.51,18.42,17.17,35.44,28.49,50.36l-24.28-20.88c-.34-.29-.85-.29-1.18,0l-6.57,5.63c-.36.31-.41.83-.15,1.22l25.35,35.86c.26.39.77.5,1.19.26.28-.15.47-.46.47-.78,0-.12-.03-.26-.08-.38,0,0-9.61-21.52-11.5-25.73l23.84,13.59c3.23,3.79,6.59,7.44,10.06,10.9,1.86,1.83,4.83,1.83,6.67-.03,1.86-1.84,1.83-4.83,0-6.66-3.65-3.63-7.16-7.44-10.55-11.47l-2.06-22.4c3.04,3.57,18.31,21.24,18.31,21.24.29.33.83.41,1.22.13.39-.26.49-.8.26-1.18l-22.22-38c-.23-.4-.7-.54-1.11-.4l-8.08,3.21c-.47.18-.7.67-.54,1.1l9.24,30.1c-11.73-15.26-21.67-32.97-29.22-52.17l4.52-23.51c1.98,4.13,12.45,25.79,12.45,25.79.21.44.69.62,1.13.46.44-.16.7-.61.57-1.08l-11.16-42.55c-.11-.44-.52-.73-.99-.67l-8.65.88c-.46.05-.83.47-.8.93l.26,32.6c-6.64-18.66-11.03-38.22-13.13-58.43l10.57-22.14c.88,4.5,5.5,28.15,5.5,28.15.11.45.52.76.99.71.46-.05.83-.43.83-.91v-44c0-.46-.34-.83-.78-.9l-8.6-1.32c-.47-.08-.9.21-1.01.67l-8.16,32.19c-.52-6.74-.77-13.54-.77-20.44,0-13.12.98-26.09,2.84-38.75l15.38-18.81c-.21,4.58-1.3,28.6-1.3,28.6v.05c0,.46.31.82.78.91.46.08.9-.23,1.01-.7l10.44-42.74c.11-.44-.13-.87-.54-1.06l-8.04-3.33c-.44-.18-.93,0-1.14.42l-15.29,28.81c3.8-21.16,10.13-41.37,18.71-59.84l20.25-12.99c-1.63,4.28-10.13,26.79-10.13,26.79-.05.11-.05.24-.05.34,0,.34.18.65.49.8.44.21.93.08,1.19-.33l23.18-37.42c.24-.35.16-.88-.18-1.16l-6.61-5.65c-.37-.31-.88-.29-1.24.05l-23.61,22.79c7.5-14.8,16.46-28.4,26.77-40.33l33.45-28.73c.18-.16.21-.42.08-.63-.15-.18-.41-.23-.62-.13,0,0-9.9,5.66-17.49,9.97l22.01-28.23c.15-.19.13-.47-.05-.63-.18-.15-.44-.15-.62,0l-25.73,24.55c3.51-7.93,7.99-18.09,7.99-18.09.1-.21.02-.47-.19-.59-.2-.11-.46-.06-.59.15l-25.66,36.43.05.03Z"/>
            <path class="cls-4" d="M1119.22,621.52h0c-64.98,0-117.84-72.96-117.84-162.67s52.86-162.65,117.84-162.65,117.82,72.97,117.82,162.65-52.86,162.67-117.82,162.67M1119.22,287.47c-69.74,0-126.45,76.89-126.45,171.38s56.71,171.4,126.45,171.4,126.43-76.89,126.43-171.4-56.72-171.38-126.43-171.38"/>
            <polygon class="cls-2" points="1096.69 475.83 1141.82 475.83 1141.82 471.9 1099.64 471.9 1096.69 475.83"/>
            <path class="cls-2" d="M1182.88,537.54c0,35.11-28.47,63.59-63.59,63.59s-63.59-28.47-63.59-63.59,28.47-63.58,63.59-63.58,63.59,28.47,63.59,63.58"/>
            <path class="cls-8" d="M1065.51,542.24h0c-.06-1.01-.35-1.46-1.3-1.4-.98.06-1.21.52-1.14,1.57l.13,2.19,2.45-.16-.14-2.2ZM1067.14,542.45l.12,1.89,2.81-.17.12,1.82-8.46.53-.26-4.09c-.17-2.67.93-3.37,2.56-3.47,1.16-.08,2.26.23,2.8,1.61l2.91-1.86.13,2-2.71,1.74Z"/>
            <polygon class="cls-8" points="1061.73 532.18 1062.83 525.9 1064.5 526.19 1063.72 530.62 1065.35 530.9 1066.11 526.59 1067.72 526.87 1066.96 531.19 1068.8 531.51 1069.59 527.04 1071.19 527.32 1070.08 533.65 1061.73 532.18"/>
            <polygon class="cls-8" points="1064.78 519.03 1065.8 516.8 1072.03 517.13 1067.73 512.62 1068.74 510.4 1076.45 513.95 1075.69 515.61 1070.54 513.24 1074.73 517.68 1074.14 518.97 1068.08 518.67 1073.19 521.03 1072.49 522.57 1064.78 519.03"/>
            <path class="cls-8" d="M1078.76,503.84h0c.68-.81.7-1.4-.06-2.03-.78-.65-1.3-.52-2.01.33l-1.42,1.69,2.05,1.72,1.43-1.71ZM1072.87,504.2l2.62-3.12c1.68-2,3.02-1.89,4.35-.77,1.34,1.11,1.86,2.51.1,4.62l-1.38,1.65,1.99,1.67-1.18,1.4-6.5-5.45Z"/>
            <path class="cls-8" d="M1085.6,498.2l-3.08-4.25,1.52-1.1,2.94,4.05c.74,1.02,1.41,1.42,2.8.41,1.38-1,1.25-1.74.49-2.8l-2.94-4.05,1.47-1.07,3.08,4.24c.96,1.31,1.75,2.93-1.14,5.03-2.9,2.1-4.18.84-5.14-.47"/>
            <path class="cls-8" d="M1101.61,490.86h0c.89-.35,1.16-.74.9-1.39-.26-.65-.7-.74-1.6-.39l-2.13.85.71,1.77,2.13-.85ZM1100.19,487.62h0c.93-.37,1.04-.77.82-1.32-.22-.55-.6-.7-1.48-.35l-2.01.8.66,1.67,2.01-.8ZM1095.21,485.94l3.66-1.45c2.1-.83,3.22-.6,3.79.85.36.91.26,1.62-.36,2.16,1.01-.14,1.59.32,2.03,1.43.68,1.71-.25,2.61-2.36,3.45l-3.64,1.44-3.12-7.88Z"/>
            <polygon class="cls-8" points="1108.59 481.58 1110.45 481.3 1111.49 488.08 1115.61 487.44 1115.86 489.05 1109.89 489.97 1108.59 481.58"/>
            <rect class="cls-8" x="1117.41" y="483.82" width="8.48" height="1.86" transform="translate(608.37 1593.63) rotate(-88.53)"/>
            <path class="cls-8" d="M1128.38,485.21c.68-2.97,2.59-3.89,5.33-3.26,1.5.34,2.37.96,2.97,1.93l-1.55.97c-.39-.6-.91-1.03-1.82-1.23-1.76-.41-2.71.32-3.11,2.03-.38,1.66.03,2.75,1.93,3.19,1.07.24,1.66,0,2.29-.36l.93,1.46c-.81.53-1.83.93-3.71.51-3.09-.71-3.9-2.5-3.28-5.23"/>
            <path class="cls-8" d="M1145.06,492.2h0l.32-3.61-2.69,2.43,2.38,1.18ZM1145.56,486.2l1.7.85-.74,9.17-1.74-.87.13-1.49-3.44-1.71-1.11,1-1.64-.81,6.85-6.13Z"/>
            <polygon class="cls-8" points="1155.92 492.4 1157.75 494.03 1155.59 499.88 1161.17 497.1 1162.98 498.73 1157.32 505.04 1155.96 503.81 1159.74 499.6 1154.26 502.3 1153.21 501.35 1155.28 495.65 1151.52 499.84 1150.26 498.7 1155.92 492.4"/>
            <path class="cls-8" d="M1173.38,529.24c3.06-.24,4.48,1.27,4.7,4.12.13,1.71-.29,2.79-.94,3.52l-1.39-1.18c.38-.47.7-1.05.61-2.22-.14-1.85-1.11-2.5-2.87-2.36-1.85.14-2.73.71-2.57,2.76.12,1.64.71,2.08,1.9,1.99h.18s-.18-2.38-.18-2.38l1.55-.12.32,4.21-1.38.1c-2.41.18-3.74-.68-3.97-3.79-.26-3.38,1.22-4.44,4.03-4.65"/>
            <polygon class="cls-8" points="1177.97 542.36 1177.11 548.68 1175.43 548.45 1176.04 543.99 1174.4 543.77 1173.81 548.11 1172.19 547.89 1172.78 543.55 1170.92 543.3 1170.31 547.8 1168.7 547.58 1169.56 541.22 1177.97 542.36"/>
            <path class="cls-8" d="M1170.7,556.31h0c-.34.96-.26,1.47.65,1.79.93.33,1.31,0,1.67-1l.73-2.06-2.31-.82-.74,2.08ZM1169.29,555.47l.64-1.79-2.65-.94.61-1.72,7.98,2.84-1.37,3.86c-.89,2.51-2.19,2.73-3.72,2.18-1.1-.39-1.98-1.11-1.93-2.58l-3.41.57.67-1.88,3.18-.53Z"/>
            <polygon class="cls-8" points="1171.04 565.59 1167.71 571.02 1166.26 570.14 1168.61 566.3 1167.21 565.44 1164.92 569.18 1163.52 568.33 1165.81 564.59 1164.21 563.61 1161.84 567.48 1160.45 566.64 1163.8 561.16 1171.04 565.59"/>
            <path class="cls-8" d="M1158.79,575.44h0c-.7.74-.83,1.25-.13,1.9.72.68,1.2.54,1.93-.25l1.5-1.59-1.78-1.67-1.51,1.61ZM1157.83,574.11l1.3-1.39-2.05-1.93,1.26-1.33,6.18,5.81-2.81,2.98c-1.83,1.94-3.1,1.63-4.29.51-.85-.8-1.37-1.81-.73-3.14l-3.36-.85,1.37-1.46,3.12.79Z"/>
            <polygon class="cls-8" points="1155.37 584.06 1150.13 587.7 1149.16 586.3 1152.86 583.74 1151.92 582.38 1148.32 584.89 1147.38 583.54 1150.98 581.04 1149.92 579.5 1146.18 582.09 1145.25 580.75 1150.53 577.09 1155.37 584.06"/>
            <path class="cls-8" d="M1125.09,591.97h0c-1.02.12-1.44.42-1.33,1.37.11.98.57,1.18,1.63,1.06l2.17-.25-.28-2.44-2.2.26ZM1125.21,590.33l1.89-.22-.32-2.8,1.82-.21.98,8.43-4.07.47c-2.65.31-3.42-.75-3.61-2.36-.13-1.16.12-2.28,1.46-2.88l-2.02-2.81,1.99-.23,1.88,2.62Z"/>
            <polygon class="cls-8" points="1116.92 596.35 1110.58 595.75 1110.74 594.06 1115.21 594.48 1115.36 592.85 1111 592.43 1111.16 590.8 1115.52 591.22 1115.69 589.35 1111.17 588.92 1111.33 587.31 1117.72 587.91 1116.92 596.35"/>
            <path class="cls-8" d="M1107.14,590.86c-.89,2.91-2.87,3.69-5.56,2.87-1.48-.45-2.3-1.13-2.83-2.15l1.62-.86c.35.64.84,1.1,1.72,1.37,1.73.53,2.73-.12,3.25-1.81.5-1.63.17-2.75-1.69-3.32-1.05-.32-1.66-.13-2.31.19l-.83-1.52c.85-.47,1.9-.79,3.74-.23,3.03.93,3.71,2.78,2.89,5.46"/>
            <polygon class="cls-8" points="1092.63 588.01 1095.2 589.42 1094.39 590.91 1087.58 587.17 1088.4 585.69 1090.97 587.1 1094.23 581.15 1095.89 582.06 1092.63 588.01"/>
            <polygon class="cls-8" points="1083.67 584.39 1078.8 580.27 1079.9 578.98 1083.33 581.89 1084.4 580.63 1081.05 577.8 1082.1 576.55 1085.45 579.37 1086.66 577.94 1083.19 575.01 1084.24 573.76 1089.15 577.91 1083.67 584.39"/>
            <path class="cls-5" d="M1163.14,528.63h0c.09,1.12.93,6.65.93,8.92,0,24.73-20.07,44.78-44.78,44.78-11.1,0-25.63-6.62-33.46-13.3l.65-.85c24.85-31.97,65.25-39,75.94-39.52l.71-.02ZM1119.3,492.74h0l3.14,9.29,9.81.14-7.86,5.86,2.89,9.31c.39-.12.77-.24,1.12-.36,12.39-3.74,23.5-4.44,27.95-4.59-8.05-11.85-21.66-19.65-37.05-19.65M1074.5,537.55c0-24.73,20.07-44.81,44.8-44.81l-3.16,9.29-9.81.14,7.86,5.86-2.91,9.37,8.02-5.66,7.91,5.6c-14.67,4.61-33.82,17.56-49.16,38.18-1.63-4.64-3.55-12.77-3.55-17.97"/>
            <path class="cls-8" d="M1091.02,550.19h0c-.77-.68-1.44-.52-2.17.32-.85.96-.62,1.48,0,2.03.62.54,1.22.64,2-.25.73-.83.81-1.53.17-2.1M1091.26,555.39l.51-.58c1.9-2.16,1.28-2.83.66-3.47.12.57-.18,1.25-.98,2.16-1.3,1.48-2.46,1.26-3.62.24-1.29-1.13-1.54-2.42-.02-4.14,1.58-1.81,3.07-1.77,4.77-.27,2.35,2.07,2.68,3.54.17,6.4l-.48.54-1.01-.88Z"/>
            <path class="cls-8" d="M1100.01,544.67h0l-2.91-1.48,1.12,3.07,1.79-1.58ZM1095.17,542.23l1.28-1.13,7.4,3.71-1.31,1.16-1.2-.61-2.59,2.3.46,1.27-1.24,1.1-2.8-7.78Z"/>
            <path class="cls-8" d="M1106.77,540.95h0c.7-.51.85-.91.47-1.41-.37-.51-.78-.49-1.48.02l-1.67,1.21,1.01,1.39,1.67-1.22ZM1104.81,538.44h0c.72-.53.73-.91.42-1.34-.32-.43-.68-.48-1.37.02l-1.58,1.14.95,1.31,1.57-1.14ZM1100.09,538.1l2.87-2.09c1.64-1.19,2.68-1.24,3.5-.11.52.72.59,1.35.17,1.96.85-.35,1.46-.07,2.1.8.97,1.34.37,2.34-1.29,3.54l-2.85,2.07-4.49-6.17Z"/>
            <path class="cls-8" d="M1112.05,534.46h0c.79-.47,1.03-.87.59-1.61-.45-.76-.9-.76-1.73-.27l-1.69.99,1.12,1.9,1.71-1.01ZM1112.55,535.85l-1.47.86,1.29,2.19-1.42.83-3.87-6.58,3.18-1.87c2.07-1.22,3.09-.62,3.83.64.53.91.73,1.91-.16,2.9l2.68,1.57-1.55.92-2.5-1.47Z"/>
            <rect class="cls-8" x="1116.23" y="528.13" width="1.68" height="7.64" transform="translate(-119.99 554.28) rotate(-26.5)"/>
            <polygon class="cls-8" points="1118.09 527.2 1119.65 526.54 1122.05 532.23 1125.51 530.77 1126.07 532.11 1121.06 534.23 1118.09 527.2"/>
            <polygon class="cls-8" points="1128.2 524.89 1126.96 525.28 1126.53 523.89 1129.28 523.03 1131.56 530.31 1130.05 530.79 1128.2 524.89"/>
            <path class="cls-8" d="M1137.44,526.44h0c-.17-.71-.7-1.03-1.89-.75-1.19.28-1.51.8-1.34,1.5.16.7.67,1.03,1.87.75,1.19-.28,1.52-.81,1.36-1.5M1136.49,523.27h0c-.13-.53-.53-.79-1.63-.53-1.1.26-1.34.66-1.21,1.2.13.54.52.81,1.62.54,1.1-.26,1.35-.67,1.22-1.22M1132.65,527.7c-.21-.88-.13-1.74.73-2.25-.85-.13-1.15-.67-1.31-1.36-.23-1,.12-2.04,2.51-2.6,2.41-.57,3.17.22,3.41,1.21.16.68.12,1.34-.58,1.8,1.01.08,1.47.8,1.68,1.69.29,1.23-.25,2.44-2.69,3.01-2.43.57-3.44-.27-3.73-1.51"/>
            <path class="cls-8" d="M1144.55,522.55h0c-.15-1.02-.75-1.33-1.85-1.17-1.26.18-1.44.73-1.32,1.55.12.81.52,1.28,1.68,1.11,1.09-.16,1.62-.64,1.5-1.49M1141.36,526.65l.77-.11c2.84-.41,2.81-1.32,2.76-2.2-.28.52-.96.83-2.16,1.01-1.95.28-2.69-.65-2.9-2.18-.24-1.69.41-2.83,2.68-3.16,2.38-.34,3.47.66,3.8,2.9.44,3.1-.26,4.43-4.04,4.97l-.71.1-.19-1.33Z"/>
            <path class="cls-8" d="M1147.61,525.88l2.35-2.3c1.09-1.07,1.46-1.47,1.42-2.13-.04-.61-.32-.87-1.36-.8-.74.05-1.59.32-2.03.6l-.81-1.2c.79-.47,1.48-.73,2.92-.82,1.82-.11,2.78.43,2.87,1.97.07,1.16-.45,1.89-1.61,3.02l-1.49,1.45,3.44-.21.08,1.33-5.72.36-.08-1.26Z"/>
            <polygon class="cls-4" points="1140.06 281.2 1122.71 268.94 1105.38 281.2 1111.68 260.91 1094.65 248.21 1115.9 247.94 1122.71 227.81 1129.54 247.94 1150.79 248.21 1133.76 260.91 1140.06 281.2"/>
            <path class="cls-4" d="M1240.52,641.18c-13.63,8.46-29.74,13.35-46.97,13.35s-33.36-4.91-46.99-13.35l-10.41,16.81-30.08-18.63s-5.53,8.97-10.52,17c-17.54-9.68-37.69-15.18-59.16-15.18-23.65,0-45.73,6.67-64.44,18.28,0,0,13.35,21.66,17.44,28.27,13.67-8.46,29.76-13.36,47-13.36s33.33,4.9,46.99,13.36l10.44-16.9,29.73,18.42c1.76-2.83,6.54-10.27,10.73-16.79,17.57,9.73,37.77,15.14,59.26,15.14,23.65,0,45.73-6.56,64.47-18.16,0,0-14.14-22.81-17.5-28.26"/>
            <path class="cls-2" d="M1075.4,672.77h0c4.24,1.71,5.5-1.42,6.79-4.64,1.33-3.23,2.56-6.33-1.67-8.04-4.21-1.71-5.48,1.37-6.8,4.63-1.29,3.21-2.56,6.33,1.68,8.06M1076.14,670.95h0c-1.44-.6-1.08-2.05.19-5.18,1.26-3.14,2.01-4.44,3.46-3.85,1.45.6,1.08,2.03-.2,5.18-1.27,3.12-1.99,4.42-3.44,3.86M1060.26,667.53h0l4.31,1.24c4.55,1.3,5.53-3.27,6.1-5.22,1.14-3.95,1.16-6.48-2.32-7.45l-4.45-1.3-3.64,12.74ZM1065.99,657.53h0l1.37.39c1.86.52,1.27,2.58.6,4.93-.91,3.18-1.58,4.31-3.2,3.85l-1.3-.37,2.53-8.8ZM1047.8,665.56h0c4.52.65,4.99-2.69,5.48-6.13.5-3.46.96-6.77-3.56-7.41-4.52-.62-4.99,2.69-5.48,6.15-.49,3.44-.95,6.77,3.57,7.39M1048.09,663.63h0c-1.55-.24-1.55-1.71-1.06-5.06.46-3.36.88-4.79,2.4-4.58,1.55.24,1.55,1.71,1.09,5.08-.49,3.36-.88,4.76-2.43,4.57M1032.28,664.64h0l4.52.07c4.73.11,4.5-4.56,4.53-6.62.08-4.11-.57-6.53-4.19-6.61l-4.63-.08-.23,13.23ZM1035.25,653.5h0l1.42.04c1.94.03,1.89,2.16,1.83,4.59-.05,3.33-.39,4.6-2.09,4.55l-1.32-.03.16-9.15ZM1025.9,660.29h0l-2.64.31.6-5.82h.03l2.02,5.5ZM1022.56,665.7h0l.38-2.99,3.75-.45,1.09,2.82,2.89-.33-5.14-12.71-3.62.42-2.07,13.58,2.72-.33ZM1008.54,654.98h0l.44,2.14,3.02-.65,2.3,10.81,2.71-.58-2.3-10.8,2.99-.63-.43-2.16-8.73,1.88ZM1008.89,664.64h0c-1.34-3.95-6.53-1.93-7.36-4.29-.28-.88.05-1.52.91-1.8,1.06-.37,1.52.54,1.86,1.46l2.53-.88c-.72-2.69-2.38-3.37-4.94-2.5-3.18,1.09-3.57,2.97-2.9,4.94,1.27,3.7,6.58,2.03,7.37,4.3.28.82.04,1.54-.83,1.86-1.45.5-1.84-.48-2.25-1.69l-2.61.91c.6,2.19,1.87,3.9,5.12,2.8,1.98-.7,4.23-1.89,3.1-5.12M1000.06,671.35h0l-.88-1.83-4.13,2.01-1.68-3.49,3.69-1.78-.87-1.84-3.7,1.78-1.42-2.94,4.01-1.94-.88-1.84-6.51,3.16,5.77,11.91,6.61-3.21ZM1118.57,674.97h0c3.85,2.43,5.66-.41,7.52-3.33,1.86-2.97,3.64-5.78-.21-8.22-3.85-2.45-5.64.36-7.52,3.34-1.83,2.91-3.64,5.75.21,8.21M1119.64,673.29h0c-1.32-.83-.7-2.18,1.11-5.05,1.81-2.85,2.77-3.99,4.08-3.17,1.32.86.69,2.2-1.11,5.08-1.81,2.86-2.76,3.97-4.08,3.14M1112.04,670.58h0l7.11-11.18-2.35-1.48-7.08,11.15,2.32,1.51ZM1105.39,659.89h0l.62.35c1.79,1.13.96,2.2.11,3.54-.47.73-1.01,1.44-1.12,2.33l2.27,1.45c.08-.6,1.37-2.73,1.84-3.46,1.26-2.02-.18-3.1-.65-3.47l.03-.05c1.68.73,2.9,0,3.8-1.43,1.22-1.91.85-3.56-.75-4.57l-4.31-2.74-7.11,11.16,2.35,1.5,2.91-4.62ZM1108.47,655.05h0l1.03.64c.75.46.93,1.17.26,2.23-.43.72-1.29,1.48-2.22.88l-1.04-.65,1.96-3.1ZM1238.53,668.61h0c4.22-1.77,2.9-4.88,1.55-8.09-1.37-3.2-2.69-6.28-6.87-4.49-4.21,1.77-2.92,4.85-1.55,8.06,1.37,3.21,2.69,6.3,6.87,4.52M1237.79,666.79h0c-1.45.62-2.2-.66-3.54-3.78-1.32-3.12-1.71-4.55-.26-5.17,1.42-.6,2.17.69,3.51,3.79,1.32,3.14,1.71,4.56.28,5.16M1224.27,667.56h0l.69-.2c2.04-.63,2.27.69,2.74,2.22.24.83.44,1.7,1.01,2.37l2.6-.8c-.41-.44-1.18-2.82-1.41-3.62-.7-2.31-2.46-1.91-3.05-1.8l-.02-.03c1.65-.8,1.91-2.19,1.42-3.82-.65-2.19-2.15-2.99-3.95-2.45l-4.91,1.48,3.82,12.69,2.63-.8-1.57-5.24ZM1222.65,662.08h0l1.17-.37c.85-.26,1.49.06,1.86,1.27.23.8.26,1.94-.8,2.27l-1.16.33-1.06-3.51ZM1219.88,674.51h0l-2.76-12.94-2.71.56,2.76,12.95,2.71-.57ZM1214.72,675.57h0l-.34-2-4.53.71-.61-3.84,4.06-.61-.31-2.02-4.06.65-.52-3.25,4.41-.69-.32-2.02-7.13,1.13,2.06,13.09,7.29-1.17ZM1196.24,677.45h0l-.44-9.66h.03l4.05,9.51,3.65-.19-.6-13.2-2.58.11.41,9.14h-.02s-3.95-9-3.95-9l-3.72.19.6,13.23,2.59-.14ZM1186.78,672.36h0l-2.63-.18,1.65-5.6h.05l.93,5.79ZM1182.5,677.04h0l.95-2.88,3.77.26.52,2.99,2.91.2-2.66-13.45-3.65-.26-4.58,12.94,2.72.19ZM1177.2,662.98h0l-1.63,10.2c-.08.56-.59,1.07-1.22.96-1.44-.22-.95-1.73-.77-2.79l-2.79-.43c-.49,2.96-.57,4.56,3.26,5.18,1.94.32,3.93-.39,4.29-2.65l1.6-10.03-2.74-.44ZM1162.66,673.24h0l.61-1.95-4.39-1.4,1.16-3.65,3.9,1.24.62-1.98-3.93-1.2.98-3.13,4.27,1.34.62-1.94-6.9-2.17-3.98,12.6,7.03,2.23ZM1143.77,665.9h0l4.08,1.86c4.32,1.97,5.97-2.4,6.8-4.25,1.73-3.76,2.12-6.24-1.19-7.73l-4.21-1.94-5.47,12.06ZM1150.92,656.87l1.29.59c1.76.78.88,2.74-.15,4.96-1.37,3.02-2.2,4.02-3.72,3.33l-1.21-.57,3.8-8.32Z"/>
            <path class="cls-7" d="M1203.81,402.19h0c-2.04.52,1.63-3.7,5.17-1.13,0,0-3.4.67-5.17,1.13M1220.95,406.36c-.76-2.32-2.93-7.09-10.15-5.71-1.24-2.48-6.92-1.54-12.18-.08-5.26,1.45-15.29,5.55-19.65,7.01-4.36,1.46-11.29,2.37-13.61,1.07.44,1.42,1.8,2.23,3.33,2.79-.44.01-1,0-1.63-.06-2.17-.6-5.27-2.08-7.08-5.68-2.18-4.35-1.9-8.3-3.43-11.11-1.52-2.8-2.37-7.14-10-7.14s-24.57,6.13-39.34,9.88c-14.77,3.75-40.25,10.88-51.59,13.85-11.34,2.97-33.75,6.04-41.9,6.04,13.99,11.02,42.23,5.44,48.87,4.51-3.26,1.09-22.88,5.14-22.4,5.69.26,1.86,12.31,4.61,35.77-2.67-3.87,2.69-13.17,5.84-20.19,7.83-.45.13.36.52,1.64.84,4.04.83,13.79,1.73,33.85-5.38-4.57,2.43-13.77,5.95-20.57,8.14-3.78,1.22,6.42,2.17,13.91.72,7.85-1.51,14.71-5.06,19.99-5.7l3.97-.35c-7.98,1.45-27.87,11.25-34.28,14.83-7.27,4.07-21.34,9.77-28.32,10.5,2.8,2.65,11.16,6.54,17.6,8.21,7.11,1.83,18.32,2.73,27.89,1.18,3.21-7.71,15.7-15.55,21.47-17.74-6.58,5.86-6.63,9.92-6.87,13.81-.02,3.39,2.14,7.71,2.56,10.84h8.65c-.09-2.18-.21-6.69.05-9.88.36-4.36,2.18-7.99,6.89-11.25-1.81,2.9-.61,9.61.37,13.07.88,3.13,1.87,6.19,2.78,8.07h9.03c-1.69-2.6-1.96-11.25-1.27-14.12.86-3.58,7.4-8.44,12.69-11.73,5.29-3.29,14.98-5.86,21.08-7.62,6.1-1.76,9-2.98,10.45-4.14,2.47-1.64,4.53-4.73,7.59-7.94.99-.9,1.84-1.82,1.85-1.84.03,0,6.67-6.92,17.5-11.52,2.75-1.17,8.45-2.6,10.76-2.45,2.3.15,3.58.75,4.97,2.06.17-2.34-.32-4.55-1.05-6.8"/>
            <path class="cls-7" d="M1187.81,430.17c-.22.12-.78.59-2.19,2.4,0,0-.09.1-.21.25-2.94,3.92-6.73,6.18-11.15,7.48-5.12,1.51-16.22,4.06-23.55,7.41,5.05.17,25.06,2.18,32.57,1.26,7.5-.93,15.6-5.01,15.91-11.17.29-5.93-5.46-7.79-11.37-7.63"/>
          </g>
          <g>
            <path class="cls-10" d="M1384.34,464.6h0v23.44h16.98c6.88,0,12.12-.9,15.7-2.68,3.59-1.78,5.38-4.97,5.38-9.59,0-3.88-1.37-6.71-4.1-8.49-2.74-1.78-6.7-2.67-11.89-2.67h-22.07ZM1385.19,516.19v38.85c0,1.26-.43,2.35-1.27,3.3-.85.95-1.89,1.41-3.11,1.41h-31.41c-1.13,0-2.12-.46-2.97-1.41-.85-.95-1.27-2.04-1.27-3.3v-113.86c0-1.26.42-2.36,1.27-3.31.85-.94,1.84-1.42,2.97-1.42h71.03c12.17,0,21.93,2.99,29.28,8.97,7.92,6.5,11.89,15.04,11.89,25.63,0,11.96-3.26,20.6-9.76,25.95-1.61,1.37-3.47,2.65-5.59,3.86-2.12,1.21-4.46,2.28-7,3.22,3.02,1.78,5.59,3.72,7.71,5.82,2.12,2.1,3.89,4.19,5.3,6.29l19.39,36.32c.94,1.79,1.01,3.45.21,4.96-.8,1.52-2.1,2.28-3.89,2.28h-35.94c-.76,0-1.49-.25-2.19-.78-.71-.52-1.25-1.15-1.63-1.89l-18.11-37.43.14.32c-.37-.53-.78-1.05-1.2-1.58-.42-.53-.87-.95-1.34-1.26-.76-.63-3.68-.95-8.78-.95h-13.72Z"/>
            <path class="cls-10" d="M1482.25,559.75c-1.04,0-1.91-.47-2.61-1.41-.71-.95-1.06-2.04-1.06-3.3v-113.87c0-1.26.35-2.36,1.06-3.3.71-.94,1.58-1.42,2.61-1.42h26.32c1.04,0,1.91.47,2.62,1.42.71.94,1.06,2.04,1.06,3.3v113.87c0,1.26-.35,2.35-1.06,3.3-.71.94-1.58,1.41-2.62,1.41h-26.32Z"/>
            <path class="cls-10" d="M1605.28,477.58h0c-4.67-4.57-11.44-6.84-20.3-6.84s-15.61,2.28-20.24,6.84c-4.62,4.56-6.93,11.35-6.93,20.36s2.31,15.81,6.93,20.37c4.62,4.56,11.37,6.84,20.24,6.84s15.63-2.28,20.3-6.84c4.67-4.56,7.01-11.34,7.01-20.37s-2.34-15.8-7.01-20.36M1634.64,545.91c-11.23,10.48-27.78,15.73-49.66,15.73s-38.44-5.25-49.66-15.73c-11.23-10.48-16.83-26.47-16.83-47.97s5.61-37.51,16.83-48.05c11.22-10.53,27.78-15.81,49.66-15.81s38.44,5.27,49.66,15.81c11.22,10.54,16.83,26.55,16.83,48.05s-5.61,37.49-16.83,47.97"/>
            <path class="cls-10" d="M1774.86,480.01h0c-3.3-4.08-8.16-6.13-14.57-6.13h-24.9v48.44h23.77c6.8,0,11.93-2.02,15.42-6.06,3.49-4.03,5.23-10.04,5.23-18s-1.65-14.15-4.95-18.25M1761.42,436.45c16.88,0,30.61,5.72,41.17,17.14,10.47,11.32,15.71,26.16,15.71,44.51s-5.28,32.71-15.85,44.34c-10.47,11.54-23.96,17.3-40.47,17.3h-62.25c-1.23,0-2.26-.46-3.11-1.41-.85-.95-1.27-2.04-1.27-3.3v-113.86c0-1.27.42-2.37,1.27-3.31.85-.94,1.89-1.42,3.11-1.42h61.69Z"/>
            <path class="cls-10" d="M1828.76,559.75c-1.13,0-2.12-.47-2.97-1.41-.85-.95-1.27-2.04-1.27-3.3v-113.87c0-1.26.42-2.36,1.27-3.3.85-.94,1.84-1.42,2.97-1.42h82.49c1.13,0,2.12.47,2.97,1.42.85.94,1.28,2.04,1.28,3.3v22.95c0,1.37-.43,2.52-1.28,3.46-.85.95-1.84,1.42-2.97,1.42h-47.54v12.58h40.61c1.13,0,2.12.48,2.97,1.41.85.95,1.27,2.04,1.27,3.31v22.65c0,1.36-.42,2.52-1.27,3.46-.85.95-1.84,1.42-2.97,1.42l-40.61.15v13.22h51.36c1.22,0,2.24.47,3.04,1.41.8.95,1.2,2.1,1.2,3.46v22.97c0,1.26-.4,2.35-1.2,3.3-.8.94-1.82,1.41-3.04,1.41h-86.31Z"/>
            <path class="cls-10" d="M2040.99,435.19c1.14,0,2.1.47,2.9,1.42.8.94,1.2,2.1,1.2,3.46v80.84c0,12.8-3.96,23.33-11.88,31.61-7.74,7.97-17.78,11.96-30.13,11.96-6.61,0-13.45-1.26-20.52-3.78-3.49-1.25-6.3-2.3-8.42-3.14-2.12-.84-3.65-1.57-4.59-2.2-.48-.32-.93-.86-1.34-1.65-.43-.79-.69-1.44-.78-1.96l-4.1-35.86c-.19-1.26-.05-2.33.42-3.22.48-.89,1.11-1.54,1.92-1.96.8-.43,1.65-.56,2.55-.4.89.16,1.71.71,2.47,1.65,1.5,1.99,4.53,4.4,9.06,7.24,4.15,2.62,8.63,3.93,13.44,3.93,8.86,0,13.3-4.5,13.3-13.52v-69.52c0-1.36.43-2.52,1.28-3.46.85-.95,1.83-1.42,2.97-1.42h30.27Z"/>
            <path class="cls-10" d="M2099.01,513.98h26.32l-12.73-27.36-13.58,27.36ZM2149.24,559.75c-.66,0-1.39-.26-2.19-.79-.8-.52-1.34-1.15-1.63-1.88l-7.21-15.42h-53.07l-7.21,15.42c-.38.73-.95,1.36-1.7,1.88-.75.53-1.51.79-2.26.79h-29.29c-1.88,0-3.25-.74-4.1-2.2-.85-1.47-.8-3.09.14-4.88l58.15-113.7c.29-.64.85-1.21,1.7-1.74.85-.52,1.56-.78,2.13-.78h25.04c.66,0,1.37.26,2.13.78.75.53,1.31,1.16,1.69,1.89l54.76,113.71c.75,1.78.75,3.37,0,4.79-.76,1.41-2.07,2.13-3.96,2.13h-33.11Z"/>
            <path class="cls-10" d="M2260.45,486.7c2.64,4.04,5.33,8.15,8.06,12.35v-57.88c0-1.26.42-2.36,1.28-3.3.85-.94,1.89-1.42,3.11-1.42h27.59c1.22,0,2.26.47,3.11,1.42.85.94,1.28,2.04,1.28,3.3v113.87c0,1.26-.43,2.35-1.28,3.3-.85.94-1.89,1.41-3.11,1.41h-31.7c-.47,0-1.09-.18-1.83-.55-.76-.37-1.32-.81-1.7-1.34l-39.9-59.76v56.94c0,1.26-.43,2.35-1.28,3.3-.85.94-1.89,1.41-3.11,1.41h-27.59c-1.13,0-2.12-.47-2.97-1.41-.85-.95-1.28-2.04-1.28-3.3v-113.87c0-1.26.43-2.36,1.28-3.3.85-.94,1.84-1.42,2.97-1.42h31.41c.57,0,1.25.21,2.05.63.8.42,1.29.89,1.49,1.41,4.15,6.29,8.18,12.4,12.1,18.32,3.91,5.93,7.9,11.87,11.96,17.85,2.74,3.98,5.42,8,8.07,12.03"/>
            <path class="cls-10" d="M2317.89,559.75c-1.13,0-2.12-.47-2.97-1.41-.86-.95-1.28-2.04-1.28-3.3v-113.87c0-1.26.42-2.36,1.28-3.3.85-.94,1.84-1.42,2.97-1.42h82.49c1.14,0,2.13.47,2.98,1.42.85.94,1.27,2.04,1.27,3.3v22.95c0,1.37-.42,2.52-1.27,3.46-.85.95-1.84,1.42-2.98,1.42h-47.54v12.58h40.61c1.12,0,2.12.48,2.97,1.41.85.95,1.28,2.04,1.28,3.31v22.65c0,1.36-.43,2.52-1.28,3.46-.85.95-1.84,1.42-2.97,1.42l-40.61.15v13.22h51.36c1.23,0,2.24.47,3.04,1.41.8.95,1.21,2.1,1.21,3.46v22.97c0,1.26-.41,2.35-1.21,3.3-.8.94-1.82,1.41-3.04,1.41h-86.31Z"/>
            <path class="cls-10" d="M2418.35,559.75c-1.04,0-1.92-.47-2.62-1.41-.71-.95-1.07-2.04-1.07-3.3v-113.87c0-1.26.35-2.36,1.07-3.3.7-.94,1.58-1.42,2.62-1.42h26.31c1.04,0,1.91.47,2.62,1.42.71.94,1.07,2.04,1.07,3.3v113.87c0,1.26-.36,2.35-1.07,3.3-.71.94-1.58,1.41-2.62,1.41h-26.31Z"/>
            <path class="cls-10" d="M2493.77,464.6h0v23.44h16.98c6.89,0,12.12-.9,15.7-2.68,3.58-1.78,5.38-4.97,5.38-9.59,0-3.88-1.37-6.71-4.1-8.49-2.74-1.78-6.7-2.67-11.89-2.67h-22.07ZM2494.62,516.19v38.85c0,1.26-.43,2.35-1.28,3.3-.85.95-1.89,1.41-3.11,1.41h-31.41c-1.12,0-2.12-.46-2.97-1.41-.85-.95-1.27-2.04-1.27-3.3v-113.86c0-1.26.42-2.36,1.27-3.31.85-.94,1.84-1.42,2.97-1.42h71.04c12.17,0,21.93,2.99,29.29,8.97,7.92,6.5,11.89,15.04,11.89,25.63,0,11.96-3.26,20.6-9.77,25.95-1.6,1.37-3.46,2.65-5.59,3.86-2.13,1.21-4.46,2.28-7,3.22,3.01,1.78,5.58,3.72,7.71,5.82,2.12,2.1,3.89,4.19,5.3,6.29l19.39,36.32c.94,1.79,1.01,3.45.21,4.96-.8,1.52-2.1,2.28-3.89,2.28h-35.94c-.75,0-1.48-.25-2.19-.78-.71-.52-1.25-1.15-1.62-1.89l-18.11-37.43.14.32c-.38-.53-.78-1.05-1.21-1.58-.42-.53-.87-.95-1.34-1.26-.76-.63-3.68-.95-8.77-.95h-13.72Z"/>
            <path class="cls-10" d="M2659.65,477.58h0c-4.67-4.57-11.43-6.84-20.3-6.84s-15.61,2.28-20.23,6.84c-4.62,4.56-6.94,11.35-6.94,20.36s2.32,15.81,6.94,20.37c4.62,4.56,11.37,6.84,20.23,6.84s15.63-2.28,20.3-6.84c4.67-4.56,7.01-11.34,7.01-20.37s-2.34-15.8-7.01-20.36M2689.02,545.91c-11.23,10.48-27.78,15.73-49.67,15.73s-38.44-5.25-49.66-15.73c-11.22-10.48-16.84-26.47-16.84-47.97s5.61-37.51,16.84-48.05c11.22-10.53,27.78-15.81,49.66-15.81s38.44,5.27,49.67,15.81c11.22,10.54,16.84,26.55,16.84,48.05s-5.61,37.49-16.84,47.97"/>
            <g>
              <path class="cls-1" d="M1344.91,370.43c0-22.24,10.45-31.71,29.11-31.71,11.2,0,17.99,3.65,22.4,8.72l-8.36,9.37c-2.83-2.99-6.49-5.64-14.11-5.64-12.1,0-16.8,6.64-16.8,19.42,0,13.44,3.29,20.08,16.65,20.08,10.75,0,13.89-3.99,13.89-12.61v-1.33h-15.46v-11.28h27.55v10.04c0,17.51-6.27,26.64-26.58,26.64-22.1,0-28.29-11.29-28.29-31.7"/>
              <path class="cls-1" d="M1479.65,370.68h0c0-12.03-4.25-19.5-16.95-19.5s-16.94,7.47-16.94,19.5,4.25,19.59,16.94,19.59,16.95-7.55,16.95-19.59M1433.43,370.43c0-23.07,11.65-31.71,29.27-31.71s29.34,8.64,29.34,31.71-11.72,31.78-29.34,31.78-29.27-8.63-29.27-31.78"/>
              <polygon class="cls-1" points="1522.71 339.72 1535.56 339.72 1551 384.7 1566.38 339.72 1579 339.72 1556.98 401.63 1544.58 401.63 1522.71 339.72"/>
              <polygon class="cls-1" points="1614.82 339.72 1656.4 339.72 1656.4 352.01 1627.06 352.01 1627.06 363.96 1655.66 363.96 1655.66 375.82 1627.06 375.82 1627.06 389.43 1656.7 389.43 1656.7 401.21 1614.82 401.21 1614.82 339.72"/>
              <path class="cls-1" d="M1721.72,369.1h0c6.65,0,9.63-1.82,9.63-8.79s-2.83-8.96-9.78-8.96h-14.26v17.75h14.41ZM1719.7,380.8h-12.39v20.42h-11.95v-61.5h26.73c17.4,0,21.58,8.3,21.58,20.09,0,8.46-2.46,16.26-11.65,19.5l10.97,21.91h-13.06l-10.23-20.42Z"/>
              <polygon class="cls-1" points="1782.26 339.72 1795.47 339.72 1820.93 378.48 1820.93 339.72 1832.58 339.72 1832.58 401.21 1821.38 401.21 1793.97 359.72 1793.97 401.21 1782.26 401.21 1782.26 339.72"/>
              <path class="cls-1" d="M1916.18,370.68h0c0-12.03-4.26-19.5-16.95-19.5s-16.95,7.47-16.95,19.5,4.26,19.59,16.95,19.59,16.95-7.55,16.95-19.59M1869.97,370.43c0-23.07,11.65-31.71,29.27-31.71s29.34,8.64,29.34,31.71-11.72,31.78-29.34,31.78-29.27-8.63-29.27-31.78"/>
              <path class="cls-1" d="M2031.43,389.35h0c15.08,0,18.14-5.06,18.14-18.91s-2.54-18.51-18.37-18.51h-7.76v37.42h7.99ZM2011.2,339.72h19.85c21.8,0,30.84,6.31,30.84,30.71s-9.33,30.78-31.13,30.78h-19.56v-61.49Z"/>
              <path class="cls-1" d="M2142.35,370.68h0c0-12.03-4.25-19.5-16.95-19.5s-16.95,7.47-16.95,19.5,4.26,19.59,16.95,19.59,16.95-7.55,16.95-19.59M2096.13,370.43c0-23.07,11.65-31.71,29.27-31.71s29.34,8.64,29.34,31.71-11.72,31.78-29.34,31.78-29.27-8.63-29.27-31.78"/>
              <polygon class="cls-1" points="2237.37 339.72 2278.95 339.72 2278.95 352.01 2249.61 352.01 2249.61 363.96 2278.2 363.96 2278.2 375.82 2249.61 375.82 2249.61 389.43 2279.25 389.43 2279.25 401.21 2237.37 401.21 2237.37 339.72"/>
              <path class="cls-1" d="M2313.14,394.08l6.11-9.79c5.9,4.4,12.77,6.56,19.86,6.56,10.83,0,12.85-2.32,12.85-7.47s-4.63-6.06-13.14-7.38c-14.78-2.32-22.47-5.32-22.47-18.67s7.46-18.59,23.07-18.59c11.27,0,18.14,2.9,22.39,6.06l-6.57,10.53c-3.51-2.56-10.01-4.73-15.98-4.73-8.66,0-10.75,1.91-10.75,6.39,0,4.98,4.55,5.89,13.36,7.31,13.29,2.15,22.18,4.57,22.18,18.42,0,12.44-6.12,19.42-24.57,19.42-10.97,0-20.09-2.9-26.35-8.05"/>
              <polygon class="cls-1" points="2413.91 352.01 2394.72 352.01 2394.72 339.73 2445.35 339.73 2445.35 352.01 2426.23 352.01 2426.23 401.21 2413.91 401.21 2413.91 352.01"/>
              <path class="cls-1" d="M2505.81,379.89h0l-8.66-24.48-8.66,24.48h17.32ZM2491.25,339.31h12.39l22.32,61.9h-12.69l-3.58-10.12h-25.09l-3.58,10.12h-11.94l22.17-61.9Z"/>
              <path class="cls-1" d="M2582.02,389.35h0c15.07,0,18.14-5.06,18.14-18.91s-2.54-18.51-18.37-18.51h-7.76v37.42h7.99ZM2561.79,339.72h19.86c21.8,0,30.83,6.31,30.83,30.71s-9.34,30.78-31.12,30.78h-19.56v-61.49Z"/>
              <path class="cls-1" d="M2692.95,370.68h0c0-12.03-4.26-19.5-16.95-19.5s-16.95,7.47-16.95,19.5,4.25,19.59,16.95,19.59,16.95-7.55,16.95-19.59M2646.73,370.43c0-23.07,11.64-31.71,29.27-31.71s29.34,8.64,29.34,31.71-11.72,31.78-29.34,31.78-29.27-8.63-29.27-31.78"/>
            </g>
          </g>
        </g>
        <g>
          <path class="cls-9" d="M90.6,397.64l3.63-5.54c6.11,3.98,12.43,5.47,18.83,5.47,10.73,0,14.78-2.77,14.78-9.17s-5.75-7.6-14.85-9.1c-12.08-1.99-19.61-4.05-19.61-14.99s6.61-14.64,19.75-14.64c8.88,0,14.99,2.06,19.19,4.83l-3.91,5.9c-3.62-2.41-9.38-4.12-15.28-4.12-9.1,0-12.65,2.34-12.65,7.89,0,5.97,5.19,7.11,14.28,8.67,11.8,1.99,20.18,3.77,20.18,15.21,0,10.52-6.46,15.85-21.67,15.85-8.6,0-16.13-1.85-22.67-6.25"/>
          <path class="cls-9" d="M141.91,383.36c0-11.37,3.48-20.61,19.26-20.61s16.84,11.3,16.63,23.31h-29.2c.43,7.18,2.91,11.94,12.72,11.94,6.39,0,9.52-1.64,12.58-3.91l3.69,4.83c-4.19,3.27-8.81,5.04-16.27,5.04-16.2,0-19.4-9.17-19.4-20.61M148.66,379.95h22.59c-.35-6.25-.92-11.08-10.3-11.08s-11.73,4.4-12.29,11.08"/>
          <path class="cls-9" d="M184.55,383.36c0-12.22,4.05-20.61,19.54-20.61,7.03,0,11.65,2.49,14.71,5.9l-5.04,4.76c-1.85-1.92-4.62-3.98-9.66-3.98-9.73,0-12.58,5.26-12.58,14.07s2.7,14.21,12.58,14.21c4.26,0,7.03-1.35,10.02-4.05l4.62,4.41c-4.05,3.76-7.96,5.83-14.92,5.83-15.13,0-19.26-8.31-19.26-20.54"/>
          <path class="cls-9" d="M226.91,364.03l5.47-.36.71,4.83c1.56-2.84,6.4-5.19,13.36-5.33v6.96c-9.52.07-12.58,4.97-12.58,12.22v20.82h-6.96v-39.15Z"/>
          <path class="cls-9" d="M251.35,383.36c0-11.37,3.48-20.61,19.26-20.61s16.84,11.3,16.63,23.31h-29.2c.43,7.18,2.91,11.94,12.72,11.94,6.39,0,9.52-1.64,12.58-3.91l3.69,4.83c-4.19,3.27-8.81,5.04-16.27,5.04-16.2,0-19.4-9.17-19.4-20.61M258.1,379.95h22.59c-.35-6.25-.92-11.08-10.3-11.08s-11.73,4.4-12.29,11.08"/>
          <path class="cls-9" d="M292.86,363.68h7.18l1.21-11.23,5.47-1.07v12.29h10.45v6.25h-10.45v21.53c0,3.48.43,5.61,5.68,5.61h4.76v6.11c-.86.07-4.9.07-5.97.07-9.38,0-11.37-3.55-11.37-10.87v-22.45h-6.96v-6.25Z"/>
          <path class="cls-9" d="M323.27,391.96c0-11.23,6.32-14.5,26.08-14.5h2.13c-.14-5.68-1.49-8.24-9.88-8.24-4.98,0-9.17,1.78-11.65,3.34l-3.62-5.4c2.63-1.78,8.88-4.41,15.92-4.41,13.5,0,15.92,4.62,15.92,15.84v14.07c0,3.84.28,4.41,3.91,4.41v6.04c-.5.14-1.42.14-2.84.14-4.33,0-5.76-1.21-6.75-4.48-2.34,3.34-6.61,5.12-15.06,5.12-11.37,0-14.14-5.26-14.14-11.94M351.48,385.77v-2.42h-1.78c-16.27,0-19.82,1.85-19.82,8.1,0,4.19,1.92,6.47,8.67,6.47,9.17,0,12.93-3.7,12.93-12.15"/>
          <path class="cls-9" d="M370.18,364.03l5.47-.36.71,4.83c1.56-2.84,6.4-5.19,13.36-5.33v6.96c-9.52.07-12.58,4.97-12.58,12.22v20.82h-6.96v-39.15Z"/>
          <path class="cls-9" d="M396.9,350.53h6.96v8.38h-6.96v-8.38ZM396.97,363.68h6.82v39.51h-6.82v-39.51Z"/>
          <path class="cls-9" d="M412.11,391.96c0-11.23,6.32-14.5,26.08-14.5h2.13c-.14-5.68-1.49-8.24-9.88-8.24-4.98,0-9.17,1.78-11.65,3.34l-3.62-5.4c2.63-1.78,8.88-4.41,15.92-4.41,13.5,0,15.92,4.62,15.92,15.84v14.07c0,3.84.28,4.41,3.91,4.41v6.04c-.5.14-1.42.14-2.84.14-4.33,0-5.76-1.21-6.75-4.48-2.34,3.34-6.61,5.12-15.06,5.12-11.37,0-14.14-5.26-14.14-11.94M440.32,385.77v-2.42h-1.78c-16.27,0-19.82,1.85-19.82,8.1,0,4.19,1.92,6.47,8.67,6.47,9.17,0,12.93-3.7,12.93-12.15"/>
          <path class="cls-9" d="M473.44,383.22c0-12.01,3.84-20.39,17.2-20.39,8.24,0,12.22,1.56,14.14,4.76v-19.54h6.96v54.86l-5.33.5-.78-4.62c-2.49,3.48-6.75,5.12-15.21,5.12-13.22,0-16.98-8.53-16.98-20.68M504.78,383.22c0-10.37-3.34-13.93-12.86-13.93s-11.44,5.33-11.44,13.93,2.35,14.35,11.44,14.35,12.86-3.91,12.86-14.35"/>
          <path class="cls-9" d="M520.06,383.36c0-11.37,3.48-20.61,19.26-20.61s16.84,11.3,16.63,23.31h-29.2c.43,7.18,2.91,11.94,12.72,11.94,6.39,0,9.52-1.64,12.58-3.91l3.69,4.83c-4.19,3.27-8.81,5.04-16.27,5.04-16.2,0-19.4-9.17-19.4-20.61M526.81,379.95h22.59c-.35-6.25-.92-11.08-10.3-11.08s-11.73,4.4-12.29,11.08"/>
          <path class="cls-9" d="M90.46,454.99c0-18.9,10.3-27.14,27.78-27.14,9.59,0,15.7,2.56,20.68,7.6l-8.03,8.03c-3.2-3.13-6.96-4.98-12.72-4.98-11.23,0-15.99,5.68-15.99,16.63s3.98,16.63,16.06,16.63c6.82,0,10.09-2.27,13.36-5.33l7.67,7.53c-4.19,4.33-9.81,8.17-21.74,8.17-19.68,0-27.07-9.73-27.07-27.14"/>
          <path class="cls-9" d="M146.17,462.59v-21.46h11.16v21.67c0,5.61.14,9.52,8.1,9.52s8.03-3.98,8.03-9.59v-21.6h10.94v21.39c0,13.78-3.69,19.47-19.04,19.47s-19.19-5.61-19.19-19.4"/>
          <path class="cls-9" d="M193.43,469.2v-42.99h11.08v41.64c0,3.27.64,4.19,3.98,4.19h1.35v9.17c-.92.14-3.13.29-5.4.29-7.25,0-11.01-2.77-11.01-12.29"/>
          <path class="cls-9" d="M214.61,441.14h7.11l1.92-9.81,8.67-1.78v11.58h9.52v9.52h-9.52v16.55c0,3.13.43,4.83,5.19,4.83h4.33v9.31c-1.63.14-4.62.14-6.61.14-10.87,0-14-3.69-14-12.65v-18.19h-6.61v-9.52Z"/>
          <path class="cls-9" d="M249.22,462.59v-21.46h11.16v21.67c0,5.61.14,9.52,8.1,9.52s8.03-3.98,8.03-9.59v-21.6h10.94v21.39c0,13.78-3.69,19.47-19.04,19.47s-19.19-5.61-19.19-19.4"/>
          <path class="cls-9" d="M296.06,441.78l8.67-.64,1.14,4.41c1.7-2.56,6.61-4.62,12.86-4.83v10.66c-9.45.07-11.51,3.77-11.51,10.09v19.9h-11.15v-39.58Z"/>
          <path class="cls-9" d="M322.14,469.56c0-11.37,7.96-14.07,25.79-14.07h1.63c-.07-3.62-.99-5.47-7.96-5.47-4.9,0-9.24,1.78-11.65,3.27l-5.54-8.17c2.84-1.92,9.95-4.9,18.4-4.9,14.5,0,17.48,4.62,17.48,15.99v12.22c0,3.2.21,3.69,3.48,3.69v9.1c-.78.21-2.2.29-4.69.29-4.26,0-6.11-.86-7.68-3.98-2.06,2.77-6.54,4.48-14.14,4.48-12.43,0-15.13-5.4-15.13-12.43M349.56,464.66v-1.49h-.92c-14.21,0-15.92,1.14-15.92,5.47,0,2.98,1.64,4.41,6.75,4.41,7.04,0,10.09-2.49,10.09-8.38"/>
          <path class="cls-9" d="M383.96,461.17c0-11.23,3.7-20.96,20.89-20.96s18.26,11.8,17.91,25.22h-28c.64,4.83,2.99,7.68,10.16,7.68,6.18,0,9.66-1.49,12.65-3.69l5.61,7.25c-5.19,3.91-10.3,5.47-18.26,5.47-17.41,0-20.96-9.52-20.96-20.96M394.77,457.48h17.84c-.28-4.62-1.21-7.96-8.1-7.96s-9.17,3.05-9.73,7.96"/>
          <polygon class="cls-9" points="446.01 428.7 485.59 428.7 485.59 439.22 457.66 439.22 457.66 449.45 484.87 449.45 484.87 459.61 457.66 459.61 457.66 471.26 485.87 471.26 485.87 481.35 446.01 481.35 446.01 428.7"/>
          <path class="cls-9" d="M492.06,461.17c0-11.65,3.77-20.96,21.1-20.96,7.25,0,12.65,2.41,16.34,6.54l-7.82,7.39c-1.71-1.78-3.98-3.69-8.53-3.69-7.96,0-9.88,4.33-9.88,11.01s1.78,11.16,9.95,11.16c3.77,0,6.25-1.21,9.1-3.91l7.11,6.82c-4.69,4.33-8.67,6.46-16.77,6.46-16.63,0-20.61-9.02-20.61-20.82"/>
          <path class="cls-9" d="M533.78,461.17c0-13.5,5.9-20.96,21.03-20.96s20.96,7.46,20.96,20.96-5.83,20.96-20.96,20.96-21.03-7.46-21.03-20.96M564.61,461.46c0-6.82-2.13-11.08-9.81-11.08s-9.8,4.26-9.8,11.08,2.06,11.16,9.8,11.16,9.81-4.33,9.81-11.16"/>
          <path class="cls-9" d="M582.67,441.78l8.67-.64.92,3.48c2.13-2.34,6.04-4.41,14.57-4.41,12.15,0,14.42,6.75,14.42,16.77v24.37h-11.08v-22.17c0-4.9-.57-8.46-7.32-8.46-7.75,0-9.03,3.63-9.03,8.95v21.67h-11.15v-39.58Z"/>
          <path class="cls-9" d="M627.94,461.17c0-13.5,5.9-20.96,21.03-20.96s20.96,7.46,20.96,20.96-5.83,20.96-20.96,20.96-21.03-7.46-21.03-20.96M658.78,461.46c0-6.82-2.13-11.08-9.81-11.08s-9.8,4.26-9.8,11.08,2.06,11.16,9.8,11.16,9.81-4.33,9.81-11.16"/>
          <path class="cls-9" d="M676.84,441.78l8.67-.64.92,3.48c1.78-2.42,6.04-4.41,14.14-4.41,8.81,0,10.44,1.99,11.72,4.55,2.06-2.63,6.47-4.55,14.92-4.55,12.15,0,14.07,6.75,14.07,16.77v24.37h-11.23v-22.17c0-4.9-.07-8.46-6.82-8.46-7.75,0-8.6,3.63-8.6,8.95v21.67h-11.16v-22.17c0-4.9-.14-8.46-6.89-8.46-7.75,0-8.6,3.63-8.6,8.95v21.67h-11.15v-39.58Z"/>
          <path class="cls-9" d="M750.18,427.28h11.23v10.16h-11.23v-10.16ZM750.25,441.14h11.08v40.22h-11.08v-40.22Z"/>
          <path class="cls-9" d="M768.02,469.56c0-11.37,7.96-14.07,25.79-14.07h1.63c-.07-3.62-.99-5.47-7.96-5.47-4.9,0-9.24,1.78-11.65,3.27l-5.54-8.17c2.84-1.92,9.95-4.9,18.4-4.9,14.5,0,17.48,4.62,17.48,15.99v12.22c0,3.2.21,3.69,3.48,3.69v9.1c-.78.21-2.2.29-4.69.29-4.26,0-6.11-.86-7.68-3.98-2.06,2.77-6.54,4.48-14.14,4.48-12.43,0-15.13-5.4-15.13-12.43M795.44,464.66v-1.49h-.92c-14.21,0-15.92,1.14-15.92,5.47,0,2.98,1.64,4.41,6.75,4.41,7.03,0,10.09-2.49,10.09-8.38"/>
          <path class="cls-9" d="M90.46,533.17c0-18.9,10.3-27.14,27.78-27.14,9.59,0,15.7,2.56,20.68,7.6l-8.03,8.03c-3.2-3.13-6.96-4.98-12.72-4.98-11.23,0-15.99,5.69-15.99,16.63s3.98,16.63,16.06,16.63c6.82,0,10.09-2.27,13.36-5.33l7.67,7.53c-4.19,4.34-9.81,8.17-21.74,8.17-19.68,0-27.07-9.73-27.07-27.14"/>
          <path class="cls-9" d="M146.39,519.95l8.67-.64,1.14,4.41c1.7-2.56,6.61-4.62,12.86-4.83v10.66c-9.45.07-11.51,3.77-11.51,10.09v19.9h-11.15v-39.58Z"/>
          <path class="cls-9" d="M175.45,505.46h11.23v10.16h-11.23v-10.16ZM175.52,519.32h11.08v40.22h-11.08v-40.22Z"/>
          <path class="cls-9" d="M193.29,547.74c0-11.37,7.96-14.07,25.79-14.07h1.63c-.07-3.62-.99-5.47-7.96-5.47-4.9,0-9.24,1.78-11.65,3.27l-5.54-8.17c2.84-1.92,9.95-4.9,18.4-4.9,14.5,0,17.48,4.62,17.48,15.99v12.22c0,3.2.21,3.69,3.48,3.69v9.1c-.78.21-2.2.29-4.69.29-4.26,0-6.11-.86-7.68-3.98-2.06,2.77-6.54,4.48-14.14,4.48-12.43,0-15.13-5.4-15.13-12.43M220.72,542.83v-1.49h-.92c-14.21,0-15.92,1.14-15.92,5.47,0,2.98,1.64,4.41,6.75,4.41,7.04,0,10.09-2.49,10.09-8.38"/>
          <path class="cls-9" d="M239.13,519.31h7.11l1.92-9.81,8.67-1.78v11.58h9.52v9.52h-9.52v16.55c0,3.13.43,4.83,5.19,4.83h4.33v9.31c-1.63.14-4.62.14-6.61.14-10.87,0-14-3.69-14-12.65v-18.19h-6.61v-9.52Z"/>
          <path class="cls-9" d="M274.31,505.46h11.23v10.16h-11.23v-10.16ZM274.38,519.32h11.08v40.22h-11.08v-40.22Z"/>
          <polygon class="cls-9" points="290.3 519.31 302.31 519.31 312.47 546.6 322.63 519.31 333.93 519.31 317.94 559.96 306.29 559.96 290.3 519.31"/>
          <path class="cls-9" d="M335.71,547.74c0-11.37,7.96-14.07,25.79-14.07h1.63c-.07-3.62-.99-5.47-7.96-5.47-4.9,0-9.24,1.78-11.65,3.27l-5.54-8.17c2.84-1.92,9.95-4.9,18.4-4.9,14.5,0,17.48,4.62,17.48,15.99v12.22c0,3.2.21,3.69,3.48,3.69v9.1c-.78.21-2.2.29-4.69.29-4.26,0-6.11-.86-7.68-3.98-2.06,2.77-6.54,4.48-14.14,4.48-12.43,0-15.13-5.4-15.13-12.43M363.14,542.83v-1.49h-.92c-14.21,0-15.92,1.14-15.92,5.47,0,2.98,1.64,4.41,6.75,4.41,7.03,0,10.09-2.49,10.09-8.38"/>
        </g>
      </g>
    </g>
  </g>
</svg>